<svg width="318" height="31" viewBox="0 0 318 31" fill="none" xmlns="http://www.w3.org/2000/svg">
<path d="M62.8221 15.7383L56.4833 30.748H44.5712L56.8671 1.64258L62.8221 15.7383Z" fill="white" stroke="#008F00" stroke-width="0.5"/>
<path d="M82.1649 30.748H70.2528L63.913 15.7383L69.868 1.6416L82.1649 30.748Z" fill="white" stroke="#008F00" stroke-width="0.5"/>
<path d="M69.1661 30.748H57.5704L63.3683 17.0273L69.1661 30.748Z" fill="white" stroke="#008F00" stroke-width="0.5"/>
<path d="M92.3885 1.25V10.3994H83.2391V1.25H92.3885Z" fill="white" stroke="#008F00" stroke-width="0.5"/>
<path d="M100.799 11.3958V20.5452H83.2393V11.3958H100.799Z" fill="white" stroke="#008F00" stroke-width="0.5"/>
<path d="M109.21 21.5416V30.7477H83.2393V21.5416H109.21Z" fill="white" stroke="#008F00" stroke-width="0.5"/>
<path d="M124.392 16.5187L134.641 26.7697C131.903 29.3395 128.426 30.7482 124.569 30.7482C120.625 30.7482 116.92 29.213 114.134 26.4269C111.352 23.6391 109.819 19.8591 109.819 16.0002C109.819 12.2253 111.226 8.66824 113.795 5.92401L124.392 16.5187Z" fill="white" stroke="#008F00" stroke-width="0.5"/>
<path d="M124.569 1.25C128.339 1.25011 131.893 2.6558 134.635 5.2207L124.568 15.2881L114.5 5.2207C117.242 2.6554 120.798 1.25 124.569 1.25Z" fill="white" stroke="#008F00" stroke-width="0.5"/>
<path d="M6.81738 1.33911L11.6387 13.7512H10.0264L8.73047 10.4036L8.66895 10.2434H3.34375L3.28223 10.4036L1.99512 13.7512H0.366211L5.23145 1.33911H6.81738ZM5.78711 3.23853L3.64648 8.89478L3.51855 9.23267H8.45703L8.33301 8.89673L6.25488 3.24048L6.02441 2.61157L5.78711 3.23853Z" fill="white" stroke="#008F00" stroke-width="0.5"/>
<path d="M18.5173 1.25201C19.3518 1.25201 20.1752 1.4344 20.9216 1.79596C21.6742 2.16054 22.2982 2.63836 22.7986 3.22955C23.3043 3.82714 23.7029 4.50353 23.9949 5.26178C24.2635 5.95956 24.4077 6.66683 24.4285 7.38483V7.56158C24.4284 8.37153 24.2836 9.15332 23.9968 9.90436C23.7079 10.6577 23.301 11.323 22.7722 11.9024L22.6218 12.0674L22.7683 12.2354L24.0925 13.7491H22.7937L22.0339 12.8917L21.8865 12.7247L21.7039 12.8526C20.7661 13.5081 19.6949 13.8368 18.4822 13.837C17.7873 13.831 17.1294 13.714 16.5076 13.4854C15.8817 13.2561 15.3365 12.9402 14.864 12.5391H14.865C14.3887 12.1331 13.9746 11.6664 13.6228 11.1387C13.2727 10.6136 13.0075 10.0409 12.824 9.42194C12.6405 8.80317 12.5505 8.17704 12.5505 7.54498C12.5506 6.8269 12.667 6.13038 12.9011 5.45416L13.0085 5.1651C13.3138 4.39599 13.7302 3.72554 14.2537 3.14948C14.7748 2.57792 15.407 2.11682 16.1541 1.76959C16.896 1.42477 17.6824 1.25205 18.5173 1.25201ZM18.4998 2.58893C17.9397 2.58893 17.3768 2.6989 16.865 2.92291L16.6492 3.02545C16.0878 3.3127 15.6233 3.6942 15.2556 4.16998C14.8932 4.63692 14.6153 5.16412 14.4167 5.74713C14.2174 6.33232 14.1199 6.93275 14.1199 7.54498C14.1199 8.28926 14.2511 8.99621 14.5144 9.65924L14.6355 9.94049C14.9821 10.6913 15.4948 11.3046 16.1707 11.7794C16.7022 12.1528 17.2906 12.378 17.9333 12.461L17.8943 12.501H18.4978C19.3384 12.501 20.0931 12.2773 20.7527 11.8282L20.9861 11.669L20.7996 11.4571L19.3083 9.75787H20.6062L21.4724 10.7471L21.6814 10.9854L21.865 10.7276C22.5188 9.80545 22.8425 8.74316 22.8425 7.54498C22.8425 6.90788 22.7377 6.29107 22.53 5.69537C22.3231 5.10198 22.0388 4.57638 21.6736 4.11725C21.3039 3.6525 20.8437 3.28092 20.2937 3.00592H20.2947C19.7399 2.7264 19.1402 2.58898 18.4998 2.58893Z" fill="white" stroke="#008F00" stroke-width="0.5"/>
<path d="M28.3606 1.33911V7.63403C28.3606 8.13851 28.3987 8.61402 28.4719 9.06372C28.5276 9.40552 28.614 9.73791 28.7307 10.0598L28.8577 10.3792C29.0417 10.8047 29.2748 11.1703 29.554 11.4778L29.5549 11.4797C29.8434 11.7928 30.2091 12.0407 30.6467 12.2249C31.0915 12.4119 31.5893 12.5012 32.137 12.5012C32.6846 12.5012 33.1948 12.4104 33.6418 12.2209C34.082 12.0345 34.4498 11.7813 34.7385 11.4612C35.0208 11.1483 35.2496 10.7773 35.4309 10.3528C35.611 9.93108 35.7358 9.4963 35.8079 9.04712C35.8791 8.60263 35.9124 8.13097 35.9124 7.63599V1.33911H37.4719V7.63403C37.4719 8.51951 37.367 9.33108 37.1614 10.0657C36.9563 10.8002 36.6446 11.4536 36.2278 12.0295C35.8199 12.593 35.2712 13.0348 34.5754 13.3567C33.9047 13.667 33.1216 13.8284 32.2229 13.8381H32.137C31.3615 13.8381 30.6748 13.724 30.0715 13.4993C29.4614 13.2719 28.9625 12.9721 28.5696 12.6018C28.1719 12.227 27.8408 11.774 27.5754 11.2395C27.3078 10.7004 27.1145 10.1339 26.9973 9.54419C26.8793 8.94815 26.8196 8.31201 26.8196 7.63403V1.33911H28.3606Z" fill="white" stroke="#008F00" stroke-width="0.5"/>
<path d="M42.2125 1.33911V13.7512H40.6793V1.33911H42.2125Z" fill="white" stroke="#008F00" stroke-width="0.5"/>
<path d="M12.5361 16.2196V19.3163H8.22754V30.7479H4.5918V19.3163H0.25V16.2196H12.5361Z" fill="white" stroke="#008F00" stroke-width="0.5"/>
<path d="M24.5576 16.2196V19.3163H18.1602V21.9344H23.6279V24.7743H18.1602V27.6512H24.7441V30.7479H14.5352V16.2196H24.5576Z" fill="white" stroke="#008F00" stroke-width="0.5"/>
<path d="M31.2625 16.2196L34.4324 23.1434L34.6589 23.6376L34.8865 23.1444L38.0857 16.2196H42.1619V30.7479H38.5369V23.08L38.0593 22.9764L35.6042 28.4012H33.7253L31.2703 22.9764L30.7927 23.08V30.7479H27.1677V16.2196H31.2625Z" fill="white" stroke="#008F00" stroke-width="0.5"/>
<rect x="146" y="2.75" width="137" height="12" fill="#008F00"/>
<rect x="146" y="18" width="83" height="13" fill="#008F00"/>
<path d="M153.195 14.082C152.576 14.082 152.013 13.9954 151.507 13.8223C151.006 13.6491 150.582 13.4121 150.235 13.1113C149.894 12.8105 149.606 12.4505 149.374 12.0312C149.142 11.612 148.973 11.1654 148.868 10.6914C148.763 10.2129 148.711 9.70475 148.711 9.16699V4.06055H151.445V9.16699C151.445 9.50879 151.477 9.82552 151.541 10.1172C151.609 10.4089 151.71 10.6732 151.842 10.9102C151.979 11.1426 152.161 11.3271 152.389 11.4639C152.621 11.596 152.89 11.6621 153.195 11.6621C153.505 11.6621 153.776 11.5938 154.009 11.457C154.241 11.3203 154.424 11.1335 154.556 10.8965C154.692 10.6549 154.793 10.3906 154.856 10.1035C154.925 9.81185 154.959 9.49967 154.959 9.16699V4.06055H157.687V9.16699C157.687 9.87337 157.595 10.5205 157.413 11.1084C157.231 11.6963 156.96 12.2135 156.6 12.6602C156.244 13.1068 155.775 13.4554 155.191 13.7061C154.613 13.9567 153.947 14.082 153.195 14.082ZM163.106 9.1123V14H160.379V4.06055H162.505L166.497 9.1123V4.06055H169.224V14H167.057L163.106 9.1123ZM172.053 14V4.06055H174.781V14H172.053ZM179.538 4.06055L181.479 10.8486L183.4 4.06055H186.271L182.839 14H180.126L176.653 4.06055H179.538ZM195.225 11.6211V14H188.143V4.06055H195.102V6.43945H190.871V7.84082H194.487V10.0488H190.871V11.6211H195.225ZM197.617 14V4.06055H202.183C202.652 4.06055 203.099 4.16081 203.523 4.36133C203.947 4.56185 204.302 4.82389 204.589 5.14746C204.876 5.47103 205.104 5.84017 205.273 6.25488C205.441 6.66504 205.526 7.08203 205.526 7.50586C205.526 8.08008 205.398 8.61784 205.143 9.11914C204.892 9.62044 204.544 10.0283 204.097 10.3428L206.196 14H203.202L201.452 10.9512H200.344V14H197.617ZM200.344 8.56543H202.067C202.245 8.56543 202.404 8.46973 202.545 8.27832C202.687 8.08236 202.757 7.82487 202.757 7.50586C202.757 7.18685 202.677 6.92936 202.518 6.7334C202.358 6.53743 202.185 6.43945 201.998 6.43945H200.344V8.56543ZM214.206 7.30762C214.165 7.28483 214.111 7.25293 214.042 7.21191C213.974 7.1709 213.835 7.09798 213.625 6.99316C213.416 6.88835 213.211 6.7972 213.01 6.71973C212.81 6.6377 212.575 6.56478 212.306 6.50098C212.042 6.43262 211.798 6.39844 211.574 6.39844C211.041 6.39844 210.775 6.5625 210.775 6.89062C210.775 6.96354 210.786 7.02962 210.809 7.08887C210.836 7.14811 210.882 7.2028 210.946 7.25293C211.009 7.30306 211.071 7.34635 211.13 7.38281C211.194 7.41927 211.29 7.46029 211.417 7.50586C211.545 7.55143 211.654 7.58789 211.745 7.61523C211.837 7.64258 211.976 7.68587 212.162 7.74512C212.349 7.7998 212.502 7.84538 212.62 7.88184C213.021 8.00488 213.361 8.12565 213.639 8.24414C213.921 8.36263 214.195 8.50846 214.459 8.68164C214.724 8.85026 214.935 9.03711 215.095 9.24219C215.255 9.44727 215.38 9.69564 215.471 9.9873C215.567 10.2744 215.615 10.6003 215.615 10.9648C215.615 11.4251 215.542 11.8398 215.396 12.209C215.25 12.5781 215.056 12.8812 214.815 13.1182C214.578 13.3506 214.293 13.5443 213.96 13.6992C213.628 13.8542 213.286 13.9635 212.935 14.0273C212.588 14.0911 212.222 14.123 211.834 14.123C211.119 14.123 210.369 14.0182 209.585 13.8086C208.801 13.5944 208.111 13.3118 207.514 12.9609L208.69 10.5684C208.735 10.6003 208.797 10.6413 208.874 10.6914C208.956 10.737 209.12 10.8236 209.366 10.9512C209.617 11.0742 209.863 11.1836 210.105 11.2793C210.346 11.375 210.631 11.4639 210.959 11.5459C211.292 11.6234 211.6 11.6621 211.882 11.6621C212.411 11.6621 212.675 11.5163 212.675 11.2246C212.675 11.1152 212.641 11.0195 212.573 10.9375C212.504 10.8509 212.39 10.7734 212.231 10.7051C212.071 10.6322 211.916 10.5729 211.766 10.5273C211.62 10.4772 211.41 10.4134 211.137 10.3359C210.868 10.2539 210.645 10.1833 210.467 10.124C209.574 9.82324 208.929 9.46322 208.533 9.04395C208.141 8.62012 207.945 8.05046 207.945 7.33496C207.945 6.80176 208.045 6.31868 208.245 5.88574C208.45 5.4528 208.724 5.09961 209.066 4.82617C209.412 4.55273 209.806 4.3431 210.248 4.19727C210.69 4.05143 211.16 3.97852 211.657 3.97852C212.718 3.97852 213.96 4.33626 215.382 5.05176L214.206 7.30762ZM217.944 14V4.06055H220.672V14H217.944ZM223.508 14V4.06055H227.329C228.131 4.06055 228.854 4.19043 229.496 4.4502C230.143 4.7054 230.67 5.06087 231.075 5.5166C231.485 5.96777 231.798 6.49186 232.012 7.08887C232.231 7.68132 232.34 8.32389 232.34 9.0166C232.34 10.5205 231.882 11.7282 230.966 12.6396C230.054 13.5465 228.842 14 227.329 14H223.508ZM227.329 6.43945H226.235V11.6211H227.329C228.026 11.6211 228.573 11.3796 228.97 10.8965C229.371 10.4134 229.571 9.78678 229.571 9.0166C229.571 8.2373 229.371 7.61296 228.97 7.14355C228.569 6.67415 228.022 6.43945 227.329 6.43945ZM236.536 4.06055H239.585L242.75 14H239.981L239.38 12.0518H236.727L236.14 14H233.357L236.536 4.06055ZM238.942 10.2334L238.06 6.7334L237.138 10.2334H238.942ZM244.697 14V4.06055H248.518C249.32 4.06055 250.043 4.19043 250.685 4.4502C251.332 4.7054 251.859 5.06087 252.264 5.5166C252.675 5.96777 252.987 6.49186 253.201 7.08887C253.42 7.68132 253.529 8.32389 253.529 9.0166C253.529 10.5205 253.071 11.7282 252.155 12.6396C251.244 13.5465 250.031 14 248.518 14H244.697ZM248.518 6.43945H247.425V11.6211H248.518C249.216 11.6211 249.762 11.3796 250.159 10.8965C250.56 10.4134 250.761 9.78678 250.761 9.0166C250.761 8.2373 250.56 7.61296 250.159 7.14355C249.758 6.67415 249.211 6.43945 248.518 6.43945ZM262.921 11.6211V14H255.839V4.06055H262.798V6.43945H258.566V7.84082H262.182V10.0488H258.566V11.6211H262.921ZM271.335 7.30762C271.294 7.28483 271.239 7.25293 271.17 7.21191C271.102 7.1709 270.963 7.09798 270.753 6.99316C270.544 6.88835 270.339 6.7972 270.138 6.71973C269.938 6.6377 269.703 6.56478 269.434 6.50098C269.17 6.43262 268.926 6.39844 268.703 6.39844C268.169 6.39844 267.903 6.5625 267.903 6.89062C267.903 6.96354 267.914 7.02962 267.937 7.08887C267.964 7.14811 268.01 7.2028 268.074 7.25293C268.138 7.30306 268.199 7.34635 268.258 7.38281C268.322 7.41927 268.418 7.46029 268.545 7.50586C268.673 7.55143 268.782 7.58789 268.874 7.61523C268.965 7.64258 269.104 7.68587 269.291 7.74512C269.477 7.7998 269.63 7.84538 269.749 7.88184C270.15 8.00488 270.489 8.12565 270.767 8.24414C271.05 8.36263 271.323 8.50846 271.587 8.68164C271.852 8.85026 272.064 9.03711 272.223 9.24219C272.383 9.44727 272.508 9.69564 272.599 9.9873C272.695 10.2744 272.743 10.6003 272.743 10.9648C272.743 11.4251 272.67 11.8398 272.524 12.209C272.378 12.5781 272.184 12.8812 271.943 13.1182C271.706 13.3506 271.421 13.5443 271.088 13.6992C270.756 13.8542 270.414 13.9635 270.063 14.0273C269.717 14.0911 269.35 14.123 268.962 14.123C268.247 14.123 267.497 14.0182 266.713 13.8086C265.93 13.5944 265.239 13.3118 264.642 12.9609L265.818 10.5684C265.864 10.6003 265.925 10.6413 266.003 10.6914C266.085 10.737 266.249 10.8236 266.495 10.9512C266.745 11.0742 266.991 11.1836 267.233 11.2793C267.475 11.375 267.759 11.4639 268.087 11.5459C268.42 11.6234 268.728 11.6621 269.01 11.6621C269.539 11.6621 269.803 11.5163 269.803 11.2246C269.803 11.1152 269.769 11.0195 269.701 10.9375C269.632 10.8509 269.518 10.7734 269.359 10.7051C269.199 10.6322 269.044 10.5729 268.894 10.5273C268.748 10.4772 268.539 10.4134 268.265 10.3359C267.996 10.2539 267.773 10.1833 267.595 10.124C266.702 9.82324 266.057 9.46322 265.661 9.04395C265.269 8.62012 265.073 8.05046 265.073 7.33496C265.073 6.80176 265.173 6.31868 265.374 5.88574C265.579 5.4528 265.852 5.09961 266.194 4.82617C266.54 4.55273 266.934 4.3431 267.377 4.19727C267.819 4.05143 268.288 3.97852 268.785 3.97852C269.847 3.97852 271.088 4.33626 272.51 5.05176L271.335 7.30762ZM148.854 30V20.0605H155.67V22.4395H151.582V24.0938H154.918V26.3018H151.582V30H148.854ZM164.945 27.6211V30H157.863V20.0605H164.822V22.4395H160.591V23.8408H164.207V26.0488H160.591V27.6211H164.945ZM167.337 30V20.0605H171.158C171.96 20.0605 172.682 20.1904 173.325 20.4502C173.972 20.7054 174.498 21.0609 174.904 21.5166C175.314 21.9678 175.626 22.4919 175.841 23.0889C176.059 23.6813 176.169 24.3239 176.169 25.0166C176.169 26.5205 175.711 27.7282 174.795 28.6396C173.883 29.5465 172.671 30 171.158 30H167.337ZM171.158 22.4395H170.064V27.6211H171.158C171.855 27.6211 172.402 27.3796 172.799 26.8965C173.2 26.4134 173.4 25.7868 173.4 25.0166C173.4 24.2373 173.2 23.613 172.799 23.1436C172.398 22.6742 171.851 22.4395 171.158 22.4395ZM185.56 27.6211V30H178.478V20.0605H185.437V22.4395H181.206V23.8408H184.822V26.0488H181.206V27.6211H185.56ZM187.952 30V20.0605H192.518C192.987 20.0605 193.434 20.1608 193.858 20.3613C194.282 20.5618 194.637 20.8239 194.924 21.1475C195.211 21.471 195.439 21.8402 195.608 22.2549C195.777 22.665 195.861 23.082 195.861 23.5059C195.861 24.0801 195.733 24.6178 195.478 25.1191C195.227 25.6204 194.879 26.0283 194.432 26.3428L196.531 30H193.537L191.787 26.9512H190.679V30H187.952ZM190.679 24.5654H192.402C192.58 24.5654 192.739 24.4697 192.88 24.2783C193.022 24.0824 193.092 23.8249 193.092 23.5059C193.092 23.1868 193.013 22.9294 192.853 22.7334C192.694 22.5374 192.52 22.4395 192.334 22.4395H190.679V24.5654ZM200.816 20.0605H203.865L207.03 30H204.261L203.66 28.0518H201.007L200.419 30H197.637L200.816 20.0605ZM203.222 26.2334L202.34 22.7334L201.417 26.2334H203.222ZM208.977 30V20.0605H211.704V30H208.977ZM220.563 23.3076C220.522 23.2848 220.467 23.2529 220.399 23.2119C220.33 23.1709 220.191 23.098 219.982 22.9932C219.772 22.8883 219.567 22.7972 219.366 22.7197C219.166 22.6377 218.931 22.5648 218.662 22.501C218.398 22.4326 218.154 22.3984 217.931 22.3984C217.398 22.3984 217.131 22.5625 217.131 22.8906C217.131 22.9635 217.142 23.0296 217.165 23.0889C217.193 23.1481 217.238 23.2028 217.302 23.2529C217.366 23.3031 217.427 23.3464 217.486 23.3828C217.55 23.4193 217.646 23.4603 217.774 23.5059C217.901 23.5514 218.011 23.5879 218.102 23.6152C218.193 23.6426 218.332 23.6859 218.519 23.7451C218.706 23.7998 218.858 23.8454 218.977 23.8818C219.378 24.0049 219.717 24.1257 219.995 24.2441C220.278 24.3626 220.551 24.5085 220.816 24.6816C221.08 24.8503 221.292 25.0371 221.451 25.2422C221.611 25.4473 221.736 25.6956 221.827 25.9873C221.923 26.2744 221.971 26.6003 221.971 26.9648C221.971 27.4251 221.898 27.8398 221.752 28.209C221.606 28.5781 221.413 28.8812 221.171 29.1182C220.934 29.3506 220.649 29.5443 220.317 29.6992C219.984 29.8542 219.642 29.9635 219.291 30.0273C218.945 30.0911 218.578 30.123 218.191 30.123C217.475 30.123 216.725 30.0182 215.942 29.8086C215.158 29.5944 214.467 29.3118 213.87 28.9609L215.046 26.5684C215.092 26.6003 215.153 26.6413 215.231 26.6914C215.313 26.737 215.477 26.8236 215.723 26.9512C215.973 27.0742 216.22 27.1836 216.461 27.2793C216.703 27.375 216.987 27.4639 217.316 27.5459C217.648 27.6234 217.956 27.6621 218.238 27.6621C218.767 27.6621 219.031 27.5163 219.031 27.2246C219.031 27.1152 218.997 27.0195 218.929 26.9375C218.861 26.8509 218.747 26.7734 218.587 26.7051C218.428 26.6322 218.273 26.5729 218.122 26.5273C217.976 26.4772 217.767 26.4134 217.493 26.3359C217.224 26.2539 217.001 26.1833 216.823 26.124C215.93 25.8232 215.285 25.4632 214.889 25.0439C214.497 24.6201 214.301 24.0505 214.301 23.335C214.301 22.8018 214.401 22.3187 214.602 21.8857C214.807 21.4528 215.08 21.0996 215.422 20.8262C215.768 20.5527 216.163 20.3431 216.605 20.1973C217.047 20.0514 217.516 19.9785 218.013 19.9785C219.075 19.9785 220.317 20.3363 221.738 21.0518L220.563 23.3076Z" fill="#F5F5F5"/>
</svg>
