<?xml version="1.0" encoding="UTF-8"?>
<svg id="Camada_2" data-name="Camada 2" xmlns="http://www.w3.org/2000/svg" viewBox="0 0 638.84 151.63">
  <defs>
    <style>
      .cls-1 {
        fill: #00d000;
      }

      .cls-2 {
        fill: #3c3c3c;
      }

      .cls-3 {
        fill: #ffd000;
      }

      .cls-4 {
        fill: #183eff;
      }

      .cls-5 {
        fill: red;
      }
    </style>
  </defs>
  <g id="Camada_1-2" data-name="Camada 1">
    <g>
      <g>
        <path d="M14.44,68.95v-12.24l-5.06,9.29h-1.59l-5.08-9.29v12.24H0v-17.18h2.91l5.68,10.5,5.68-10.5h2.91v17.18h-2.74Z"/>
        <path d="M25.88,68.95v-17.18h2.71v17.18h-2.71Z"/>
        <path d="M40.01,56.81v12.15h-2.71v-17.18h2.22l9.74,12.42v-12.39h2.73v17.15h-2.37l-9.61-12.15Z"/>
        <path d="M60.69,68.95v-17.18h2.71v17.18h-2.71Z"/>
        <path d="M82.27,55.81c-.37-.41-1-.8-1.89-1.18-.89-.38-1.81-.57-2.75-.57-1.12,0-1.96.21-2.51.62-.56.41-.83,1-.83,1.75,0,.24.03.45.09.64.06.19.14.36.24.5.1.15.25.29.44.42.2.13.39.25.58.34.19.09.46.19.79.3.33.11.65.2.94.27.29.08.67.17,1.15.29.76.18,1.4.36,1.94.54.54.18,1.05.4,1.55.67.5.27.89.58,1.19.91.3.33.54.74.71,1.22s.27,1.03.27,1.64c0,.69-.11,1.3-.32,1.85-.22.55-.51,1.02-.89,1.39s-.83.7-1.37.95c-.54.26-1.11.44-1.73.56s-1.28.17-1.98.17c-1.31,0-2.57-.2-3.79-.6s-2.32-.97-3.3-1.72l1.24-2.33c.5.51,1.31,1.01,2.43,1.48,1.12.48,2.28.71,3.47.71,1.07,0,1.9-.19,2.48-.57.58-.38.87-.92.87-1.63,0-.28-.04-.54-.13-.77s-.24-.44-.45-.62c-.21-.18-.43-.34-.66-.48-.22-.13-.54-.27-.96-.41-.41-.14-.79-.26-1.13-.35-.34-.09-.8-.22-1.39-.37-.91-.24-1.65-.48-2.25-.72s-1.11-.54-1.57-.9-.78-.77-.99-1.26-.31-1.06-.31-1.72c0-.83.16-1.57.48-2.24.32-.67.76-1.21,1.32-1.65.56-.43,1.22-.76,1.97-.99.76-.23,1.58-.34,2.47-.34,2.11,0,4.04.65,5.8,1.94l-1.23,2.22Z"/>
        <path d="M104.33,54.17h-5.71v14.78h-2.74v-14.78h-5.73v-2.4h14.18v2.4Z"/>
        <path d="M123.25,66.55v2.4h-11.78v-17.18h11.57v2.4h-8.86v4.88h7.67v2.26h-7.67v5.25h9.07ZM118.44,50l-1.75-.53,1.38-2.66h2.54l-2.17,3.19Z"/>
        <path d="M130.88,68.95v-17.18h7.48c.75,0,1.46.16,2.13.48.67.32,1.24.75,1.7,1.28s.82,1.13,1.09,1.8.4,1.35.4,2.03c0,1.17-.31,2.22-.92,3.16-.62.94-1.43,1.57-2.43,1.9l4.04,6.53h-3.05l-3.73-5.98h-3.99v5.98h-2.71ZM133.59,60.58h4.75c.75,0,1.37-.31,1.85-.94.49-.63.73-1.38.73-2.27s-.28-1.62-.83-2.25c-.55-.63-1.19-.94-1.91-.94h-4.6v6.4Z"/>
        <path d="M151.71,68.95v-17.18h2.71v17.18h-2.71Z"/>
        <path d="M162.04,60.36c0-1.13.21-2.23.63-3.29.42-1.06.99-1.99,1.72-2.78.72-.8,1.6-1.43,2.63-1.91,1.03-.48,2.13-.72,3.28-.72s2.3.25,3.34.76c1.04.5,1.91,1.17,2.61,1.99.7.82,1.25,1.76,1.65,2.8.4,1.04.6,2.1.6,3.18,0,1.13-.21,2.23-.63,3.28-.42,1.06-.99,1.98-1.71,2.78-.72.8-1.59,1.43-2.62,1.91-1.03.48-2.13.71-3.28.71-.96,0-1.88-.16-2.74-.48s-1.63-.76-2.29-1.32c-.66-.56-1.23-1.21-1.71-1.94s-.85-1.53-1.11-2.38c-.25-.85-.38-1.72-.38-2.59ZM170.29,66.62c.83,0,1.6-.18,2.3-.54.7-.36,1.28-.84,1.72-1.44.45-.59.8-1.26,1.05-2,.25-.74.37-1.5.37-2.28s-.13-1.59-.4-2.35c-.26-.75-.63-1.42-1.09-2s-1.04-1.04-1.73-1.38c-.69-.34-1.43-.51-2.24-.51s-1.61.18-2.31.54c-.71.36-1.29.83-1.74,1.42s-.81,1.26-1.06,2c-.25.74-.38,1.5-.38,2.28,0,1.09.22,2.1.66,3.05.44.95,1.08,1.72,1.93,2.32.85.6,1.82.9,2.91.9Z"/>
        <path d="M196.97,68.95v-17.18h6.1c1.35,0,2.56.22,3.63.67,1.08.44,1.96,1.06,2.64,1.84.68.78,1.21,1.69,1.57,2.72s.54,2.14.54,3.34c0,2.6-.76,4.68-2.29,6.26s-3.55,2.36-6.09,2.36h-6.1ZM203.07,54.17h-3.39v12.38h3.39c1.18,0,2.2-.27,3.05-.82.85-.55,1.49-1.29,1.92-2.21.42-.93.64-1.99.64-3.18,0-1.84-.5-3.32-1.49-4.46-1-1.14-2.37-1.71-4.12-1.71Z"/>
        <path d="M223.46,51.77h2.56l6.67,17.18h-2.86l-1.81-4.67h-6.63l-1.8,4.67h-2.88l6.73-17.18ZM227.5,62.28l-2.76-7.53-2.85,7.53h5.61Z"/>
      </g>
      <g>
        <path d="M79.99,98.81v4.11h-12.24v-17.18h12.03v4.11h-7.31v2.42h6.25v3.82h-6.25v2.72h7.53Z"/>
        <path d="M87.03,102.92v-17.18h6.6c1.39,0,2.64.22,3.75.67,1.11.44,2.02,1.06,2.73,1.84s1.24,1.69,1.62,2.72.56,2.14.56,3.34c0,2.6-.79,4.68-2.37,6.26s-3.68,2.36-6.29,2.36h-6.6ZM93.63,89.86h-1.89v8.96h1.89c1.21,0,2.15-.42,2.84-1.25.69-.83,1.03-1.92,1.03-3.25s-.35-2.43-1.04-3.24c-.69-.81-1.64-1.22-2.83-1.22Z"/>
        <path d="M116.69,103.07c-1.07,0-2.04-.15-2.91-.45-.87-.3-1.6-.71-2.2-1.23-.59-.52-1.09-1.14-1.49-1.87-.4-.72-.69-1.5-.87-2.32-.18-.82-.27-1.7-.27-2.63v-8.83h4.73v8.83c0,.59.06,1.14.17,1.64.11.5.29.96.52,1.36.23.41.55.72.95.96.4.23.86.35,1.39.35s1-.12,1.41-.35c.4-.24.72-.56.95-.97s.41-.87.52-1.37c.11-.5.17-1.04.17-1.61v-8.83h4.71v8.83c0,1.22-.16,2.34-.47,3.36-.31,1.02-.78,1.91-1.4,2.68s-1.43,1.37-2.43,1.81c-1,.43-2.16.65-3.46.65Z"/>
        <path d="M139.83,85.65c1.61,0,3.04.34,4.28,1.02,1.24.68,2.16,1.59,2.76,2.73l-3.6,2.56c-.16-.4-.37-.75-.64-1.03-.27-.29-.57-.51-.9-.66-.33-.15-.66-.26-.99-.33-.33-.07-.66-.1-1.01-.1-.65,0-1.22.13-1.74.4-.51.26-.92.61-1.22,1.05-.3.44-.53.92-.69,1.44-.16.52-.24,1.06-.24,1.62,0,1.25.36,2.32,1.08,3.21s1.67,1.33,2.86,1.33c.46,0,.91-.06,1.33-.19.42-.13.83-.36,1.22-.69.39-.33.67-.73.86-1.22l3.85,2.29c-.32.81-.89,1.53-1.7,2.15s-1.7,1.08-2.69,1.39c-.99.3-1.98.45-2.98.45-1.23,0-2.39-.26-3.48-.77-1.09-.51-2.01-1.18-2.75-2.01s-1.33-1.78-1.76-2.85c-.43-1.07-.64-2.15-.64-3.24s.2-2.09.61-3.1c.41-1.01.97-1.92,1.7-2.73s1.66-1.47,2.78-1.96c1.13-.5,2.36-.74,3.69-.74Z"/>
        <path d="M157.23,85.75h5.27l5.47,17.18h-4.78l-1.04-3.37h-4.58l-1.02,3.37h-4.81l5.49-17.18ZM161.39,96.41l-1.52-6.05-1.59,6.05h3.12Z"/>
        <path d="M188.59,99.07c-.42,1.02-1.18,1.88-2.29,2.56-1.11.69-2.34,1.13-3.69,1.33.79.79,1.18,1.63,1.18,2.54,0,.77-.25,1.42-.75,1.95-.5.53-1.23.79-2.18.79s-1.96-.28-2.99-.83l1.06-2.35c.35.31.74.46,1.16.46.3,0,.54-.08.73-.25.19-.17.28-.4.28-.69,0-.5-.31-1.03-.92-1.6-1.1-.13-2.13-.48-3.09-1.03s-1.76-1.24-2.41-2.04c-.65-.81-1.16-1.71-1.54-2.71-.37-1-.56-2-.56-3.02s.2-2.09.61-3.1c.41-1.01.97-1.92,1.7-2.73s1.66-1.47,2.78-1.96c1.13-.5,2.36-.74,3.69-.74,1.61,0,3.04.34,4.28,1.02,1.24.68,2.16,1.59,2.76,2.73l-3.6,2.56c-.16-.4-.37-.75-.64-1.03-.27-.29-.57-.51-.9-.66-.33-.15-.66-.26-.99-.33-.33-.07-.66-.1-1.01-.1-.65,0-1.22.13-1.74.4-.51.26-.92.61-1.22,1.05-.3.44-.53.92-.69,1.44-.16.52-.24,1.06-.24,1.62,0,1.25.36,2.32,1.08,3.21s1.67,1.33,2.86,1.33c.46,0,.91-.06,1.33-.19.42-.13.83-.36,1.22-.69.39-.33.67-.73.86-1.22l3.85,2.29Z"/>
        <path d="M198.77,85.75h5.27l5.47,17.18h-4.78l-1.04-3.37h-4.58l-1.02,3.37h-4.81l5.49-17.18ZM199.84,83.47c-.21,0-.38.04-.53.12-.15.08-.26.17-.33.27-.07.1-.13.22-.17.35-.04.13-.06.22-.07.28,0,.06-.01.11-.01.15h-2.45c0-.19.04-.43.11-.73s.2-.62.38-.99c.18-.36.39-.7.64-1.01s.57-.57.96-.79c.39-.21.82-.32,1.28-.32.35,0,.69.06,1.02.2.32.13.59.27.79.43.21.15.44.3.7.43s.51.19.76.19c.2,0,.37-.04.53-.12.16-.08.28-.18.35-.29.08-.11.14-.23.19-.36.05-.13.08-.23.1-.31s.02-.13.02-.16h2.42c0,.13-.04.34-.12.61-.08.28-.21.6-.39.97-.18.37-.4.72-.65,1.05-.25.33-.58.61-.99.84-.41.23-.85.35-1.31.35-.33,0-.66-.06-.97-.18-.32-.12-.58-.26-.79-.4-.21-.15-.45-.28-.71-.4s-.52-.18-.76-.18ZM202.93,96.41l-1.52-6.05-1.59,6.05h3.12Z"/>
        <path d="M214.13,94.31c0-1.13.22-2.22.66-3.27.44-1.05,1.04-1.98,1.81-2.77.76-.8,1.7-1.43,2.79-1.91s2.27-.71,3.51-.71,2.44.25,3.54.75c1.1.5,2.02,1.16,2.76,1.98.74.82,1.31,1.76,1.74,2.81.42,1.05.63,2.12.63,3.21s-.22,2.2-.66,3.25c-.44,1.05-1.04,1.97-1.8,2.77-.76.8-1.69,1.44-2.79,1.92-1.1.48-2.28.72-3.52.72s-2.44-.25-3.54-.74-2.02-1.15-2.76-1.97c-.74-.82-1.32-1.75-1.75-2.81-.42-1.05-.64-2.13-.64-3.23ZM222.87,98.88c.65,0,1.24-.13,1.75-.4.52-.26.93-.62,1.24-1.06.31-.44.54-.93.7-1.45.16-.53.24-1.08.24-1.67,0-.8-.14-1.54-.42-2.2-.28-.66-.72-1.21-1.33-1.64s-1.34-.64-2.19-.64c-.65,0-1.24.13-1.75.39s-.92.61-1.23,1.04c-.31.43-.54.91-.7,1.44-.16.53-.24,1.08-.24,1.65s.08,1.15.24,1.68c.16.53.4,1.01.71,1.44.31.43.73.77,1.24,1.02.51.25,1.09.38,1.74.38Z"/>
      </g>
      <path d="M312.07,139.14c1.68,0,3.08.59,4.2,1.77,1.11,1.18,1.67,2.64,1.67,4.36s-.56,3.17-1.67,4.36c-1.12,1.19-2.52,1.78-4.2,1.78h-4.82v-12.27h4.82ZM312.07,149.48c1.16,0,2.1-.4,2.83-1.19.73-.79,1.1-1.8,1.1-3.01s-.36-2.23-1.1-3.02c-.73-.79-1.67-1.18-2.83-1.18h-2.8v8.41h2.8Z"/>
      <path d="M332.31,149.78c-1.23,1.23-2.74,1.85-4.51,1.85s-3.28-.62-4.51-1.85c-1.23-1.23-1.85-2.74-1.85-4.51s.62-3.28,1.85-4.51c1.23-1.23,2.74-1.85,4.51-1.85s3.28.62,4.51,1.85c1.23,1.23,1.85,2.74,1.85,4.51s-.62,3.28-1.85,4.51M324.71,148.42c.83.84,1.87,1.25,3.09,1.25s2.26-.42,3.09-1.25c.84-.83,1.25-1.88,1.25-3.15s-.42-2.31-1.25-3.14c-.84-.84-1.87-1.25-3.09-1.25s-2.26.42-3.09,1.25c-.84.83-1.25,1.88-1.25,3.14s.42,2.31,1.25,3.15"/>
      <polygon points="346.96 149.48 351.95 149.48 351.95 151.4 344.94 151.4 344.94 139.14 346.96 139.14 346.96 149.48"/>
      <path d="M364.06,151.4l-.87-2.47h-5.22l-.86,2.47h-2.19l4.45-12.27h2.42l4.43,12.27h-2.17ZM358.64,147.04h3.89l-1.94-5.54-1.95,5.54Z"/>
      <path d="M374.64,139.14c1.68,0,3.08.59,4.2,1.77,1.12,1.18,1.67,2.64,1.67,4.36s-.56,3.17-1.67,4.36c-1.12,1.19-2.52,1.78-4.2,1.78h-4.82v-12.27h4.82ZM374.64,149.48c1.16,0,2.1-.4,2.83-1.19.73-.79,1.1-1.8,1.1-3.01s-.36-2.23-1.1-3.02c-.73-.79-1.67-1.18-2.83-1.18h-2.8v8.41h2.8Z"/>
      <path d="M394.89,149.78c-1.23,1.23-2.74,1.85-4.51,1.85s-3.28-.62-4.51-1.85c-1.23-1.23-1.85-2.74-1.85-4.51s.62-3.28,1.85-4.51c1.23-1.23,2.74-1.85,4.51-1.85s3.28.62,4.51,1.85c1.23,1.23,1.85,2.74,1.85,4.51s-.62,3.28-1.85,4.51M387.29,148.42c.83.84,1.87,1.25,3.09,1.25s2.26-.42,3.09-1.25c.84-.83,1.25-1.88,1.25-3.15s-.42-2.31-1.25-3.14c-.84-.84-1.87-1.25-3.09-1.25s-2.26.42-3.09,1.25c-.84.83-1.25,1.88-1.25,3.14s.42,2.31,1.25,3.15"/>
      <path d="M412.34,139.14c1.68,0,3.08.59,4.2,1.77,1.11,1.18,1.67,2.64,1.67,4.36s-.56,3.17-1.67,4.36c-1.12,1.19-2.52,1.78-4.2,1.78h-4.82v-12.27h4.82ZM412.34,149.48c1.16,0,2.1-.4,2.83-1.19.73-.79,1.1-1.8,1.1-3.01s-.36-2.23-1.1-3.02c-.73-.79-1.67-1.18-2.83-1.18h-2.8v8.41h2.8Z"/>
      <path d="M432.58,149.78c-1.23,1.23-2.74,1.85-4.51,1.85s-3.28-.62-4.51-1.85c-1.23-1.23-1.85-2.74-1.85-4.51s.62-3.28,1.85-4.51c1.23-1.23,2.74-1.85,4.51-1.85s3.28.62,4.51,1.85c1.23,1.23,1.85,2.74,1.85,4.51s-.62,3.28-1.85,4.51M424.98,148.42c.83.84,1.87,1.25,3.09,1.25s2.26-.42,3.09-1.25c.84-.83,1.25-1.88,1.25-3.15s-.42-2.31-1.25-3.14c-.84-.84-1.87-1.25-3.09-1.25s-2.26.42-3.09,1.25c-.84.83-1.25,1.88-1.25,3.14s.42,2.31,1.25,3.15"/>
      <path d="M449.73,139.14c1.16,0,2.12.39,2.9,1.16s1.16,1.73,1.16,2.87-.39,2.09-1.16,2.86c-.78.78-1.74,1.16-2.9,1.16h-2.51v4.21h-2.02v-12.27h4.52ZM449.73,145.31c.6,0,1.09-.2,1.47-.6.39-.4.58-.91.58-1.53s-.19-1.13-.58-1.53c-.39-.4-.88-.6-1.47-.6h-2.51v4.28h2.51Z"/>
      <path d="M467.98,149.78c-1.23,1.23-2.74,1.85-4.51,1.85s-3.28-.62-4.51-1.85c-1.23-1.23-1.85-2.74-1.85-4.51s.62-3.28,1.85-4.51c1.23-1.23,2.74-1.85,4.51-1.85s3.28.62,4.51,1.85,1.85,2.74,1.85,4.51-.62,3.28-1.85,4.51M460.38,148.42c.83.84,1.87,1.25,3.09,1.25s2.26-.42,3.09-1.25c.84-.83,1.25-1.88,1.25-3.15s-.42-2.31-1.25-3.14c-.84-.84-1.87-1.25-3.09-1.25s-2.26.42-3.09,1.25c-.84.83-1.25,1.88-1.25,3.14s.42,2.31,1.25,3.15"/>
      <polygon points="476.54 151.4 472.28 139.14 474.49 139.14 477.75 148.95 481.03 139.14 483.22 139.14 478.96 151.4 476.54 151.4"/>
      <path d="M496.54,149.78c-1.23,1.23-2.74,1.85-4.51,1.85s-3.28-.62-4.51-1.85c-1.23-1.23-1.85-2.74-1.85-4.51s.62-3.28,1.85-4.51c1.23-1.23,2.74-1.85,4.51-1.85s3.28.62,4.51,1.85,1.85,2.74,1.85,4.51-.62,3.28-1.85,4.51M488.94,148.42c.83.84,1.87,1.25,3.09,1.25s2.26-.42,3.09-1.25c.84-.83,1.25-1.88,1.25-3.15s-.42-2.31-1.25-3.14c-.84-.84-1.87-1.25-3.09-1.25s-2.26.42-3.09,1.25c-.84.83-1.25,1.88-1.25,3.14s.42,2.31,1.25,3.15"/>
      <path d="M516.39,145.04c.54.28.96.67,1.26,1.16.3.49.46,1.06.46,1.7,0,1.01-.36,1.84-1.07,2.51-.71.67-1.58,1-2.61,1h-5.26v-12.27h4.87c1.01,0,1.86.32,2.55.97.7.65,1.04,1.46,1.04,2.43,0,1.06-.41,1.9-1.24,2.51M514.04,141.03h-2.86v3.23h2.86c.44,0,.82-.16,1.12-.47.3-.31.46-.69.46-1.15s-.15-.84-.46-1.15c-.3-.31-.68-.47-1.12-.47M514.43,149.51c.47,0,.86-.17,1.18-.5.32-.33.48-.74.48-1.22s-.16-.89-.48-1.22c-.32-.33-.72-.5-1.18-.5h-3.24v3.43h3.24Z"/>
      <path d="M529.13,151.4l-2.59-4.47h-2.38v4.47h-2.02v-12.27h4.91c1.1,0,2.03.38,2.79,1.15.77.77,1.15,1.7,1.15,2.8,0,.78-.23,1.5-.67,2.15-.45.65-1.04,1.12-1.76,1.41l2.79,4.77h-2.21ZM524.15,141.03v4.1h2.89c.54,0,.99-.2,1.37-.6.37-.4.56-.88.56-1.45s-.19-1.06-.56-1.45c-.37-.4-.83-.6-1.37-.6h-2.89Z"/>
      <path d="M543.15,151.4l-.87-2.47h-5.22l-.86,2.47h-2.19l4.45-12.27h2.42l4.43,12.27h-2.17ZM537.73,147.04h3.89l-1.94-5.54-1.95,5.54Z"/>
      <path d="M552.68,151.63c-1.18,0-2.18-.27-3.01-.81-.82-.54-1.4-1.27-1.73-2.21l1.73-1.02c.49,1.38,1.51,2.07,3.05,2.07.76,0,1.33-.15,1.71-.45s.57-.68.57-1.16-.21-.88-.61-1.15c-.41-.26-1.14-.55-2.18-.86-.57-.21-1.04-.39-1.41-.52-.37-.14-.75-.34-1.16-.62-.4-.28-.7-.62-.9-1.03-.2-.41-.3-.89-.3-1.44,0-1.09.39-1.95,1.16-2.59.77-.64,1.7-.96,2.79-.96.98,0,1.84.24,2.58.72.74.48,1.3,1.14,1.7,1.98l-1.7.98c-.51-1.14-1.37-1.72-2.58-1.72-.59,0-1.05.14-1.4.41-.35.27-.53.65-.53,1.11s.18.8.54,1.06c.36.26,1.01.53,1.95.82.46.17.79.3,1.01.38.21.08.52.2.92.35.4.15.7.31.89.47.2.16.41.37.63.62.23.25.39.53.48.85.09.32.14.68.14,1.08,0,1.11-.4,1.99-1.2,2.64-.8.65-1.85.97-3.15.97"/>
      <rect x="560.95" y="139.14" width="2.02" height="12.27"/>
      <polygon points="569.71 149.48 574.71 149.48 574.71 151.4 567.7 151.4 567.7 139.14 569.71 139.14 569.71 149.48"/>
      <polygon points="580.49 149.48 585.92 149.48 585.92 151.4 578.48 151.4 578.48 139.14 585.84 139.14 585.84 141.06 580.49 141.06 580.49 144.25 585.4 144.25 585.4 146.16 580.49 146.16 580.49 149.48"/>
      <rect x="590.04" y="139.14" width="2.02" height="12.27"/>
      <path d="M603.78,151.4l-2.59-4.47h-2.38v4.47h-2.02v-12.27h4.91c1.1,0,2.03.38,2.8,1.15.77.77,1.15,1.7,1.15,2.8,0,.78-.23,1.5-.67,2.15-.45.65-1.04,1.12-1.76,1.41l2.79,4.77h-2.21ZM598.8,141.03v4.1h2.89c.54,0,.99-.2,1.37-.6.37-.4.56-.88.56-1.45s-.19-1.06-.56-1.45c-.37-.4-.83-.6-1.37-.6h-2.89Z"/>
      <path d="M619.98,149.78c-1.23,1.23-2.74,1.85-4.51,1.85s-3.28-.62-4.51-1.85c-1.23-1.23-1.85-2.74-1.85-4.51s.62-3.28,1.85-4.51c1.23-1.23,2.74-1.85,4.51-1.85s3.28.62,4.51,1.85c1.23,1.23,1.85,2.74,1.85,4.51s-.62,3.28-1.85,4.51M612.38,148.42c.83.84,1.87,1.25,3.09,1.25s2.26-.42,3.09-1.25c.84-.83,1.25-1.88,1.25-3.15s-.42-2.31-1.25-3.14c-.84-.84-1.87-1.25-3.09-1.25s-2.26.42-3.09,1.25c-.84.83-1.25,1.88-1.25,3.14s.42,2.31,1.25,3.15"/>
      <path d="M382.09,7.37v1.26c0,5.05-3.39,8.34-7.87,8.34-4.77,0-8.51-3.72-8.51-8.46S369.48,0,374.2,0c2.98,0,5.72,1.53,7.22,4.03l-3.72,2.22c-.71-1.29-2.03-2.03-3.55-2.03-2.38,0-4.08,1.84-4.08,4.31s1.69,4.2,4.15,4.2c1.72,0,2.81-.86,3.19-1.91h-4.36v-3.46h9.03Z"/>
      <path d="M387.49,8.49c0-4.72,3.77-8.49,8.51-8.49s8.46,3.77,8.46,8.49-3.77,8.49-8.46,8.49-8.51-3.77-8.51-8.49M399.77,8.49c0-2.29-1.65-4-3.77-4s-3.84,1.72-3.84,4,1.67,4.01,3.84,4.01,3.77-1.72,3.77-4.01"/>
      <polygon points="424.95 .38 418.61 16.59 414.25 16.59 407.98 .38 412.68 .38 416.44 10.37 420.26 .38 424.95 .38"/>
      <polygon points="434.43 4.34 434.43 6.75 439.2 6.75 439.2 10.23 434.43 10.23 434.43 12.63 441.65 12.63 441.65 16.59 430.04 16.59 430.04 .38 441.65 .38 441.65 4.34 434.43 4.34"/>
      <path d="M453.94,10.99h-1.83v5.6h-4.32V.38h7.84c3.17,0,5.6,2.26,5.6,5.27,0,2.07-1.12,3.79-2.84,4.7l3.6,6.25h-4.84l-3.22-5.6ZM452.11,7.29h3.05c1.03,0,1.67-.71,1.67-1.5s-.62-1.53-1.67-1.53h-3.05v3.03Z"/>
      <polygon points="481.94 .38 481.94 16.59 478.24 16.59 471.71 8.06 471.71 16.59 467.4 16.59 467.4 .38 471.07 .38 477.62 8.94 477.62 .38 481.94 .38"/>
      <path d="M487.63,8.49c0-4.72,3.77-8.49,8.51-8.49s8.46,3.77,8.46,8.49-3.77,8.49-8.46,8.49-8.51-3.77-8.51-8.49M499.9,8.49c0-2.29-1.65-4-3.77-4s-3.84,1.72-3.84,4,1.67,4.01,3.84,4.01,3.77-1.72,3.77-4.01"/>
      <path d="M540.6,8.49c0,4.65-3.72,8.11-8.65,8.11h-6.6V.38h6.6c4.93,0,8.65,3.46,8.65,8.1M536.07,8.49c0-2.36-1.76-3.89-4.34-3.89h-1.98v7.77h1.98c2.58,0,4.34-1.52,4.34-3.89"/>
      <path d="M544.57,8.49c0-4.72,3.77-8.49,8.51-8.49s8.46,3.77,8.46,8.49-3.77,8.49-8.46,8.49-8.51-3.77-8.51-8.49M556.84,8.49c0-2.29-1.65-4-3.77-4s-3.84,1.72-3.84,4,1.67,4.01,3.84,4.01,3.77-1.72,3.77-4.01"/>
      <path class="cls-3" d="M480.49,120.13v-24.84l-36-60.52-48.87,82.17,5.82-9.79,8.44,12.98h-16.16,19.63c0-17.2,13.94-31.14,31.14-31.14s31.14,13.94,31.14,31.14h19.63-14.77Z"/>
      <path class="cls-4" d="M475.64,120.13c0-17.2-13.94-31.14-31.14-31.14s-31.14,13.94-31.14,31.14h62.29Z"/>
      <polygon class="cls-3" points="387.9 86.32 354.4 34.76 354.4 86.32 387.9 86.32"/>
      <rect class="cls-3" x="289.62" y="69.01" width="29.52" height="51.11"/>
      <rect class="cls-3" x="579.81" y="34.76" width="29.52" height="56.7"/>
      <rect class="cls-4" x="609.33" y="91.46" width="29.52" height="28.67"/>
      <polygon class="cls-1" points="393.72 120.13 401.44 107.15 387.9 86.32 354.4 86.32 354.4 120.13 393.72 120.13"/>
      <rect class="cls-1" x="545.31" y="34.76" width="29.52" height="85.37"/>
      <path class="cls-4" d="M325.97,34.76h-6.84v34.25h6.84c9.46,0,17.13-7.67,17.13-17.13s-7.67-17.13-17.13-17.13"/>
      <rect class="cls-4" x="508.4" y="34.76" width="31.93" height="31.04"/>
      <path class="cls-3" d="M518.15,65.8h-9.75v54.33h9.75c15,0,27.16-12.16,27.16-27.16s-12.16-27.16-27.16-27.16"/>
      <path class="cls-1" d="M499.46,34.76c-10.48,0-18.97,8.49-18.97,18.97s8.49,18.97,18.97,18.97h8.93v-37.94h-8.93Z"/>
      <path class="cls-5" d="M328.84,69.01h-9.7v51.12h9.7c14.11,0,25.56-11.44,25.56-25.56s-11.44-25.56-25.56-25.56"/>
      <path class="cls-4" d="M387.9,34.76h-33.5l33.5,51.56c14.24,0,25.78-11.54,25.78-25.78s-11.54-25.78-25.78-25.78"/>
      <rect class="cls-1" x="289.62" y="34.76" width="29.52" height="34.25"/>
      <polygon class="cls-5" points="480.49 72.7 480.49 95.29 495.27 120.13 508.4 120.13 508.4 72.7 480.49 72.7"/>
      <polygon class="cls-2" points="480.49 95.29 480.49 120.13 495.27 120.13 480.49 95.29"/>
      <rect class="cls-2" x="579.81" y="91.46" width="29.52" height="28.67"/>
      <polygon class="cls-2" points="393.72 120.13 409.89 120.13 401.45 107.14 393.72 120.13"/>
    </g>
  </g>
</svg>