<svg width="252" height="1123" viewBox="0 0 252 1123" fill="none" xmlns="http://www.w3.org/2000/svg">
<g clip-path="url(#clip0_1383_14019)">
<g clip-path="url(#clip1_1383_14019)">
<path d="M252 1218L252 -193L-542 -193L-542 1218L252 1218Z" fill="white"/>
<path d="M252 1218L252 -193L-542 -193L-542 1218L252 1218Z" fill="#008F00"/>
<path d="M252 -193L-542 -193L-542 524.699L252 52.6022L252 -193Z" fill="#0095DA"/>
<path d="M89 798L89 400L-542 400L-542 798L89 798Z" fill="#0095DA"/>
<path d="M252 1218L252 797.713L89.0829 797.713L89.083 1218L252 1218Z" fill="#0095DA"/>
<mask id="mask0_1383_14019" style="mask-type:luminance" maskUnits="userSpaceOnUse" x="-542" y="-193" width="794" height="1411">
<path d="M252 1218L252 -193L-542 -193L-542 1218L252 1218Z" fill="white"/>
</mask>
<g mask="url(#mask0_1383_14019)">
<path d="M89.0832 936.829L89.0832 797.713L-686.17 797.713L-686.17 936.829C-686.17 1150.83 -512.592 1324.34 -298.506 1324.34C-84.4205 1324.34 89.1567 1150.83 89.1567 936.829" fill="#0095DA"/>
<path d="M532.106 670.282C532.106 520.804 410.874 399.693 261.41 399.693C111.947 399.693 -9.28473 520.878 -9.28473 670.282L-9.28472 797.713L532.106 797.713L532.106 670.282Z" fill="#F9C620"/>
</g>
</g>
</g>
<defs>
<clipPath id="clip0_1383_14019">
<rect width="252" height="1123" fill="white"/>
</clipPath>
<clipPath id="clip1_1383_14019">
<rect width="1411" height="794" fill="white" transform="translate(252 -193) rotate(90)"/>
</clipPath>
</defs>
</svg>
