<svg width="794" height="74" viewBox="0 0 794 74" fill="none" xmlns="http://www.w3.org/2000/svg">
<g filter="url(#filter0_d_1383_13578)">
<g clip-path="url(#clip0_1383_13578)">
<path d="M794 0L0 0L0 388L794 388V0Z" fill="white"/>
<path d="M794 0L0 0L0 388L794 388V0Z" fill="#F9C620"/>
<path d="M0 0L0 388H403.865L138.206 0L0 0Z" fill="#0095DA"/>
<path d="M794 0L557.496 0V79.6119L794 79.6119V0Z" fill="#0095DA"/>
<mask id="mask0_1383_13578" style="mask-type:luminance" maskUnits="userSpaceOnUse" x="0" y="0" width="794" height="388">
<path d="M794 0L0 0L0 388L794 388V0Z" fill="white"/>
</mask>
<g mask="url(#mask0_1383_13578)">
<path d="M485.787 -136.878C401.673 -136.878 333.521 -77.6361 333.521 -4.59865C333.521 68.4388 401.714 127.681 485.787 127.681H557.496V-136.878H485.787Z" fill="#008F00"/>
</g>
</g>
<rect x="0.5" y="0.5" width="793" height="387" stroke="black" shape-rendering="crispEdges"/>
</g>
<defs>
<filter id="filter0_d_1383_13578" x="-4" y="0" width="802" height="396" filterUnits="userSpaceOnUse" color-interpolation-filters="sRGB">
<feFlood flood-opacity="0" result="BackgroundImageFix"/>
<feColorMatrix in="SourceAlpha" type="matrix" values="0 0 0 0 0 0 0 0 0 0 0 0 0 0 0 0 0 0 127 0" result="hardAlpha"/>
<feOffset dy="4"/>
<feGaussianBlur stdDeviation="2"/>
<feComposite in2="hardAlpha" operator="out"/>
<feColorMatrix type="matrix" values="0 0 0 0 0 0 0 0 0 0 0 0 0 0 0 0 0 0 0.25 0"/>
<feBlend mode="normal" in2="BackgroundImageFix" result="effect1_dropShadow_1383_13578"/>
<feBlend mode="normal" in="SourceGraphic" in2="effect1_dropShadow_1383_13578" result="shape"/>
</filter>
<clipPath id="clip0_1383_13578">
<rect width="794" height="388" fill="white"/>
</clipPath>
</defs>
</svg>
