<?xml version="1.0" encoding="UTF-8"?>
<svg id="Camada_2" data-name="Camada 2" xmlns="http://www.w3.org/2000/svg" xmlns:xlink="http://www.w3.org/1999/xlink" viewBox="0 0 276.25 370.79">
  <defs>
    <style>
      .cls-1 {
        fill: none;
      }

      .cls-2 {
        fill: #85cfe6;
      }

      .cls-3 {
        fill: #4bc0e4;
      }

      .cls-4 {
        fill: #71c9e5;
      }

      .cls-5 {
        fill: #3fbadf;
      }

      .cls-6 {
        opacity: .1;
      }

      .cls-7 {
        fill: #a0d8eb;
      }

      .cls-8 {
        fill: #d0eaf5;
      }

      .cls-9 {
        clip-path: url(#clippath);
      }

      .cls-10 {
        fill: #24b0db;
      }
    </style>
    <clipPath id="clippath">
      <rect class="cls-1" width="276.25" height="370.79"/>
    </clipPath>
  </defs>
  <g id="Camada_1-2" data-name="Camada 1">
    <g class="cls-6">
      <g class="cls-9">
        <path class="cls-8" d="M249.34,277.29c-2.47.4-4.99.6-7.53.6s-5.07-.2-7.54-.6c-9.32,1.51-17.94,5.82-24.84,12.5h-.01s-.52.52-.52.52l-.15.15-.38.38h0c-8.47,8.74-13.12,20.21-13.12,32.4,0,4.97.78,9.81,2.27,14.41h-24.89v-30.48h-25.27v-29.27h-31.97v86.32l-36.47-86.32h-1.02l-18.52,43.85-18.53-43.85h-1.02L1,369.79h196.88v-31.06c2.28,6.48,6,12.42,10.99,17.42,8.8,8.8,20.49,13.65,32.93,13.65s24.13-4.85,32.92-13.65l.53-.52-32.4-32.4,32.38-32.38-.52-.52c-6.99-6.99-15.8-11.48-25.37-13.02M241.81,322.16l-31.32-31.32c8.45-8.17,19.54-12.67,31.32-12.67s22.87,4.49,31.32,12.67l-31.32,31.32ZM116.88,278.18h28.99v28.99h-28.99v-28.99ZM79.05,368.32l-18.88-44.69,18.24-43.16,36.98,87.53v.32h-36.34ZM3.22,368.32l37.11-87.85,18.24,43.16-18.88,44.69H3.22ZM241.81,368.3c-12.04,0-23.36-4.69-31.88-13.2-8.5-8.51-13.18-19.83-13.18-31.85s4.5-22.89,12.68-31.34l32.38,32.37,31.34,31.34c-8.44,8.19-19.55,12.68-31.34,12.68M116.88,337.65v-28.99h54.26v28.99h-54.26ZM41.29,368.32l18.08-42.8,18.08,42.8h-36.17ZM117.01,368.3v-.24l-.14-.32v-28.6h79.52v29.16h-79.38Z"/>
        <path class="cls-7" d="M250.08,185.52c-2.71.48-5.47.73-8.28.73s-5.57-.25-8.28-.73c-9.04,1.61-17.38,5.87-24.1,12.38h-.01s-.52.52-.52.52l-.15.15-.38.38h0c-8.47,8.74-13.12,20.21-13.12,32.4,0,4.97.78,9.81,2.27,14.41h-24.89v-30.48h-25.27v-29.02h-31.97v86.07l-36.36-86.07h-1.23l-18.42,43.6-18.42-43.6h-1.23L1,277.89h38.83l.51-1.21.51,1.21h37.05l.51-1.21.51,1.21h36.47v-1.21h31.97v1.21h50.53v-31.06c2.28,6.48,6,12.42,10.99,17.42,6.99,7,15.82,11.49,25.4,13.04,2.47-.4,4.99-.6,7.54-.6s5.07.2,7.53.6c9.58-1.55,18.4-6.05,25.39-13.04l.53-.52-32.4-32.4,32.38-32.38-.52-.52c-6.81-6.8-15.35-11.24-24.63-12.9M241.81,230.27l-31.32-31.32c8.45-8.17,19.54-12.66,31.32-12.66s22.87,4.49,31.32,12.66l-31.32,31.32ZM116.88,186.28h28.99v28.99h-28.99v-28.99ZM79.05,276.42l-18.88-44.69,18.24-43.16,36.98,87.53v.32h-36.34ZM3.22,276.42l37.11-87.85,18.24,43.16-18.88,44.69H3.22ZM241.81,276.4c-12.04,0-23.36-4.69-31.88-13.21-8.5-8.51-13.18-19.82-13.18-31.85s4.5-22.89,12.68-31.34l32.38,32.37,31.34,31.34c-8.44,8.19-19.55,12.68-31.34,12.68M116.88,245.75v-28.99h54.26v28.99h-54.26ZM41.29,276.42l18.08-42.8,18.08,42.8h-36.17ZM117.01,276.4v-.24l-.14-.32v-28.6h79.52v29.16h-79.38Z"/>
        <path class="cls-2" d="M241.81,276.69c-2.55,0-5.07.2-7.54.6,2.47.4,4.99.6,7.54.6s5.07-.2,7.53-.6c-2.47-.4-4.99-.6-7.53-.6M147.36,276.69h-31.97v1.21h31.97v-1.21ZM78.41,276.69l-.51,1.21h1.02l-.51-1.21ZM40.34,276.69l-.51,1.21h1.02l-.51-1.21Z"/>
        <path class="cls-4" d="M248.51,93.62c-2.2.32-4.44.48-6.71.48s-4.51-.16-6.71-.48c-9.64,1.38-18.56,5.74-25.66,12.63h-.01s-.52.52-.52.52l-.15.15-.38.38h0c-8.47,8.74-13.12,20.21-13.12,32.4,0,4.97.78,9.81,2.27,14.41h-24.89v-30.48h-25.27v-29.53h-31.97v86.57l-36.58-86.57h-.81l-18.63,44.1-18.63-44.1h-.81L1,186.25h38.72l.62-1.46.62,1.46h36.84l.62-1.46.62,1.46h36.36v-1.46h31.97v1.46h50.53v-31.06c2.28,6.48,6,12.42,10.99,17.42,6.81,6.82,15.36,11.26,24.65,12.92,2.71-.48,5.47-.73,8.28-.73s5.57.25,8.28.73c9.29-1.66,17.84-6.1,24.64-12.92l.53-.52-32.4-32.4,32.38-32.38-.52-.53c-7.19-7.18-16.31-11.73-26.19-13.15M241.81,138.62l-31.32-31.32c8.45-8.17,19.54-12.66,31.32-12.66s22.87,4.49,31.32,12.66l-31.32,31.32ZM116.88,94.64h28.99v28.99h-28.99v-28.99ZM79.05,184.78l-18.88-44.69,18.24-43.16,36.98,87.53v.32h-36.34ZM3.22,184.78l37.11-87.85,18.24,43.16-18.88,44.69H3.22ZM241.81,184.76c-12.04,0-23.36-4.69-31.88-13.21-8.5-8.51-13.18-19.82-13.18-31.85s4.5-22.89,12.68-31.34l32.38,32.37,31.34,31.34c-8.44,8.19-19.55,12.68-31.34,12.68M116.88,154.11v-28.99h54.26v28.99h-54.26ZM41.29,184.78l18.08-42.8,18.08,42.8h-36.17ZM117.01,184.76v-.24l-.14-.32v-28.6h79.52v29.16h-79.38Z"/>
        <path class="cls-3" d="M241.81,184.79c-2.8,0-5.57.25-8.28.73,2.7.48,5.47.73,8.28.73s5.57-.25,8.28-.73c-2.71-.48-5.47-.73-8.28-.73M147.36,184.79h-31.97v1.46h31.97v-1.46ZM78.41,184.79l-.62,1.46h1.23l-.62-1.46ZM40.34,184.79l-.62,1.46h1.23l-.62-1.46Z"/>
        <path class="cls-5" d="M241.81,1c-12.17,0-23.65,4.65-32.37,13.11h-.01s-.52.52-.52.52l-.15.15-.38.38h0c-8.47,8.74-13.12,20.21-13.12,32.4,0,4.97.78,9.81,2.27,14.41h-24.89v-30.48h-25.27V1h-31.97v87.53L78.41,1l-19.03,45.05L40.34,1,1,94.1h38.93l.4-.95.4.95h37.26l.4-.95.4.95h36.58v-.95h31.97v.95h50.53v-31.06c2.28,6.48,6,12.42,10.99,17.42,7.2,7.2,16.33,11.75,26.22,13.17,2.2-.32,4.44-.48,6.71-.48s4.51.16,6.71.48c9.89-1.42,19.03-5.97,26.21-13.17l.53-.52-32.4-32.4,32.38-32.38-.52-.53c-8.79-8.79-20.48-13.63-32.9-13.63M241.81,46.48l-31.32-31.32c8.45-8.17,19.54-12.66,31.32-12.66s22.87,4.49,31.32,12.66l-31.32,31.32ZM116.88,2.49h28.99v28.99h-28.99V2.49ZM79.05,92.63l-18.88-44.69L78.41,4.78l36.98,87.53v.32h-36.34ZM3.22,92.63L40.34,4.78l18.24,43.16-18.88,44.69H3.22ZM241.81,92.61c-12.04,0-23.36-4.69-31.88-13.21-8.5-8.51-13.18-19.82-13.18-31.85s4.5-22.89,12.68-31.34l32.38,32.37,31.34,31.34c-8.44,8.19-19.55,12.68-31.34,12.68M116.88,61.96v-28.99h54.26v28.99h-54.26ZM41.29,92.63l18.08-42.8,18.08,42.8h-36.17ZM117.01,92.61v-.24l-.14-.32v-28.6h79.52v29.16h-79.38Z"/>
        <path class="cls-10" d="M241.81,93.15c-2.27,0-4.51.16-6.71.48,2.2.32,4.44.48,6.71.48s4.51-.16,6.71-.48c-2.2-.32-4.44-.48-6.71-.48M147.36,93.15h-31.97v.95h31.97v-.95ZM78.41,93.15l-.4.95h.81l-.4-.95ZM40.34,93.15l-.4.95h.81l-.4-.95Z"/>
      </g>
    </g>
  </g>
</svg>