<svg width="794" height="1123" viewBox="0 0 794 1123" fill="none" xmlns="http://www.w3.org/2000/svg">
<g clip-path="url(#clip0_2316_2516)">
<rect width="794" height="1123" fill="white"/>
<g clip-path="url(#clip1_2316_2516)">
<rect width="2025" height="1541" transform="translate(1994 1236) rotate(-180)" fill="white" fill-opacity="0.1"/>
<path d="M-59.9894 528.5L-59.9894 -68.0008L867.68 -68.0007C877.567 5.67193 881.528 152.975 899 221C493.042 222.005 117.083 390.996 -59.9995 528.5L-59.9894 528.5Z" fill="#10AAD9"/>
<path d="M-30.9998 625.27L-30.9997 302.214C40.2836 296.729 189.24 320.154 319.108 567.418C377.242 678.092 444.31 764.882 513.352 829.853C456.516 937.571 375.379 1036.96 291.789 1125.11C144.346 957.384 67.9327 706.848 -30.9998 625.27Z" fill="#66D3F4"/>
<path d="M-31.0001 1236L-31 625.27C67.9276 706.848 144.341 957.384 291.789 1125.11C254.55 1164.4 216.832 1201.45 180.574 1236L-31.0001 1236Z" fill="#183EFF"/>
<path d="M425.168 1236C374.598 1207.92 330.719 1169.4 291.789 1125.11C375.379 1036.96 456.515 937.571 513.351 829.857C688.281 994.686 875.741 1019.71 961.606 939.545C966.43 1074.99 926.69 1178.64 853.333 1236L425.168 1236Z" fill="#0095DA"/>
</g>
<path d="M31.5625 56.8008C31.5625 54.3008 32.1419 51.9505 33.3008 49.75C34.4596 47.5495 36.0742 45.7786 38.1445 44.4375C40.2279 43.0833 42.513 42.4062 45 42.4062C46.5495 42.4062 48.0273 42.6797 49.4336 43.2266C50.8398 43.7604 52.0703 44.4961 53.125 45.4336C54.1927 46.3711 55.1172 47.4518 55.8984 48.6758C56.6927 49.8997 57.2917 51.2148 57.6953 52.6211C58.112 54.0143 58.3203 55.4206 58.3203 56.8398C58.3203 59.3529 57.7409 61.7031 56.582 63.8906C55.4362 66.0781 53.8281 67.8424 51.7578 69.1836C49.6875 70.5247 47.4089 71.1953 44.9219 71.1953C42.9948 71.1953 41.1849 70.7917 39.4922 69.9844C37.7995 69.1641 36.3802 68.0833 35.2344 66.7422C34.1016 65.388 33.2031 63.8516 32.5391 62.1328C31.888 60.401 31.5625 58.6237 31.5625 56.8008ZM44.9609 67.9531C46.4193 67.9531 47.7669 67.6341 49.0039 66.9961C50.2539 66.3451 51.2826 65.4922 52.0898 64.4375C52.9102 63.3828 53.5482 62.1914 54.0039 60.8633C54.4596 59.5352 54.6875 58.181 54.6875 56.8008C54.6875 54.8607 54.2839 53.0508 53.4766 51.3711C52.6693 49.6784 51.5104 48.3112 50 47.2695C48.5026 46.2148 46.8229 45.6875 44.9609 45.6875C43.5026 45.6875 42.1484 46.0065 40.8984 46.6445C39.6484 47.2826 38.6133 48.1289 37.793 49.1836C36.9857 50.2253 36.3477 51.4102 35.8789 52.7383C35.4232 54.0534 35.1953 55.4076 35.1953 56.8008C35.1953 58.2461 35.4297 59.6458 35.8984 61C36.3802 62.3411 37.0378 63.526 37.8711 64.5547C38.7044 65.5833 39.7331 66.4102 40.957 67.0352C42.194 67.6471 43.5286 67.9531 44.9609 67.9531ZM94.043 71V56.0391L89.2773 66.5664H85.1172L80.3516 56.0391V71H72.5586V42.6016H81.0742L87.1875 55.9609L93.3594 42.6016H101.836V71H94.043ZM126.934 64.2031V71H106.699V42.6016H126.582V49.3984H114.492V53.4023H124.824V59.7109H114.492V64.2031H126.934ZM143.047 42.4453C145.716 42.4453 148.073 43.0052 150.117 44.125C152.161 45.2448 153.685 46.7487 154.688 48.6367L148.73 52.875C148.47 52.2109 148.118 51.6445 147.676 51.1758C147.233 50.694 146.738 50.3294 146.191 50.082C145.645 49.8216 145.098 49.6393 144.551 49.5352C144.017 49.418 143.464 49.3594 142.891 49.3594C141.823 49.3594 140.866 49.5807 140.02 50.0234C139.173 50.4531 138.496 51.0326 137.988 51.7617C137.493 52.4779 137.116 53.2656 136.855 54.125C136.595 54.9844 136.465 55.8763 136.465 56.8008C136.465 58.8711 137.057 60.6419 138.242 62.1133C139.427 63.5846 141.003 64.3203 142.969 64.3203C143.737 64.3203 144.473 64.2161 145.176 64.0078C145.879 63.7865 146.549 63.4089 147.188 62.875C147.839 62.3281 148.314 61.651 148.613 60.8438L154.98 64.6328C154.447 65.974 153.509 67.1589 152.168 68.1875C150.84 69.2161 149.362 69.9844 147.734 70.4922C146.107 70.987 144.466 71.2344 142.812 71.2344C140.781 71.2344 138.861 70.8112 137.051 69.9648C135.254 69.1185 133.737 68.0117 132.5 66.6445C131.276 65.2643 130.306 63.6953 129.59 61.9375C128.887 60.1667 128.535 58.3763 128.535 56.5664C128.535 54.8216 128.867 53.1159 129.531 51.4492C130.208 49.7695 131.146 48.2591 132.344 46.918C133.555 45.5768 135.091 44.4961 136.953 43.6758C138.815 42.8555 140.846 42.4453 143.047 42.4453ZM188.184 67.7969V71H168.906V42.6016H187.832V45.8047H172.5V55.0039H185.82V57.9922H172.5V67.7969H188.184ZM209.805 48.5586C209.089 47.7513 208.021 47.0612 206.602 46.4883C205.195 45.9023 203.691 45.6094 202.09 45.6094C199.941 45.6094 198.333 46.013 197.266 46.8203C196.211 47.6276 195.684 48.7669 195.684 50.2383C195.684 50.7461 195.742 51.1953 195.859 51.5859C195.99 51.9766 196.204 52.3281 196.504 52.6406C196.803 52.9531 197.129 53.2266 197.48 53.4609C197.845 53.6823 198.34 53.9036 198.965 54.125C199.59 54.3333 200.208 54.5156 200.82 54.6719C201.432 54.8281 202.214 55.0169 203.164 55.2383C204.44 55.5247 205.534 55.8177 206.445 56.1172C207.357 56.4036 208.236 56.7682 209.082 57.2109C209.928 57.6406 210.605 58.1289 211.113 58.6758C211.621 59.2227 212.025 59.8932 212.324 60.6875C212.624 61.4688 212.773 62.3607 212.773 63.3633C212.773 65.1341 212.311 66.625 211.387 67.8359C210.462 69.0469 209.238 69.9258 207.715 70.4727C206.204 71.0065 204.447 71.2734 202.441 71.2734C198.014 71.2734 194.16 69.9453 190.879 67.2891L192.598 64.2422C193.548 65.2448 194.935 66.1302 196.758 66.8984C198.581 67.6536 200.501 68.0312 202.52 68.0312C204.564 68.0312 206.139 67.6667 207.246 66.9375C208.366 66.1953 208.926 65.1211 208.926 63.7148C208.926 63.2591 208.861 62.8424 208.73 62.4648C208.6 62.0872 208.431 61.7552 208.223 61.4688C208.027 61.1693 207.734 60.8893 207.344 60.6289C206.953 60.3685 206.562 60.1471 206.172 59.9648C205.781 59.7695 205.267 59.5677 204.629 59.3594C204.004 59.151 203.411 58.9753 202.852 58.832C202.292 58.6758 201.582 58.4935 200.723 58.2852C199.486 57.9857 198.438 57.6927 197.578 57.4062C196.719 57.1068 195.911 56.7552 195.156 56.3516C194.414 55.9349 193.822 55.4792 193.379 54.9844C192.936 54.4766 192.591 53.8776 192.344 53.1875C192.096 52.4974 191.973 51.7031 191.973 50.8047C191.973 49.0339 192.415 47.5104 193.301 46.2344C194.186 44.9453 195.391 43.9883 196.914 43.3633C198.438 42.7253 200.189 42.4062 202.168 42.4062C205.723 42.4062 208.828 43.487 211.484 45.6484L209.805 48.5586ZM237.988 45.8047H228.184V71H224.59V45.8047H214.785V42.6016H237.988V45.8047ZM250.781 39.2031L248.457 38.4023L250.781 34.3594H254.297L250.781 39.2031ZM248.008 42.6016H251.055L262.656 71H258.809L255.449 62.6797H243.535L240.215 71H236.367L248.008 42.6016ZM254.648 59.8867L249.531 46.7617L244.258 59.8867H254.648ZM272.227 66.7617C273.633 67.7253 275.391 68.207 277.5 68.207C278.503 68.207 279.355 68.0703 280.059 67.7969C280.762 67.5234 281.341 67.1393 281.797 66.6445C282.253 66.1367 282.604 65.4466 282.852 64.5742C283.112 63.6888 283.288 62.7253 283.379 61.6836C283.483 60.6419 283.535 59.3594 283.535 57.8359V42.6016H287.148V57.0352C287.148 58.3503 287.116 59.5091 287.051 60.5117C286.999 61.5143 286.888 62.543 286.719 63.5977C286.562 64.6393 286.341 65.5378 286.055 66.293C285.768 67.0352 285.384 67.7513 284.902 68.4414C284.434 69.1185 283.867 69.6654 283.203 70.082C282.539 70.4987 281.738 70.8307 280.801 71.0781C279.863 71.3255 278.802 71.4492 277.617 71.4492C275.143 71.4492 273.04 70.8568 271.309 69.6719L272.227 66.7617ZM305.352 71.1953C303.594 71.1953 302.018 70.9349 300.625 70.4141C299.232 69.8802 298.079 69.1706 297.168 68.2852C296.27 67.3997 295.514 66.3451 294.902 65.1211C294.303 63.8841 293.874 62.5951 293.613 61.2539C293.366 59.8997 293.242 58.4674 293.242 56.957V42.6016H296.836V56.957C296.836 58.1289 296.921 59.2292 297.09 60.2578C297.259 61.2865 297.546 62.2826 297.949 63.2461C298.366 64.1966 298.887 65.0169 299.512 65.707C300.15 66.3841 300.964 66.931 301.953 67.3477C302.943 67.7513 304.062 67.9531 305.312 67.9531C306.237 67.9531 307.083 67.849 307.852 67.6406C308.633 67.4193 309.31 67.1198 309.883 66.7422C310.469 66.3516 310.983 65.8828 311.426 65.3359C311.882 64.7891 312.259 64.2031 312.559 63.5781C312.858 62.9531 313.099 62.2695 313.281 61.5273C313.477 60.7721 313.613 60.0234 313.691 59.2812C313.783 58.5391 313.828 57.7643 313.828 56.957V42.6016H317.441V56.957C317.441 58.5326 317.305 60.0104 317.031 61.3906C316.758 62.7708 316.309 64.0664 315.684 65.2773C315.072 66.4883 314.303 67.5299 313.379 68.4023C312.454 69.2617 311.309 69.9453 309.941 70.4531C308.574 70.9479 307.044 71.1953 305.352 71.1953ZM327.422 49.2422V71H323.828V42.6016H326.875L344.238 64.8086V42.6406H347.832V71H344.551L327.422 49.2422ZM375.098 45.8047H365.293V71H361.699V45.8047H351.895V42.6016H375.098V45.8047ZM376.484 56.8008C376.484 54.3008 377.064 51.9505 378.223 49.75C379.382 47.5495 380.996 45.7786 383.066 44.4375C385.15 43.0833 387.435 42.4062 389.922 42.4062C391.471 42.4062 392.949 42.6797 394.355 43.2266C395.762 43.7604 396.992 44.4961 398.047 45.4336C399.115 46.3711 400.039 47.4518 400.82 48.6758C401.615 49.8997 402.214 51.2148 402.617 52.6211C403.034 54.0143 403.242 55.4206 403.242 56.8398C403.242 59.3529 402.663 61.7031 401.504 63.8906C400.358 66.0781 398.75 67.8424 396.68 69.1836C394.609 70.5247 392.331 71.1953 389.844 71.1953C387.917 71.1953 386.107 70.7917 384.414 69.9844C382.721 69.1641 381.302 68.0833 380.156 66.7422C379.023 65.388 378.125 63.8516 377.461 62.1328C376.81 60.401 376.484 58.6237 376.484 56.8008ZM389.883 67.9531C391.341 67.9531 392.689 67.6341 393.926 66.9961C395.176 66.3451 396.204 65.4922 397.012 64.4375C397.832 63.3828 398.47 62.1914 398.926 60.8633C399.382 59.5352 399.609 58.181 399.609 56.8008C399.609 54.8607 399.206 53.0508 398.398 51.3711C397.591 49.6784 396.432 48.3112 394.922 47.2695C393.424 46.2148 391.745 45.6875 389.883 45.6875C388.424 45.6875 387.07 46.0065 385.82 46.6445C384.57 47.2826 383.535 48.1289 382.715 49.1836C381.908 50.2253 381.27 51.4102 380.801 52.7383C380.345 54.0534 380.117 55.4076 380.117 56.8008C380.117 58.2461 380.352 59.6458 380.82 61C381.302 62.3411 381.96 63.526 382.793 64.5547C383.626 65.5833 384.655 66.4102 385.879 67.0352C387.116 67.6471 388.451 67.9531 389.883 67.9531ZM430.039 42.4453C432.487 42.4453 434.629 43.0117 436.465 44.1445C438.314 45.2643 439.694 46.7617 440.605 48.6367L437.754 50.4727C437.35 49.6133 436.842 48.8646 436.23 48.2266C435.618 47.5755 434.954 47.0742 434.238 46.7227C433.535 46.3711 432.819 46.1107 432.09 45.9414C431.374 45.7721 430.638 45.6875 429.883 45.6875C428.359 45.6875 426.966 46.013 425.703 46.6641C424.44 47.3151 423.411 48.1745 422.617 49.2422C421.836 50.2969 421.23 51.4753 420.801 52.7773C420.371 54.0664 420.156 55.3945 420.156 56.7617C420.156 58.7279 420.579 60.5703 421.426 62.2891C422.272 63.9948 423.451 65.375 424.961 66.4297C426.484 67.4714 428.164 67.9922 430 67.9922C431.042 67.9922 432.057 67.8294 433.047 67.5039C434.049 67.1654 435.013 66.612 435.938 65.8438C436.875 65.0625 437.604 64.112 438.125 62.9922L441.113 64.6328C440.54 65.987 439.629 67.1784 438.379 68.207C437.142 69.2227 435.781 69.9844 434.297 70.4922C432.826 70.987 431.341 71.2344 429.844 71.2344C427.956 71.2344 426.172 70.8112 424.492 69.9648C422.812 69.1185 421.4 68.0052 420.254 66.625C419.108 65.2448 418.197 63.6823 417.52 61.9375C416.855 60.1797 416.523 58.4023 416.523 56.6055C416.523 55.2253 416.712 53.8581 417.09 52.5039C417.48 51.1367 418.06 49.8542 418.828 48.6562C419.596 47.4453 420.508 46.3776 421.562 45.4531C422.63 44.5286 423.893 43.7995 425.352 43.2656C426.823 42.7188 428.385 42.4453 430.039 42.4453ZM443.477 56.8008C443.477 54.3008 444.056 51.9505 445.215 49.75C446.374 47.5495 447.988 45.7786 450.059 44.4375C452.142 43.0833 454.427 42.4062 456.914 42.4062C458.464 42.4062 459.941 42.6797 461.348 43.2266C462.754 43.7604 463.984 44.4961 465.039 45.4336C466.107 46.3711 467.031 47.4518 467.812 48.6758C468.607 49.8997 469.206 51.2148 469.609 52.6211C470.026 54.0143 470.234 55.4206 470.234 56.8398C470.234 59.3529 469.655 61.7031 468.496 63.8906C467.35 66.0781 465.742 67.8424 463.672 69.1836C461.602 70.5247 459.323 71.1953 456.836 71.1953C454.909 71.1953 453.099 70.7917 451.406 69.9844C449.714 69.1641 448.294 68.0833 447.148 66.7422C446.016 65.388 445.117 63.8516 444.453 62.1328C443.802 60.401 443.477 58.6237 443.477 56.8008ZM456.875 67.9531C458.333 67.9531 459.681 67.6341 460.918 66.9961C462.168 66.3451 463.197 65.4922 464.004 64.4375C464.824 63.3828 465.462 62.1914 465.918 60.8633C466.374 59.5352 466.602 58.181 466.602 56.8008C466.602 54.8607 466.198 53.0508 465.391 51.3711C464.583 49.6784 463.424 48.3112 461.914 47.2695C460.417 46.2148 458.737 45.6875 456.875 45.6875C455.417 45.6875 454.062 46.0065 452.812 46.6445C451.562 47.2826 450.527 48.1289 449.707 49.1836C448.9 50.2253 448.262 51.4102 447.793 52.7383C447.337 54.0534 447.109 55.4076 447.109 56.8008C447.109 58.2461 447.344 59.6458 447.812 61C448.294 62.3411 448.952 63.526 449.785 64.5547C450.618 65.5833 451.647 66.4102 452.871 67.0352C454.108 67.6471 455.443 67.9531 456.875 67.9531ZM499.805 71V49.3203L490.43 66H488.242L478.828 49.3203V71H475.234V42.6016H479.043L489.316 61.0391L499.629 42.6016H503.398V71H499.805ZM527.695 42.6016H530.742L542.344 71H538.496L535.137 62.6797H523.223L519.902 71H516.055L527.695 42.6016ZM534.336 59.8867L529.219 46.7617L523.945 59.8867H534.336ZM562.422 48.5586C561.706 47.7513 560.638 47.0612 559.219 46.4883C557.812 45.9023 556.309 45.6094 554.707 45.6094C552.559 45.6094 550.951 46.013 549.883 46.8203C548.828 47.6276 548.301 48.7669 548.301 50.2383C548.301 50.7461 548.359 51.1953 548.477 51.5859C548.607 51.9766 548.822 52.3281 549.121 52.6406C549.421 52.9531 549.746 53.2266 550.098 53.4609C550.462 53.6823 550.957 53.9036 551.582 54.125C552.207 54.3333 552.826 54.5156 553.438 54.6719C554.049 54.8281 554.831 55.0169 555.781 55.2383C557.057 55.5247 558.151 55.8177 559.062 56.1172C559.974 56.4036 560.853 56.7682 561.699 57.2109C562.546 57.6406 563.223 58.1289 563.73 58.6758C564.238 59.2227 564.642 59.8932 564.941 60.6875C565.241 61.4688 565.391 62.3607 565.391 63.3633C565.391 65.1341 564.928 66.625 564.004 67.8359C563.079 69.0469 561.855 69.9258 560.332 70.4727C558.822 71.0065 557.064 71.2734 555.059 71.2734C550.632 71.2734 546.777 69.9453 543.496 67.2891L545.215 64.2422C546.165 65.2448 547.552 66.1302 549.375 66.8984C551.198 67.6536 553.118 68.0312 555.137 68.0312C557.181 68.0312 558.757 67.6667 559.863 66.9375C560.983 66.1953 561.543 65.1211 561.543 63.7148C561.543 63.2591 561.478 62.8424 561.348 62.4648C561.217 62.0872 561.048 61.7552 560.84 61.4688C560.645 61.1693 560.352 60.8893 559.961 60.6289C559.57 60.3685 559.18 60.1471 558.789 59.9648C558.398 59.7695 557.884 59.5677 557.246 59.3594C556.621 59.151 556.029 58.9753 555.469 58.832C554.909 58.6758 554.199 58.4935 553.34 58.2852C552.103 57.9857 551.055 57.6927 550.195 57.4062C549.336 57.1068 548.529 56.7552 547.773 56.3516C547.031 55.9349 546.439 55.4792 545.996 54.9844C545.553 54.4766 545.208 53.8776 544.961 53.1875C544.714 52.4974 544.59 51.7031 544.59 50.8047C544.59 49.0339 545.033 47.5104 545.918 46.2344C546.803 44.9453 548.008 43.9883 549.531 43.3633C551.055 42.7253 552.806 42.4062 554.785 42.4062C558.34 42.4062 561.445 43.487 564.102 45.6484L562.422 48.5586ZM44.8438 117.234C43.0729 117.234 41.4648 116.987 40.0195 116.492C38.5872 115.997 37.3763 115.32 36.3867 114.461C35.4102 113.602 34.5898 112.573 33.9258 111.375C33.2617 110.177 32.7799 108.901 32.4805 107.547C32.181 106.18 32.0312 104.728 32.0312 103.191V88.6016H39.8438V103.191C39.8438 104.168 39.9349 105.073 40.1172 105.906C40.3125 106.74 40.599 107.495 40.9766 108.172C41.3672 108.836 41.888 109.363 42.5391 109.754C43.2031 110.132 43.9714 110.32 44.8438 110.32C45.7292 110.32 46.5039 110.125 47.168 109.734C47.832 109.344 48.3529 108.81 48.7305 108.133C49.1211 107.443 49.4076 106.688 49.5898 105.867C49.7852 105.034 49.8828 104.142 49.8828 103.191V88.6016H57.6758V103.191C57.6758 105.21 57.4154 107.059 56.8945 108.738C56.3737 110.418 55.599 111.896 54.5703 113.172C53.5547 114.448 52.2135 115.444 50.5469 116.16C48.8932 116.876 46.9922 117.234 44.8438 117.234ZM69.9609 103.035V117H62.168V88.6016H68.2422L79.6484 103.035V88.6016H87.4414V117H81.25L69.9609 103.035ZM92.3242 117V88.6016H100.117V117H92.3242ZM110.508 88.6016L116.055 107.996L121.543 88.6016H129.746L119.941 117H112.188L102.266 88.6016H110.508ZM152.129 110.203V117H131.895V88.6016H151.777V95.3984H139.688V99.4023H150.02V105.711H139.688V110.203H152.129ZM155.762 117V88.6016H168.809C170.15 88.6016 171.426 88.888 172.637 89.4609C173.848 90.0339 174.863 90.7826 175.684 91.707C176.504 92.6315 177.155 93.6862 177.637 94.8711C178.118 96.043 178.359 97.2344 178.359 98.4453C178.359 100.086 177.995 101.622 177.266 103.055C176.549 104.487 175.553 105.652 174.277 106.551L180.273 117H171.719L166.719 108.289H163.555V117H155.762ZM163.555 101.473H168.477C168.984 101.473 169.44 101.199 169.844 100.652C170.247 100.092 170.449 99.3568 170.449 98.4453C170.449 97.5339 170.221 96.7982 169.766 96.2383C169.31 95.6784 168.815 95.3984 168.281 95.3984H163.555V101.473ZM199.961 97.8789C199.844 97.8138 199.688 97.7227 199.492 97.6055C199.297 97.4883 198.9 97.2799 198.301 96.9805C197.702 96.681 197.116 96.4206 196.543 96.1992C195.97 95.9648 195.299 95.7565 194.531 95.5742C193.776 95.3789 193.079 95.2812 192.441 95.2812C190.918 95.2812 190.156 95.75 190.156 96.6875C190.156 96.8958 190.189 97.0846 190.254 97.2539C190.332 97.4232 190.462 97.5794 190.645 97.7227C190.827 97.8659 191.003 97.9896 191.172 98.0938C191.354 98.1979 191.628 98.3151 191.992 98.4453C192.357 98.5755 192.669 98.6797 192.93 98.7578C193.19 98.8359 193.587 98.9596 194.121 99.1289C194.655 99.2852 195.091 99.4154 195.43 99.5195C196.576 99.8711 197.546 100.216 198.34 100.555C199.147 100.893 199.928 101.31 200.684 101.805C201.439 102.286 202.044 102.82 202.5 103.406C202.956 103.992 203.314 104.702 203.574 105.535C203.848 106.355 203.984 107.286 203.984 108.328C203.984 109.643 203.776 110.828 203.359 111.883C202.943 112.938 202.389 113.803 201.699 114.48C201.022 115.145 200.208 115.698 199.258 116.141C198.307 116.583 197.331 116.896 196.328 117.078C195.339 117.26 194.29 117.352 193.184 117.352C191.139 117.352 188.997 117.052 186.758 116.453C184.518 115.841 182.546 115.034 180.84 114.031L184.199 107.195C184.329 107.286 184.505 107.404 184.727 107.547C184.961 107.677 185.43 107.924 186.133 108.289C186.849 108.641 187.552 108.953 188.242 109.227C188.932 109.5 189.746 109.754 190.684 109.988C191.634 110.21 192.513 110.32 193.32 110.32C194.831 110.32 195.586 109.904 195.586 109.07C195.586 108.758 195.488 108.484 195.293 108.25C195.098 108.003 194.772 107.781 194.316 107.586C193.861 107.378 193.418 107.208 192.988 107.078C192.572 106.935 191.973 106.753 191.191 106.531C190.423 106.297 189.785 106.095 189.277 105.926C186.725 105.066 184.883 104.038 183.75 102.84C182.63 101.629 182.07 100.001 182.07 97.957C182.07 96.4336 182.357 95.0534 182.93 93.8164C183.516 92.5794 184.297 91.5703 185.273 90.7891C186.263 90.0078 187.389 89.4089 188.652 88.9922C189.915 88.5755 191.257 88.3672 192.676 88.3672C195.71 88.3672 199.258 89.3893 203.32 91.4336L199.961 97.8789ZM207.441 117V88.6016H215.234V117H207.441ZM220.137 117V88.6016H231.055C233.346 88.6016 235.41 88.9727 237.246 89.7148C239.095 90.444 240.599 91.4596 241.758 92.7617C242.93 94.0508 243.822 95.5482 244.434 97.2539C245.059 98.9466 245.371 100.783 245.371 102.762C245.371 107.059 244.062 110.509 241.445 113.113C238.841 115.704 235.378 117 231.055 117H220.137ZM231.055 95.3984H227.93V110.203H231.055C233.047 110.203 234.609 109.513 235.742 108.133C236.888 106.753 237.461 104.962 237.461 102.762C237.461 100.535 236.888 98.7513 235.742 97.4102C234.596 96.069 233.034 95.3984 231.055 95.3984ZM254.16 88.6016H262.871L271.914 117H264.004L262.285 111.434H254.707L253.027 117H245.078L254.16 88.6016ZM261.035 106.238L258.516 96.2383L255.879 106.238H261.035ZM274.277 117V88.6016H285.195C287.487 88.6016 289.551 88.9727 291.387 89.7148C293.236 90.444 294.74 91.4596 295.898 92.7617C297.07 94.0508 297.962 95.5482 298.574 97.2539C299.199 98.9466 299.512 100.783 299.512 102.762C299.512 107.059 298.203 110.509 295.586 113.113C292.982 115.704 289.518 117 285.195 117H274.277ZM285.195 95.3984H282.07V110.203H285.195C287.188 110.203 288.75 109.513 289.883 108.133C291.029 106.753 291.602 104.962 291.602 102.762C291.602 100.535 291.029 98.7513 289.883 97.4102C288.737 96.069 287.174 95.3984 285.195 95.3984ZM323.145 110.203V117H302.91V88.6016H322.793V95.3984H310.703V99.4023H321.035V105.711H310.703V110.203H323.145ZM343.984 97.8789C343.867 97.8138 343.711 97.7227 343.516 97.6055C343.32 97.4883 342.923 97.2799 342.324 96.9805C341.725 96.681 341.139 96.4206 340.566 96.1992C339.993 95.9648 339.323 95.7565 338.555 95.5742C337.799 95.3789 337.103 95.2812 336.465 95.2812C334.941 95.2812 334.18 95.75 334.18 96.6875C334.18 96.8958 334.212 97.0846 334.277 97.2539C334.355 97.4232 334.486 97.5794 334.668 97.7227C334.85 97.8659 335.026 97.9896 335.195 98.0938C335.378 98.1979 335.651 98.3151 336.016 98.4453C336.38 98.5755 336.693 98.6797 336.953 98.7578C337.214 98.8359 337.611 98.9596 338.145 99.1289C338.678 99.2852 339.115 99.4154 339.453 99.5195C340.599 99.8711 341.569 100.216 342.363 100.555C343.171 100.893 343.952 101.31 344.707 101.805C345.462 102.286 346.068 102.82 346.523 103.406C346.979 103.992 347.337 104.702 347.598 105.535C347.871 106.355 348.008 107.286 348.008 108.328C348.008 109.643 347.799 110.828 347.383 111.883C346.966 112.938 346.413 113.803 345.723 114.48C345.046 115.145 344.232 115.698 343.281 116.141C342.331 116.583 341.354 116.896 340.352 117.078C339.362 117.26 338.314 117.352 337.207 117.352C335.163 117.352 333.021 117.052 330.781 116.453C328.542 115.841 326.569 115.034 324.863 114.031L328.223 107.195C328.353 107.286 328.529 107.404 328.75 107.547C328.984 107.677 329.453 107.924 330.156 108.289C330.872 108.641 331.576 108.953 332.266 109.227C332.956 109.5 333.77 109.754 334.707 109.988C335.658 110.21 336.536 110.32 337.344 110.32C338.854 110.32 339.609 109.904 339.609 109.07C339.609 108.758 339.512 108.484 339.316 108.25C339.121 108.003 338.796 107.781 338.34 107.586C337.884 107.378 337.441 107.208 337.012 107.078C336.595 106.935 335.996 106.753 335.215 106.531C334.447 106.297 333.809 106.095 333.301 105.926C330.749 105.066 328.906 104.038 327.773 102.84C326.654 101.629 326.094 100.001 326.094 97.957C326.094 96.4336 326.38 95.0534 326.953 93.8164C327.539 92.5794 328.32 91.5703 329.297 90.7891C330.286 90.0078 331.413 89.4089 332.676 88.9922C333.939 88.5755 335.28 88.3672 336.699 88.3672C339.733 88.3672 343.281 89.3893 347.344 91.4336L343.984 97.8789ZM360.449 117V88.6016H379.922V95.3984H368.242V100.125H377.773V106.434H368.242V117H360.449ZM403.223 110.203V117H382.988V88.6016H402.871V95.3984H390.781V99.4023H401.113V105.711H390.781V110.203H403.223ZM406.855 117V88.6016H417.773C420.065 88.6016 422.129 88.9727 423.965 89.7148C425.814 90.444 427.318 91.4596 428.477 92.7617C429.648 94.0508 430.54 95.5482 431.152 97.2539C431.777 98.9466 432.09 100.783 432.09 102.762C432.09 107.059 430.781 110.509 428.164 113.113C425.56 115.704 422.096 117 417.773 117H406.855ZM417.773 95.3984H414.648V110.203H417.773C419.766 110.203 421.328 109.513 422.461 108.133C423.607 106.753 424.18 104.962 424.18 102.762C424.18 100.535 423.607 98.7513 422.461 97.4102C421.315 96.069 419.753 95.3984 417.773 95.3984ZM455.723 110.203V117H435.488V88.6016H455.371V95.3984H443.281V99.4023H453.613V105.711H443.281V110.203H455.723ZM459.355 117V88.6016H472.402C473.743 88.6016 475.02 88.888 476.23 89.4609C477.441 90.0339 478.457 90.7826 479.277 91.707C480.098 92.6315 480.749 93.6862 481.23 94.8711C481.712 96.043 481.953 97.2344 481.953 98.4453C481.953 100.086 481.589 101.622 480.859 103.055C480.143 104.487 479.147 105.652 477.871 106.551L483.867 117H475.312L470.312 108.289H467.148V117H459.355ZM467.148 101.473H472.07C472.578 101.473 473.034 101.199 473.438 100.652C473.841 100.092 474.043 99.3568 474.043 98.4453C474.043 97.5339 473.815 96.7982 473.359 96.2383C472.904 95.6784 472.409 95.3984 471.875 95.3984H467.148V101.473ZM492.91 88.6016H501.621L510.664 117H502.754L501.035 111.434H493.457L491.777 117H483.828L492.91 88.6016ZM499.785 106.238L497.266 96.2383L494.629 106.238H499.785ZM513.027 117V88.6016H520.82V117H513.027ZM542.93 97.8789C542.812 97.8138 542.656 97.7227 542.461 97.6055C542.266 97.4883 541.868 97.2799 541.27 96.9805C540.671 96.681 540.085 96.4206 539.512 96.1992C538.939 95.9648 538.268 95.7565 537.5 95.5742C536.745 95.3789 536.048 95.2812 535.41 95.2812C533.887 95.2812 533.125 95.75 533.125 96.6875C533.125 96.8958 533.158 97.0846 533.223 97.2539C533.301 97.4232 533.431 97.5794 533.613 97.7227C533.796 97.8659 533.971 97.9896 534.141 98.0938C534.323 98.1979 534.596 98.3151 534.961 98.4453C535.326 98.5755 535.638 98.6797 535.898 98.7578C536.159 98.8359 536.556 98.9596 537.09 99.1289C537.624 99.2852 538.06 99.4154 538.398 99.5195C539.544 99.8711 540.514 100.216 541.309 100.555C542.116 100.893 542.897 101.31 543.652 101.805C544.408 102.286 545.013 102.82 545.469 103.406C545.924 103.992 546.283 104.702 546.543 105.535C546.816 106.355 546.953 107.286 546.953 108.328C546.953 109.643 546.745 110.828 546.328 111.883C545.911 112.938 545.358 113.803 544.668 114.48C543.991 115.145 543.177 115.698 542.227 116.141C541.276 116.583 540.299 116.896 539.297 117.078C538.307 117.26 537.259 117.352 536.152 117.352C534.108 117.352 531.966 117.052 529.727 116.453C527.487 115.841 525.514 115.034 523.809 114.031L527.168 107.195C527.298 107.286 527.474 107.404 527.695 107.547C527.93 107.677 528.398 107.924 529.102 108.289C529.818 108.641 530.521 108.953 531.211 109.227C531.901 109.5 532.715 109.754 533.652 109.988C534.603 110.21 535.482 110.32 536.289 110.32C537.799 110.32 538.555 109.904 538.555 109.07C538.555 108.758 538.457 108.484 538.262 108.25C538.066 108.003 537.741 107.781 537.285 107.586C536.829 107.378 536.387 107.208 535.957 107.078C535.54 106.935 534.941 106.753 534.16 106.531C533.392 106.297 532.754 106.095 532.246 105.926C529.694 105.066 527.852 104.038 526.719 102.84C525.599 101.629 525.039 100.001 525.039 97.957C525.039 96.4336 525.326 95.0534 525.898 93.8164C526.484 92.5794 527.266 91.5703 528.242 90.7891C529.232 90.0078 530.358 89.4089 531.621 88.9922C532.884 88.5755 534.225 88.3672 535.645 88.3672C538.678 88.3672 542.227 89.3893 546.289 91.4336L542.93 97.8789Z" fill="white"/>
</g>
<defs>
<clipPath id="clip0_2316_2516">
<rect width="794" height="1123" fill="white"/>
</clipPath>
<clipPath id="clip1_2316_2516">
<rect width="2025" height="1541" fill="white" transform="translate(1994 1236) rotate(-180)"/>
</clipPath>
</defs>
</svg>
