<?xml version="1.0" encoding="utf-8" standalone="no"?>
<!DOCTYPE svg PUBLIC "-//W3C//DTD SVG 1.1//EN"
  "http://www.w3.org/Graphics/SVG/1.1/DTD/svg11.dtd">
<svg xmlns:xlink="http://www.w3.org/1999/xlink" width="628.730496pt" height="211.148309pt" viewBox="0 0 628.730496 211.148309" xmlns="http://www.w3.org/2000/svg" version="1.1">
 <metadata>
  <rdf:RDF xmlns:dc="http://purl.org/dc/elements/1.1/" xmlns:cc="http://creativecommons.org/ns#" xmlns:rdf="http://www.w3.org/1999/02/22-rdf-syntax-ns#">
   <cc:Work>
    <dc:type rdf:resource="http://purl.org/dc/dcmitype/StillImage"/>
    <dc:date>2026-03-12T17:40:21.400502</dc:date>
    <dc:format>image/svg+xml</dc:format>
    <dc:creator>
     <cc:Agent>
      <dc:title>Matplotlib v3.10.8, https://matplotlib.org/</dc:title>
     </cc:Agent>
    </dc:creator>
   </cc:Work>
  </rdf:RDF>
 </metadata>
 <defs>
  <style type="text/css">*{stroke-linejoin: round; stroke-linecap: butt}</style>
 </defs>
 <g id="figure_1">
  <g id="patch_1">
   <path d="M 0 211.148309 
L 628.730496 211.148309 
L 628.730496 0 
L 0 0 
L 0 211.148309 
z
" style="fill: none; opacity: 0"/>
  </g>
  <g id="axes_1">
   <g id="patch_2">
    <path d="M 21.481725 185.815809 
L 607.248771 185.815809 
L 607.248771 7.2 
L 21.481725 7.2 
L 21.481725 185.815809 
z
" style="fill: none; opacity: 0"/>
   </g>
   <g id="matplotlib.axis_1">
    <g id="xtick_1">
     <g id="text_1">
      <!-- 2019 -->
      <g style="fill: #262626" transform="translate(30.3125 200.768309) scale(0.16 -0.16)">
       <defs>
        <path id="ArialMT-32" d="M 3222 541 
L 3222 0 
L 194 0 
Q 188 203 259 391 
Q 375 700 629 1000 
Q 884 1300 1366 1694 
Q 2113 2306 2375 2664 
Q 2638 3022 2638 3341 
Q 2638 3675 2398 3904 
Q 2159 4134 1775 4134 
Q 1369 4134 1125 3890 
Q 881 3647 878 3216 
L 300 3275 
Q 359 3922 746 4261 
Q 1134 4600 1788 4600 
Q 2447 4600 2831 4234 
Q 3216 3869 3216 3328 
Q 3216 3053 3103 2787 
Q 2991 2522 2730 2228 
Q 2469 1934 1863 1422 
Q 1356 997 1212 845 
Q 1069 694 975 541 
L 3222 541 
z
" transform="scale(0.015625)"/>
        <path id="ArialMT-30" d="M 266 2259 
Q 266 3072 433 3567 
Q 600 4063 929 4331 
Q 1259 4600 1759 4600 
Q 2128 4600 2406 4451 
Q 2684 4303 2865 4023 
Q 3047 3744 3150 3342 
Q 3253 2941 3253 2259 
Q 3253 1453 3087 958 
Q 2922 463 2592 192 
Q 2263 -78 1759 -78 
Q 1097 -78 719 397 
Q 266 969 266 2259 
z
M 844 2259 
Q 844 1131 1108 757 
Q 1372 384 1759 384 
Q 2147 384 2411 759 
Q 2675 1134 2675 2259 
Q 2675 3391 2411 3762 
Q 2147 4134 1753 4134 
Q 1366 4134 1134 3806 
Q 844 3388 844 2259 
z
" transform="scale(0.015625)"/>
        <path id="ArialMT-31" d="M 2384 0 
L 1822 0 
L 1822 3584 
Q 1619 3391 1289 3197 
Q 959 3003 697 2906 
L 697 3450 
Q 1169 3672 1522 3987 
Q 1875 4303 2022 4600 
L 2384 4600 
L 2384 0 
z
" transform="scale(0.015625)"/>
        <path id="ArialMT-39" d="M 350 1059 
L 891 1109 
Q 959 728 1153 556 
Q 1347 384 1650 384 
Q 1909 384 2104 503 
Q 2300 622 2425 820 
Q 2550 1019 2634 1356 
Q 2719 1694 2719 2044 
Q 2719 2081 2716 2156 
Q 2547 1888 2255 1720 
Q 1963 1553 1622 1553 
Q 1053 1553 659 1965 
Q 266 2378 266 3053 
Q 266 3750 677 4175 
Q 1088 4600 1706 4600 
Q 2153 4600 2523 4359 
Q 2894 4119 3086 3673 
Q 3278 3228 3278 2384 
Q 3278 1506 3087 986 
Q 2897 466 2520 194 
Q 2144 -78 1638 -78 
Q 1100 -78 759 220 
Q 419 519 350 1059 
z
M 2653 3081 
Q 2653 3566 2395 3850 
Q 2138 4134 1775 4134 
Q 1400 4134 1122 3828 
Q 844 3522 844 3034 
Q 844 2597 1108 2323 
Q 1372 2050 1759 2050 
Q 2150 2050 2401 2323 
Q 2653 2597 2653 3081 
z
" transform="scale(0.015625)"/>
       </defs>
       <use xlink:href="#ArialMT-32"/>
       <use xlink:href="#ArialMT-30" transform="translate(55.615234 0)"/>
       <use xlink:href="#ArialMT-31" transform="translate(111.230469 0)"/>
       <use xlink:href="#ArialMT-39" transform="translate(166.845703 0)"/>
      </g>
     </g>
    </g>
    <g id="xtick_2">
     <g id="text_2">
      <!-- 2020 -->
      <g style="fill: #262626" transform="translate(296.570248 200.768309) scale(0.16 -0.16)">
       <use xlink:href="#ArialMT-32"/>
       <use xlink:href="#ArialMT-30" transform="translate(55.615234 0)"/>
       <use xlink:href="#ArialMT-32" transform="translate(111.230469 0)"/>
       <use xlink:href="#ArialMT-30" transform="translate(166.845703 0)"/>
      </g>
     </g>
    </g>
    <g id="xtick_3">
     <g id="text_3">
      <!-- 2021 -->
      <g style="fill: #262626" transform="translate(562.827996 200.768309) scale(0.16 -0.16)">
       <use xlink:href="#ArialMT-32"/>
       <use xlink:href="#ArialMT-30" transform="translate(55.615234 0)"/>
       <use xlink:href="#ArialMT-32" transform="translate(111.230469 0)"/>
       <use xlink:href="#ArialMT-31" transform="translate(166.845703 0)"/>
      </g>
     </g>
    </g>
   </g>
   <g id="matplotlib.axis_2"/>
   <g id="FillBetweenPolyCollection_1">
    <defs>
     <path id="md333d8b7b5" d="M 48.1075 -25.3325 
L 48.1075 -101.009748 
L 314.365248 -100.243068 
L 580.622996 -86.397653 
L 580.622996 -25.3325 
L 580.622996 -25.3325 
L 314.365248 -25.3325 
L 48.1075 -25.3325 
z
" style="stroke: #d9d9d9; stroke-opacity: 0.95"/>
    </defs>
    <g clip-path="url(#p1722f45b3e)">
     <use xlink:href="#md333d8b7b5" x="0" y="211.148309" style="fill: #d9d9d9; fill-opacity: 0.95; stroke: #d9d9d9; stroke-opacity: 0.95"/>
    </g>
   </g>
   <g id="FillBetweenPolyCollection_2">
    <defs>
     <path id="m5db01029ee" d="M 48.1075 -25.3325 
L 48.1075 -101.009748 
L 314.365248 -100.243068 
L 580.622996 -86.397653 
L 580.622996 -25.3325 
L 580.622996 -25.3325 
L 314.365248 -25.3325 
L 48.1075 -25.3325 
z
" style="stroke: #9bd6f4; stroke-opacity: 0.8"/>
    </defs>
    <g clip-path="url(#p1722f45b3e)">
     <use xlink:href="#m5db01029ee" x="0" y="211.148309" style="fill: #9bd6f4; fill-opacity: 0.8; stroke: #9bd6f4; stroke-opacity: 0.8"/>
    </g>
   </g>
   <g id="line2d_1">
    <path d="M 48.1075 110.138562 
L 314.365248 110.905242 
L 580.622996 124.750656 
" clip-path="url(#p1722f45b3e)" style="fill: none; stroke: #a1a1a1; stroke-width: 1.4; stroke-linecap: round"/>
    <defs>
     <path id="m1c49264838" d="M 0 1.6 
C 0.424325 1.6 0.831328 1.431414 1.131371 1.131371 
C 1.431414 0.831328 1.6 0.424325 1.6 0 
C 1.6 -0.424325 1.431414 -0.831328 1.131371 -1.131371 
C 0.831328 -1.431414 0.424325 -1.6 0 -1.6 
C -0.424325 -1.6 -0.831328 -1.431414 -1.131371 -1.131371 
C -1.431414 -0.831328 -1.6 -0.424325 -1.6 0 
C -1.6 0.424325 -1.431414 0.831328 -1.131371 1.131371 
C -0.831328 1.431414 -0.424325 1.6 0 1.6 
z
" style="stroke: #a1a1a1"/>
    </defs>
    <g clip-path="url(#p1722f45b3e)">
     <use xlink:href="#m1c49264838" x="48.1075" y="110.138562" style="fill: #a1a1a1; stroke: #a1a1a1"/>
     <use xlink:href="#m1c49264838" x="314.365248" y="110.905242" style="fill: #a1a1a1; stroke: #a1a1a1"/>
     <use xlink:href="#m1c49264838" x="580.622996" y="124.750656" style="fill: #a1a1a1; stroke: #a1a1a1"/>
    </g>
   </g>
   <g id="line2d_2">
    <path d="M 48.1075 110.138562 
L 314.365248 110.905242 
L 580.622996 124.750656 
" clip-path="url(#p1722f45b3e)" style="fill: none; stroke: #24b0db; stroke-width: 1.6; stroke-linecap: round"/>
    <defs>
     <path id="mb58c2f1484" d="M 0 1.6 
C 0.424325 1.6 0.831328 1.431414 1.131371 1.131371 
C 1.431414 0.831328 1.6 0.424325 1.6 0 
C 1.6 -0.424325 1.431414 -0.831328 1.131371 -1.131371 
C 0.831328 -1.431414 0.424325 -1.6 0 -1.6 
C -0.424325 -1.6 -0.831328 -1.431414 -1.131371 -1.131371 
C -1.431414 -0.831328 -1.6 -0.424325 -1.6 0 
C -1.6 0.424325 -1.431414 0.831328 -1.131371 1.131371 
C -0.831328 1.431414 -0.424325 1.6 0 1.6 
z
" style="stroke: #24b0db"/>
    </defs>
    <g clip-path="url(#p1722f45b3e)">
     <use xlink:href="#mb58c2f1484" x="48.1075" y="110.138562" style="fill: #24b0db; stroke: #24b0db"/>
     <use xlink:href="#mb58c2f1484" x="314.365248" y="110.905242" style="fill: #24b0db; stroke: #24b0db"/>
     <use xlink:href="#mb58c2f1484" x="580.622996" y="124.750656" style="fill: #24b0db; stroke: #24b0db"/>
    </g>
   </g>
   <g id="text_4">
    <!-- R$ 40,78Mi -->
    <g style="fill: #3f7f98" transform="translate(7.2 106.958562) scale(0.16 -0.16)">
     <defs>
      <path id="ArialMT-52" d="M 503 0 
L 503 4581 
L 2534 4581 
Q 3147 4581 3465 4457 
Q 3784 4334 3975 4021 
Q 4166 3709 4166 3331 
Q 4166 2844 3850 2509 
Q 3534 2175 2875 2084 
Q 3116 1969 3241 1856 
Q 3506 1613 3744 1247 
L 4541 0 
L 3778 0 
L 3172 953 
Q 2906 1366 2734 1584 
Q 2563 1803 2427 1890 
Q 2291 1978 2150 2013 
Q 2047 2034 1813 2034 
L 1109 2034 
L 1109 0 
L 503 0 
z
M 1109 2559 
L 2413 2559 
Q 2828 2559 3062 2645 
Q 3297 2731 3419 2920 
Q 3541 3109 3541 3331 
Q 3541 3656 3305 3865 
Q 3069 4075 2559 4075 
L 1109 4075 
L 1109 2559 
z
" transform="scale(0.015625)"/>
      <path id="ArialMT-24" d="M 1594 -659 
L 1594 -97 
Q 1172 -44 908 92 
Q 644 228 451 531 
Q 259 834 228 1272 
L 794 1378 
Q 859 925 1025 713 
Q 1263 413 1594 378 
L 1594 2169 
Q 1247 2234 884 2438 
Q 616 2588 470 2853 
Q 325 3119 325 3456 
Q 325 4056 750 4428 
Q 1034 4678 1594 4734 
L 1594 5003 
L 1925 5003 
L 1925 4734 
Q 2416 4688 2703 4447 
Q 3072 4141 3147 3606 
L 2566 3519 
Q 2516 3850 2358 4026 
Q 2200 4203 1925 4259 
L 1925 2638 
Q 2350 2531 2488 2472 
Q 2750 2356 2915 2190 
Q 3081 2025 3170 1797 
Q 3259 1569 3259 1303 
Q 3259 719 2887 328 
Q 2516 -63 1925 -91 
L 1925 -659 
L 1594 -659 
z
M 1594 4266 
Q 1266 4216 1077 4003 
Q 888 3791 888 3500 
Q 888 3213 1048 3019 
Q 1209 2825 1594 2709 
L 1594 4266 
z
M 1925 378 
Q 2253 419 2467 662 
Q 2681 906 2681 1266 
Q 2681 1572 2529 1758 
Q 2378 1944 1925 2091 
L 1925 378 
z
" transform="scale(0.015625)"/>
      <path id="ArialMT-20" transform="scale(0.015625)"/>
      <path id="ArialMT-34" d="M 2069 0 
L 2069 1097 
L 81 1097 
L 81 1613 
L 2172 4581 
L 2631 4581 
L 2631 1613 
L 3250 1613 
L 3250 1097 
L 2631 1097 
L 2631 0 
L 2069 0 
z
M 2069 1613 
L 2069 3678 
L 634 1613 
L 2069 1613 
z
" transform="scale(0.015625)"/>
      <path id="ArialMT-2c" d="M 569 0 
L 569 641 
L 1209 641 
L 1209 0 
Q 1209 -353 1084 -570 
Q 959 -788 688 -906 
L 531 -666 
Q 709 -588 793 -436 
Q 878 -284 888 0 
L 569 0 
z
" transform="scale(0.015625)"/>
      <path id="ArialMT-37" d="M 303 3981 
L 303 4522 
L 3269 4522 
L 3269 4084 
Q 2831 3619 2401 2847 
Q 1972 2075 1738 1259 
Q 1569 684 1522 0 
L 944 0 
Q 953 541 1156 1306 
Q 1359 2072 1739 2783 
Q 2119 3494 2547 3981 
L 303 3981 
z
" transform="scale(0.015625)"/>
      <path id="ArialMT-38" d="M 1131 2484 
Q 781 2613 612 2850 
Q 444 3088 444 3419 
Q 444 3919 803 4259 
Q 1163 4600 1759 4600 
Q 2359 4600 2725 4251 
Q 3091 3903 3091 3403 
Q 3091 3084 2923 2848 
Q 2756 2613 2416 2484 
Q 2838 2347 3058 2040 
Q 3278 1734 3278 1309 
Q 3278 722 2862 322 
Q 2447 -78 1769 -78 
Q 1091 -78 675 323 
Q 259 725 259 1325 
Q 259 1772 486 2073 
Q 713 2375 1131 2484 
z
M 1019 3438 
Q 1019 3113 1228 2906 
Q 1438 2700 1772 2700 
Q 2097 2700 2305 2904 
Q 2513 3109 2513 3406 
Q 2513 3716 2298 3927 
Q 2084 4138 1766 4138 
Q 1444 4138 1231 3931 
Q 1019 3725 1019 3438 
z
M 838 1322 
Q 838 1081 952 856 
Q 1066 631 1291 507 
Q 1516 384 1775 384 
Q 2178 384 2440 643 
Q 2703 903 2703 1303 
Q 2703 1709 2433 1975 
Q 2163 2241 1756 2241 
Q 1359 2241 1098 1978 
Q 838 1716 838 1322 
z
" transform="scale(0.015625)"/>
      <path id="ArialMT-4d" d="M 475 0 
L 475 4581 
L 1388 4581 
L 2472 1338 
Q 2622 884 2691 659 
Q 2769 909 2934 1394 
L 4031 4581 
L 4847 4581 
L 4847 0 
L 4263 0 
L 4263 3834 
L 2931 0 
L 2384 0 
L 1059 3900 
L 1059 0 
L 475 0 
z
" transform="scale(0.015625)"/>
      <path id="ArialMT-69" d="M 425 3934 
L 425 4581 
L 988 4581 
L 988 3934 
L 425 3934 
z
M 425 0 
L 425 3319 
L 988 3319 
L 988 0 
L 425 0 
z
" transform="scale(0.015625)"/>
     </defs>
     <use xlink:href="#ArialMT-52"/>
     <use xlink:href="#ArialMT-24" transform="translate(72.216797 0)"/>
     <use xlink:href="#ArialMT-20" transform="translate(127.832031 0)"/>
     <use xlink:href="#ArialMT-34" transform="translate(155.615234 0)"/>
     <use xlink:href="#ArialMT-30" transform="translate(211.230469 0)"/>
     <use xlink:href="#ArialMT-2c" transform="translate(266.845703 0)"/>
     <use xlink:href="#ArialMT-37" transform="translate(294.628906 0)"/>
     <use xlink:href="#ArialMT-38" transform="translate(350.244141 0)"/>
     <use xlink:href="#ArialMT-4d" transform="translate(405.859375 0)"/>
     <use xlink:href="#ArialMT-69" transform="translate(489.160156 0)"/>
    </g>
   </g>
   <g id="text_5">
    <!-- R$ 40,37Mi -->
    <g style="fill: #3f7f98" transform="translate(273.457748 107.725242) scale(0.16 -0.16)">
     <defs>
      <path id="ArialMT-33" d="M 269 1209 
L 831 1284 
Q 928 806 1161 595 
Q 1394 384 1728 384 
Q 2125 384 2398 659 
Q 2672 934 2672 1341 
Q 2672 1728 2419 1979 
Q 2166 2231 1775 2231 
Q 1616 2231 1378 2169 
L 1441 2663 
Q 1497 2656 1531 2656 
Q 1891 2656 2178 2843 
Q 2466 3031 2466 3422 
Q 2466 3731 2256 3934 
Q 2047 4138 1716 4138 
Q 1388 4138 1169 3931 
Q 950 3725 888 3313 
L 325 3413 
Q 428 3978 793 4289 
Q 1159 4600 1703 4600 
Q 2078 4600 2393 4439 
Q 2709 4278 2876 4000 
Q 3044 3722 3044 3409 
Q 3044 3113 2884 2869 
Q 2725 2625 2413 2481 
Q 2819 2388 3044 2092 
Q 3269 1797 3269 1353 
Q 3269 753 2831 336 
Q 2394 -81 1725 -81 
Q 1122 -81 723 278 
Q 325 638 269 1209 
z
" transform="scale(0.015625)"/>
     </defs>
     <use xlink:href="#ArialMT-52"/>
     <use xlink:href="#ArialMT-24" transform="translate(72.216797 0)"/>
     <use xlink:href="#ArialMT-20" transform="translate(127.832031 0)"/>
     <use xlink:href="#ArialMT-34" transform="translate(155.615234 0)"/>
     <use xlink:href="#ArialMT-30" transform="translate(211.230469 0)"/>
     <use xlink:href="#ArialMT-2c" transform="translate(266.845703 0)"/>
     <use xlink:href="#ArialMT-33" transform="translate(294.628906 0)"/>
     <use xlink:href="#ArialMT-37" transform="translate(350.244141 0)"/>
     <use xlink:href="#ArialMT-4d" transform="translate(405.859375 0)"/>
     <use xlink:href="#ArialMT-69" transform="translate(489.160156 0)"/>
    </g>
   </g>
   <g id="text_6">
    <!-- R$ 32,91Mi -->
    <g style="fill: #3f7f98" transform="translate(539.715496 121.570656) scale(0.16 -0.16)">
     <use xlink:href="#ArialMT-52"/>
     <use xlink:href="#ArialMT-24" transform="translate(72.216797 0)"/>
     <use xlink:href="#ArialMT-20" transform="translate(127.832031 0)"/>
     <use xlink:href="#ArialMT-33" transform="translate(155.615234 0)"/>
     <use xlink:href="#ArialMT-32" transform="translate(211.230469 0)"/>
     <use xlink:href="#ArialMT-2c" transform="translate(266.845703 0)"/>
     <use xlink:href="#ArialMT-39" transform="translate(294.628906 0)"/>
     <use xlink:href="#ArialMT-31" transform="translate(350.244141 0)"/>
     <use xlink:href="#ArialMT-4d" transform="translate(405.859375 0)"/>
     <use xlink:href="#ArialMT-69" transform="translate(489.160156 0)"/>
    </g>
   </g>
  </g>
 </g>
 <defs>
  <clipPath id="p1722f45b3e">
   <rect x="21.481725" y="7.2" width="585.767045" height="178.615809"/>
  </clipPath>
 </defs>
</svg>
