<?xml version="1.0" encoding="utf-8" standalone="no"?>
<!DOCTYPE svg PUBLIC "-//W3C//DTD SVG 1.1//EN"
  "http://www.w3.org/Graphics/SVG/1.1/DTD/svg11.dtd">
<svg xmlns:xlink="http://www.w3.org/1999/xlink" width="249pt" height="105pt" viewBox="0 0 249 105" xmlns="http://www.w3.org/2000/svg" version="1.1">
 <metadata>
  <rdf:RDF xmlns:dc="http://purl.org/dc/elements/1.1/" xmlns:cc="http://creativecommons.org/ns#" xmlns:rdf="http://www.w3.org/1999/02/22-rdf-syntax-ns#">
   <cc:Work>
    <dc:type rdf:resource="http://purl.org/dc/dcmitype/StillImage"/>
    <dc:date>2026-03-20T16:39:08.441331</dc:date>
    <dc:format>image/svg+xml</dc:format>
    <dc:creator>
     <cc:Agent>
      <dc:title>Matplotlib v3.10.8, https://matplotlib.org/</dc:title>
     </cc:Agent>
    </dc:creator>
   </cc:Work>
  </rdf:RDF>
 </metadata>
 <defs>
  <style type="text/css">*{stroke-linejoin: round; stroke-linecap: butt}</style>
 </defs>
 <g id="figure_1">
  <g id="patch_1">
   <path d="M 0 105 
L 249 105 
L 249 0 
L 0 0 
L 0 105 
z
" style="fill: none; opacity: 0"/>
  </g>
  <g id="axes_1">
   <g id="patch_2">
    <path d="M 12.45 73.5 
L 244.02 73.5 
L 244.02 7.35 
L 12.45 7.35 
L 12.45 73.5 
z
" style="fill: none"/>
   </g>
   <g id="matplotlib.axis_1">
    <g id="xtick_1">
     <g id="text_1">
      <!-- 2023 -->
      <g style="fill: #262626" transform="translate(35.708727 83.57) scale(0.09 -0.09)">
       <defs>
        <path id="Rawline-Regular-32" d="M 306 0 
Q 297 391 369 705 
Q 441 1019 591 1255 
Q 741 1491 936 1664 
Q 1131 1838 1394 1978 
Q 1522 2050 1726 2145 
Q 1931 2241 2073 2306 
Q 2216 2372 2381 2475 
Q 2547 2578 2648 2684 
Q 2750 2791 2819 2947 
Q 2888 3103 2888 3291 
Q 2888 3675 2634 3933 
Q 2381 4191 1906 4191 
Q 1672 4191 1461 4128 
Q 1250 4066 1092 3959 
Q 934 3853 828 3753 
Q 722 3653 634 3541 
L 347 3822 
Q 400 3888 459 3953 
Q 519 4019 673 4147 
Q 828 4275 995 4365 
Q 1163 4456 1420 4529 
Q 1678 4603 1953 4603 
Q 2294 4603 2569 4498 
Q 2844 4394 3014 4211 
Q 3184 4028 3275 3795 
Q 3366 3563 3366 3297 
Q 3366 3166 3341 3044 
Q 3316 2922 3280 2825 
Q 3244 2728 3176 2636 
Q 3109 2544 3050 2475 
Q 2991 2406 2894 2332 
Q 2797 2259 2726 2214 
Q 2656 2169 2542 2108 
Q 2428 2047 2359 2014 
Q 2291 1981 2172 1926 
Q 2053 1872 1997 1844 
Q 1678 1700 1451 1548 
Q 1225 1397 1098 1264 
Q 972 1131 900 972 
Q 828 813 806 689 
Q 784 566 781 397 
L 3372 397 
L 3372 0 
L 306 0 
z
" transform="scale(0.015625)"/>
        <path id="Rawline-Regular-30" d="M 306 2241 
Q 306 2653 439 3062 
Q 572 3472 809 3801 
Q 1047 4131 1408 4337 
Q 1769 4544 2188 4544 
Q 2488 4544 2756 4442 
Q 3025 4341 3226 4166 
Q 3428 3991 3589 3764 
Q 3750 3538 3853 3278 
Q 3956 3019 4009 2755 
Q 4063 2491 4063 2241 
Q 4063 1909 3980 1578 
Q 3897 1247 3734 955 
Q 3572 663 3350 436 
Q 3128 209 2826 75 
Q 2525 -59 2188 -63 
Q 1831 -53 1520 90 
Q 1209 234 990 467 
Q 772 700 614 997 
Q 456 1294 381 1611 
Q 306 1928 306 2241 
z
M 2188 341 
Q 2466 341 2703 461 
Q 2941 581 3105 776 
Q 3269 972 3387 1223 
Q 3506 1475 3561 1734 
Q 3616 1994 3616 2241 
Q 3616 2509 3555 2779 
Q 3494 3050 3372 3294 
Q 3250 3538 3081 3727 
Q 2913 3916 2681 4028 
Q 2450 4141 2188 4141 
Q 1909 4141 1670 4020 
Q 1431 3900 1267 3703 
Q 1103 3506 987 3254 
Q 872 3003 817 2745 
Q 763 2488 763 2241 
Q 772 1897 867 1567 
Q 963 1238 1134 959 
Q 1306 681 1579 511 
Q 1853 341 2188 341 
z
" transform="scale(0.015625)"/>
        <path id="Rawline-Regular-33" d="M 1825 -56 
Q 1219 -56 798 234 
Q 378 525 306 997 
L 575 1241 
Q 600 894 953 623 
Q 1306 353 1825 353 
Q 2316 353 2639 598 
Q 2963 844 2963 1228 
Q 2963 1647 2569 1889 
Q 2175 2131 1503 2131 
L 1288 2131 
L 1288 2509 
L 1503 2509 
Q 2138 2509 2489 2718 
Q 2841 2928 2841 3328 
Q 2841 3722 2534 3967 
Q 2228 4213 1791 4213 
Q 1381 4213 1076 4031 
Q 772 3850 647 3566 
L 347 3859 
Q 522 4200 919 4401 
Q 1316 4603 1784 4603 
Q 2434 4603 2865 4240 
Q 3297 3878 3297 3341 
Q 3297 2953 3069 2698 
Q 2841 2444 2406 2338 
Q 2859 2250 3136 1929 
Q 3413 1609 3413 1178 
Q 3413 809 3192 523 
Q 2972 238 2612 91 
Q 2253 -56 1825 -56 
z
" transform="scale(0.015625)"/>
       </defs>
       <use xlink:href="#Rawline-Regular-32"/>
       <use xlink:href="#Rawline-Regular-30" transform="translate(58.056641 0)"/>
       <use xlink:href="#Rawline-Regular-32" transform="translate(126.416016 0)"/>
       <use xlink:href="#Rawline-Regular-33" transform="translate(184.472656 0)"/>
      </g>
     </g>
    </g>
    <g id="xtick_2">
     <g id="text_2">
      <!-- 2024 -->
      <g style="fill: #262626" transform="translate(117.373125 83.57) scale(0.09 -0.09)">
       <defs>
        <path id="Rawline-Regular-34" d="M 2400 0 
L 2400 1216 
L 166 1216 
L 166 1606 
L 2534 4544 
L 2834 4544 
L 2834 1613 
L 3397 1613 
L 3397 1216 
L 2834 1216 
L 2834 0 
L 2400 0 
z
M 634 1613 
L 2438 1613 
L 2438 3866 
L 634 1613 
z
" transform="scale(0.015625)"/>
       </defs>
       <use xlink:href="#Rawline-Regular-32"/>
       <use xlink:href="#Rawline-Regular-30" transform="translate(58.056641 0)"/>
       <use xlink:href="#Rawline-Regular-32" transform="translate(126.416016 0)"/>
       <use xlink:href="#Rawline-Regular-34" transform="translate(184.472656 0)"/>
      </g>
     </g>
    </g>
    <g id="xtick_3">
     <g id="text_3">
      <!-- 2025 -->
      <g style="fill: #262626" transform="translate(199.029085 83.57) scale(0.09 -0.09)">
       <defs>
        <path id="Rawline-Regular-35" d="M 1716 -63 
Q 1234 -63 845 173 
Q 456 409 256 813 
L 550 1031 
Q 725 713 1040 522 
Q 1356 331 1722 331 
Q 2203 331 2525 640 
Q 2847 950 2847 1434 
Q 2847 1900 2534 2201 
Q 2222 2503 1759 2503 
Q 1459 2503 1195 2368 
Q 931 2234 763 1991 
L 353 1991 
L 863 4544 
L 3059 4544 
L 3059 4141 
L 1191 4141 
L 872 2509 
Q 1222 2888 1813 2888 
Q 2438 2888 2864 2480 
Q 3291 2072 3291 1441 
Q 3291 1003 3078 656 
Q 2866 309 2508 123 
Q 2150 -63 1716 -63 
z
" transform="scale(0.015625)"/>
       </defs>
       <use xlink:href="#Rawline-Regular-32"/>
       <use xlink:href="#Rawline-Regular-30" transform="translate(58.056641 0)"/>
       <use xlink:href="#Rawline-Regular-32" transform="translate(126.416016 0)"/>
       <use xlink:href="#Rawline-Regular-35" transform="translate(184.472656 0)"/>
      </g>
     </g>
    </g>
   </g>
   <g id="matplotlib.axis_2">
    <g id="ytick_1"/>
    <g id="ytick_2"/>
   </g>
   <g id="patch_3">
    <path d="M 22.975909 73.5 
L 70.301702 73.5 
L 70.301702 42.032907 
L 22.975909 42.032907 
z
" clip-path="url(#p0d3e8f907c)" style="fill: #fa7e17; stroke: #ffffff; stroke-linejoin: miter"/>
   </g>
   <g id="patch_4">
    <path d="M 104.572104 73.5 
L 151.897896 73.5 
L 151.897896 17.440678 
L 104.572104 17.440678 
z
" clip-path="url(#p0d3e8f907c)" style="fill: #fa7e17; stroke: #ffffff; stroke-linejoin: miter"/>
   </g>
   <g id="patch_5">
    <path d="M 186.168298 73.5 
L 233.494091 73.5 
L 233.494091 54.822126 
L 186.168298 54.822126 
z
" clip-path="url(#p0d3e8f907c)" style="fill: #fa7e17; stroke: #ffffff; stroke-linejoin: miter"/>
   </g>
   <g id="text_4">
    <!-- R$ 17,3 mi -->
    <g style="fill: #3c3c3c" transform="translate(23.323962 39.90322) scale(0.1 -0.1)">
     <defs>
      <path id="Rawline-Regular-52" d="M 569 0 
L 569 4544 
L 2491 4544 
Q 2866 4544 3180 4333 
Q 3494 4122 3664 3795 
Q 3834 3469 3834 3116 
Q 3834 2616 3553 2230 
Q 3272 1844 2822 1753 
L 3938 0 
L 3431 0 
L 2363 1678 
L 1019 1678 
L 1019 0 
L 569 0 
z
M 1019 2075 
L 2503 2075 
Q 2763 2075 2967 2223 
Q 3172 2372 3278 2608 
Q 3384 2844 3384 3116 
Q 3384 3531 3111 3839 
Q 2838 4147 2463 4147 
L 1019 4147 
L 1019 2075 
z
" transform="scale(0.015625)"/>
      <path id="Rawline-Regular-24" d="M 3706 1191 
Q 3706 794 3504 517 
Q 3303 241 2956 106 
Q 2609 -28 2144 -38 
L 2144 -659 
L 1850 -659 
L 1850 -31 
Q 925 34 244 622 
L 469 984 
Q 700 741 1069 572 
Q 1438 403 1875 366 
L 1875 2088 
L 1863 2088 
Q 1553 2159 1343 2225 
Q 1134 2291 943 2386 
Q 753 2481 643 2600 
Q 534 2719 471 2886 
Q 409 3053 409 3272 
Q 409 3853 801 4189 
Q 1194 4525 1850 4569 
L 1850 5216 
L 2144 5216 
L 2144 4575 
Q 2928 4541 3481 4050 
L 3263 3694 
Q 3075 3903 2779 4031 
Q 2484 4159 2119 4178 
L 2119 2463 
L 2131 2463 
Q 2394 2406 2586 2351 
Q 2778 2297 2967 2222 
Q 3156 2147 3282 2053 
Q 3409 1959 3511 1836 
Q 3613 1713 3659 1552 
Q 3706 1391 3706 1191 
z
M 872 3334 
Q 872 2991 1098 2822 
Q 1325 2653 1875 2522 
L 1875 4172 
Q 1366 4144 1119 3926 
Q 872 3709 872 3334 
z
M 2119 359 
Q 2650 366 2940 564 
Q 3231 763 3231 1147 
Q 3231 1503 2972 1692 
Q 2713 1881 2119 2028 
L 2119 359 
z
" transform="scale(0.015625)"/>
      <path id="Rawline-Regular-20" transform="scale(0.015625)"/>
      <path id="Rawline-Regular-31" d="M 2534 397 
L 2534 0 
L 416 0 
L 416 397 
L 1281 397 
L 1281 4116 
Q 1163 3950 836 3758 
Q 509 3566 269 3566 
L 269 3975 
Q 394 3975 544 4037 
Q 694 4100 816 4189 
Q 938 4278 1047 4372 
Q 1156 4466 1215 4528 
Q 1275 4591 1281 4603 
L 1722 4603 
L 1722 397 
L 2534 397 
z
" transform="scale(0.015625)"/>
      <path id="Rawline-Regular-37" d="M 2650 4141 
L 197 4141 
L 197 4544 
L 3341 4544 
L 1038 0 
L 550 0 
L 2650 4141 
z
" transform="scale(0.015625)"/>
      <path id="Rawline-Regular-2c" d="M 550 -519 
L 659 19 
L 513 19 
L 513 628 
L 934 628 
L 934 19 
L 775 -519 
L 550 -519 
z
" transform="scale(0.015625)"/>
      <path id="Rawline-Regular-6d" d="M 5441 0 
L 5006 0 
L 5006 1863 
Q 5006 2994 4269 2994 
Q 3894 2994 3595 2728 
Q 3297 2463 3175 2034 
L 3175 0 
L 2741 0 
L 2741 1863 
Q 2741 2450 2561 2722 
Q 2381 2994 2009 2994 
Q 1638 2994 1339 2731 
Q 1041 2469 916 2041 
L 916 0 
L 481 0 
L 481 3334 
L 878 3334 
L 878 2578 
Q 1084 2966 1417 3178 
Q 1750 3391 2150 3391 
Q 2559 3391 2818 3156 
Q 3078 2922 3138 2534 
Q 3603 3391 4422 3391 
Q 4959 3391 5200 3017 
Q 5441 2644 5441 1953 
L 5441 0 
z
" transform="scale(0.015625)"/>
      <path id="Rawline-Regular-69" d="M 481 4031 
L 481 4672 
L 916 4672 
L 916 4031 
L 481 4031 
z
M 481 0 
L 481 3334 
L 916 3334 
L 916 0 
L 481 0 
z
" transform="scale(0.015625)"/>
     </defs>
     <use xlink:href="#Rawline-Regular-52"/>
     <use xlink:href="#Rawline-Regular-24" transform="translate(65.283203 0)"/>
     <use xlink:href="#Rawline-Regular-20" transform="translate(127.148438 0)"/>
     <use xlink:href="#Rawline-Regular-31" transform="translate(152.636719 0)"/>
     <use xlink:href="#Rawline-Regular-37" transform="translate(194.189453 0)"/>
     <use xlink:href="#Rawline-Regular-2c" transform="translate(246.289062 0)"/>
     <use xlink:href="#Rawline-Regular-33" transform="translate(268.75 0)"/>
     <use xlink:href="#Rawline-Regular-20" transform="translate(327.148438 0)"/>
     <use xlink:href="#Rawline-Regular-6d" transform="translate(352.636719 0)"/>
     <use xlink:href="#Rawline-Regular-69" transform="translate(444.53125 0)"/>
    </g>
   </g>
   <g id="text_5">
    <!-- R$ 30,9 mi -->
    <g style="fill: #3c3c3c" transform="translate(103.171719 15.31099) scale(0.1 -0.1)">
     <defs>
      <path id="Rawline-Regular-39" d="M 1844 1478 
Q 2275 1478 2620 1703 
Q 2966 1928 3103 2303 
Q 3103 1375 2762 850 
Q 2422 325 1850 325 
Q 1491 325 1197 520 
Q 903 716 769 1038 
L 494 788 
Q 681 388 1039 162 
Q 1397 -63 1844 -63 
Q 2622 -63 3070 631 
Q 3519 1325 3519 2681 
Q 3519 3556 3069 4065 
Q 2619 4575 1888 4575 
Q 1553 4575 1256 4453 
Q 959 4331 745 4123 
Q 531 3916 406 3627 
Q 281 3338 281 3016 
Q 281 2597 489 2244 
Q 697 1891 1056 1684 
Q 1416 1478 1844 1478 
z
M 2722 3847 
Q 3078 3497 3078 3015 
Q 3078 2534 2725 2186 
Q 2372 1838 1887 1838 
Q 1403 1838 1053 2188 
Q 703 2538 703 3022 
Q 703 3503 1050 3850 
Q 1397 4197 1881 4197 
Q 2366 4197 2722 3847 
z
" transform="scale(0.015625)"/>
     </defs>
     <use xlink:href="#Rawline-Regular-52"/>
     <use xlink:href="#Rawline-Regular-24" transform="translate(65.283203 0)"/>
     <use xlink:href="#Rawline-Regular-20" transform="translate(127.148438 0)"/>
     <use xlink:href="#Rawline-Regular-33" transform="translate(152.636719 0)"/>
     <use xlink:href="#Rawline-Regular-30" transform="translate(211.035156 0)"/>
     <use xlink:href="#Rawline-Regular-2c" transform="translate(279.394531 0)"/>
     <use xlink:href="#Rawline-Regular-39" transform="translate(301.855469 0)"/>
     <use xlink:href="#Rawline-Regular-20" transform="translate(362.109375 0)"/>
     <use xlink:href="#Rawline-Regular-6d" transform="translate(387.597656 0)"/>
     <use xlink:href="#Rawline-Regular-69" transform="translate(479.492188 0)"/>
    </g>
   </g>
   <g id="text_6">
    <!-- R$ 10,3 mi -->
    <g style="fill: #3c3c3c" transform="translate(185.70307 52.692439) scale(0.1 -0.1)">
     <use xlink:href="#Rawline-Regular-52"/>
     <use xlink:href="#Rawline-Regular-24" transform="translate(65.283203 0)"/>
     <use xlink:href="#Rawline-Regular-20" transform="translate(127.148438 0)"/>
     <use xlink:href="#Rawline-Regular-31" transform="translate(152.636719 0)"/>
     <use xlink:href="#Rawline-Regular-30" transform="translate(194.189453 0)"/>
     <use xlink:href="#Rawline-Regular-2c" transform="translate(262.548828 0)"/>
     <use xlink:href="#Rawline-Regular-33" transform="translate(285.009766 0)"/>
     <use xlink:href="#Rawline-Regular-20" transform="translate(343.408203 0)"/>
     <use xlink:href="#Rawline-Regular-6d" transform="translate(368.896484 0)"/>
     <use xlink:href="#Rawline-Regular-69" transform="translate(460.791016 0)"/>
    </g>
   </g>
   <g id="text_7">
    <!-- &lt;&lt;ATM_GRAPH_START:id=barras_simples&gt;&gt; -->
    <g style="fill: #262626; opacity: 0" transform="translate(223.800312 8.08) scale(0.01 -0.01)">
     <defs>
      <path id="Rawline-Regular-3c" d="M 213 1766 
L 2894 3378 
L 2894 2913 
L 844 1656 
L 2894 409 
L 2894 -72 
L 213 1528 
L 213 1766 
z
" transform="scale(0.015625)"/>
      <path id="Rawline-Regular-41" d="M 1978 4544 
L 2356 4544 
L 4244 0 
L 3769 0 
L 3181 1422 
L 1141 1422 
L 556 0 
L 78 0 
L 1978 4544 
z
M 3078 1772 
L 2163 4019 
L 1234 1772 
L 3078 1772 
z
" transform="scale(0.015625)"/>
      <path id="Rawline-Regular-54" d="M 3794 4147 
L 2175 4147 
L 2175 0 
L 1728 0 
L 1728 4147 
L 109 4147 
L 109 4544 
L 3794 4544 
L 3794 4147 
z
" transform="scale(0.015625)"/>
      <path id="Rawline-Regular-4d" d="M 4594 0 
L 4594 3700 
L 2950 825 
L 2669 825 
L 1019 3700 
L 1019 0 
L 569 0 
L 569 4544 
L 1031 4544 
L 2803 1434 
L 4588 4544 
L 5044 4544 
L 5044 0 
L 4594 0 
z
" transform="scale(0.015625)"/>
      <path id="Rawline-Regular-5f" d="M 416 -397 
L 416 0 
L 2853 0 
L 2853 -397 
L 416 -397 
z
" transform="scale(0.015625)"/>
      <path id="Rawline-Regular-47" d="M 2841 2234 
L 4231 2234 
L 4231 0 
L 3853 0 
L 3853 666 
Q 3225 -31 2394 -31 
Q 2038 -31 1705 97 
Q 1372 225 1115 450 
Q 859 675 665 965 
Q 472 1256 370 1595 
Q 269 1934 269 2278 
Q 269 2728 428 3148 
Q 588 3569 863 3883 
Q 1138 4197 1531 4386 
Q 1925 4575 2369 4575 
Q 3013 4575 3444 4311 
Q 3875 4047 4103 3584 
L 3756 3353 
Q 3328 4172 2363 4172 
Q 1997 4172 1683 4011 
Q 1369 3850 1159 3584 
Q 950 3319 833 2976 
Q 716 2634 716 2272 
Q 716 1894 848 1544 
Q 981 1194 1207 936 
Q 1434 678 1753 525 
Q 2072 372 2425 372 
Q 3219 372 3853 1131 
L 3853 1888 
L 2841 1888 
L 2841 2234 
z
" transform="scale(0.015625)"/>
      <path id="Rawline-Regular-50" d="M 569 0 
L 569 4544 
L 2450 4544 
Q 2825 4544 3142 4333 
Q 3459 4122 3631 3795 
Q 3803 3469 3803 3116 
Q 3803 2741 3640 2414 
Q 3478 2088 3173 1883 
Q 2869 1678 2491 1678 
L 1019 1678 
L 1019 0 
L 569 0 
z
M 1019 2075 
L 2472 2075 
Q 2863 2075 3108 2381 
Q 3353 2688 3353 3116 
Q 3353 3541 3079 3844 
Q 2806 4147 2431 4147 
L 1019 4147 
L 1019 2075 
z
" transform="scale(0.015625)"/>
      <path id="Rawline-Regular-48" d="M 4153 4544 
L 4153 0 
L 3713 0 
L 3713 2125 
L 1019 2125 
L 1019 0 
L 569 0 
L 569 4544 
L 1019 4544 
L 1019 2522 
L 3713 2522 
L 3713 4544 
L 4153 4544 
z
" transform="scale(0.015625)"/>
      <path id="Rawline-Regular-53" d="M 3225 3694 
Q 3025 3916 2703 4047 
Q 2381 4178 1984 4178 
Q 1400 4178 1115 3958 
Q 831 3738 831 3334 
Q 831 3175 882 3054 
Q 934 2934 1021 2850 
Q 1109 2766 1276 2695 
Q 1444 2625 1623 2575 
Q 1803 2525 2094 2463 
Q 2356 2406 2548 2351 
Q 2741 2297 2930 2222 
Q 3119 2147 3245 2053 
Q 3372 1959 3473 1836 
Q 3575 1713 3622 1552 
Q 3669 1391 3669 1191 
Q 3669 784 3455 503 
Q 3241 222 2878 92 
Q 2516 -38 2028 -38 
Q 975 -38 206 622 
L 428 984 
Q 684 709 1114 534 
Q 1544 359 2041 359 
Q 2591 359 2892 559 
Q 3194 759 3194 1147 
Q 3194 1313 3134 1439 
Q 3075 1566 2975 1658 
Q 2875 1750 2694 1828 
Q 2513 1906 2317 1962 
Q 2122 2019 1825 2088 
Q 1516 2159 1306 2225 
Q 1097 2291 906 2386 
Q 716 2481 606 2600 
Q 497 2719 434 2886 
Q 372 3053 372 3272 
Q 372 3891 817 4233 
Q 1263 4575 1991 4575 
Q 2844 4575 3444 4050 
L 3225 3694 
z
" transform="scale(0.015625)"/>
      <path id="Rawline-Regular-3a" d="M 416 2688 
L 416 3316 
L 788 3316 
L 788 2688 
L 416 2688 
z
M 416 0 
L 416 628 
L 788 628 
L 788 0 
L 416 0 
z
" transform="scale(0.015625)"/>
      <path id="Rawline-Regular-64" d="M 256 1656 
Q 256 2125 450 2520 
Q 644 2916 995 3153 
Q 1347 3391 1778 3391 
Q 2175 3391 2508 3180 
Q 2841 2969 3041 2638 
L 3041 4672 
L 3475 4672 
L 3475 525 
Q 3475 434 3511 393 
Q 3547 353 3628 347 
L 3628 0 
Q 3491 -19 3431 -13 
Q 3294 -3 3192 95 
Q 3091 194 3091 319 
L 3091 647 
Q 2894 322 2556 129 
Q 2219 -63 1850 -63 
Q 1513 -63 1211 79 
Q 909 222 703 459 
Q 497 697 376 1009 
Q 256 1322 256 1656 
z
M 3041 1147 
L 3041 2175 
Q 2916 2519 2575 2764 
Q 2234 3009 1888 3009 
Q 1544 3009 1267 2812 
Q 991 2616 847 2309 
Q 703 2003 703 1656 
Q 703 1300 867 992 
Q 1031 684 1318 501 
Q 1606 319 1947 319 
Q 2288 319 2638 569 
Q 2988 819 3041 1147 
z
" transform="scale(0.015625)"/>
      <path id="Rawline-Regular-3d" d="M 434 1978 
L 434 2291 
L 2369 2291 
L 2369 1978 
L 434 1978 
z
M 434 1241 
L 434 1556 
L 2369 1556 
L 2369 1241 
L 434 1241 
z
" transform="scale(0.015625)"/>
      <path id="Rawline-Regular-62" d="M 872 647 
L 872 0 
L 481 0 
L 481 4672 
L 916 4672 
L 916 2638 
Q 1409 3391 2181 3391 
Q 2519 3391 2809 3242 
Q 3100 3094 3290 2850 
Q 3481 2606 3587 2295 
Q 3694 1984 3694 1656 
Q 3694 1194 3487 800 
Q 3281 406 2915 171 
Q 2550 -63 2113 -63 
Q 1728 -63 1395 132 
Q 1063 328 872 647 
z
M 3250 1656 
Q 3250 2006 3101 2314 
Q 2953 2622 2676 2815 
Q 2400 3009 2059 3009 
Q 1688 3009 1388 2773 
Q 1088 2538 916 2175 
L 916 1141 
Q 947 922 1128 728 
Q 1309 534 1550 426 
Q 1791 319 2009 319 
Q 2363 319 2650 511 
Q 2938 703 3094 1008 
Q 3250 1313 3250 1656 
z
" transform="scale(0.015625)"/>
      <path id="Rawline-Regular-61" d="M 213 959 
Q 213 1419 602 1698 
Q 991 1978 1619 1978 
Q 2156 1978 2591 1825 
L 2591 2106 
Q 2591 2531 2339 2779 
Q 2088 3028 1650 3028 
Q 1147 3028 581 2638 
L 416 2944 
Q 1066 3391 1697 3391 
Q 2313 3391 2670 3037 
Q 3028 2684 3028 2069 
L 3028 525 
Q 3028 434 3065 393 
Q 3103 353 3188 347 
L 3188 0 
Q 3031 -19 2988 -13 
Q 2834 -9 2748 83 
Q 2663 175 2656 294 
L 2650 538 
Q 2428 256 2072 96 
Q 1716 -63 1338 -63 
Q 853 -63 533 232 
Q 213 528 213 959 
z
M 2444 703 
Q 2591 869 2591 1025 
L 2591 1509 
Q 2156 1684 1672 1684 
Q 1200 1684 914 1495 
Q 628 1306 628 991 
Q 628 697 850 483 
Q 1072 269 1441 269 
Q 1750 269 2022 389 
Q 2294 509 2444 703 
z
" transform="scale(0.015625)"/>
      <path id="Rawline-Regular-72" d="M 2144 2950 
Q 1703 2934 1375 2704 
Q 1047 2475 916 2075 
L 916 0 
L 481 0 
L 481 3334 
L 891 3334 
L 891 2534 
Q 1063 2884 1347 3101 
Q 1631 3319 1953 3347 
Q 2078 3356 2144 3347 
L 2144 2950 
z
" transform="scale(0.015625)"/>
      <path id="Rawline-Regular-73" d="M 1575 -63 
Q 722 -63 206 481 
L 384 788 
Q 909 288 1556 288 
Q 1953 288 2192 448 
Q 2431 609 2431 897 
Q 2431 1072 2312 1186 
Q 2194 1300 2056 1347 
Q 1919 1394 1578 1481 
Q 1491 1503 1447 1516 
Q 1166 1594 987 1664 
Q 809 1734 665 1837 
Q 522 1941 459 2080 
Q 397 2219 397 2413 
Q 397 2878 744 3134 
Q 1091 3391 1644 3391 
Q 2019 3391 2319 3270 
Q 2619 3150 2803 2931 
L 2591 2638 
Q 2244 3041 1619 3041 
Q 1275 3041 1040 2900 
Q 806 2759 806 2463 
Q 806 2375 825 2308 
Q 844 2241 898 2186 
Q 953 2131 1003 2095 
Q 1053 2059 1165 2017 
Q 1278 1975 1359 1948 
Q 1441 1922 1606 1875 
Q 1766 1831 1852 1807 
Q 1938 1784 2069 1742 
Q 2200 1700 2270 1670 
Q 2341 1641 2437 1594 
Q 2534 1547 2586 1503 
Q 2638 1459 2697 1396 
Q 2756 1334 2784 1267 
Q 2813 1200 2833 1114 
Q 2853 1028 2853 928 
Q 2853 466 2504 201 
Q 2156 -63 1575 -63 
z
" transform="scale(0.015625)"/>
      <path id="Rawline-Regular-70" d="M 916 691 
L 916 -1363 
L 481 -1363 
L 481 3334 
L 872 3334 
L 872 2688 
Q 1078 3006 1409 3198 
Q 1741 3391 2113 3391 
Q 2556 3391 2923 3144 
Q 3291 2897 3492 2501 
Q 3694 2106 3694 1663 
Q 3694 1194 3505 800 
Q 3316 406 2967 171 
Q 2619 -63 2181 -63 
Q 1781 -63 1451 145 
Q 1122 353 916 691 
z
M 3250 1663 
Q 3250 2206 2887 2607 
Q 2525 3009 2009 3009 
Q 1791 3009 1550 2898 
Q 1309 2788 1128 2591 
Q 947 2394 916 2181 
L 916 1159 
Q 1066 794 1381 556 
Q 1697 319 2059 319 
Q 2406 319 2684 514 
Q 2963 709 3106 1014 
Q 3250 1319 3250 1663 
z
" transform="scale(0.015625)"/>
      <path id="Rawline-Regular-6c" d="M 500 4672 
L 934 4672 
L 934 756 
Q 934 525 1012 439 
Q 1091 353 1241 353 
Q 1453 353 1672 428 
L 1747 78 
Q 1625 31 1450 -3 
Q 1275 -38 1147 -38 
Q 847 -38 673 135 
Q 500 309 500 609 
L 500 4672 
z
" transform="scale(0.015625)"/>
      <path id="Rawline-Regular-65" d="M 1919 -63 
Q 1447 -63 1061 175 
Q 675 413 462 811 
Q 250 1209 250 1678 
Q 250 2141 462 2533 
Q 675 2925 1059 3158 
Q 1444 3391 1913 3391 
Q 2388 3391 2770 3155 
Q 3153 2919 3359 2530 
Q 3566 2141 3566 1684 
Q 3566 1541 3559 1509 
L 703 1509 
Q 744 975 1100 622 
Q 1456 269 1941 269 
Q 2269 269 2556 436 
Q 2844 603 2963 872 
L 3341 769 
Q 3184 400 2792 168 
Q 2400 -63 1919 -63 
z
M 691 1825 
L 3156 1825 
Q 3116 2363 2764 2708 
Q 2413 3053 1919 3053 
Q 1425 3053 1073 2706 
Q 722 2359 691 1825 
z
" transform="scale(0.015625)"/>
      <path id="Rawline-Regular-3e" d="M 3034 1528 
L 353 -72 
L 353 409 
L 2400 1656 
L 353 2913 
L 353 3378 
L 3034 1766 
L 3034 1528 
z
" transform="scale(0.015625)"/>
     </defs>
     <use xlink:href="#Rawline-Regular-3c"/>
     <use xlink:href="#Rawline-Regular-3c" transform="translate(50.78125 0)"/>
     <use xlink:href="#Rawline-Regular-41" transform="translate(101.5625 0)"/>
     <use xlink:href="#Rawline-Regular-54" transform="translate(169.140625 0)"/>
     <use xlink:href="#Rawline-Regular-4d" transform="translate(230.126953 0)"/>
     <use xlink:href="#Rawline-Regular-5f" transform="translate(317.822266 0)"/>
     <use xlink:href="#Rawline-Regular-47" transform="translate(368.896484 0)"/>
     <use xlink:href="#Rawline-Regular-52" transform="translate(440.478516 0)"/>
     <use xlink:href="#Rawline-Regular-41" transform="translate(505.761719 0)"/>
     <use xlink:href="#Rawline-Regular-50" transform="translate(573.339844 0)"/>
     <use xlink:href="#Rawline-Regular-48" transform="translate(635.498047 0)"/>
     <use xlink:href="#Rawline-Regular-5f" transform="translate(709.277344 0)"/>
     <use xlink:href="#Rawline-Regular-53" transform="translate(760.351562 0)"/>
     <use xlink:href="#Rawline-Regular-54" transform="translate(821.044922 0)"/>
     <use xlink:href="#Rawline-Regular-41" transform="translate(882.03125 0)"/>
     <use xlink:href="#Rawline-Regular-52" transform="translate(949.609375 0)"/>
     <use xlink:href="#Rawline-Regular-54" transform="translate(1014.892578 0)"/>
     <use xlink:href="#Rawline-Regular-3a" transform="translate(1075.878906 0)"/>
     <use xlink:href="#Rawline-Regular-69" transform="translate(1094.677734 0)"/>
     <use xlink:href="#Rawline-Regular-64" transform="translate(1116.455078 0)"/>
     <use xlink:href="#Rawline-Regular-3d" transform="translate(1178.613281 0)"/>
     <use xlink:href="#Rawline-Regular-62" transform="translate(1222.412109 0)"/>
     <use xlink:href="#Rawline-Regular-61" transform="translate(1284.082031 0)"/>
     <use xlink:href="#Rawline-Regular-72" transform="translate(1338.574219 0)"/>
     <use xlink:href="#Rawline-Regular-72" transform="translate(1373.632812 0)"/>
     <use xlink:href="#Rawline-Regular-61" transform="translate(1408.691406 0)"/>
     <use xlink:href="#Rawline-Regular-73" transform="translate(1463.183594 0)"/>
     <use xlink:href="#Rawline-Regular-5f" transform="translate(1511.474609 0)"/>
     <use xlink:href="#Rawline-Regular-73" transform="translate(1562.548828 0)"/>
     <use xlink:href="#Rawline-Regular-69" transform="translate(1610.839844 0)"/>
     <use xlink:href="#Rawline-Regular-6d" transform="translate(1632.617188 0)"/>
     <use xlink:href="#Rawline-Regular-70" transform="translate(1724.511719 0)"/>
     <use xlink:href="#Rawline-Regular-6c" transform="translate(1786.181641 0)"/>
     <use xlink:href="#Rawline-Regular-65" transform="translate(1813.378906 0)"/>
     <use xlink:href="#Rawline-Regular-73" transform="translate(1872.070312 0)"/>
     <use xlink:href="#Rawline-Regular-3e" transform="translate(1920.361328 0)"/>
     <use xlink:href="#Rawline-Regular-3e" transform="translate(1971.142578 0)"/>
    </g>
   </g>
   <g id="text_8">
    <!-- &lt;&lt;ATM_GRAPH_END:id=barras_simples&gt;&gt; -->
    <g style="fill: #262626; opacity: 0" transform="translate(12.45 73.287031) scale(0.01 -0.01)">
     <defs>
      <path id="Rawline-Regular-45" d="M 3622 397 
L 3622 0 
L 569 0 
L 569 4544 
L 3566 4544 
L 3566 4147 
L 1019 4147 
L 1019 2509 
L 3238 2509 
L 3238 2131 
L 1019 2131 
L 1019 397 
L 3622 397 
z
" transform="scale(0.015625)"/>
      <path id="Rawline-Regular-4e" d="M 1019 3719 
L 1019 0 
L 569 0 
L 569 4544 
L 941 4544 
L 3922 756 
L 3922 4538 
L 4372 4538 
L 4372 0 
L 3956 0 
L 1019 3719 
z
" transform="scale(0.015625)"/>
      <path id="Rawline-Regular-44" d="M 569 0 
L 569 4544 
L 2113 4544 
Q 2538 4544 2894 4428 
Q 3250 4313 3504 4106 
Q 3759 3900 3937 3617 
Q 4116 3334 4202 2995 
Q 4288 2656 4288 2278 
Q 4288 1244 3695 622 
Q 3103 0 2113 0 
L 569 0 
z
M 2113 4147 
L 1019 4147 
L 1019 397 
L 2113 397 
Q 2659 397 3056 647 
Q 3453 897 3647 1317 
Q 3841 1738 3841 2278 
Q 3841 3113 3383 3630 
Q 2925 4147 2113 4147 
z
" transform="scale(0.015625)"/>
     </defs>
     <use xlink:href="#Rawline-Regular-3c"/>
     <use xlink:href="#Rawline-Regular-3c" transform="translate(50.78125 0)"/>
     <use xlink:href="#Rawline-Regular-41" transform="translate(101.5625 0)"/>
     <use xlink:href="#Rawline-Regular-54" transform="translate(169.140625 0)"/>
     <use xlink:href="#Rawline-Regular-4d" transform="translate(230.126953 0)"/>
     <use xlink:href="#Rawline-Regular-5f" transform="translate(317.822266 0)"/>
     <use xlink:href="#Rawline-Regular-47" transform="translate(368.896484 0)"/>
     <use xlink:href="#Rawline-Regular-52" transform="translate(440.478516 0)"/>
     <use xlink:href="#Rawline-Regular-41" transform="translate(505.761719 0)"/>
     <use xlink:href="#Rawline-Regular-50" transform="translate(573.339844 0)"/>
     <use xlink:href="#Rawline-Regular-48" transform="translate(635.498047 0)"/>
     <use xlink:href="#Rawline-Regular-5f" transform="translate(709.277344 0)"/>
     <use xlink:href="#Rawline-Regular-45" transform="translate(760.351562 0)"/>
     <use xlink:href="#Rawline-Regular-4e" transform="translate(821.240234 0)"/>
     <use xlink:href="#Rawline-Regular-44" transform="translate(898.4375 0)"/>
     <use xlink:href="#Rawline-Regular-3a" transform="translate(969.921875 0)"/>
     <use xlink:href="#Rawline-Regular-69" transform="translate(988.720703 0)"/>
     <use xlink:href="#Rawline-Regular-64" transform="translate(1010.498047 0)"/>
     <use xlink:href="#Rawline-Regular-3d" transform="translate(1072.65625 0)"/>
     <use xlink:href="#Rawline-Regular-62" transform="translate(1116.455078 0)"/>
     <use xlink:href="#Rawline-Regular-61" transform="translate(1178.125 0)"/>
     <use xlink:href="#Rawline-Regular-72" transform="translate(1232.617188 0)"/>
     <use xlink:href="#Rawline-Regular-72" transform="translate(1267.675781 0)"/>
     <use xlink:href="#Rawline-Regular-61" transform="translate(1302.734375 0)"/>
     <use xlink:href="#Rawline-Regular-73" transform="translate(1357.226562 0)"/>
     <use xlink:href="#Rawline-Regular-5f" transform="translate(1405.517578 0)"/>
     <use xlink:href="#Rawline-Regular-73" transform="translate(1456.591797 0)"/>
     <use xlink:href="#Rawline-Regular-69" transform="translate(1504.882812 0)"/>
     <use xlink:href="#Rawline-Regular-6d" transform="translate(1526.660156 0)"/>
     <use xlink:href="#Rawline-Regular-70" transform="translate(1618.554688 0)"/>
     <use xlink:href="#Rawline-Regular-6c" transform="translate(1680.224609 0)"/>
     <use xlink:href="#Rawline-Regular-65" transform="translate(1707.421875 0)"/>
     <use xlink:href="#Rawline-Regular-73" transform="translate(1766.113281 0)"/>
     <use xlink:href="#Rawline-Regular-3e" transform="translate(1814.404297 0)"/>
     <use xlink:href="#Rawline-Regular-3e" transform="translate(1865.185547 0)"/>
    </g>
   </g>
  </g>
 </g>
 <defs>
  <clipPath id="p0d3e8f907c">
   <rect x="12.45" y="7.35" width="231.57" height="66.15"/>
  </clipPath>
 </defs>
</svg>
