<svg width="298" height="152" viewBox="0 0 298 152" fill="none" xmlns="http://www.w3.org/2000/svg">
<path d="M196.995 139C196.995 137.946 197.139 137.123 197.427 136.531C197.715 135.938 198.212 135.426 198.918 134.995C199.079 134.897 199.285 134.783 199.534 134.652C199.788 134.521 200.004 134.409 200.182 134.315C200.364 134.222 200.558 134.108 200.766 133.973C200.973 133.833 201.14 133.698 201.267 133.566C201.398 133.435 201.506 133.277 201.591 133.09C201.68 132.904 201.724 132.703 201.724 132.487C201.724 132.106 201.601 131.802 201.356 131.573C201.115 131.34 200.783 131.224 200.359 131.224C199.915 131.224 199.5 131.334 199.115 131.554C198.734 131.77 198.404 132.028 198.125 132.329L197.033 131.186C197.169 131.029 197.338 130.871 197.541 130.71C197.744 130.549 197.994 130.386 198.29 130.221C198.586 130.052 198.935 129.914 199.337 129.809C199.739 129.703 200.154 129.65 200.582 129.65C201.563 129.65 202.327 129.906 202.873 130.418C203.419 130.926 203.692 131.59 203.692 132.411C203.692 132.716 203.645 133.001 203.552 133.268C203.463 133.53 203.353 133.755 203.222 133.941C203.095 134.127 202.922 134.313 202.702 134.5C202.482 134.686 202.281 134.836 202.099 134.95C201.921 135.064 201.697 135.198 201.426 135.35C200.846 135.659 200.393 135.934 200.067 136.175C199.746 136.412 199.526 136.618 199.407 136.791C199.289 136.96 199.187 137.172 199.103 137.426H203.705V139H196.995ZM204.917 134.449C204.917 133.89 205.012 133.334 205.203 132.779C205.393 132.225 205.655 131.726 205.99 131.281C206.324 130.833 206.747 130.469 207.259 130.189C207.776 129.91 208.33 129.771 208.922 129.771C209.434 129.771 209.913 129.868 210.357 130.062C210.801 130.257 211.178 130.515 211.487 130.837C211.796 131.159 212.062 131.525 212.287 131.935C212.511 132.341 212.676 132.76 212.782 133.192C212.888 133.619 212.94 134.038 212.94 134.449C212.94 134.897 212.881 135.346 212.763 135.794C212.644 136.243 212.469 136.666 212.236 137.064C212.003 137.462 211.728 137.815 211.411 138.124C211.093 138.429 210.719 138.672 210.287 138.854C209.86 139.032 209.405 139.123 208.922 139.127C208.415 139.123 207.938 139.025 207.494 138.835C207.054 138.64 206.677 138.386 206.364 138.073C206.055 137.756 205.789 137.394 205.564 136.988C205.344 136.582 205.181 136.163 205.076 135.731C204.97 135.299 204.917 134.872 204.917 134.449ZM208.922 137.546C209.291 137.546 209.621 137.447 209.913 137.248C210.209 137.049 210.442 136.793 210.611 136.48C210.78 136.167 210.909 135.837 210.998 135.49C211.087 135.139 211.131 134.792 211.131 134.449C211.131 134.081 211.083 133.717 210.985 133.357C210.888 132.997 210.75 132.667 210.573 132.367C210.395 132.066 210.162 131.823 209.875 131.637C209.587 131.451 209.269 131.357 208.922 131.357C208.626 131.357 208.353 131.423 208.104 131.554C207.858 131.685 207.651 131.857 207.481 132.068C207.316 132.28 207.175 132.523 207.056 132.798C206.942 133.073 206.857 133.351 206.802 133.63C206.751 133.905 206.726 134.178 206.726 134.449C206.735 134.821 206.785 135.187 206.878 135.547C206.972 135.902 207.103 136.232 207.272 136.537C207.445 136.838 207.674 137.081 207.958 137.267C208.245 137.453 208.567 137.546 208.922 137.546ZM214.02 139C214.02 137.946 214.163 137.123 214.451 136.531C214.739 135.938 215.236 135.426 215.943 134.995C216.104 134.897 216.309 134.783 216.559 134.652C216.812 134.521 217.028 134.409 217.206 134.315C217.388 134.222 217.583 134.108 217.79 133.973C217.997 133.833 218.165 133.698 218.292 133.566C218.423 133.435 218.531 133.277 218.615 133.09C218.704 132.904 218.749 132.703 218.749 132.487C218.749 132.106 218.626 131.802 218.38 131.573C218.139 131.34 217.807 131.224 217.384 131.224C216.939 131.224 216.525 131.334 216.14 131.554C215.759 131.77 215.429 132.028 215.149 132.329L214.058 131.186C214.193 131.029 214.362 130.871 214.565 130.71C214.769 130.549 215.018 130.386 215.314 130.221C215.611 130.052 215.96 129.914 216.362 129.809C216.764 129.703 217.179 129.65 217.606 129.65C218.588 129.65 219.352 129.906 219.897 130.418C220.443 130.926 220.716 131.59 220.716 132.411C220.716 132.716 220.67 133.001 220.577 133.268C220.488 133.53 220.378 133.755 220.247 133.941C220.12 134.127 219.946 134.313 219.726 134.5C219.506 134.686 219.305 134.836 219.123 134.95C218.945 135.064 218.721 135.198 218.45 135.35C217.87 135.659 217.418 135.934 217.092 136.175C216.77 136.412 216.55 136.618 216.432 136.791C216.313 136.96 216.212 137.172 216.127 137.426H220.729V139H214.02ZM224.931 139.089C224.199 139.089 223.564 138.949 223.027 138.67C222.489 138.391 222.09 138.001 221.827 137.502L222.76 136.321C222.904 136.647 223.16 136.924 223.528 137.153C223.901 137.377 224.347 137.489 224.868 137.489C225.401 137.489 225.824 137.377 226.137 137.153C226.45 136.929 226.607 136.618 226.607 136.22C226.607 135.784 226.406 135.452 226.004 135.223C225.606 134.995 225.033 134.88 224.284 134.88H223.852V133.579H224.309C224.944 133.579 225.445 133.471 225.813 133.255C226.186 133.035 226.372 132.726 226.372 132.329C226.372 131.973 226.235 131.69 225.959 131.478C225.684 131.266 225.346 131.161 224.944 131.161C224.516 131.161 224.136 131.26 223.801 131.459C223.471 131.658 223.215 131.922 223.033 132.252L221.903 130.989C222.178 130.583 222.61 130.259 223.198 130.018C223.786 129.773 224.413 129.65 225.077 129.65C226 129.65 226.755 129.881 227.343 130.342C227.936 130.799 228.232 131.379 228.232 132.081C228.232 132.606 228.073 133.054 227.756 133.427C227.443 133.799 227.022 134.045 226.493 134.163C227.06 134.26 227.521 134.529 227.876 134.969C228.236 135.405 228.416 135.917 228.416 136.505C228.416 137.034 228.262 137.498 227.953 137.896C227.648 138.289 227.233 138.587 226.708 138.791C226.184 138.989 225.591 139.089 224.931 139.089Z" fill="black"/>
<path d="M51.2393 139C51.2393 137.946 51.3831 137.123 51.6709 136.531C51.9587 135.938 52.4559 135.426 53.1626 134.995C53.3234 134.897 53.5286 134.783 53.7783 134.652C54.0322 134.521 54.248 134.409 54.4258 134.315C54.6077 134.222 54.8024 134.108 55.0098 133.973C55.2171 133.833 55.3843 133.698 55.5112 133.566C55.6424 133.435 55.7503 133.277 55.835 133.09C55.9238 132.904 55.9683 132.703 55.9683 132.487C55.9683 132.106 55.8455 131.802 55.6001 131.573C55.3589 131.34 55.0267 131.224 54.6035 131.224C54.1592 131.224 53.7445 131.334 53.3594 131.554C52.9785 131.77 52.6484 132.028 52.3691 132.329L51.2773 131.186C51.4128 131.029 51.582 130.871 51.7852 130.71C51.9883 130.549 52.238 130.386 52.5342 130.221C52.8304 130.052 53.1795 129.914 53.5815 129.809C53.9836 129.703 54.3983 129.65 54.8257 129.65C55.8075 129.65 56.5713 129.906 57.1172 130.418C57.6631 130.926 57.936 131.59 57.936 132.411C57.936 132.716 57.8895 133.001 57.7964 133.268C57.7075 133.53 57.5975 133.755 57.4663 133.941C57.3394 134.127 57.1659 134.313 56.9458 134.5C56.7257 134.686 56.5247 134.836 56.3428 134.95C56.165 135.064 55.9408 135.198 55.6699 135.35C55.0902 135.659 54.6374 135.934 54.3115 136.175C53.9899 136.412 53.7699 136.618 53.6514 136.791C53.5329 136.96 53.4313 137.172 53.3467 137.426H57.9487V139H51.2393ZM59.1611 134.449C59.1611 133.89 59.2563 133.334 59.4468 132.779C59.6372 132.225 59.8996 131.726 60.2339 131.281C60.5682 130.833 60.9914 130.469 61.5034 130.189C62.0197 129.91 62.5741 129.771 63.1665 129.771C63.6785 129.771 64.1567 129.868 64.6011 130.062C65.0454 130.257 65.422 130.515 65.731 130.837C66.0399 131.159 66.3065 131.525 66.5308 131.935C66.755 132.341 66.9201 132.76 67.0259 133.192C67.1317 133.619 67.1846 134.038 67.1846 134.449C67.1846 134.897 67.1253 135.346 67.0068 135.794C66.8883 136.243 66.7127 136.666 66.48 137.064C66.2472 137.462 65.9722 137.815 65.6548 138.124C65.3374 138.429 64.9629 138.672 64.5312 138.854C64.1038 139.032 63.6489 139.123 63.1665 139.127C62.6587 139.123 62.1826 139.025 61.7383 138.835C61.2982 138.64 60.9215 138.386 60.6084 138.073C60.2995 137.756 60.0329 137.394 59.8086 136.988C59.5885 136.582 59.4256 136.163 59.3198 135.731C59.214 135.299 59.1611 134.872 59.1611 134.449ZM63.1665 137.546C63.5347 137.546 63.8647 137.447 64.1567 137.248C64.453 137.049 64.6857 136.793 64.855 136.48C65.0243 136.167 65.1533 135.837 65.2422 135.49C65.3311 135.139 65.3755 134.792 65.3755 134.449C65.3755 134.081 65.3268 133.717 65.2295 133.357C65.1322 132.997 64.9946 132.667 64.8169 132.367C64.6392 132.066 64.4064 131.823 64.1187 131.637C63.8309 131.451 63.5135 131.357 63.1665 131.357C62.8703 131.357 62.5973 131.423 62.3477 131.554C62.1022 131.685 61.8949 131.857 61.7256 132.068C61.5605 132.28 61.4188 132.523 61.3003 132.798C61.186 133.073 61.1014 133.351 61.0464 133.63C60.9956 133.905 60.9702 134.178 60.9702 134.449C60.9787 134.821 61.0295 135.187 61.1226 135.547C61.2157 135.902 61.3468 136.232 61.5161 136.537C61.6896 136.838 61.9181 137.081 62.2017 137.267C62.4894 137.453 62.811 137.546 63.1665 137.546ZM73.8115 137.426V139H68.5874V137.426H70.3838V131.421C70.223 131.645 69.9141 131.889 69.457 132.151C69.0042 132.409 68.6149 132.538 68.2891 132.538V130.926C68.4626 130.926 68.6509 130.886 68.854 130.805C69.0614 130.721 69.2497 130.621 69.4189 130.507C69.5882 130.388 69.7469 130.268 69.895 130.145C70.0474 130.018 70.1637 129.914 70.2441 129.834C70.3288 129.749 70.3753 129.699 70.3838 129.682H72.1611V137.426H73.8115ZM77.8486 135.985C76.9388 135.985 76.1729 135.691 75.5508 135.103C74.9329 134.51 74.624 133.782 74.624 132.919C74.624 132.475 74.7108 132.054 74.8843 131.656C75.0578 131.258 75.2926 130.917 75.5889 130.634C75.8893 130.35 76.249 130.126 76.668 129.961C77.0869 129.792 77.5312 129.707 78.001 129.707C79.0505 129.707 79.8778 130.079 80.4829 130.824C81.0923 131.569 81.397 132.604 81.397 133.928C81.397 135.587 81.0775 136.869 80.4385 137.775C79.8037 138.676 78.932 139.127 77.8232 139.127C77.2477 139.127 76.7124 139 76.2173 138.746C75.7264 138.492 75.3117 138.13 74.9731 137.661L75.9761 136.569C76.1877 136.895 76.4564 137.151 76.7822 137.337C77.1123 137.519 77.4678 137.61 77.8486 137.61C78.4326 137.61 78.8981 137.377 79.2451 136.912C79.5921 136.446 79.772 135.799 79.7847 134.969C79.6027 135.282 79.3403 135.53 78.9976 135.712C78.6548 135.894 78.2718 135.985 77.8486 135.985ZM79.7085 132.919C79.7085 132.445 79.5371 132.035 79.1943 131.688C78.8516 131.336 78.4495 131.161 77.9883 131.161C77.5312 131.161 77.1356 131.334 76.8013 131.681C76.467 132.024 76.2998 132.43 76.2998 132.9C76.2998 133.365 76.467 133.765 76.8013 134.1C77.1356 134.43 77.5355 134.595 78.001 134.595C78.4665 134.595 78.8664 134.432 79.2007 134.106C79.5392 133.776 79.7085 133.38 79.7085 132.919Z" fill="black"/>
<path d="M40.5098 42.0977C38.5111 42.0977 36.89 41.5638 35.6465 40.4961L37.5898 37.7422C38.3385 38.3281 39.2435 38.6211 40.3047 38.6211C40.9818 38.6211 41.4766 38.5169 41.7891 38.3086C42.1081 38.1003 42.2676 37.7715 42.2676 37.3223C42.2676 36.821 42.0658 36.4596 41.6621 36.2383C41.2585 36.0104 40.6074 35.8965 39.709 35.8965H39.084V33.2598H39.7871C40.4251 33.2598 40.9362 33.1361 41.3203 32.8887C41.7109 32.6348 41.9062 32.2995 41.9062 31.8828C41.9062 31.5573 41.7923 31.3066 41.5645 31.1309C41.3366 30.9486 41.0176 30.8574 40.6074 30.8574C39.6504 30.8574 38.8561 31.3262 38.2246 32.2637L35.8223 29.4414C36.291 28.9076 37.0072 28.4746 37.9707 28.1426C38.9408 27.8105 39.9661 27.6445 41.0469 27.6445C42.5312 27.6445 43.7259 27.9668 44.6309 28.6113C45.5358 29.2559 45.9883 30.1055 45.9883 31.1602C45.9883 31.9544 45.7409 32.6608 45.2461 33.2793C44.7578 33.8978 44.1426 34.2786 43.4004 34.4219C44.2207 34.5651 44.8913 34.972 45.4121 35.6426C45.9395 36.3066 46.2031 37.0977 46.2031 38.0156C46.2031 39.2786 45.6921 40.2747 44.6699 41.0039C43.6543 41.7331 42.2676 42.0977 40.5098 42.0977ZM52.7266 37.3418C51.2943 37.3418 50.1029 36.8991 49.1523 36.0137C48.2018 35.1217 47.7266 34.0117 47.7266 32.6836C47.7266 31.2773 48.2344 30.0924 49.25 29.1289C50.2656 28.1654 51.5286 27.6836 53.0391 27.6836C54.7383 27.6836 56.0534 28.2956 56.9844 29.5195C57.9154 30.7435 58.3809 32.4622 58.3809 34.6758C58.3809 37.0195 57.873 38.8587 56.8574 40.1934C55.8483 41.528 54.4518 42.1953 52.668 42.1953C50.9297 42.1953 49.4225 41.5573 48.1465 40.2812L50.2461 37.8398C50.9688 38.5625 51.7956 38.9238 52.7266 38.9238C53.3776 38.9238 53.8919 38.7253 54.2695 38.3281C54.6471 37.9245 54.8522 37.3678 54.8848 36.6582C54.3704 37.1139 53.651 37.3418 52.7266 37.3418ZM54.748 32.6836C54.748 32.1953 54.5755 31.7689 54.2305 31.4043C53.8854 31.0397 53.4883 30.8574 53.0391 30.8574C52.5898 30.8574 52.1927 31.0397 51.8477 31.4043C51.5091 31.7689 51.3398 32.1953 51.3398 32.6836C51.3398 33.1523 51.5059 33.5495 51.8379 33.875C52.1699 34.2005 52.5703 34.3633 53.0391 34.3633C53.5078 34.3633 53.9082 34.2005 54.2402 33.875C54.5788 33.5495 54.748 33.1523 54.748 32.6836ZM60.5879 45.1445L61.3105 42H60.168V38.3184H63.3125V42L62.2285 45.1445H60.5879ZM70.0312 37.3418C68.599 37.3418 67.4076 36.8991 66.457 36.0137C65.5065 35.1217 65.0312 34.0117 65.0312 32.6836C65.0312 31.2773 65.5391 30.0924 66.5547 29.1289C67.5703 28.1654 68.8333 27.6836 70.3438 27.6836C72.043 27.6836 73.3581 28.2956 74.2891 29.5195C75.2201 30.7435 75.6855 32.4622 75.6855 34.6758C75.6855 37.0195 75.1777 38.8587 74.1621 40.1934C73.153 41.528 71.7565 42.1953 69.9727 42.1953C68.2344 42.1953 66.7272 41.5573 65.4512 40.2812L67.5508 37.8398C68.2734 38.5625 69.1003 38.9238 70.0312 38.9238C70.6823 38.9238 71.1966 38.7253 71.5742 38.3281C71.9518 37.9245 72.1569 37.3678 72.1895 36.6582C71.6751 37.1139 70.9557 37.3418 70.0312 37.3418ZM72.0527 32.6836C72.0527 32.1953 71.8802 31.7689 71.5352 31.4043C71.1901 31.0397 70.793 30.8574 70.3438 30.8574C69.8945 30.8574 69.4974 31.0397 69.1523 31.4043C68.8138 31.7689 68.6445 32.1953 68.6445 32.6836C68.6445 33.1523 68.8105 33.5495 69.1426 33.875C69.4746 34.2005 69.875 34.3633 70.3438 34.3633C70.8125 34.3633 71.2129 34.2005 71.5449 33.875C71.8835 33.5495 72.0527 33.1523 72.0527 32.6836ZM82.5801 42.1953C81.877 42.1953 81.1999 42.0846 80.5488 41.8633C79.9043 41.6354 79.3346 41.3229 78.8398 40.9258C78.3451 40.5221 77.9512 40.0208 77.6582 39.4219C77.3652 38.8164 77.2188 38.1621 77.2188 37.459C77.2188 36.8145 77.3848 36.235 77.7168 35.7207C78.0553 35.2064 78.4622 34.7734 78.9375 34.4219C78.5599 34.194 78.2441 33.8522 77.9902 33.3965C77.7428 32.9408 77.6191 32.4818 77.6191 32.0195C77.6191 31.362 77.7721 30.7598 78.0781 30.2129C78.3906 29.6595 78.791 29.2135 79.2793 28.875C79.7676 28.5365 80.2982 28.2728 80.8711 28.084C81.444 27.8952 82.0137 27.8008 82.5801 27.8008C83.0293 27.8008 83.4818 27.8561 83.9375 27.9668C84.3997 28.0775 84.8457 28.25 85.2754 28.4844C85.7116 28.7188 86.099 28.9987 86.4375 29.3242C86.776 29.6432 87.0462 30.0339 87.248 30.4961C87.4564 30.9583 87.5605 31.4531 87.5605 31.9805C87.5605 32.4427 87.4303 32.9115 87.1699 33.3867C86.9095 33.8555 86.5905 34.2005 86.2129 34.4219C86.6947 34.7799 87.1016 35.2259 87.4336 35.7598C87.7721 36.2871 87.9414 36.8926 87.9414 37.5762C87.9414 38.4811 87.7005 39.2884 87.2188 39.998C86.737 40.7077 86.0892 41.2513 85.2754 41.6289C84.4616 42.0065 83.5632 42.1953 82.5801 42.1953ZM81.8086 32.8887C82.0299 33.071 82.2871 33.1621 82.5801 33.1621C82.873 33.1621 83.1302 33.071 83.3516 32.8887C83.5794 32.6999 83.6934 32.4362 83.6934 32.0977C83.6934 31.8307 83.5892 31.6061 83.3809 31.4238C83.1725 31.235 82.9056 31.1406 82.5801 31.1406C82.2546 31.1406 81.9876 31.235 81.7793 31.4238C81.5775 31.6061 81.4766 31.8307 81.4766 32.0977C81.4766 32.4362 81.5872 32.6999 81.8086 32.8887ZM83.6543 36.3555C83.3809 36.1081 83.0228 35.9844 82.5801 35.9844C82.1374 35.9844 81.776 36.1113 81.4961 36.3652C81.2161 36.6126 81.0762 36.9447 81.0762 37.3613C81.0762 37.752 81.2194 38.0807 81.5059 38.3477C81.7988 38.6081 82.1569 38.7383 82.5801 38.7383C83.0163 38.7383 83.3743 38.6048 83.6543 38.3379C83.9342 38.071 84.0742 37.7454 84.0742 37.3613C84.0742 36.9316 83.9342 36.5964 83.6543 36.3555ZM91.0469 40.7012L96.7012 34.3242L101.721 27.5762L103.381 29.0801L97.9609 35.2617L92.707 42.1953L91.0469 40.7012ZM90.3926 33.0059C89.709 32.3874 89.3672 31.6387 89.3672 30.7598C89.3672 29.8809 89.709 29.1354 90.3926 28.5234C91.0827 27.9049 91.9258 27.5957 92.9219 27.5957C93.918 27.5957 94.7611 27.9049 95.4512 28.5234C96.1413 29.1354 96.4863 29.8809 96.4863 30.7598C96.4863 31.6387 96.1413 32.3874 95.4512 33.0059C94.7611 33.6178 93.918 33.9238 92.9219 33.9238C91.9258 33.9238 91.0827 33.6178 90.3926 33.0059ZM93.5957 31.7168C93.7845 31.4499 93.8789 31.1309 93.8789 30.7598C93.8789 30.3887 93.7845 30.0697 93.5957 29.8027C93.4069 29.5358 93.1823 29.4023 92.9219 29.4023C92.6615 29.4023 92.4368 29.5358 92.248 29.8027C92.0592 30.0697 91.9648 30.3887 91.9648 30.7598C91.9648 31.1309 92.0592 31.4499 92.248 31.7168C92.4368 31.9837 92.6615 32.1172 92.9219 32.1172C93.1823 32.1172 93.4069 31.9837 93.5957 31.7168ZM98.9766 41.2773C98.2865 40.6654 97.9414 39.9199 97.9414 39.041C97.9414 38.1621 98.2865 37.4167 98.9766 36.8047C99.6667 36.1862 100.51 35.877 101.506 35.877C102.502 35.877 103.342 36.1862 104.025 36.8047C104.715 37.4167 105.061 38.1621 105.061 39.041C105.061 39.9199 104.715 40.6654 104.025 41.2773C103.342 41.8893 102.502 42.1953 101.506 42.1953C100.51 42.1953 99.6667 41.8893 98.9766 41.2773ZM102.18 39.998C102.368 39.7311 102.463 39.4121 102.463 39.041C102.463 38.6699 102.368 38.3509 102.18 38.084C101.991 37.8171 101.766 37.6836 101.506 37.6836C101.245 37.6836 101.018 37.8171 100.822 38.084C100.633 38.3509 100.539 38.6699 100.539 39.041C100.539 39.4121 100.633 39.7311 100.822 39.998C101.018 40.265 101.245 40.3984 101.506 40.3984C101.766 40.3984 101.991 40.265 102.18 39.998Z" fill="#FA7E17"/>
<path d="M188.447 67.0977C186.449 67.0977 184.827 66.5638 183.584 65.4961L185.527 62.7422C186.276 63.3281 187.181 63.6211 188.242 63.6211C188.919 63.6211 189.414 63.5169 189.727 63.3086C190.046 63.1003 190.205 62.7715 190.205 62.3223C190.205 61.821 190.003 61.4596 189.6 61.2383C189.196 61.0104 188.545 60.8965 187.646 60.8965H187.021V58.2598H187.725C188.363 58.2598 188.874 58.1361 189.258 57.8887C189.648 57.6348 189.844 57.2995 189.844 56.8828C189.844 56.5573 189.73 56.3066 189.502 56.1309C189.274 55.9486 188.955 55.8574 188.545 55.8574C187.588 55.8574 186.794 56.3262 186.162 57.2637L183.76 54.4414C184.229 53.9076 184.945 53.4746 185.908 53.1426C186.878 52.8105 187.904 52.6445 188.984 52.6445C190.469 52.6445 191.663 52.9668 192.568 53.6113C193.473 54.2559 193.926 55.1055 193.926 56.1602C193.926 56.9544 193.678 57.6608 193.184 58.2793C192.695 58.8978 192.08 59.2786 191.338 59.4219C192.158 59.5651 192.829 59.972 193.35 60.6426C193.877 61.3066 194.141 62.0977 194.141 63.0156C194.141 64.2786 193.63 65.2747 192.607 66.0039C191.592 66.7331 190.205 67.0977 188.447 67.0977ZM201.084 56.2383H195.664V52.7812H207.061L200.117 66.9805H195.82L201.084 56.2383ZM207.393 70.1445L208.115 67H206.973V63.3184H210.117V67L209.033 70.1445H207.393ZM217.549 57.5371C218.981 57.5371 220.173 57.9831 221.123 58.875C222.074 59.7604 222.549 60.8672 222.549 62.1953C222.549 63.6016 222.041 64.7865 221.025 65.75C220.01 66.7135 218.747 67.1953 217.236 67.1953C215.537 67.1953 214.222 66.5833 213.291 65.3594C212.36 64.1354 211.895 62.4167 211.895 60.2031C211.895 57.8659 212.402 56.0299 213.418 54.6953C214.434 53.3542 215.833 52.6836 217.617 52.6836C219.349 52.6836 220.853 53.3216 222.129 54.5977L220.029 57.0391C219.313 56.3229 218.486 55.9648 217.549 55.9648C216.898 55.9648 216.383 56.1634 216.006 56.5605C215.628 56.9577 215.423 57.5111 215.391 58.2207C215.905 57.765 216.624 57.5371 217.549 57.5371ZM215.537 62.1953C215.537 62.6836 215.706 63.11 216.045 63.4746C216.39 63.8392 216.787 64.0215 217.236 64.0215C217.686 64.0215 218.079 63.8392 218.418 63.4746C218.763 63.11 218.936 62.6836 218.936 62.1953C218.936 61.7266 218.77 61.3294 218.438 61.0039C218.105 60.6784 217.705 60.5156 217.236 60.5156C216.768 60.5156 216.367 60.6784 216.035 61.0039C215.703 61.3294 215.537 61.7266 215.537 62.1953ZM228.271 67.0977C226.273 67.0977 224.652 66.5638 223.408 65.4961L225.352 62.7422C226.1 63.3281 227.005 63.6211 228.066 63.6211C228.743 63.6211 229.238 63.5169 229.551 63.3086C229.87 63.1003 230.029 62.7715 230.029 62.3223C230.029 61.821 229.827 61.4596 229.424 61.2383C229.02 61.0104 228.369 60.8965 227.471 60.8965H226.846V58.2598H227.549C228.187 58.2598 228.698 58.1361 229.082 57.8887C229.473 57.6348 229.668 57.2995 229.668 56.8828C229.668 56.5573 229.554 56.3066 229.326 56.1309C229.098 55.9486 228.779 55.8574 228.369 55.8574C227.412 55.8574 226.618 56.3262 225.986 57.2637L223.584 54.4414C224.053 53.9076 224.769 53.4746 225.732 53.1426C226.702 52.8105 227.728 52.6445 228.809 52.6445C230.293 52.6445 231.488 52.9668 232.393 53.6113C233.298 54.2559 233.75 55.1055 233.75 56.1602C233.75 56.9544 233.503 57.6608 233.008 58.2793C232.52 58.8978 231.904 59.2786 231.162 59.4219C231.982 59.5651 232.653 59.972 233.174 60.6426C233.701 61.3066 233.965 62.0977 233.965 63.0156C233.965 64.2786 233.454 65.2747 232.432 66.0039C231.416 66.7331 230.029 67.0977 228.271 67.0977ZM237.109 65.7012L242.764 59.3242L247.783 52.5762L249.443 54.0801L244.023 60.2617L238.77 67.1953L237.109 65.7012ZM236.455 58.0059C235.771 57.3874 235.43 56.6387 235.43 55.7598C235.43 54.8809 235.771 54.1354 236.455 53.5234C237.145 52.9049 237.988 52.5957 238.984 52.5957C239.98 52.5957 240.824 52.9049 241.514 53.5234C242.204 54.1354 242.549 54.8809 242.549 55.7598C242.549 56.6387 242.204 57.3874 241.514 58.0059C240.824 58.6178 239.98 58.9238 238.984 58.9238C237.988 58.9238 237.145 58.6178 236.455 58.0059ZM239.658 56.7168C239.847 56.4499 239.941 56.1309 239.941 55.7598C239.941 55.3887 239.847 55.0697 239.658 54.8027C239.469 54.5358 239.245 54.4023 238.984 54.4023C238.724 54.4023 238.499 54.5358 238.311 54.8027C238.122 55.0697 238.027 55.3887 238.027 55.7598C238.027 56.1309 238.122 56.4499 238.311 56.7168C238.499 56.9837 238.724 57.1172 238.984 57.1172C239.245 57.1172 239.469 56.9837 239.658 56.7168ZM245.039 66.2773C244.349 65.6654 244.004 64.9199 244.004 64.041C244.004 63.1621 244.349 62.4167 245.039 61.8047C245.729 61.1862 246.572 60.877 247.568 60.877C248.564 60.877 249.404 61.1862 250.088 61.8047C250.778 62.4167 251.123 63.1621 251.123 64.041C251.123 64.9199 250.778 65.6654 250.088 66.2773C249.404 66.8893 248.564 67.1953 247.568 67.1953C246.572 67.1953 245.729 66.8893 245.039 66.2773ZM248.242 64.998C248.431 64.7311 248.525 64.4121 248.525 64.041C248.525 63.6699 248.431 63.3509 248.242 63.084C248.053 62.8171 247.829 62.6836 247.568 62.6836C247.308 62.6836 247.08 62.8171 246.885 63.084C246.696 63.3509 246.602 63.6699 246.602 64.041C246.602 64.4121 246.696 64.7311 246.885 64.998C247.08 65.265 247.308 65.3984 247.568 65.3984C247.829 65.3984 248.053 65.265 248.242 64.998Z" fill="#FA7E17"/>
<path d="M62.6654 57.4872C63.2059 60.3827 65.9913 62.2918 68.8869 61.7513C71.7824 61.2108 73.6915 58.4254 73.151 55.5299C72.6105 52.6344 69.8251 50.7253 66.9296 51.2658C64.034 51.8063 62.1249 54.5917 62.6654 57.4872ZM212.665 79.4872C213.206 82.3827 215.991 84.2918 218.887 83.7513C221.782 83.2108 223.691 80.4254 223.151 77.5299C222.61 74.6344 219.825 72.7253 216.93 73.2658C214.034 73.8063 212.125 76.5917 212.665 79.4872ZM67.9082 56.5085L67.7631 57.498L217.763 79.498L217.908 78.5085L218.053 77.5191L68.0533 55.5191L67.9082 56.5085Z" fill="url(#paint0_linear_4504_3379)"/>
<defs>
<linearGradient id="paint0_linear_4504_3379" x1="68" y1="87.0001" x2="218" y2="59.0001" gradientUnits="userSpaceOnUse">
<stop stop-color="#333333"/>
<stop offset="1" stop-color="#333333"/>
</linearGradient>
</defs>
</svg>
