<svg width="298" height="152" viewBox="0 0 298 152" fill="none" xmlns="http://www.w3.org/2000/svg">
<path d="M196.995 139C196.995 137.946 197.139 137.123 197.427 136.531C197.715 135.938 198.212 135.426 198.918 134.995C199.079 134.897 199.285 134.783 199.534 134.652C199.788 134.521 200.004 134.409 200.182 134.315C200.364 134.222 200.558 134.108 200.766 133.973C200.973 133.833 201.14 133.698 201.267 133.566C201.398 133.435 201.506 133.277 201.591 133.09C201.68 132.904 201.724 132.703 201.724 132.487C201.724 132.106 201.601 131.802 201.356 131.573C201.115 131.34 200.783 131.224 200.359 131.224C199.915 131.224 199.5 131.334 199.115 131.554C198.734 131.77 198.404 132.028 198.125 132.329L197.033 131.186C197.169 131.029 197.338 130.871 197.541 130.71C197.744 130.549 197.994 130.386 198.29 130.221C198.586 130.052 198.935 129.914 199.337 129.809C199.739 129.703 200.154 129.65 200.582 129.65C201.563 129.65 202.327 129.906 202.873 130.418C203.419 130.926 203.692 131.59 203.692 132.411C203.692 132.716 203.645 133.001 203.552 133.268C203.463 133.53 203.353 133.755 203.222 133.941C203.095 134.127 202.922 134.313 202.702 134.5C202.482 134.686 202.281 134.836 202.099 134.95C201.921 135.064 201.697 135.198 201.426 135.35C200.846 135.659 200.393 135.934 200.067 136.175C199.746 136.412 199.526 136.618 199.407 136.791C199.289 136.96 199.187 137.172 199.103 137.426H203.705V139H196.995ZM204.917 134.449C204.917 133.89 205.012 133.334 205.203 132.779C205.393 132.225 205.655 131.726 205.99 131.281C206.324 130.833 206.747 130.469 207.259 130.189C207.776 129.91 208.33 129.771 208.922 129.771C209.434 129.771 209.913 129.868 210.357 130.062C210.801 130.257 211.178 130.515 211.487 130.837C211.796 131.159 212.062 131.525 212.287 131.935C212.511 132.341 212.676 132.76 212.782 133.192C212.888 133.619 212.94 134.038 212.94 134.449C212.94 134.897 212.881 135.346 212.763 135.794C212.644 136.243 212.469 136.666 212.236 137.064C212.003 137.462 211.728 137.815 211.411 138.124C211.093 138.429 210.719 138.672 210.287 138.854C209.86 139.032 209.405 139.123 208.922 139.127C208.415 139.123 207.938 139.025 207.494 138.835C207.054 138.64 206.677 138.386 206.364 138.073C206.055 137.756 205.789 137.394 205.564 136.988C205.344 136.582 205.181 136.163 205.076 135.731C204.97 135.299 204.917 134.872 204.917 134.449ZM208.922 137.546C209.291 137.546 209.621 137.447 209.913 137.248C210.209 137.049 210.442 136.793 210.611 136.48C210.78 136.167 210.909 135.837 210.998 135.49C211.087 135.139 211.131 134.792 211.131 134.449C211.131 134.081 211.083 133.717 210.985 133.357C210.888 132.997 210.75 132.667 210.573 132.367C210.395 132.066 210.162 131.823 209.875 131.637C209.587 131.451 209.269 131.357 208.922 131.357C208.626 131.357 208.353 131.423 208.104 131.554C207.858 131.685 207.651 131.857 207.481 132.068C207.316 132.28 207.175 132.523 207.056 132.798C206.942 133.073 206.857 133.351 206.802 133.63C206.751 133.905 206.726 134.178 206.726 134.449C206.735 134.821 206.785 135.187 206.878 135.547C206.972 135.902 207.103 136.232 207.272 136.537C207.445 136.838 207.674 137.081 207.958 137.267C208.245 137.453 208.567 137.546 208.922 137.546ZM214.02 139C214.02 137.946 214.163 137.123 214.451 136.531C214.739 135.938 215.236 135.426 215.943 134.995C216.104 134.897 216.309 134.783 216.559 134.652C216.812 134.521 217.028 134.409 217.206 134.315C217.388 134.222 217.583 134.108 217.79 133.973C217.997 133.833 218.165 133.698 218.292 133.566C218.423 133.435 218.531 133.277 218.615 133.09C218.704 132.904 218.749 132.703 218.749 132.487C218.749 132.106 218.626 131.802 218.38 131.573C218.139 131.34 217.807 131.224 217.384 131.224C216.939 131.224 216.525 131.334 216.14 131.554C215.759 131.77 215.429 132.028 215.149 132.329L214.058 131.186C214.193 131.029 214.362 130.871 214.565 130.71C214.769 130.549 215.018 130.386 215.314 130.221C215.611 130.052 215.96 129.914 216.362 129.809C216.764 129.703 217.179 129.65 217.606 129.65C218.588 129.65 219.352 129.906 219.897 130.418C220.443 130.926 220.716 131.59 220.716 132.411C220.716 132.716 220.67 133.001 220.577 133.268C220.488 133.53 220.378 133.755 220.247 133.941C220.12 134.127 219.946 134.313 219.726 134.5C219.506 134.686 219.305 134.836 219.123 134.95C218.945 135.064 218.721 135.198 218.45 135.35C217.87 135.659 217.418 135.934 217.092 136.175C216.77 136.412 216.55 136.618 216.432 136.791C216.313 136.96 216.212 137.172 216.127 137.426H220.729V139H214.02ZM224.931 139.089C224.199 139.089 223.564 138.949 223.027 138.67C222.489 138.391 222.09 138.001 221.827 137.502L222.76 136.321C222.904 136.647 223.16 136.924 223.528 137.153C223.901 137.377 224.347 137.489 224.868 137.489C225.401 137.489 225.824 137.377 226.137 137.153C226.45 136.929 226.607 136.618 226.607 136.22C226.607 135.784 226.406 135.452 226.004 135.223C225.606 134.995 225.033 134.88 224.284 134.88H223.852V133.579H224.309C224.944 133.579 225.445 133.471 225.813 133.255C226.186 133.035 226.372 132.726 226.372 132.329C226.372 131.973 226.235 131.69 225.959 131.478C225.684 131.266 225.346 131.161 224.944 131.161C224.516 131.161 224.136 131.26 223.801 131.459C223.471 131.658 223.215 131.922 223.033 132.252L221.903 130.989C222.178 130.583 222.61 130.259 223.198 130.018C223.786 129.773 224.413 129.65 225.077 129.65C226 129.65 226.755 129.881 227.343 130.342C227.936 130.799 228.232 131.379 228.232 132.081C228.232 132.606 228.073 133.054 227.756 133.427C227.443 133.799 227.022 134.045 226.493 134.163C227.06 134.26 227.521 134.529 227.876 134.969C228.236 135.405 228.416 135.917 228.416 136.505C228.416 137.034 228.262 137.498 227.953 137.896C227.648 138.289 227.233 138.587 226.708 138.791C226.184 138.989 225.591 139.089 224.931 139.089Z" fill="black"/>
<path d="M51.2393 139C51.2393 137.946 51.3831 137.123 51.6709 136.531C51.9587 135.938 52.4559 135.426 53.1626 134.995C53.3234 134.897 53.5286 134.783 53.7783 134.652C54.0322 134.521 54.248 134.409 54.4258 134.315C54.6077 134.222 54.8024 134.108 55.0098 133.973C55.2171 133.833 55.3843 133.698 55.5112 133.566C55.6424 133.435 55.7503 133.277 55.835 133.09C55.9238 132.904 55.9683 132.703 55.9683 132.487C55.9683 132.106 55.8455 131.802 55.6001 131.573C55.3589 131.34 55.0267 131.224 54.6035 131.224C54.1592 131.224 53.7445 131.334 53.3594 131.554C52.9785 131.77 52.6484 132.028 52.3691 132.329L51.2773 131.186C51.4128 131.029 51.582 130.871 51.7852 130.71C51.9883 130.549 52.238 130.386 52.5342 130.221C52.8304 130.052 53.1795 129.914 53.5815 129.809C53.9836 129.703 54.3983 129.65 54.8257 129.65C55.8075 129.65 56.5713 129.906 57.1172 130.418C57.6631 130.926 57.936 131.59 57.936 132.411C57.936 132.716 57.8895 133.001 57.7964 133.268C57.7075 133.53 57.5975 133.755 57.4663 133.941C57.3394 134.127 57.1659 134.313 56.9458 134.5C56.7257 134.686 56.5247 134.836 56.3428 134.95C56.165 135.064 55.9408 135.198 55.6699 135.35C55.0902 135.659 54.6374 135.934 54.3115 136.175C53.9899 136.412 53.7699 136.618 53.6514 136.791C53.5329 136.96 53.4313 137.172 53.3467 137.426H57.9487V139H51.2393ZM59.1611 134.449C59.1611 133.89 59.2563 133.334 59.4468 132.779C59.6372 132.225 59.8996 131.726 60.2339 131.281C60.5682 130.833 60.9914 130.469 61.5034 130.189C62.0197 129.91 62.5741 129.771 63.1665 129.771C63.6785 129.771 64.1567 129.868 64.6011 130.062C65.0454 130.257 65.422 130.515 65.731 130.837C66.0399 131.159 66.3065 131.525 66.5308 131.935C66.755 132.341 66.9201 132.76 67.0259 133.192C67.1317 133.619 67.1846 134.038 67.1846 134.449C67.1846 134.897 67.1253 135.346 67.0068 135.794C66.8883 136.243 66.7127 136.666 66.48 137.064C66.2472 137.462 65.9722 137.815 65.6548 138.124C65.3374 138.429 64.9629 138.672 64.5312 138.854C64.1038 139.032 63.6489 139.123 63.1665 139.127C62.6587 139.123 62.1826 139.025 61.7383 138.835C61.2982 138.64 60.9215 138.386 60.6084 138.073C60.2995 137.756 60.0329 137.394 59.8086 136.988C59.5885 136.582 59.4256 136.163 59.3198 135.731C59.214 135.299 59.1611 134.872 59.1611 134.449ZM63.1665 137.546C63.5347 137.546 63.8647 137.447 64.1567 137.248C64.453 137.049 64.6857 136.793 64.855 136.48C65.0243 136.167 65.1533 135.837 65.2422 135.49C65.3311 135.139 65.3755 134.792 65.3755 134.449C65.3755 134.081 65.3268 133.717 65.2295 133.357C65.1322 132.997 64.9946 132.667 64.8169 132.367C64.6392 132.066 64.4064 131.823 64.1187 131.637C63.8309 131.451 63.5135 131.357 63.1665 131.357C62.8703 131.357 62.5973 131.423 62.3477 131.554C62.1022 131.685 61.8949 131.857 61.7256 132.068C61.5605 132.28 61.4188 132.523 61.3003 132.798C61.186 133.073 61.1014 133.351 61.0464 133.63C60.9956 133.905 60.9702 134.178 60.9702 134.449C60.9787 134.821 61.0295 135.187 61.1226 135.547C61.2157 135.902 61.3468 136.232 61.5161 136.537C61.6896 136.838 61.9181 137.081 62.2017 137.267C62.4894 137.453 62.811 137.546 63.1665 137.546ZM73.8115 137.426V139H68.5874V137.426H70.3838V131.421C70.223 131.645 69.9141 131.889 69.457 132.151C69.0042 132.409 68.6149 132.538 68.2891 132.538V130.926C68.4626 130.926 68.6509 130.886 68.854 130.805C69.0614 130.721 69.2497 130.621 69.4189 130.507C69.5882 130.388 69.7469 130.268 69.895 130.145C70.0474 130.018 70.1637 129.914 70.2441 129.834C70.3288 129.749 70.3753 129.699 70.3838 129.682H72.1611V137.426H73.8115ZM77.8486 135.985C76.9388 135.985 76.1729 135.691 75.5508 135.103C74.9329 134.51 74.624 133.782 74.624 132.919C74.624 132.475 74.7108 132.054 74.8843 131.656C75.0578 131.258 75.2926 130.917 75.5889 130.634C75.8893 130.35 76.249 130.126 76.668 129.961C77.0869 129.792 77.5312 129.707 78.001 129.707C79.0505 129.707 79.8778 130.079 80.4829 130.824C81.0923 131.569 81.397 132.604 81.397 133.928C81.397 135.587 81.0775 136.869 80.4385 137.775C79.8037 138.676 78.932 139.127 77.8232 139.127C77.2477 139.127 76.7124 139 76.2173 138.746C75.7264 138.492 75.3117 138.13 74.9731 137.661L75.9761 136.569C76.1877 136.895 76.4564 137.151 76.7822 137.337C77.1123 137.519 77.4678 137.61 77.8486 137.61C78.4326 137.61 78.8981 137.377 79.2451 136.912C79.5921 136.446 79.772 135.799 79.7847 134.969C79.6027 135.282 79.3403 135.53 78.9976 135.712C78.6548 135.894 78.2718 135.985 77.8486 135.985ZM79.7085 132.919C79.7085 132.445 79.5371 132.035 79.1943 131.688C78.8516 131.336 78.4495 131.161 77.9883 131.161C77.5312 131.161 77.1356 131.334 76.8013 131.681C76.467 132.024 76.2998 132.43 76.2998 132.9C76.2998 133.365 76.467 133.765 76.8013 134.1C77.1356 134.43 77.5355 134.595 78.001 134.595C78.4665 134.595 78.8664 134.432 79.2007 134.106C79.5392 133.776 79.7085 133.38 79.7085 132.919Z" fill="black"/>
<path d="M40.5195 72.0977C38.5208 72.0977 36.8997 71.5638 35.6562 70.4961L37.5996 67.7422C38.3483 68.3281 39.2533 68.6211 40.3145 68.6211C40.9915 68.6211 41.4863 68.5169 41.7988 68.3086C42.1178 68.1003 42.2773 67.7715 42.2773 67.3223C42.2773 66.821 42.0755 66.4596 41.6719 66.2383C41.2682 66.0104 40.6172 65.8965 39.7188 65.8965H39.0938V63.2598H39.7969C40.4349 63.2598 40.946 63.1361 41.3301 62.8887C41.7207 62.6348 41.916 62.2995 41.916 61.8828C41.916 61.5573 41.8021 61.3066 41.5742 61.1309C41.3464 60.9486 41.0273 60.8574 40.6172 60.8574C39.6602 60.8574 38.8659 61.3262 38.2344 62.2637L35.832 59.4414C36.3008 58.9076 37.0169 58.4746 37.9805 58.1426C38.9505 57.8105 39.9759 57.6445 41.0566 57.6445C42.541 57.6445 43.7357 57.9668 44.6406 58.6113C45.5456 59.2559 45.998 60.1055 45.998 61.1602C45.998 61.9544 45.7507 62.6608 45.2559 63.2793C44.7676 63.8978 44.1523 64.2786 43.4102 64.4219C44.2305 64.5651 44.901 64.972 45.4219 65.6426C45.9492 66.3066 46.2129 67.0977 46.2129 68.0156C46.2129 69.2786 45.7018 70.2747 44.6797 71.0039C43.6641 71.7331 42.2773 72.0977 40.5195 72.0977ZM52.7363 67.3418C51.304 67.3418 50.1126 66.8991 49.1621 66.0137C48.2116 65.1217 47.7363 64.0117 47.7363 62.6836C47.7363 61.2773 48.2441 60.0924 49.2598 59.1289C50.2754 58.1654 51.5384 57.6836 53.0488 57.6836C54.748 57.6836 56.0632 58.2956 56.9941 59.5195C57.9251 60.7435 58.3906 62.4622 58.3906 64.6758C58.3906 67.0195 57.8828 68.8587 56.8672 70.1934C55.8581 71.528 54.4616 72.1953 52.6777 72.1953C50.9395 72.1953 49.4323 71.5573 48.1562 70.2812L50.2559 67.8398C50.9785 68.5625 51.8053 68.9238 52.7363 68.9238C53.3874 68.9238 53.9017 68.7253 54.2793 68.3281C54.6569 67.9245 54.862 67.3678 54.8945 66.6582C54.3802 67.1139 53.6608 67.3418 52.7363 67.3418ZM54.7578 62.6836C54.7578 62.1953 54.5853 61.7689 54.2402 61.4043C53.8952 61.0397 53.498 60.8574 53.0488 60.8574C52.5996 60.8574 52.2025 61.0397 51.8574 61.4043C51.5189 61.7689 51.3496 62.1953 51.3496 62.6836C51.3496 63.1523 51.5156 63.5495 51.8477 63.875C52.1797 64.2005 52.5801 64.3633 53.0488 64.3633C53.5176 64.3633 53.918 64.2005 54.25 63.875C54.5885 63.5495 54.7578 63.1523 54.7578 62.6836ZM60.5977 75.1445L61.3203 72H60.1777V68.3184H63.3223V72L62.2383 75.1445H60.5977ZM70.7539 62.5371C72.1862 62.5371 73.3776 62.9831 74.3281 63.875C75.2786 64.7604 75.7539 65.8672 75.7539 67.1953C75.7539 68.6016 75.2461 69.7865 74.2305 70.75C73.2148 71.7135 71.9518 72.1953 70.4414 72.1953C68.7422 72.1953 67.4271 71.5833 66.4961 70.3594C65.5651 69.1354 65.0996 67.4167 65.0996 65.2031C65.0996 62.8659 65.6074 61.0299 66.623 59.6953C67.6387 58.3542 69.0384 57.6836 70.8223 57.6836C72.554 57.6836 74.0579 58.3216 75.334 59.5977L73.2344 62.0391C72.5182 61.3229 71.6914 60.9648 70.7539 60.9648C70.1029 60.9648 69.5885 61.1634 69.2109 61.5605C68.8333 61.9577 68.6283 62.5111 68.5957 63.2207C69.11 62.765 69.8294 62.5371 70.7539 62.5371ZM68.7422 67.1953C68.7422 67.6836 68.9115 68.11 69.25 68.4746C69.5951 68.8392 69.9922 69.0215 70.4414 69.0215C70.8906 69.0215 71.2845 68.8392 71.623 68.4746C71.9681 68.11 72.1406 67.6836 72.1406 67.1953C72.1406 66.7266 71.9746 66.3294 71.6426 66.0039C71.3105 65.6784 70.9102 65.5156 70.4414 65.5156C69.9727 65.5156 69.5723 65.6784 69.2402 66.0039C68.9082 66.3294 68.7422 66.7266 68.7422 67.1953ZM82.9414 62.5371C84.3737 62.5371 85.5651 62.9831 86.5156 63.875C87.4661 64.7604 87.9414 65.8672 87.9414 67.1953C87.9414 68.6016 87.4336 69.7865 86.418 70.75C85.4023 71.7135 84.1393 72.1953 82.6289 72.1953C80.9297 72.1953 79.6146 71.5833 78.6836 70.3594C77.7526 69.1354 77.2871 67.4167 77.2871 65.2031C77.2871 62.8659 77.7949 61.0299 78.8105 59.6953C79.8262 58.3542 81.2259 57.6836 83.0098 57.6836C84.7415 57.6836 86.2454 58.3216 87.5215 59.5977L85.4219 62.0391C84.7057 61.3229 83.8789 60.9648 82.9414 60.9648C82.2904 60.9648 81.776 61.1634 81.3984 61.5605C81.0208 61.9577 80.8158 62.5111 80.7832 63.2207C81.2975 62.765 82.0169 62.5371 82.9414 62.5371ZM80.9297 67.1953C80.9297 67.6836 81.099 68.11 81.4375 68.4746C81.7826 68.8392 82.1797 69.0215 82.6289 69.0215C83.0781 69.0215 83.472 68.8392 83.8105 68.4746C84.1556 68.11 84.3281 67.6836 84.3281 67.1953C84.3281 66.7266 84.1621 66.3294 83.8301 66.0039C83.498 65.6784 83.0977 65.5156 82.6289 65.5156C82.1602 65.5156 81.7598 65.6784 81.4277 66.0039C81.0957 66.3294 80.9297 66.7266 80.9297 67.1953ZM91.0371 70.7012L96.6914 64.3242L101.711 57.5762L103.371 59.0801L97.9512 65.2617L92.6973 72.1953L91.0371 70.7012ZM90.3828 63.0059C89.6992 62.3874 89.3574 61.6387 89.3574 60.7598C89.3574 59.8809 89.6992 59.1354 90.3828 58.5234C91.0729 57.9049 91.916 57.5957 92.9121 57.5957C93.9082 57.5957 94.7513 57.9049 95.4414 58.5234C96.1315 59.1354 96.4766 59.8809 96.4766 60.7598C96.4766 61.6387 96.1315 62.3874 95.4414 63.0059C94.7513 63.6178 93.9082 63.9238 92.9121 63.9238C91.916 63.9238 91.0729 63.6178 90.3828 63.0059ZM93.5859 61.7168C93.7747 61.4499 93.8691 61.1309 93.8691 60.7598C93.8691 60.3887 93.7747 60.0697 93.5859 59.8027C93.3971 59.5358 93.1725 59.4023 92.9121 59.4023C92.6517 59.4023 92.4271 59.5358 92.2383 59.8027C92.0495 60.0697 91.9551 60.3887 91.9551 60.7598C91.9551 61.1309 92.0495 61.4499 92.2383 61.7168C92.4271 61.9837 92.6517 62.1172 92.9121 62.1172C93.1725 62.1172 93.3971 61.9837 93.5859 61.7168ZM98.9668 71.2773C98.2767 70.6654 97.9316 69.9199 97.9316 69.041C97.9316 68.1621 98.2767 67.4167 98.9668 66.8047C99.6569 66.1862 100.5 65.877 101.496 65.877C102.492 65.877 103.332 66.1862 104.016 66.8047C104.706 67.4167 105.051 68.1621 105.051 69.041C105.051 69.9199 104.706 70.6654 104.016 71.2773C103.332 71.8893 102.492 72.1953 101.496 72.1953C100.5 72.1953 99.6569 71.8893 98.9668 71.2773ZM102.17 69.998C102.359 69.7311 102.453 69.4121 102.453 69.041C102.453 68.6699 102.359 68.3509 102.17 68.084C101.981 67.8171 101.757 67.6836 101.496 67.6836C101.236 67.6836 101.008 67.8171 100.812 68.084C100.624 68.3509 100.529 68.6699 100.529 69.041C100.529 69.4121 100.624 69.7311 100.812 69.998C101.008 70.265 101.236 70.3984 101.496 70.3984C101.757 70.3984 101.981 70.265 102.17 69.998Z" fill="#725FA9"/>
<path d="M186.072 46.9805V44.2559H180.926V40.8574L187.264 32.7812H189.871V40.8574H191.629V44.2559H189.871V46.9805H186.072ZM184.666 40.8574H186.512V38.4648L184.666 40.8574ZM193.064 39.998C193.064 39.3145 193.159 38.6309 193.348 37.9473C193.536 37.2572 193.816 36.6061 194.188 35.9941C194.559 35.3757 194.998 34.8288 195.506 34.3535C196.014 33.8783 196.613 33.5007 197.303 33.2207C197.993 32.9408 198.725 32.8008 199.5 32.8008C200.314 32.8008 201.076 32.9505 201.785 33.25C202.501 33.5495 203.107 33.9466 203.602 34.4414C204.103 34.9362 204.533 35.4993 204.891 36.1309C205.249 36.7559 205.512 37.4004 205.682 38.0645C205.857 38.722 205.945 39.3665 205.945 39.998C205.945 40.6882 205.851 41.3783 205.662 42.0684C205.473 42.7585 205.19 43.4128 204.812 44.0312C204.441 44.6432 204.002 45.1868 203.494 45.6621C202.986 46.1309 202.387 46.5052 201.697 46.7852C201.007 47.0586 200.275 47.1953 199.5 47.1953C198.68 47.1953 197.915 47.0488 197.205 46.7559C196.495 46.4629 195.893 46.0723 195.398 45.584C194.904 45.0957 194.477 44.5391 194.119 43.9141C193.761 43.2891 193.494 42.6445 193.318 41.9805C193.149 41.3099 193.064 40.6491 193.064 39.998ZM199.5 43.7383C199.936 43.7383 200.32 43.6211 200.652 43.3867C200.991 43.1458 201.251 42.8366 201.434 42.459C201.616 42.0749 201.753 41.6745 201.844 41.2578C201.935 40.8411 201.98 40.4212 201.98 39.998C201.98 39.5488 201.932 39.1094 201.834 38.6797C201.736 38.25 201.59 37.8529 201.395 37.4883C201.206 37.1172 200.945 36.821 200.613 36.5996C200.288 36.3717 199.917 36.2578 199.5 36.2578C199.064 36.2578 198.676 36.3783 198.338 36.6191C198.006 36.8535 197.749 37.1628 197.566 37.5469C197.384 37.9245 197.247 38.3216 197.156 38.7383C197.065 39.1549 197.02 39.5749 197.02 39.998C197.02 40.4538 197.065 40.8965 197.156 41.3262C197.254 41.7493 197.397 42.1465 197.586 42.5176C197.775 42.8822 198.035 43.1784 198.367 43.4062C198.699 43.6276 199.077 43.7383 199.5 43.7383ZM208.055 50.1445L208.777 47H207.635V43.3184H210.779V47L209.695 50.1445H208.055ZM212.498 47C212.498 46.2708 212.514 45.6719 212.547 45.2031C212.579 44.7344 212.648 44.2721 212.752 43.8164C212.856 43.3542 213.009 42.9603 213.211 42.6348C213.413 42.3092 213.673 41.9935 213.992 41.6875C214.318 41.3815 214.725 41.0788 215.213 40.7793C215.408 40.6621 215.685 40.5026 216.043 40.3008C216.401 40.099 216.697 39.9329 216.932 39.8027C217.173 39.666 217.439 39.4935 217.732 39.2852C218.032 39.0768 218.27 38.8783 218.445 38.6895C218.621 38.5007 218.771 38.2793 218.895 38.0254C219.018 37.765 219.08 37.498 219.08 37.2246C219.08 36.8079 218.956 36.502 218.709 36.3066C218.462 36.1048 218.149 36.0039 217.771 36.0039C217.283 36.0039 216.775 36.1439 216.248 36.4238C215.721 36.6973 215.249 37.0358 214.832 37.4395L212.498 34.9004C213.064 34.2559 213.865 33.7188 214.9 33.2891C215.942 32.8594 217.081 32.6445 218.318 32.6445C219.926 32.6445 221.176 33.0286 222.068 33.7969C222.967 34.5586 223.416 35.6133 223.416 36.9609C223.416 37.9375 223.175 38.7839 222.693 39.5C222.218 40.2096 221.518 40.8574 220.594 41.4434C218.973 42.4655 217.879 43.1849 217.312 43.6016H223.436V47H212.498ZM230.115 42.3418C228.683 42.3418 227.492 41.8991 226.541 41.0137C225.59 40.1217 225.115 39.0117 225.115 37.6836C225.115 36.2773 225.623 35.0924 226.639 34.1289C227.654 33.1654 228.917 32.6836 230.428 32.6836C232.127 32.6836 233.442 33.2956 234.373 34.5195C235.304 35.7435 235.77 37.4622 235.77 39.6758C235.77 42.0195 235.262 43.8587 234.246 45.1934C233.237 46.528 231.84 47.1953 230.057 47.1953C228.318 47.1953 226.811 46.5573 225.535 45.2812L227.635 42.8398C228.357 43.5625 229.184 43.9238 230.115 43.9238C230.766 43.9238 231.281 43.7253 231.658 43.3281C232.036 42.9245 232.241 42.3678 232.273 41.6582C231.759 42.1139 231.04 42.3418 230.115 42.3418ZM232.137 37.6836C232.137 37.1953 231.964 36.7689 231.619 36.4043C231.274 36.0397 230.877 35.8574 230.428 35.8574C229.979 35.8574 229.581 36.0397 229.236 36.4043C228.898 36.7689 228.729 37.1953 228.729 37.6836C228.729 38.1523 228.895 38.5495 229.227 38.875C229.559 39.2005 229.959 39.3633 230.428 39.3633C230.896 39.3633 231.297 39.2005 231.629 38.875C231.967 38.5495 232.137 38.1523 232.137 37.6836ZM238.904 45.7012L244.559 39.3242L249.578 32.5762L251.238 34.0801L245.818 40.2617L240.564 47.1953L238.904 45.7012ZM238.25 38.0059C237.566 37.3874 237.225 36.6387 237.225 35.7598C237.225 34.8809 237.566 34.1354 238.25 33.5234C238.94 32.9049 239.783 32.5957 240.779 32.5957C241.775 32.5957 242.618 32.9049 243.309 33.5234C243.999 34.1354 244.344 34.8809 244.344 35.7598C244.344 36.6387 243.999 37.3874 243.309 38.0059C242.618 38.6178 241.775 38.9238 240.779 38.9238C239.783 38.9238 238.94 38.6178 238.25 38.0059ZM241.453 36.7168C241.642 36.4499 241.736 36.1309 241.736 35.7598C241.736 35.3887 241.642 35.0697 241.453 34.8027C241.264 34.5358 241.04 34.4023 240.779 34.4023C240.519 34.4023 240.294 34.5358 240.105 34.8027C239.917 35.0697 239.822 35.3887 239.822 35.7598C239.822 36.1309 239.917 36.4499 240.105 36.7168C240.294 36.9837 240.519 37.1172 240.779 37.1172C241.04 37.1172 241.264 36.9837 241.453 36.7168ZM246.834 46.2773C246.144 45.6654 245.799 44.9199 245.799 44.041C245.799 43.1621 246.144 42.4167 246.834 41.8047C247.524 41.1862 248.367 40.877 249.363 40.877C250.359 40.877 251.199 41.1862 251.883 41.8047C252.573 42.4167 252.918 43.1621 252.918 44.041C252.918 44.9199 252.573 45.6654 251.883 46.2773C251.199 46.8893 250.359 47.1953 249.363 47.1953C248.367 47.1953 247.524 46.8893 246.834 46.2773ZM250.037 44.998C250.226 44.7311 250.32 44.4121 250.32 44.041C250.32 43.6699 250.226 43.3509 250.037 43.084C249.848 42.8171 249.624 42.6836 249.363 42.6836C249.103 42.6836 248.875 42.8171 248.68 43.084C248.491 43.3509 248.396 43.6699 248.396 44.041C248.396 44.4121 248.491 44.7311 248.68 44.998C248.875 45.265 249.103 45.3984 249.363 45.3984C249.624 45.3984 249.848 45.265 250.037 44.998Z" fill="#725FA9"/>
<path d="M62.6654 87.4872C63.2059 90.3827 65.9913 92.2918 68.8869 91.7513C71.7824 91.2108 73.6915 88.4254 73.151 85.5299C72.6105 82.6344 69.8251 80.7253 66.9296 81.2658C64.034 81.8063 62.1249 84.5917 62.6654 87.4872ZM212.665 59.4872C213.206 62.3827 215.991 64.2918 218.887 63.7513C221.782 63.2108 223.691 60.4254 223.151 57.5299C222.61 54.6344 219.825 52.7253 216.93 53.2658C214.034 53.8063 212.125 56.5917 212.665 59.4872ZM67.9082 86.5085L68.0917 87.4916L218.092 59.4916L217.908 58.5085L217.725 57.5255L67.7247 85.5255L67.9082 86.5085Z" fill="url(#paint0_linear_4504_3325)"/>
<defs>
<linearGradient id="paint0_linear_4504_3325" x1="68" y1="87.0001" x2="218" y2="59.0001" gradientUnits="userSpaceOnUse">
<stop stop-color="#333333"/>
<stop offset="1" stop-color="#333333"/>
</linearGradient>
</defs>
</svg>
