<svg width="308" height="40" viewBox="0 0 308 40" fill="none" xmlns="http://www.w3.org/2000/svg">
<line x1="105.5" y1="2.18557e-08" x2="105.5" y2="40" stroke="#B8B8B8" stroke-dasharray="2 2"/>
<line x1="127.5" y1="2.18557e-08" x2="127.5" y2="40" stroke="#B8B8B8" stroke-dasharray="2 2"/>
<line x1="149.5" y1="2.18557e-08" x2="149.5" y2="40" stroke="#B8B8B8" stroke-dasharray="2 2"/>
<line x1="171.5" y1="2.18557e-08" x2="171.5" y2="40" stroke="#B8B8B8" stroke-dasharray="2 2"/>
<line x1="193.5" y1="2.18557e-08" x2="193.5" y2="40" stroke="#B8B8B8" stroke-dasharray="2 2"/>
<line x1="215.5" y1="2.18557e-08" x2="215.5" y2="40" stroke="#B8B8B8" stroke-dasharray="2 2"/>
<line x1="237.5" y1="2.18557e-08" x2="237.5" y2="40" stroke="#B8B8B8" stroke-dasharray="2 2"/>
<line x1="259.5" y1="2.18557e-08" x2="259.5" y2="40" stroke="#B8B8B8" stroke-dasharray="2 2"/>
<rect x="262" y="9" width="22" height="157" transform="rotate(90 262 9)" fill="#0095DA"/>
<path d="M4.41719 16.4805L7.20039 20.1895L9.97188 16.4805H10.9211L7.65742 20.7988L10.8273 25H9.87813L7.20039 21.4141L4.51094 25H3.55586L6.71992 20.7988L3.45625 16.4805H4.41719ZM12.1192 16.4805L14.9024 20.1895L17.6739 16.4805H18.6231L15.3595 20.7988L18.5294 25H17.5802L14.9024 21.4141L12.213 25H11.2579L14.422 20.7988L11.1583 16.4805H12.1192ZM19.8213 16.4805L22.6045 20.1895L25.3759 16.4805H26.3252L23.0615 20.7988L26.2314 25H25.2822L22.6045 21.4141L19.915 25H18.9599L22.124 20.7988L18.8603 16.4805H19.8213ZM27.5233 16.4805L30.3065 20.1895L33.078 16.4805H34.0272L30.7635 20.7988L33.9334 25H32.9842L30.3065 21.4141L27.617 25L26.662 25L29.826 20.7988L26.5623 16.4805H27.5233ZM35.2253 16.4805L38.0085 20.1895L40.78 16.4805H41.7292L38.4655 20.7988L41.6355 25H40.6863L38.0085 21.4141L35.3191 25H34.364L37.528 20.7988L34.2644 16.4805H35.2253ZM42.9273 16.4805L45.7105 20.1895L48.482 16.4805L49.4313 16.4805L46.1676 20.7988L49.3375 25H48.3883L45.7105 21.4141L43.0211 25H42.066L45.2301 20.7988L41.9664 16.4805H42.9273ZM50.6294 16.4805L53.4126 20.1895L56.1841 16.4805H57.1333L53.8696 20.7988L57.0395 25H56.0903L53.4126 21.4141L50.7231 25H49.7681L52.9321 20.7988L49.6684 16.4805H50.6294ZM58.3314 16.4805L61.1146 20.1895L63.8861 16.4805H64.8353L61.5716 20.7988L64.7416 25H63.7923L61.1146 21.4141L58.4252 25H57.4701L60.6341 20.7988L57.3705 16.4805H58.3314ZM66.0334 16.4805L68.8166 20.1895L71.5881 16.4805H72.5373L69.2737 20.7988L72.4436 25H71.4944L68.8166 21.4141L66.1272 25H65.1721L68.3362 20.7988L65.0725 16.4805H66.0334ZM73.7355 16.4805L76.5187 20.1895L79.2902 16.4805H80.2394L76.9757 20.7988L80.1456 25H79.1964L76.5187 21.4141L73.8292 25H72.8741L76.0382 20.7988L72.7745 16.4805H73.7355ZM81.4375 16.4805L84.2207 20.1895L86.9922 16.4805H87.9414L84.6777 20.7988L87.8477 25H86.8984L84.2207 21.4141L81.5312 25H80.5762L83.7402 20.7988L80.4766 16.4805H81.4375Z" fill="#646464"/>
<path d="M278.619 16.4805L281.402 20.1895L284.174 16.4805H285.123L281.859 20.7988L285.029 25H284.08L281.402 21.4141L278.713 25H277.757L280.922 20.7988L277.658 16.4805H278.619ZM286.321 16.4805L289.104 20.1895L291.876 16.4805H292.825L289.561 20.7988L292.731 25H291.782L289.104 21.4141L286.415 25H285.46L288.624 20.7988L285.36 16.4805H286.321ZM294.035 25.9727L294.24 24.9648H293.964V23.8223H294.755V24.9648L294.456 25.9727H294.035ZM296.838 16.4805L299.621 20.1895L302.393 16.4805H303.342L300.078 20.7988L303.248 25H302.299L299.621 21.4141L296.932 25H295.977L299.141 20.7988L295.877 16.4805H296.838Z" fill="#646464"/>
</svg>
