<svg width="43" height="43" viewBox="0 0 43 43" fill="none" xmlns="http://www.w3.org/2000/svg">
<circle cx="21.5" cy="21.5" r="21.5" fill="#D9D9D9"/>
<path d="M21.5 10C27.5751 10 32.5 14.9249 32.5 21C32.5 23.4579 31.6923 25.7263 30.3301 27.5576L32.3389 32.8389L26.6992 30.6943C25.1508 31.5265 23.3809 32 21.5 32C15.4249 32 10.5 27.0751 10.5 21C10.5 14.9249 15.4249 10 21.5 10Z" fill="#008F00"/>
<path d="M19.3203 24.3076C19.3203 23.6631 19.4258 23.1152 19.6367 22.6641C19.8477 22.2129 20.2344 21.8232 20.7969 21.4951C20.8672 21.4541 21.0049 21.3779 21.21 21.2666C21.4209 21.1494 21.5937 21.0527 21.7285 20.9766C21.8691 20.8945 22.0361 20.7803 22.2295 20.6338C22.4229 20.4873 22.5781 20.3438 22.6953 20.2031C22.8125 20.0625 22.915 19.8926 23.0029 19.6934C23.0908 19.4941 23.1348 19.2861 23.1348 19.0693C23.1348 18.5947 22.9648 18.2197 22.625 17.9443C22.291 17.6631 21.8896 17.5225 21.4209 17.5225C20.5947 17.5225 19.8887 18.0029 19.3027 18.9639L17.7383 17.8828C18.0488 17.1562 18.5439 16.5879 19.2236 16.1777C19.9092 15.7617 20.668 15.5537 21.5 15.5537C21.9746 15.5537 22.4258 15.624 22.8535 15.7646C23.2871 15.9053 23.6855 16.1133 24.0488 16.3887C24.4121 16.6582 24.7021 17.0273 24.9189 17.4961C25.1357 17.9648 25.2441 18.501 25.2441 19.1045C25.2441 19.8193 25.0859 20.4053 24.7695 20.8623C24.4531 21.3193 23.9814 21.7412 23.3545 22.1279C23.2432 22.1982 23.082 22.292 22.8711 22.4092C22.666 22.5264 22.5049 22.6201 22.3877 22.6904C22.2705 22.7607 22.1328 22.8574 21.9746 22.9805C21.8164 23.1035 21.6934 23.2236 21.6055 23.3408C21.5234 23.4521 21.4502 23.5928 21.3857 23.7627C21.3271 23.9268 21.2979 24.1084 21.2979 24.3076H19.3203ZM19.3555 28.5V26.0127H21.3506V28.5H19.3555Z" fill="#F5F5F5"/>
</svg>
