<svg width="37" height="37" viewBox="0 0 37 37" fill="none" xmlns="http://www.w3.org/2000/svg">
<circle cx="18.5" cy="18.5" r="18.5" fill="#D9D9D9"/>
<path d="M18.4998 8.60465C23.7271 8.60465 27.9654 12.8422 27.9656 18.0695C27.9656 20.1842 27.2704 22.1363 26.0984 23.7121L27.8269 28.257L22.9734 26.4113C21.6411 27.1273 20.1181 27.5353 18.4998 27.5353C13.2724 27.5352 9.03491 23.2968 9.03491 18.0695C9.03506 12.8423 13.2725 8.6048 18.4998 8.60465Z" fill="#0095DA"/>
<path d="M16.6245 20.9159C16.6245 20.3613 16.7152 19.8899 16.8967 19.5016C17.0782 19.1134 17.411 18.7781 17.895 18.4958C17.9555 18.4605 18.074 18.395 18.2504 18.2992C18.4319 18.1983 18.5807 18.1151 18.6966 18.0496C18.8176 17.979 18.9613 17.8807 19.1277 17.7547C19.2941 17.6286 19.4277 17.5051 19.5285 17.3841C19.6294 17.2631 19.7176 17.1169 19.7932 16.9455C19.8689 16.774 19.9067 16.595 19.9067 16.4085C19.9067 16.0001 19.7605 15.6774 19.468 15.4405C19.1807 15.1985 18.8353 15.0775 18.4319 15.0775C17.7211 15.0775 17.1135 15.4909 16.6093 16.3177L15.2632 15.3875C15.5304 14.7624 15.9564 14.2733 16.5413 13.9204C17.1312 13.5624 17.7841 13.3834 18.5 13.3834C18.9084 13.3834 19.2966 13.4439 19.6647 13.5649C20.0378 13.6859 20.3806 13.8649 20.6932 14.1019C21.0058 14.3338 21.2553 14.6514 21.4419 15.0548C21.6284 15.4581 21.7217 15.9194 21.7217 16.4388C21.7217 17.0538 21.5856 17.558 21.3133 17.9513C21.0411 18.3445 20.6352 18.7076 20.0957 19.0403C19.9999 19.1008 19.8613 19.1815 19.6798 19.2823C19.5033 19.3832 19.3647 19.4638 19.2638 19.5243C19.163 19.5848 19.0445 19.668 18.9084 19.7739C18.7723 19.8798 18.6664 19.9831 18.5908 20.084C18.5202 20.1798 18.4572 20.3008 18.4017 20.447C18.3513 20.5881 18.3261 20.7444 18.3261 20.9159H16.6245ZM16.6547 24.5233V22.383H18.3714V24.5233H16.6547Z" fill="#F5F5F5"/>
</svg>
