<svg width="794" height="1123" viewBox="0 0 794 1123" fill="none" xmlns="http://www.w3.org/2000/svg">
<g clip-path="url(#clip0_683_432)">
<rect width="794" height="1123" transform="matrix(-1 0 0 1 794 0)" fill="#0D8E5B"/>
<g clip-path="url(#clip1_683_432)">
<path d="M-1.6826e-05 1320L0 -91L794 -91L794 1320L-1.6826e-05 1320Z" fill="#0D8E5B"/>
<path d="M-1.6826e-05 1320L0 -91L794 -91L794 1320L-1.6826e-05 1320Z" fill="#FF9600"/>
<path d="M0 -91L794 -91L794 626.699L-2.92878e-06 154.602L0 -91Z" fill="#DE4A00"/>
<path d="M163 900L163 502L794 502L794 900L163 900Z" fill="#0D8E5B"/>
<path d="M794.001 501.62L794.001 626.699L583.664 501.62L794.001 501.62Z" fill="#0D8E5B"/>
<path d="M-5.01187e-06 1320L0 899.713L162.917 899.713L162.917 1320L-5.01187e-06 1320Z" fill="#0D8E5B"/>
<mask id="mask0_683_432" style="mask-type:luminance" maskUnits="userSpaceOnUse" x="0" y="-204" width="794" height="1411">
<path d="M-1.6826e-05 1207L0 -204L794 -204L794 1207L-1.6826e-05 1207Z" fill="white"/>
</mask>
<g mask="url(#mask0_683_432)">
<path d="M162.917 925.829L162.917 786.713L938.17 786.713L938.17 925.829C938.17 1139.83 764.593 1313.34 550.507 1313.34C336.421 1313.34 162.844 1139.83 162.844 925.829" fill="#DE4A00"/>
<path d="M-280.105 659.282C-280.105 509.804 -158.873 388.694 -9.41025 388.694C140.053 388.694 261.285 509.878 261.285 659.282L261.285 786.713L-280.105 786.713L-280.105 659.282Z" fill="white"/>
</g>
<g clip-path="url(#clip2_683_432)">
<path d="M412.02 745.424C413.449 745.424 414.629 745.92 415.578 746.921C416.527 747.922 416.998 749.153 416.998 750.615C416.998 752.076 416.527 753.299 415.578 754.299C414.629 755.3 413.449 755.805 412.02 755.805H407.939V745.424H412.02ZM412.02 754.175C412.996 754.175 413.804 753.839 414.416 753.166C415.037 752.493 415.347 751.642 415.347 750.615C415.347 749.587 415.037 748.728 414.416 748.055C413.795 747.391 412.996 747.054 412.02 747.054H409.643V754.175H412.02Z" fill="white"/>
<path d="M429.187 754.432C428.14 755.477 426.871 756 425.363 756C423.855 756 422.586 755.477 421.539 754.432C420.492 753.387 419.969 752.121 419.969 750.615C419.969 749.109 420.492 747.842 421.539 746.797C422.586 745.752 423.855 745.23 425.363 745.23C426.871 745.23 428.14 745.752 429.187 746.797C430.233 747.842 430.757 749.109 430.757 750.615C430.757 752.121 430.233 753.387 429.187 754.432ZM422.737 753.281C423.447 753.989 424.316 754.344 425.354 754.344C426.392 754.344 427.27 753.989 427.971 753.281C428.681 752.572 429.036 751.687 429.036 750.615C429.036 749.543 428.681 748.657 427.971 747.949C427.261 747.24 426.392 746.886 425.354 746.886C424.316 746.886 423.438 747.24 422.737 747.949C422.027 748.657 421.672 749.543 421.672 750.615C421.672 751.687 422.027 752.572 422.737 753.281Z" fill="white"/>
<path d="M441.599 754.175H445.831V755.805H439.887V745.424H441.599V754.175Z" fill="white"/>
<path d="M456.096 755.805L455.359 753.715H450.941L450.214 755.805H448.359L452.13 745.424H454.179L457.941 755.805H456.096ZM451.5 752.112H454.791L453.15 747.426L451.5 752.112Z" fill="white"/>
<path d="M465.065 745.424C466.494 745.424 467.674 745.92 468.623 746.921C469.572 747.922 470.043 749.153 470.043 750.615C470.043 752.076 469.572 753.299 468.623 754.299C467.674 755.3 466.494 755.805 465.065 755.805H460.984V745.424H465.065ZM465.065 754.175C466.041 754.175 466.849 753.839 467.461 753.166C468.082 752.493 468.392 751.642 468.392 750.615C468.392 749.587 468.082 748.728 467.461 748.055C466.84 747.391 466.041 747.054 465.065 747.054H462.688V754.175H465.065Z" fill="white"/>
<path d="M482.224 754.432C481.177 755.477 479.908 756 478.4 756C476.892 756 475.623 755.477 474.576 754.432C473.529 753.387 473.006 752.121 473.006 750.615C473.006 749.109 473.529 747.842 474.576 746.797C475.623 745.752 476.892 745.23 478.4 745.23C479.908 745.23 481.177 745.752 482.224 746.797C483.271 747.842 483.794 749.109 483.794 750.615C483.794 752.121 483.271 753.387 482.224 754.432ZM475.783 753.281C476.492 753.989 477.362 754.344 478.4 754.344C479.438 754.344 480.316 753.989 481.017 753.281C481.718 752.572 482.082 751.687 482.082 750.615C482.082 749.543 481.727 748.657 481.017 747.949C480.307 747.24 479.438 746.886 478.4 746.886C477.362 746.886 476.484 747.24 475.783 747.949C475.082 748.657 474.718 749.543 474.718 750.615C474.718 751.687 475.073 752.572 475.783 753.281Z" fill="white"/>
<path d="M497.013 745.424C498.441 745.424 499.621 745.92 500.57 746.921C501.52 747.922 501.99 749.153 501.99 750.615C501.99 752.076 501.52 753.299 500.57 754.299C499.621 755.3 498.441 755.805 497.013 755.805H492.932V745.424H497.013ZM497.013 754.175C497.989 754.175 498.796 753.839 499.408 753.166C500.029 752.493 500.34 751.642 500.34 750.615C500.34 749.587 500.029 748.728 499.408 748.055C498.787 747.391 497.989 747.054 497.013 747.054H494.635V754.175H497.013Z" fill="white"/>
<path d="M514.171 754.432C513.124 755.477 511.855 756 510.347 756C508.839 756 507.57 755.477 506.523 754.432C505.477 753.387 504.953 752.121 504.953 750.615C504.953 749.109 505.477 747.842 506.523 746.797C507.57 745.752 508.839 745.23 510.347 745.23C511.855 745.23 513.124 745.752 514.171 746.797C515.218 747.842 515.741 749.109 515.741 750.615C515.741 752.121 515.218 753.387 514.171 754.432ZM507.73 753.281C508.44 753.989 509.309 754.344 510.347 754.344C511.385 754.344 512.264 753.989 512.964 753.281C513.674 752.572 514.029 751.687 514.029 750.615C514.029 749.543 513.674 748.657 512.964 747.949C512.255 747.24 511.385 746.886 510.347 746.886C509.309 746.886 508.431 747.24 507.73 747.949C507.02 748.657 506.665 749.543 506.665 750.615C506.665 751.687 507.02 752.572 507.73 753.281Z" fill="white"/>
<path d="M528.712 745.424C529.687 745.424 530.513 745.752 531.169 746.399C531.826 747.054 532.154 747.86 532.154 748.835C532.154 749.809 531.826 750.606 531.169 751.261C530.513 751.917 529.687 752.245 528.712 752.245H526.591V755.805H524.879V745.424H528.712ZM528.712 750.641C529.217 750.641 529.634 750.473 529.962 750.128C530.291 749.782 530.45 749.357 530.45 748.835C530.45 748.312 530.291 747.878 529.962 747.541C529.634 747.196 529.217 747.028 528.712 747.028H526.591V750.65H528.712V750.641Z" fill="white"/>
<path d="M544.175 754.432C543.128 755.477 541.859 756 540.351 756C538.843 756 537.574 755.477 536.527 754.432C535.48 753.387 534.957 752.121 534.957 750.615C534.957 749.109 535.48 747.842 536.527 746.797C537.574 745.752 538.843 745.23 540.351 745.23C541.859 745.23 543.128 745.752 544.175 746.797C545.222 747.842 545.745 749.109 545.745 750.615C545.745 752.121 545.222 753.387 544.175 754.432ZM537.734 753.281C538.444 753.989 539.313 754.344 540.351 754.344C541.389 754.344 542.267 753.989 542.968 753.281C543.678 752.572 544.033 751.687 544.033 750.615C544.033 749.543 543.678 748.657 542.968 747.949C542.259 747.24 541.389 746.886 540.351 746.886C539.313 746.886 538.435 747.24 537.734 747.949C537.024 748.657 536.669 749.543 536.669 750.615C536.669 751.687 537.024 752.572 537.734 753.281Z" fill="white"/>
<path d="M551.433 755.805L547.822 745.424H549.694L552.453 753.733L555.23 745.424H557.084L553.474 755.805H551.424H551.433Z" fill="white"/>
<path d="M568.386 754.432C567.339 755.477 566.07 756 564.562 756C563.054 756 561.785 755.477 560.738 754.432C559.691 753.387 559.168 752.121 559.168 750.615C559.168 749.109 559.691 747.842 560.738 746.797C561.785 745.752 563.054 745.23 564.562 745.23C566.07 745.23 567.339 745.752 568.386 746.797C569.433 747.842 569.956 749.109 569.956 750.615C569.956 752.121 569.433 753.387 568.386 754.432ZM561.936 753.281C562.646 753.989 563.515 754.344 564.553 754.344C565.591 754.344 566.469 753.989 567.17 753.281C567.88 752.572 568.235 751.687 568.235 750.615C568.235 749.543 567.88 748.657 567.17 747.949C566.461 747.24 565.591 746.886 564.553 746.886C563.515 746.886 562.637 747.24 561.936 747.949C561.226 748.657 560.871 749.543 560.871 750.615C560.871 751.687 561.226 752.572 561.936 753.281Z" fill="white"/>
<path d="M585.207 750.42C585.66 750.659 586.015 750.987 586.281 751.394C586.538 751.811 586.671 752.289 586.671 752.829C586.671 753.679 586.37 754.388 585.766 754.946C585.163 755.504 584.427 755.787 583.557 755.787H579.104V745.407H583.229C584.081 745.407 584.799 745.681 585.394 746.23C585.979 746.78 586.281 747.462 586.281 748.285C586.281 749.189 585.926 749.889 585.225 750.402L585.207 750.42ZM583.22 747.028H580.798V749.756H583.22C583.593 749.756 583.912 749.623 584.169 749.366C584.427 749.1 584.56 748.781 584.56 748.392C584.56 748.002 584.427 747.683 584.169 747.417C583.912 747.152 583.593 747.028 583.22 747.028ZM583.548 754.202C583.948 754.202 584.276 754.06 584.551 753.777C584.826 753.493 584.959 753.148 584.959 752.749C584.959 752.351 584.826 751.997 584.551 751.722C584.276 751.439 583.948 751.297 583.548 751.297H580.798V754.202H583.548Z" fill="white"/>
<path d="M596.006 755.805L593.805 752.023H591.783V755.805H590.07V745.424H594.231C595.163 745.424 595.952 745.752 596.6 746.399C597.248 747.045 597.576 747.834 597.576 748.764C597.576 749.428 597.381 750.03 597.008 750.579C596.627 751.129 596.13 751.527 595.518 751.775L597.878 755.805H596.006ZM591.791 747.028V750.5H594.24C594.693 750.5 595.083 750.331 595.402 749.995C595.722 749.658 595.881 749.251 595.881 748.764C595.881 748.277 595.722 747.869 595.402 747.533C595.083 747.196 594.701 747.028 594.24 747.028H591.791Z" fill="white"/>
<path d="M607.885 755.805L607.148 753.715H602.73L602.003 755.805H600.148L603.919 745.424H605.968L609.73 755.805H607.885ZM603.298 752.112H606.589L604.948 747.426L603.298 752.112Z" fill="white"/>
<path d="M615.967 756C614.965 756 614.122 755.77 613.421 755.318C612.72 754.866 612.232 754.237 611.957 753.449L613.43 752.59C613.847 753.759 614.707 754.344 616.011 754.344C616.659 754.344 617.138 754.22 617.458 753.963C617.777 753.715 617.937 753.387 617.937 752.98C617.937 752.572 617.759 752.236 617.413 752.014C617.067 751.793 616.455 751.545 615.568 751.279C615.08 751.102 614.69 750.951 614.379 750.836C614.069 750.721 613.74 750.544 613.403 750.314C613.066 750.083 612.809 749.791 612.64 749.446C612.472 749.1 612.392 748.693 612.392 748.232C612.392 747.311 612.72 746.585 613.368 746.044C614.024 745.504 614.805 745.238 615.728 745.238C616.562 745.238 617.289 745.442 617.91 745.85C618.531 746.257 619.01 746.815 619.347 747.524L617.91 748.356C617.475 747.391 616.748 746.904 615.728 746.904C615.231 746.904 614.84 747.019 614.539 747.249C614.246 747.479 614.095 747.798 614.095 748.188C614.095 748.578 614.246 748.861 614.548 749.083C614.849 749.304 615.399 749.534 616.198 749.773C616.588 749.924 616.872 750.03 617.049 750.092C617.227 750.163 617.493 750.261 617.83 750.385C618.167 750.509 618.416 750.641 618.584 750.783C618.753 750.925 618.93 751.102 619.125 751.306C619.321 751.518 619.454 751.757 619.534 752.023C619.613 752.298 619.649 752.599 619.649 752.935C619.649 753.874 619.312 754.618 618.629 755.167C617.954 755.717 617.058 755.991 615.958 755.991L615.967 756Z" fill="white"/>
<path d="M622.975 745.424H624.687V755.805H622.975V745.424Z" fill="white"/>
<path d="M630.402 754.175H634.634V755.805H628.689V745.424H630.402V754.175Z" fill="white"/>
<path d="M639.538 754.175H644.143V755.805H637.826V745.424H644.063V747.054H639.53V749.756H643.69V751.368H639.53V754.167L639.538 754.175Z" fill="white"/>
<path d="M647.631 745.424H649.343V755.805H647.631V745.424Z" fill="white"/>
<path d="M659.279 755.805L657.079 752.023H655.056V755.805H653.344V745.424H657.505C658.436 745.424 659.226 745.752 659.873 746.399C660.521 747.045 660.849 747.834 660.849 748.764C660.849 749.428 660.654 750.03 660.282 750.579C659.9 751.129 659.403 751.527 658.791 751.775L661.151 755.805H659.279ZM655.065 747.028V750.5H657.513C657.966 750.5 658.356 750.331 658.676 749.995C658.995 749.658 659.155 749.251 659.155 748.764C659.155 748.277 658.995 747.869 658.676 747.533C658.356 747.196 657.975 747.028 657.513 747.028H655.065Z" fill="white"/>
<path d="M673.013 754.432C671.966 755.477 670.697 756 669.189 756C667.681 756 666.412 755.477 665.365 754.432C664.318 753.387 663.795 752.121 663.795 750.615C663.795 749.109 664.318 747.842 665.365 746.797C666.412 745.752 667.681 745.23 669.189 745.23C670.697 745.23 671.966 745.752 673.013 746.797C674.06 747.842 674.583 749.109 674.583 750.615C674.583 752.121 674.06 753.387 673.013 754.432ZM666.563 753.281C667.273 753.989 668.142 754.344 669.18 754.344C670.218 754.344 671.096 753.989 671.797 753.281C672.507 752.572 672.862 751.687 672.862 750.615C672.862 749.543 672.507 748.657 671.797 747.949C671.088 747.24 670.218 746.886 669.18 746.886C668.142 746.886 667.264 747.24 666.563 747.949C665.862 748.657 665.498 749.543 665.498 750.615C665.498 751.687 665.853 752.572 666.563 753.281Z" fill="white"/>
<path d="M471.375 633.92V634.992C471.375 639.27 468.509 642.051 464.703 642.051C460.666 642.051 457.49 638.907 457.49 634.895C457.49 630.882 460.684 627.694 464.685 627.694C467.214 627.694 469.538 628.987 470.807 631.104L467.657 632.982C467.054 631.892 465.936 631.263 464.65 631.263C462.627 631.263 461.199 632.813 461.199 634.912C461.199 637.012 462.636 638.464 464.712 638.464C466.167 638.464 467.098 637.738 467.418 636.852H463.718V633.929H471.375V633.92Z" fill="white"/>
<path d="M475.953 634.868C475.953 630.874 479.147 627.685 483.166 627.685C487.185 627.685 490.334 630.874 490.334 634.868C490.334 638.863 487.141 642.051 483.166 642.051C479.191 642.051 475.953 638.863 475.953 634.868ZM486.36 634.868C486.36 632.928 484.967 631.476 483.166 631.476C481.365 631.476 479.91 632.928 479.91 634.868C479.91 636.808 481.321 638.261 483.166 638.261C485.011 638.261 486.36 636.808 486.36 634.868Z" fill="white"/>
<path d="M507.705 628.013L502.328 641.733H498.629L493.314 628.013H497.298L500.492 636.462L503.721 628.013H507.705Z" fill="white"/>
<path d="M515.743 631.361V633.398H519.779V636.338H515.743V638.376H521.864V641.724H512.025V628.004H521.864V631.352H515.743V631.361Z" fill="white"/>
<path d="M532.28 636.985H530.727V641.724H527.072V628.004H533.717C536.405 628.004 538.464 629.917 538.464 632.459C538.464 634.213 537.514 635.665 536.059 636.436L539.111 641.724H535.013L532.289 636.985H532.28ZM530.719 633.858H533.3C534.17 633.858 534.711 633.256 534.711 632.592C534.711 631.928 534.187 631.299 533.3 631.299H530.719V633.858Z" fill="white"/>
<path d="M556.012 628.013V641.733H552.881L547.345 634.514V641.733H543.689V628.013H546.803L552.357 635.258V628.013H556.012Z" fill="white"/>
<path d="M560.83 634.868C560.83 630.874 564.024 627.685 568.043 627.685C572.062 627.685 575.211 630.874 575.211 634.868C575.211 638.863 572.017 642.051 568.043 642.051C564.068 642.051 560.83 638.863 560.83 634.868ZM571.237 634.868C571.237 632.928 569.844 631.476 568.043 631.476C566.242 631.476 564.787 632.928 564.787 634.868C564.787 636.808 566.198 638.261 568.043 638.261C569.888 638.261 571.237 636.808 571.237 634.868Z" fill="white"/>
<path d="M605.73 634.868C605.73 638.801 602.581 641.724 598.393 641.724H592.795V628.004H598.393C602.572 628.004 605.73 630.927 605.73 634.859V634.868ZM601.889 634.868C601.889 632.875 600.389 631.582 598.207 631.582H596.53V638.154H598.207C600.389 638.154 601.889 636.861 601.889 634.868Z" fill="white"/>
<path d="M609.092 634.868C609.092 630.874 612.286 627.685 616.305 627.685C620.324 627.685 623.473 630.874 623.473 634.868C623.473 638.863 620.279 642.051 616.305 642.051C612.33 642.051 609.092 638.863 609.092 634.868ZM619.498 634.868C619.498 632.928 618.106 631.476 616.305 631.476C614.504 631.476 613.049 632.928 613.049 634.868C613.049 636.808 614.459 638.261 616.305 638.261C618.15 638.261 619.498 636.808 619.498 634.868Z" fill="white"/>
<path d="M555.488 708.206L567.784 728.853H577.951V689.836H555.488V708.206ZM586.894 683.973H579.238V728.853H586.894C599.288 728.853 609.375 718.782 609.375 706.408C609.375 694.035 599.288 683.964 586.894 683.964V683.973ZM570.987 688.543H577.951V657.587H570.987C562.434 657.587 555.479 664.531 555.479 673.07C555.479 681.608 562.434 688.543 570.978 688.552L570.987 688.543ZM448.147 659.119V700.12H474.834L448.147 659.119ZM640.036 704.486H663.875V657.587H640.036V704.486ZM605.135 657.587H579.238V682.68H605.135V657.587ZM665.161 705.771V728.853H689V705.771H665.161ZM640.036 728.853H663.875V705.771H640.036V728.853ZM610.662 728.853H634.5V657.587H610.662V728.853ZM555.488 728.853H566.285L555.488 710.722V728.853ZM437.235 671.502C437.235 663.831 430.98 657.587 423.297 657.587H418.125V685.408H423.297C430.98 685.408 437.235 679.163 437.235 671.493V671.502ZM393 685.408H416.839V657.587H393V685.408ZM393 728.853H416.839V686.701H393V728.853ZM425.746 686.701H418.125V728.853H425.746C437.386 728.853 446.861 719.393 446.861 707.772C446.861 696.152 437.386 686.692 425.746 686.692V686.701ZM487.574 719.685L482.109 728.853H493.545L487.574 719.685ZM488.31 718.445L495.088 728.853H497.058C497.226 721.776 500.11 715.141 505.184 710.164C510.295 705.151 517.055 702.387 524.206 702.387C531.356 702.387 538.117 705.151 543.227 710.164C548.302 715.141 551.185 721.776 551.353 728.853H554.201V708.561L524.206 658.207L488.319 718.454L488.31 718.445ZM497.315 678.853C497.315 667.126 487.76 657.587 476.014 657.587H448.689L476.369 700.12C487.929 699.934 497.324 690.412 497.324 678.853H497.315ZM524.197 703.671C517.392 703.671 510.951 706.302 506.08 711.076C501.245 715.815 498.495 722.121 498.335 728.853H550.049C549.881 722.121 547.139 715.815 542.304 711.076C537.434 706.302 531.001 703.671 524.188 703.671H524.197ZM475.668 701.404H448.147V728.853H480.609L486.793 718.481L475.668 701.413V701.404Z" fill="white"/>
<path d="M455.714 550.662V540.344L451.447 548.173H450.098L445.813 540.344V550.662H443.533V536.181H445.991L450.79 545.029L455.59 536.181H458.039V550.662H455.723H455.714Z" fill="white"/>
<path d="M465.375 550.662V536.181H467.655V550.662H465.375Z" fill="white"/>
<path d="M477.3 540.423V550.662H475.02V536.181H476.891L485.107 546.641V536.198H487.413V550.653H485.408L477.3 540.414V540.423Z" fill="white"/>
<path d="M494.76 550.662V536.181H497.04V550.662H494.76Z" fill="white"/>
<path d="M512.982 539.591C512.672 539.245 512.139 538.918 511.385 538.599C510.631 538.28 509.859 538.12 509.061 538.12C508.12 538.12 507.411 538.298 506.94 538.643C506.47 538.988 506.239 539.484 506.239 540.122C506.239 540.326 506.266 540.503 506.319 540.662C506.373 540.822 506.444 540.964 506.523 541.088C506.603 541.212 506.727 541.327 506.896 541.442C507.065 541.557 507.224 541.654 507.393 541.734C507.561 541.814 507.774 541.902 508.058 541.991C508.342 542.08 508.608 542.159 508.848 542.221C509.096 542.283 509.416 542.363 509.815 542.469C510.454 542.62 510.995 542.77 511.447 542.921C511.9 543.072 512.334 543.258 512.751 543.488C513.168 543.718 513.506 543.975 513.763 544.258C514.02 544.542 514.215 544.887 514.366 545.286C514.517 545.693 514.588 546.154 514.588 546.668C514.588 547.243 514.499 547.766 514.313 548.226C514.127 548.687 513.878 549.086 513.559 549.405C513.239 549.723 512.858 549.989 512.405 550.202C511.953 550.414 511.465 550.574 510.95 550.671C510.436 550.769 509.877 550.813 509.274 550.813C508.174 550.813 507.1 550.645 506.071 550.308C505.042 549.971 504.11 549.493 503.285 548.855L504.332 546.898C504.749 547.332 505.432 547.748 506.381 548.147C507.331 548.545 508.307 548.749 509.309 548.749C510.214 548.749 510.906 548.59 511.403 548.271C511.891 547.952 512.139 547.491 512.139 546.898C512.139 546.659 512.104 546.446 512.033 546.251C511.962 546.056 511.838 545.888 511.651 545.729C511.474 545.569 511.288 545.436 511.101 545.321C510.915 545.206 510.64 545.091 510.294 544.976C509.948 544.861 509.629 544.754 509.336 544.675C509.043 544.595 508.653 544.489 508.165 544.365C507.402 544.161 506.772 543.966 506.266 543.754C505.769 543.55 505.326 543.293 504.944 543.001C504.563 542.7 504.288 542.345 504.11 541.938C503.933 541.53 503.853 541.043 503.853 540.485C503.853 539.786 503.986 539.157 504.261 538.599C504.536 538.041 504.9 537.571 505.37 537.208C505.84 536.845 506.399 536.561 507.038 536.375C507.677 536.189 508.369 536.083 509.123 536.083C510.906 536.083 512.538 536.623 514.02 537.713L512.982 539.582V539.591Z" fill="white"/>
<path d="M531.605 538.2H526.787V550.653H524.472V538.2H519.637V536.181H531.605V538.2Z" fill="white"/>
<path d="M547.564 548.634V550.653H537.619V536.181H547.378V538.2H539.899V542.31H546.376V544.214H539.899V548.634H547.556H547.564ZM543.51 534.693L542.037 534.241L543.208 532H545.355L543.519 534.693H543.51Z" fill="white"/>
<path d="M553.997 550.662V536.181H560.314C560.944 536.181 561.547 536.313 562.115 536.588C562.683 536.863 563.162 537.217 563.543 537.66C563.925 538.103 564.235 538.607 564.457 539.174C564.679 539.741 564.794 540.308 564.794 540.884C564.794 541.867 564.537 542.753 564.013 543.55C563.499 544.347 562.807 544.878 561.955 545.144L565.362 550.653H562.789L559.64 545.614H556.268V550.653H553.988L553.997 550.662ZM556.277 543.603H560.287C560.917 543.603 561.441 543.337 561.858 542.815C562.266 542.283 562.479 541.646 562.479 540.902C562.479 540.158 562.248 539.529 561.778 539.006C561.308 538.475 560.775 538.218 560.163 538.218H556.286V543.612L556.277 543.603Z" fill="white"/>
<path d="M571.572 550.662V536.181H573.852V550.662H571.572Z" fill="white"/>
<path d="M580.301 543.417C580.301 542.46 580.478 541.539 580.833 540.645C581.188 539.75 581.676 538.971 582.288 538.298C582.9 537.624 583.637 537.093 584.515 536.685C585.384 536.278 586.307 536.074 587.283 536.074C588.259 536.074 589.226 536.287 590.104 536.712C590.982 537.137 591.719 537.695 592.304 538.386C592.89 539.077 593.36 539.865 593.697 540.742C594.034 541.619 594.203 542.514 594.203 543.426C594.203 544.382 594.026 545.304 593.671 546.189C593.316 547.075 592.837 547.854 592.233 548.528C591.63 549.201 590.894 549.732 590.015 550.14C589.146 550.538 588.223 550.742 587.247 550.742C586.431 550.742 585.668 550.609 584.932 550.335C584.204 550.069 583.557 549.697 583.007 549.227C582.448 548.758 581.969 548.209 581.561 547.598C581.152 546.978 580.842 546.313 580.629 545.587C580.416 544.87 580.31 544.134 580.31 543.399L580.301 543.417ZM587.256 548.696C587.957 548.696 588.605 548.545 589.199 548.235C589.794 547.925 590.273 547.527 590.654 547.022C591.036 546.517 591.328 545.959 591.541 545.33C591.754 544.701 591.852 544.064 591.852 543.408C591.852 542.753 591.745 542.062 591.515 541.433C591.293 540.795 590.982 540.237 590.601 539.75C590.219 539.263 589.723 538.873 589.146 538.581C588.569 538.289 587.931 538.147 587.256 538.147C586.582 538.147 585.899 538.298 585.304 538.599C584.71 538.9 584.222 539.298 583.832 539.794C583.45 540.29 583.149 540.857 582.936 541.477C582.723 542.097 582.616 542.744 582.616 543.399C582.616 544.312 582.803 545.171 583.166 545.968C583.539 546.765 584.08 547.412 584.799 547.916C585.517 548.421 586.334 548.669 587.256 548.669V548.696Z" fill="white"/>
<path d="M609.783 550.662V536.181H614.929C616.064 536.181 617.085 536.367 617.999 536.747C618.903 537.119 619.649 537.642 620.225 538.297C620.802 538.962 621.246 539.724 621.547 540.592C621.849 541.46 622 542.398 622 543.408C622 545.596 621.361 547.358 620.075 548.678C618.788 549.998 617.076 550.662 614.938 550.662H609.792H609.783ZM614.929 538.2H612.063V548.634H614.929C615.923 548.634 616.783 548.404 617.511 547.943C618.229 547.482 618.77 546.862 619.134 546.074C619.498 545.286 619.675 544.4 619.675 543.399C619.675 541.849 619.258 540.6 618.415 539.644C617.573 538.687 616.419 538.209 614.938 538.209L614.929 538.2Z" fill="white"/>
<path d="M632.148 536.181H634.313L639.946 550.662H637.533L636.007 546.73H630.409L628.892 550.662H626.461L632.148 536.181ZM635.555 545.029L633.221 538.687L630.817 545.029H635.555Z" fill="white"/>
<path d="M482.703 575.826V579.289H472.367V564.807H482.517V568.27H476.342V570.308H481.621V573.523H476.342V575.817H482.694L482.703 575.826Z" fill="white"/>
<path d="M488.646 579.289V564.807H494.218C495.389 564.807 496.445 564.993 497.385 565.374C498.326 565.746 499.098 566.269 499.692 566.924C500.286 567.588 500.739 568.35 501.058 569.218C501.378 570.086 501.528 571.025 501.528 572.035C501.528 574.223 500.863 575.985 499.532 577.305C498.201 578.633 496.427 579.289 494.218 579.289H488.646ZM494.218 568.279H492.621V575.826H494.218C495.238 575.826 496.037 575.471 496.613 574.772C497.199 574.072 497.483 573.16 497.483 572.035C497.483 570.91 497.19 569.989 496.605 569.307C496.019 568.625 495.221 568.279 494.209 568.279H494.218Z" fill="white"/>
<path d="M513.683 579.404C512.778 579.404 511.962 579.28 511.226 579.023C510.489 578.775 509.868 578.43 509.371 577.987C508.866 577.553 508.449 577.021 508.112 576.41C507.774 575.799 507.526 575.144 507.375 574.453C507.224 573.762 507.145 573.018 507.145 572.238V564.798H511.137V572.238C511.137 572.735 511.181 573.195 511.279 573.62C511.376 574.045 511.518 574.426 511.714 574.772C511.909 575.117 512.175 575.383 512.512 575.578C512.849 575.773 513.239 575.87 513.683 575.87C514.127 575.87 514.535 575.773 514.872 575.569C515.209 575.365 515.475 575.099 515.679 574.745C515.883 574.391 516.025 574.01 516.123 573.594C516.22 573.169 516.265 572.717 516.265 572.238V564.798H520.248V572.238C520.248 573.266 520.115 574.214 519.849 575.064C519.583 575.914 519.192 576.676 518.669 577.323C518.146 577.969 517.462 578.483 516.611 578.846C515.759 579.209 514.792 579.395 513.692 579.395L513.683 579.404Z" fill="white"/>
<path d="M533.219 564.736C534.585 564.736 535.782 565.02 536.829 565.596C537.876 566.171 538.648 566.933 539.163 567.898L536.12 570.06C535.987 569.723 535.809 569.431 535.578 569.192C535.357 568.952 535.099 568.766 534.824 568.634C534.549 568.501 534.265 568.412 533.99 568.359C533.715 568.306 533.431 568.27 533.139 568.27C532.589 568.27 532.101 568.386 531.675 568.607C531.24 568.828 530.894 569.121 530.646 569.493C530.388 569.865 530.193 570.263 530.06 570.706C529.927 571.14 529.865 571.601 529.865 572.07C529.865 573.124 530.167 574.028 530.77 574.781C531.373 575.533 532.181 575.905 533.183 575.905C533.573 575.905 533.955 575.852 534.31 575.737C534.665 575.631 535.011 575.436 535.339 575.161C535.667 574.887 535.907 574.541 536.066 574.134L539.313 576.065C539.038 576.747 538.568 577.349 537.885 577.881C537.202 578.403 536.448 578.793 535.614 579.05C534.78 579.307 533.946 579.431 533.103 579.431C532.065 579.431 531.089 579.218 530.167 578.784C529.244 578.35 528.472 577.783 527.842 577.083C527.212 576.384 526.715 575.587 526.352 574.683C525.988 573.78 525.811 572.876 525.811 571.946C525.811 571.016 525.979 570.184 526.325 569.333C526.671 568.483 527.15 567.712 527.762 567.03C528.375 566.348 529.164 565.799 530.113 565.374C531.063 564.958 532.101 564.745 533.227 564.745L533.219 564.736Z" fill="white"/>
<path d="M547.911 564.807H552.355L556.969 579.289H552.932L552.054 576.455H548.186L547.325 579.289H543.262L547.902 564.807H547.911ZM551.415 573.806L550.129 568.704L548.78 573.806H551.415Z" fill="white"/>
<path d="M574.375 576.047C574.02 576.906 573.381 577.633 572.441 578.208C571.5 578.784 570.462 579.165 569.327 579.333C569.992 579.997 570.32 580.715 570.32 581.477C570.32 582.123 570.108 582.672 569.691 583.115C569.265 583.558 568.653 583.779 567.854 583.779C567.056 583.779 566.204 583.549 565.335 583.08L566.231 581.096C566.532 581.353 566.852 581.485 567.206 581.485C567.455 581.485 567.668 581.415 567.828 581.273C567.987 581.131 568.067 580.936 568.067 580.688C568.067 580.272 567.81 579.82 567.286 579.342C566.355 579.227 565.485 578.935 564.678 578.474C563.871 578.005 563.188 577.429 562.646 576.756C562.105 576.083 561.662 575.312 561.351 574.479C561.032 573.638 560.881 572.788 560.881 571.937C560.881 571.087 561.049 570.175 561.395 569.324C561.741 568.474 562.221 567.704 562.833 567.022C563.445 566.34 564.234 565.79 565.184 565.365C566.133 564.949 567.171 564.736 568.298 564.736C569.664 564.736 570.862 565.02 571.909 565.596C572.955 566.171 573.727 566.933 574.242 567.898L571.199 570.06C571.066 569.723 570.888 569.431 570.658 569.192C570.436 568.952 570.179 568.766 569.904 568.634C569.628 568.501 569.345 568.412 569.07 568.359C568.795 568.306 568.511 568.27 568.218 568.27C567.668 568.27 567.18 568.386 566.754 568.607C566.319 568.828 565.973 569.121 565.725 569.493C565.468 569.865 565.272 570.263 565.139 570.706C565.006 571.14 564.944 571.601 564.944 572.07C564.944 573.124 565.246 574.028 565.849 574.781C566.452 575.533 567.26 575.905 568.262 575.905C568.653 575.905 569.034 575.852 569.389 575.737C569.744 575.631 570.09 575.436 570.418 575.161C570.746 574.887 570.986 574.541 571.146 574.134L574.393 576.065L574.375 576.047Z" fill="white"/>
<path d="M582.973 564.807H587.418L592.031 579.289H587.995L587.116 576.455H583.248L582.388 579.289H578.324L582.964 564.807H582.973ZM583.869 562.894C583.692 562.894 583.55 562.93 583.417 562.992C583.292 563.062 583.195 563.133 583.133 563.222C583.071 563.31 583.026 563.408 582.991 563.514C582.955 563.62 582.938 563.7 582.929 563.753C582.92 563.806 582.92 563.842 582.92 563.877H580.853C580.853 563.718 580.888 563.514 580.95 563.266C581.012 563.018 581.119 562.744 581.27 562.434C581.42 562.132 581.598 561.84 581.811 561.583C582.024 561.317 582.29 561.105 582.627 560.919C582.964 560.742 583.319 560.653 583.701 560.653C584.002 560.653 584.286 560.706 584.561 560.821C584.836 560.928 585.058 561.052 585.227 561.176C585.395 561.309 585.599 561.424 585.812 561.53C586.025 561.636 586.247 561.698 586.451 561.698C586.619 561.698 586.77 561.663 586.903 561.592C587.036 561.521 587.134 561.441 587.205 561.344C587.276 561.255 587.329 561.149 587.373 561.043C587.418 560.937 587.444 560.848 587.462 560.786C587.471 560.724 587.48 560.68 587.48 560.653H589.52C589.52 560.768 589.485 560.937 589.423 561.167C589.352 561.397 589.245 561.672 589.095 561.991C588.944 562.31 588.758 562.602 588.545 562.876C588.332 563.151 588.057 563.39 587.711 563.585C587.365 563.78 586.992 563.877 586.602 563.877C586.327 563.877 586.052 563.824 585.777 563.727C585.502 563.629 585.289 563.514 585.111 563.39C584.934 563.266 584.73 563.151 584.508 563.054C584.286 562.956 584.073 562.903 583.869 562.903V562.894ZM586.486 573.806L585.2 568.704L583.851 573.806H586.486Z" fill="white"/>
<path d="M595.942 572.035C595.942 571.087 596.129 570.166 596.501 569.28C596.874 568.394 597.38 567.615 598.027 566.942C598.675 566.269 599.456 565.737 600.387 565.33C601.319 564.931 602.304 564.728 603.35 564.728C604.397 564.728 605.409 564.94 606.34 565.356C607.272 565.782 608.044 566.34 608.665 567.03C609.286 567.721 609.774 568.51 610.129 569.395C610.483 570.281 610.661 571.184 610.661 572.106C610.661 573.027 610.475 573.957 610.111 574.843C609.747 575.728 609.232 576.508 608.594 577.181C607.955 577.854 607.165 578.394 606.234 578.802C605.302 579.209 604.309 579.413 603.262 579.413C602.215 579.413 601.203 579.2 600.272 578.784C599.349 578.368 598.569 577.81 597.947 577.119C597.326 576.428 596.83 575.64 596.475 574.754C596.111 573.868 595.934 572.965 595.934 572.035H595.942ZM603.315 575.888C603.865 575.888 604.362 575.773 604.797 575.551C605.231 575.33 605.577 575.029 605.835 574.657C606.092 574.285 606.287 573.877 606.42 573.434C606.553 572.991 606.624 572.522 606.624 572.035C606.624 571.362 606.509 570.742 606.269 570.184C606.03 569.626 605.657 569.165 605.143 568.802C604.628 568.439 604.007 568.262 603.297 568.262C602.747 568.262 602.25 568.368 601.824 568.589C601.39 568.811 601.044 569.103 600.786 569.466C600.529 569.829 600.334 570.237 600.201 570.68C600.068 571.122 600.006 571.592 600.006 572.07C600.006 572.548 600.077 573.045 600.21 573.487C600.343 573.939 600.547 574.338 600.813 574.701C601.079 575.064 601.425 575.347 601.86 575.56C602.295 575.773 602.783 575.879 603.324 575.879L603.315 575.888Z" fill="white"/>
</g>
</g>
</g>
<defs>
<clipPath id="clip0_683_432">
<rect width="794" height="1123" fill="white" transform="matrix(-1 0 0 1 794 0)"/>
</clipPath>
<clipPath id="clip1_683_432">
<rect width="1411" height="794" fill="white" transform="matrix(-1.19249e-08 1 1 1.19249e-08 0 -91)"/>
</clipPath>
<clipPath id="clip2_683_432">
<rect width="296" height="224" fill="white" transform="translate(393 532)"/>
</clipPath>
</defs>
</svg>
