<svg width="900" height="524" viewBox="0 0 900 524" fill="none" xmlns="http://www.w3.org/2000/svg">
<g clip-path="url(#clip0_4472_2567)">
<rect width="900" height="524" fill="white"/>
<g filter="url(#filter0_d_4472_2567)">
<rect x="30" y="269" width="669" height="200" rx="8" fill="white"/>
</g>
<g clip-path="url(#clip1_4472_2567)">
<path d="M483.239 71.0061H498.147L518.739 131.91H504.571L499.918 118.255H481.303L476.732 131.91H462.564L483.239 71.0061ZM497.653 108.579L490.652 85.1639L483.485 108.579H497.653Z" fill="#183EFF"/>
<path d="M437.608 71C443.07 71 447.902 72.2008 452.104 74.6023C456.306 77.0038 459.434 80.2291 461.493 84.2781L450.867 91.8178C450.211 90.2819 449.358 88.9555 448.314 87.8385C447.272 86.6936 446.118 85.828 444.855 85.2415C443.621 84.6272 442.37 84.1944 441.107 83.9431C439.873 83.6638 438.596 83.5242 437.276 83.5242C435.22 83.5242 433.323 83.8732 431.595 84.5714C429.864 85.2695 428.395 86.2189 427.188 87.4197C425.98 88.5925 424.949 89.9748 424.1 91.5665C423.274 93.1302 422.657 94.7778 422.246 96.5091C421.861 98.2125 421.669 99.9718 421.669 101.787C421.669 105.026 422.299 108.042 423.563 110.834C424.853 113.627 426.707 115.889 429.124 117.62C431.565 119.351 434.341 120.217 437.442 120.217C439.226 120.217 440.944 119.952 442.589 119.421C444.264 118.891 445.873 117.983 447.408 116.699C448.947 115.386 450.101 113.766 450.867 111.84L462.153 118.583C461.026 121.46 459.092 124.001 456.346 126.207C453.6 128.413 450.552 130.06 447.203 131.149C443.879 132.211 440.517 132.741 437.114 132.741C432.912 132.741 428.945 131.834 425.211 130.019C421.477 128.203 418.333 125.83 415.779 122.898C413.255 119.938 411.249 116.573 409.766 112.803C408.31 109.005 407.584 105.166 407.584 101.284C407.584 98.3242 408.008 95.3921 408.861 92.488C409.713 89.5838 411.003 86.8472 412.731 84.2781C414.462 81.6811 416.509 79.4053 418.87 77.4506C421.231 75.4679 424.017 73.9042 427.227 72.7592C430.468 71.5864 433.927 71 437.608 71Z" fill="#183EFF"/>
<path d="M373.771 132.412C370.037 132.412 366.659 131.868 363.639 130.779C360.647 129.69 358.134 128.224 356.103 126.381C354.098 124.51 352.41 122.276 351.037 119.679C349.692 117.082 348.717 114.331 348.113 111.427C347.509 108.495 347.207 105.395 347.207 102.128V71.0061H361.045V102.128C361.045 104.558 361.278 106.805 361.745 108.872C362.212 110.91 362.925 112.781 363.887 114.485C364.847 116.16 366.165 117.487 367.84 118.464C369.542 119.413 371.519 119.888 373.771 119.888C376.049 119.888 378.04 119.4 379.742 118.422C381.444 117.417 382.762 116.063 383.696 114.359C384.657 112.628 385.357 110.757 385.796 108.746C386.263 106.708 386.496 104.502 386.496 102.128V71.0061H400.336V102.128C400.336 106.428 399.798 110.38 398.727 113.982C397.686 117.584 396.107 120.782 393.991 123.574C391.905 126.339 389.132 128.503 385.673 130.067C382.241 131.63 378.273 132.412 373.771 132.412Z" fill="#183EFF"/>
<path d="M287.656 131.91V71.0061H310.019C314.824 71.0061 319.135 71.802 322.951 73.3937C326.795 74.9574 329.938 77.1356 332.382 79.928C334.825 82.6926 336.679 85.9039 337.942 89.562C339.232 93.1922 339.877 97.1296 339.877 101.374C339.877 110.589 337.146 117.989 331.682 123.574C326.246 129.131 319.025 131.91 310.019 131.91H287.656ZM310.019 83.3627H301.494V119.553H310.019C314.961 119.553 318.819 117.878 321.592 114.526C324.392 111.148 325.793 106.763 325.793 101.374C325.793 95.9288 324.392 91.5726 321.592 88.3054C318.791 85.0103 314.934 83.3627 310.019 83.3627Z" fill="#183EFF"/>
<path d="M251.113 119.577V106.634H274.753V95.1993H251.113V83.3871H266.184H278.624V71.0305H266.184H251.113H237.275V83.3871V95.1993V106.634V119.577V131.934H251.113H266.184H278.624V119.577H266.184H251.113Z" fill="#183EFF"/>
<path d="M321.729 146.897H237.275V154.1H321.729V146.897Z" fill="#00D000"/>
<path d="M378.033 146.897H321.73V154.1H378.033V146.897Z" fill="#FF0000"/>
<path d="M434.334 146.897H378.031V154.1H434.334V146.897Z" fill="#FFD000"/>
<path d="M518.788 146.897H434.334V154.1H518.788V146.897Z" fill="#00D000"/>
<path d="M511.08 186.283C510.449 185.489 508.413 184.338 504.971 182.831C501.555 181.325 498.301 180.571 495.214 180.571C490.269 180.571 487.795 182.215 487.795 185.502C487.795 186.434 488 187.228 488.408 187.886C488.846 188.543 489.678 189.16 490.909 189.735C492.139 190.31 493.26 190.762 494.272 191.091C495.283 191.42 496.965 191.913 499.313 192.57C499.777 192.707 500.119 192.803 500.337 192.858C502.825 193.543 504.944 194.228 506.692 194.913C508.44 195.57 510.121 196.406 511.733 197.419C513.375 198.406 514.685 199.502 515.67 200.707C516.655 201.912 517.434 203.378 518.008 205.104C518.581 206.802 518.867 208.748 518.867 210.939C518.867 213.569 518.459 215.939 517.636 218.048C516.817 220.13 515.709 221.856 514.316 223.226C512.923 224.596 511.255 225.746 509.315 226.678C507.375 227.582 505.352 228.226 503.249 228.609C501.143 228.993 498.905 229.185 496.527 229.185C492.099 229.185 487.615 228.527 483.079 227.212C478.571 225.897 474.582 224.089 471.109 221.788L477.135 209.747C477.437 210.104 478.187 210.638 479.391 211.35C480.621 212.062 482.11 212.843 483.858 213.692C485.636 214.514 487.698 215.226 490.05 215.829C492.428 216.432 494.68 216.734 496.812 216.734C501.677 216.734 504.108 215.254 504.108 212.295C504.108 211.802 504.042 211.35 503.906 210.939C503.767 210.501 503.535 210.104 503.206 209.747C502.881 209.391 502.553 209.076 502.225 208.802C501.896 208.501 501.419 208.2 500.788 207.898C500.162 207.597 499.601 207.35 499.107 207.159C498.616 206.939 497.933 206.693 497.057 206.419C496.185 206.145 495.446 205.912 494.845 205.72C494.245 205.528 493.396 205.282 492.305 204.981C491.211 204.679 490.322 204.419 489.639 204.2C486.796 203.323 484.405 202.405 482.465 201.446C480.551 200.488 478.913 199.365 477.547 198.077C476.18 196.789 475.182 195.31 474.552 193.639C473.925 191.94 473.61 189.968 473.61 187.721C473.61 184.653 474.197 181.872 475.374 179.379C476.548 176.886 478.134 174.845 480.127 173.256C482.15 171.667 484.488 170.448 487.138 169.599C489.788 168.722 492.617 168.284 495.625 168.284C502.566 168.284 509.726 170.462 517.106 174.818L511.08 186.283Z" fill="#183EFF"/>
<path d="M407.102 198.54C407.102 193.251 408.368 188.307 410.899 183.707C413.429 179.08 416.981 175.347 421.555 172.51C426.155 169.673 431.229 168.255 436.781 168.255C440.21 168.255 443.477 168.819 446.581 169.949C449.682 171.078 452.405 172.634 454.746 174.618C457.084 176.601 459.114 178.887 460.828 181.476C462.57 184.038 463.89 186.806 464.788 189.781C465.687 192.755 466.135 195.758 466.135 198.788C466.135 204.049 464.885 208.993 462.381 213.62C459.877 218.248 456.338 221.994 451.765 224.859C447.191 227.723 442.117 229.156 436.539 229.156C432.264 229.156 428.264 228.288 424.533 226.553C420.805 224.817 417.674 222.517 415.144 219.653C412.64 216.788 410.667 213.524 409.224 209.861C407.811 206.17 407.102 202.396 407.102 198.54ZM436.618 216.802C439.122 216.802 441.381 216.278 443.397 215.232C445.437 214.185 447.085 212.794 448.335 211.059C449.589 209.296 450.541 207.34 451.194 205.192C451.847 203.043 452.172 200.826 452.172 198.54C452.172 196.198 451.821 193.967 451.111 191.846C450.431 189.698 449.453 187.784 448.173 186.103C446.893 184.423 445.248 183.087 443.231 182.096C441.245 181.104 439.043 180.608 436.618 180.608C434.114 180.608 431.856 181.132 429.843 182.178C427.826 183.198 426.195 184.575 424.944 186.31C423.691 188.018 422.725 189.932 422.046 192.053C421.392 194.174 421.064 196.391 421.064 198.705C421.064 201.046 421.406 203.291 422.085 205.439C422.765 207.588 423.744 209.516 425.024 211.224C426.304 212.904 427.936 214.254 429.922 215.273C431.939 216.292 434.171 216.802 436.618 216.802Z" fill="#183EFF"/>
<path d="M350.723 229.814V168.913H372.878C377.638 168.913 381.909 169.709 385.69 171.301C389.498 172.864 392.612 175.042 395.033 177.835C397.454 180.599 399.292 183.81 400.542 187.468C401.819 191.098 402.459 195.035 402.459 199.28C402.459 208.494 399.753 215.894 394.34 221.479C388.954 227.036 381.8 229.814 372.878 229.814H350.723ZM372.878 181.269H364.432V217.458H372.878C377.774 217.458 381.596 215.782 384.343 212.432C387.118 209.053 388.505 204.669 388.505 199.28C388.505 193.835 387.118 189.479 384.343 186.212C381.569 182.917 377.747 181.269 372.878 181.269Z" fill="#183EFF"/>
<path d="M309.751 168.913H324.45L344.752 229.814H330.784L326.196 216.159H307.842L303.335 229.814H289.367L309.751 168.913ZM323.962 206.484L317.06 183.07L309.994 206.484H323.962Z" fill="#183EFF"/>
<path fill-rule="evenodd" clip-rule="evenodd" d="M289.012 199.28C289.012 195.035 288.373 191.098 287.095 187.468C285.843 183.81 284.007 180.599 281.586 177.835C279.165 175.042 276.051 172.864 272.243 171.301C268.462 169.709 264.191 168.913 259.431 168.913H250.985H237.275V229.814H250.985H259.431C268.353 229.814 275.507 227.036 280.893 221.479C286.306 215.894 289.012 208.494 289.012 199.28ZM275.058 199.28C275.058 193.835 273.671 189.479 270.896 186.212C268.122 182.917 264.3 181.269 259.431 181.269H250.985V217.458H259.431C264.327 217.458 268.149 215.782 270.896 212.432C273.671 209.053 275.058 204.669 275.058 199.28Z" fill="#183EFF"/>
<path fill-rule="evenodd" clip-rule="evenodd" d="M194.909 189.958L136.389 226.963C132.352 229.516 126.104 229.71 122.445 227.396L62.5556 189.525C58.8968 187.212 59.2031 183.261 63.2404 180.709L121.761 143.703C125.796 141.152 132.046 140.957 135.704 143.27L195.594 181.141C199.253 183.455 198.944 187.407 194.909 189.958Z" fill="#183EFF"/>
<path fill-rule="evenodd" clip-rule="evenodd" d="M194.909 166.858L136.389 203.862C132.352 206.415 126.104 206.609 122.445 204.296L62.5556 166.425C58.8968 164.111 59.2031 160.16 63.2404 157.608L121.761 120.603C125.796 118.051 132.046 117.856 135.704 120.17L195.594 158.04C199.253 160.354 198.944 164.306 194.909 166.858Z" fill="#E51E25"/>
<path fill-rule="evenodd" clip-rule="evenodd" d="M194.909 142.883L136.389 179.888C132.351 182.441 126.104 182.635 122.445 180.322L62.5556 142.451C58.8968 140.137 59.2031 136.186 63.2404 133.634L121.761 96.6286C125.796 94.0772 132.045 93.8819 135.704 96.1955L195.594 134.066C199.253 136.38 198.944 140.332 194.909 142.883Z" fill="#00D000"/>
<path fill-rule="evenodd" clip-rule="evenodd" d="M194.909 119.818L136.389 156.823C132.352 159.376 126.104 159.57 122.445 157.256L62.5556 119.385C58.8968 117.071 59.2031 113.121 63.2404 110.568L121.761 73.5631C125.796 71.0118 132.046 70.8165 135.704 73.1301L195.594 111.001C199.253 113.315 198.944 117.267 194.909 119.818Z" fill="#FFD000"/>
<path fill-rule="evenodd" clip-rule="evenodd" d="M158.442 119.837L136.416 133.765C132.364 136.327 126.094 136.522 122.421 134.199L99.0201 119.401C95.3478 117.08 95.6552 113.114 99.7076 110.552L121.733 96.6242C125.785 94.0618 132.057 93.8666 135.73 96.1888L159.131 110.987C162.803 113.308 162.494 117.275 158.442 119.837Z" fill="white" fill-opacity="0.45"/>
</g>
<path d="M84.9434 336.523V344H62.6855V312.762H84.5566V320.238H71.2578V324.643H82.623V331.582H71.2578V336.523H84.9434ZM111.648 344H103.291V330.98C103.291 329.906 103.048 329.097 102.561 328.553C102.074 327.994 101.465 327.715 100.734 327.715C100.004 327.715 99.2448 328.03 98.457 328.66C97.6693 329.29 97.0892 330.078 96.7168 331.023V344H88.3594V320.861H95.9004V324.277C96.7168 323.017 97.8698 322.057 99.3594 321.398C100.849 320.74 102.596 320.41 104.602 320.41C105.604 320.41 106.499 320.539 107.287 320.797C108.089 321.055 108.734 321.42 109.221 321.893C109.722 322.351 110.137 322.852 110.467 323.396C110.811 323.926 111.061 324.535 111.219 325.223C111.391 325.896 111.505 326.505 111.562 327.049C111.62 327.593 111.648 328.166 111.648 328.768V344ZM127.139 344.43C125.148 344.43 123.336 344.107 121.703 343.463C120.085 342.804 118.745 341.916 117.686 340.799C116.64 339.682 115.831 338.407 115.258 336.975C114.699 335.542 114.42 334.024 114.42 332.42C114.42 330.816 114.699 329.298 115.258 327.865C115.831 326.433 116.64 325.158 117.686 324.041C118.745 322.924 120.085 322.043 121.703 321.398C123.336 320.74 125.148 320.41 127.139 320.41C129.831 320.41 132.137 320.976 134.057 322.107C135.99 323.239 137.451 324.771 138.439 326.705L130.297 329.176C129.509 328.03 128.442 327.457 127.096 327.457C125.921 327.457 124.94 327.908 124.152 328.811C123.379 329.699 122.992 330.902 122.992 332.42C122.992 333.938 123.379 335.148 124.152 336.051C124.94 336.953 125.921 337.404 127.096 337.404C128.442 337.404 129.509 336.831 130.297 335.686L138.439 338.156C137.451 340.09 135.99 341.622 134.057 342.754C132.137 343.871 129.831 344.43 127.139 344.43ZM139.6 332.42C139.6 330.801 139.879 329.276 140.438 327.844C140.996 326.411 141.791 325.144 142.822 324.041C143.854 322.924 145.186 322.043 146.818 321.398C148.451 320.74 150.27 320.41 152.275 320.41C154.281 320.41 156.1 320.74 157.732 321.398C159.365 322.043 160.697 322.924 161.729 324.041C162.76 325.144 163.555 326.411 164.113 327.844C164.672 329.276 164.951 330.801 164.951 332.42C164.951 334.024 164.672 335.542 164.113 336.975C163.555 338.407 162.76 339.682 161.729 340.799C160.697 341.916 159.365 342.804 157.732 343.463C156.1 344.107 154.281 344.43 152.275 344.43C150.27 344.43 148.451 344.107 146.818 343.463C145.186 342.804 143.854 341.916 142.822 340.799C141.791 339.682 140.996 338.407 140.438 336.975C139.879 335.542 139.6 334.024 139.6 332.42ZM149.311 336.051C150.084 336.953 151.072 337.404 152.275 337.404C153.479 337.404 154.46 336.953 155.219 336.051C155.978 335.148 156.357 333.938 156.357 332.42C156.357 330.902 155.978 329.699 155.219 328.811C154.46 327.908 153.479 327.457 152.275 327.457C151.058 327.457 150.07 327.908 149.311 328.811C148.551 329.699 148.172 330.902 148.172 332.42C148.172 333.938 148.551 335.148 149.311 336.051ZM191.184 344H182.826V330.98C182.826 329.906 182.583 329.097 182.096 328.553C181.609 327.994 181 327.715 180.27 327.715C179.539 327.715 178.78 328.03 177.992 328.66C177.204 329.29 176.624 330.078 176.252 331.023V344H167.895V320.861H175.436V324.277C176.252 323.017 177.405 322.057 178.895 321.398C180.384 320.74 182.132 320.41 184.137 320.41C185.139 320.41 186.035 320.539 186.822 320.797C187.624 321.055 188.269 321.42 188.756 321.893C189.257 322.351 189.673 322.852 190.002 323.396C190.346 323.926 190.596 324.535 190.754 325.223C190.926 325.896 191.04 326.505 191.098 327.049C191.155 327.593 191.184 328.166 191.184 328.768V344ZM211.465 342.732C208.743 343.907 206.18 344.494 203.773 344.494C202.785 344.494 201.883 344.372 201.066 344.129C200.264 343.885 199.534 343.513 198.875 343.012C198.23 342.496 197.722 341.794 197.35 340.906C196.992 340.018 196.812 338.965 196.812 337.748V327.156H193.955V320.861H196.812V313.6H205.17V320.861H209.703V327.156H205.17V334.805C205.17 336.18 205.771 336.867 206.975 336.867C207.734 336.867 208.729 336.617 209.961 336.115L211.465 342.732ZM229.533 327.994C225.809 327.994 223.36 328.753 222.186 330.271V344H213.828V320.861H221.498V325.266C222.314 323.733 223.331 322.544 224.549 321.699C225.781 320.84 227.091 320.41 228.48 320.41C229.039 320.41 229.39 320.424 229.533 320.453V327.994ZM243.541 344.43C241.951 344.43 240.469 344.222 239.094 343.807C237.733 343.391 236.551 342.826 235.549 342.109C234.561 341.379 233.708 340.527 232.992 339.553C232.276 338.564 231.739 337.497 231.381 336.352C231.037 335.191 230.865 333.988 230.865 332.742C230.865 331.052 231.137 329.469 231.682 327.994C232.24 326.519 233.042 325.215 234.088 324.084C235.133 322.952 236.465 322.057 238.084 321.398C239.717 320.74 241.536 320.41 243.541 320.41C245.546 320.41 247.365 320.74 248.998 321.398C250.631 322.043 251.963 322.924 252.994 324.041C254.025 325.144 254.82 326.411 255.379 327.844C255.938 329.276 256.217 330.801 256.217 332.42C256.217 333.265 256.138 334.117 255.98 334.977H239.76C239.846 336.137 240.275 337.01 241.049 337.598C241.822 338.171 242.739 338.457 243.799 338.457C244.73 338.457 245.596 338.242 246.398 337.812C247.201 337.383 247.73 336.817 247.988 336.115L255.057 338.156C254.068 340.076 252.579 341.601 250.588 342.732C248.611 343.864 246.262 344.43 243.541 344.43ZM239.566 329.971H247.236C247.107 328.854 246.699 327.973 246.012 327.328C245.339 326.684 244.472 326.361 243.412 326.361C242.352 326.361 241.479 326.684 240.791 327.328C240.104 327.973 239.695 328.854 239.566 329.971ZM267.604 332.377C267.604 330.128 268.026 328.094 268.871 326.275C269.73 324.456 270.934 323.024 272.48 321.979C274.027 320.933 275.775 320.41 277.723 320.41C279.227 320.41 280.609 320.754 281.869 321.441C283.13 322.129 284.082 323.074 284.727 324.277V311.881H293.084V334.762C293.084 335.549 293.199 336.101 293.428 336.416C293.657 336.731 294.065 336.91 294.652 336.953V344C293.22 344.286 292.053 344.43 291.15 344.43C288.286 344.43 286.639 343.363 286.209 341.229L286.037 340.391C285.278 341.737 284.232 342.747 282.9 343.42C281.568 344.093 280.107 344.43 278.518 344.43C275.324 344.43 272.702 343.305 270.654 341.057C268.62 338.808 267.604 335.915 267.604 332.377ZM284.77 335.02V330.895C284.368 329.878 283.767 329.054 282.965 328.424C282.163 327.779 281.325 327.457 280.451 327.457C279.248 327.457 278.238 327.958 277.422 328.961C276.62 329.949 276.219 331.152 276.219 332.57C276.219 334.017 276.641 335.184 277.486 336.072C278.331 336.96 279.434 337.404 280.795 337.404C282.356 337.404 283.681 336.609 284.77 335.02ZM296.822 336.996C296.822 334.676 297.753 332.778 299.615 331.303C301.492 329.827 303.891 329.09 306.812 329.09C308.717 329.09 310.271 329.383 311.475 329.971V329.262C311.475 328.173 311.152 327.364 310.508 326.834C309.878 326.304 308.868 326.039 307.479 326.039C306.232 326.039 305.051 326.247 303.934 326.662C302.816 327.063 301.606 327.693 300.303 328.553L297.875 323.354C300.926 321.391 304.399 320.41 308.295 320.41C312.005 320.41 314.855 321.248 316.846 322.924C318.837 324.6 319.832 327.049 319.832 330.271V334.762C319.832 335.549 319.947 336.101 320.176 336.416C320.405 336.731 320.82 336.91 321.422 336.953V344C320.133 344.286 318.958 344.43 317.898 344.43C315.048 344.43 313.408 343.363 312.979 341.229L312.785 340.391C310.68 343.083 308.059 344.43 304.922 344.43C302.602 344.43 300.668 343.728 299.121 342.324C297.589 340.906 296.822 339.13 296.822 336.996ZM310.379 337.576C311.109 337.104 311.475 336.559 311.475 335.943V334.225C310.343 333.824 309.269 333.623 308.252 333.623C307.249 333.623 306.404 333.874 305.717 334.375C305.044 334.876 304.707 335.507 304.707 336.266C304.707 336.896 304.958 337.419 305.459 337.834C305.975 338.249 306.626 338.457 307.414 338.457C308.517 338.457 309.505 338.163 310.379 337.576ZM323.205 332.377C323.205 330.128 323.628 328.094 324.473 326.275C325.332 324.456 326.535 323.024 328.082 321.979C329.629 320.933 331.376 320.41 333.324 320.41C334.828 320.41 336.21 320.754 337.471 321.441C338.731 322.129 339.684 323.074 340.328 324.277V311.881H348.686V334.762C348.686 335.549 348.8 336.101 349.029 336.416C349.258 336.731 349.667 336.91 350.254 336.953V344C348.822 344.286 347.654 344.43 346.752 344.43C343.887 344.43 342.24 343.363 341.811 341.229L341.639 340.391C340.88 341.737 339.834 342.747 338.502 343.42C337.17 344.093 335.709 344.43 334.119 344.43C330.925 344.43 328.304 343.305 326.256 341.057C324.222 338.808 323.205 335.915 323.205 332.377ZM340.371 335.02V330.895C339.97 329.878 339.368 329.054 338.566 328.424C337.764 327.779 336.926 327.457 336.053 327.457C334.85 327.457 333.84 327.958 333.023 328.961C332.221 329.949 331.82 331.152 331.82 332.57C331.82 334.017 332.243 335.184 333.088 336.072C333.933 336.96 335.036 337.404 336.396 337.404C337.958 337.404 339.283 336.609 340.371 335.02ZM352.424 332.42C352.424 330.801 352.703 329.276 353.262 327.844C353.82 326.411 354.615 325.144 355.646 324.041C356.678 322.924 358.01 322.043 359.643 321.398C361.275 320.74 363.094 320.41 365.1 320.41C367.105 320.41 368.924 320.74 370.557 321.398C372.189 322.043 373.521 322.924 374.553 324.041C375.584 325.144 376.379 326.411 376.938 327.844C377.496 329.276 377.775 330.801 377.775 332.42C377.775 334.024 377.496 335.542 376.938 336.975C376.379 338.407 375.584 339.682 374.553 340.799C373.521 341.916 372.189 342.804 370.557 343.463C368.924 344.107 367.105 344.43 365.1 344.43C363.094 344.43 361.275 344.107 359.643 343.463C358.01 342.804 356.678 341.916 355.646 340.799C354.615 339.682 353.82 338.407 353.262 336.975C352.703 335.542 352.424 334.024 352.424 332.42ZM362.135 336.051C362.908 336.953 363.896 337.404 365.1 337.404C366.303 337.404 367.284 336.953 368.043 336.051C368.802 335.148 369.182 333.938 369.182 332.42C369.182 330.902 368.802 329.699 368.043 328.811C367.284 327.908 366.303 327.457 365.1 327.457C363.882 327.457 362.894 327.908 362.135 328.811C361.376 329.699 360.996 330.902 360.996 332.42C360.996 333.938 361.376 335.148 362.135 336.051ZM390 344.43C387.938 344.43 385.932 344.093 383.984 343.42C382.051 342.747 380.425 341.794 379.107 340.562L381.965 335.428C384.973 337.419 387.565 338.414 389.742 338.414C390.945 338.414 391.547 338.063 391.547 337.361C391.547 337.003 391.332 336.717 390.902 336.502C390.473 336.273 389.678 335.972 388.518 335.6C387.701 335.313 387.049 335.084 386.562 334.912C386.09 334.726 385.546 334.511 384.93 334.268C384.314 334.01 383.834 333.781 383.49 333.58C383.146 333.38 382.774 333.143 382.373 332.871C381.972 332.585 381.664 332.305 381.449 332.033C381.249 331.747 381.048 331.424 380.848 331.066C380.647 330.708 380.511 330.322 380.439 329.906C380.368 329.477 380.332 329.011 380.332 328.51C380.332 326.089 381.22 324.127 382.996 322.623C384.772 321.119 387.2 320.367 390.279 320.367C393.817 320.367 396.896 321.484 399.518 323.719L396.338 328.811C393.631 327.149 391.49 326.318 389.914 326.318C388.682 326.318 388.066 326.727 388.066 327.543C388.066 327.958 388.274 328.288 388.689 328.531C389.119 328.76 389.9 329.033 391.031 329.348C392.32 329.749 393.38 330.107 394.211 330.422C395.042 330.723 395.829 331.081 396.574 331.496C397.333 331.911 397.913 332.355 398.314 332.828C398.715 333.286 399.031 333.831 399.26 334.461C399.489 335.091 399.604 335.822 399.604 336.652C399.604 339.073 398.744 340.978 397.025 342.367C395.307 343.742 392.965 344.43 390 344.43ZM412.172 332.57C412.172 330.408 412.609 328.424 413.482 326.619C414.37 324.8 415.617 323.354 417.221 322.279C418.825 321.191 420.615 320.646 422.592 320.646C424.368 320.646 425.986 321.112 427.447 322.043C428.923 322.96 430.104 324.148 430.992 325.609V311.881H434.881V339.596C434.881 340.083 434.974 340.441 435.16 340.67C435.346 340.885 435.661 340.999 436.105 341.014V344C435.361 344.115 434.788 344.172 434.387 344.172C433.628 344.172 432.962 343.914 432.389 343.398C431.816 342.868 431.529 342.274 431.529 341.615V339.682C430.627 341.143 429.417 342.303 427.898 343.162C426.38 344.007 424.79 344.43 423.129 344.43C421.052 344.43 419.169 343.885 417.479 342.797C415.788 341.694 414.478 340.24 413.547 338.436C412.63 336.631 412.172 334.676 412.172 332.57ZM430.992 335.943V329.348C430.448 327.858 429.46 326.59 428.027 325.545C426.595 324.499 425.148 323.977 423.688 323.977C422.227 323.977 420.909 324.392 419.734 325.223C418.574 326.053 417.686 327.128 417.07 328.445C416.469 329.749 416.168 331.138 416.168 332.613C416.168 334.948 416.927 336.946 418.445 338.607C419.978 340.269 421.847 341.1 424.053 341.1C425.499 341.1 426.946 340.584 428.393 339.553C429.839 338.521 430.706 337.318 430.992 335.943ZM441.219 338.479C440.273 336.674 439.801 334.704 439.801 332.57C439.801 330.436 440.281 328.467 441.24 326.662C442.214 324.843 443.589 323.389 445.365 322.301C447.156 321.198 449.154 320.646 451.359 320.646C453.579 320.646 455.585 321.198 457.375 322.301C459.165 323.389 460.548 324.843 461.521 326.662C462.495 328.467 462.982 330.436 462.982 332.57C462.982 334.16 462.696 335.678 462.123 337.125C461.564 338.557 460.784 339.818 459.781 340.906C458.779 341.98 457.547 342.84 456.086 343.484C454.625 344.115 453.049 344.43 451.359 344.43C449.111 344.43 447.098 343.885 445.322 342.797C443.546 341.708 442.178 340.269 441.219 338.479ZM445.967 338.65C447.442 340.283 449.24 341.1 451.359 341.1C453.479 341.1 455.284 340.269 456.773 338.607C458.277 336.932 459.029 334.898 459.029 332.506C459.029 330.143 458.277 328.13 456.773 326.469C455.284 324.807 453.479 323.977 451.359 323.977C449.268 323.977 447.478 324.822 445.988 326.512C444.499 328.188 443.754 330.221 443.754 332.613C443.754 335.005 444.492 337.018 445.967 338.65ZM475.551 344.43C471.526 344.43 468.296 343.169 465.861 340.648L467.365 337.92C469.814 340.212 472.486 341.357 475.379 341.357C476.997 341.357 478.294 341.049 479.268 340.434C480.256 339.818 480.75 338.937 480.75 337.791C480.75 337.476 480.707 337.197 480.621 336.953C480.535 336.695 480.435 336.473 480.32 336.287C480.206 336.101 480.02 335.922 479.762 335.75C479.504 335.578 479.275 335.442 479.074 335.342C478.874 335.227 478.559 335.105 478.129 334.977C477.714 334.833 477.363 334.726 477.076 334.654C476.804 334.568 476.382 334.454 475.809 334.311C475.25 334.153 474.799 334.024 474.455 333.924C473.195 333.566 472.142 333.208 471.297 332.85C470.452 332.477 469.7 332.04 469.041 331.539C468.382 331.038 467.902 330.458 467.602 329.799C467.301 329.126 467.15 328.345 467.15 327.457C467.15 325.323 467.96 323.654 469.578 322.451C471.211 321.248 473.345 320.646 475.98 320.646C479.447 320.646 482.175 321.685 484.166 323.762L482.404 326.447C480.6 324.6 478.387 323.676 475.766 323.676C474.878 323.676 474.083 323.769 473.381 323.955C472.679 324.127 472.07 324.478 471.555 325.008C471.053 325.523 470.803 326.189 470.803 327.006C470.803 327.436 470.882 327.822 471.039 328.166C471.197 328.495 471.39 328.775 471.619 329.004C471.848 329.219 472.214 329.441 472.715 329.67C473.216 329.899 473.682 330.085 474.111 330.229C474.541 330.372 475.164 330.565 475.98 330.809C477.312 331.195 478.286 331.489 478.902 331.689C479.533 331.89 480.285 332.191 481.158 332.592C482.046 332.993 482.676 333.394 483.049 333.795C483.436 334.182 483.779 334.697 484.08 335.342C484.381 335.972 484.531 336.702 484.531 337.533C484.531 339.682 483.715 341.372 482.082 342.604C480.449 343.821 478.272 344.43 475.551 344.43ZM67.0039 383.467V397.367H63.1152V365.033H66.5527V369.352C67.4694 367.919 68.6654 366.781 70.1406 365.936C71.6159 365.076 73.2057 364.646 74.9102 364.646C76.944 364.646 78.7988 365.205 80.4746 366.322C82.1647 367.425 83.4681 368.879 84.3848 370.684C85.3158 372.488 85.7812 374.429 85.7812 376.506C85.7812 378.683 85.3516 380.681 84.4922 382.5C83.6328 384.305 82.4082 385.744 80.8184 386.818C79.2428 387.893 77.4668 388.43 75.4902 388.43C73.6712 388.43 72.0241 387.979 70.5488 387.076C69.0879 386.174 67.9062 384.971 67.0039 383.467ZM81.8281 376.506C81.8281 374.171 81.0618 372.166 79.5293 370.49C78.0111 368.814 76.1491 367.977 73.9434 367.977C72.5111 367.977 71.0645 368.499 69.6035 369.545C68.1569 370.576 67.2904 371.772 67.0039 373.133V379.686C67.6484 381.232 68.6439 382.521 69.9902 383.553C71.3509 384.584 72.7904 385.1 74.3086 385.1C75.7695 385.1 77.0801 384.684 78.2402 383.854C79.4147 383.023 80.3027 381.956 80.9043 380.652C81.5202 379.349 81.8281 377.967 81.8281 376.506ZM102.689 368.428C100.742 368.471 99.0228 368.972 97.5332 369.932C96.0579 370.877 95.0195 372.18 94.418 373.842V388H90.5293V365.033H94.1387V370.361C94.9408 368.771 95.9863 367.482 97.2754 366.494C98.5788 365.506 99.9538 364.962 101.4 364.861C102.059 364.861 102.489 364.876 102.689 364.904V368.428ZM105.848 382.479C104.902 380.674 104.43 378.704 104.43 376.57C104.43 374.436 104.91 372.467 105.869 370.662C106.843 368.843 108.218 367.389 109.994 366.301C111.785 365.198 113.783 364.646 115.988 364.646C118.208 364.646 120.214 365.198 122.004 366.301C123.794 367.389 125.176 368.843 126.15 370.662C127.124 372.467 127.611 374.436 127.611 376.57C127.611 378.16 127.325 379.678 126.752 381.125C126.193 382.557 125.413 383.818 124.41 384.906C123.408 385.98 122.176 386.84 120.715 387.484C119.254 388.115 117.678 388.43 115.988 388.43C113.74 388.43 111.727 387.885 109.951 386.797C108.175 385.708 106.807 384.269 105.848 382.479ZM110.596 382.65C112.071 384.283 113.868 385.1 115.988 385.1C118.108 385.1 119.913 384.269 121.402 382.607C122.906 380.932 123.658 378.898 123.658 376.506C123.658 374.143 122.906 372.13 121.402 370.469C119.913 368.807 118.108 367.977 115.988 367.977C113.897 367.977 112.107 368.822 110.617 370.512C109.128 372.188 108.383 374.221 108.383 376.613C108.383 379.005 109.12 381.018 110.596 382.65ZM130.855 376.57C130.855 374.422 131.299 372.445 132.188 370.641C133.076 368.822 134.336 367.368 135.969 366.279C137.602 365.191 139.442 364.646 141.49 364.646C144.985 364.646 147.85 366.301 150.084 369.609V365.033H153.521V387.742C153.521 389.848 152.992 391.674 151.932 393.221C150.886 394.768 149.49 395.921 147.742 396.68C145.995 397.439 144.018 397.818 141.812 397.818C139.32 397.818 137.236 397.382 135.561 396.508C133.899 395.648 132.503 394.395 131.371 392.748L133.627 390.771C134.515 392.089 135.675 393.092 137.107 393.779C138.554 394.467 140.122 394.811 141.812 394.811C143.259 394.811 144.562 394.56 145.723 394.059C146.883 393.557 147.821 392.762 148.537 391.674C149.268 390.585 149.633 389.275 149.633 387.742V383.682C148.773 385.085 147.599 386.202 146.109 387.033C144.634 387.85 143.08 388.258 141.447 388.258C139.929 388.258 138.504 387.936 137.172 387.291C135.84 386.646 134.715 385.787 133.799 384.713C132.882 383.639 132.159 382.393 131.629 380.975C131.113 379.557 130.855 378.089 130.855 376.57ZM149.633 379.943V373.348C149.017 371.786 148.014 370.505 146.625 369.502C145.25 368.485 143.803 367.977 142.285 367.977C140.796 367.977 139.464 368.406 138.289 369.266C137.115 370.125 136.234 371.214 135.646 372.531C135.059 373.835 134.766 375.21 134.766 376.656C134.766 378.962 135.532 380.946 137.064 382.607C138.597 384.269 140.459 385.1 142.65 385.1C144.24 385.1 145.723 384.577 147.098 383.531C148.473 382.471 149.318 381.275 149.633 379.943ZM171.912 368.428C169.964 368.471 168.245 368.972 166.756 369.932C165.281 370.877 164.242 372.18 163.641 373.842V388H159.752V365.033H163.361V370.361C164.163 368.771 165.209 367.482 166.498 366.494C167.801 365.506 169.176 364.962 170.623 364.861C171.282 364.861 171.712 364.876 171.912 364.904V368.428ZM173.932 381.361C173.932 379.199 174.834 377.465 176.639 376.162C178.458 374.844 180.828 374.186 183.75 374.186C186.128 374.186 188.226 374.508 190.045 375.152V373.477C190.045 371.701 189.508 370.311 188.434 369.309C187.374 368.306 185.884 367.805 183.965 367.805C181.716 367.805 179.281 368.686 176.66 370.447L175.264 367.719C178.286 365.671 181.337 364.646 184.416 364.646C187.352 364.646 189.665 365.463 191.355 367.096C193.06 368.729 193.912 370.992 193.912 373.885V383.596C193.912 384.083 194.005 384.434 194.191 384.648C194.392 384.863 194.714 384.985 195.158 385.014V388C194.456 388.115 193.898 388.172 193.482 388.172C192.623 388.172 191.95 387.943 191.463 387.484C190.976 387.012 190.711 386.467 190.668 385.852L190.582 384.391C189.594 385.651 188.298 386.639 186.693 387.355C185.104 388.072 183.492 388.43 181.859 388.43C179.568 388.43 177.67 387.749 176.166 386.389C174.676 385.028 173.932 383.352 173.932 381.361ZM188.906 382.994C189.25 382.607 189.522 382.199 189.723 381.77C189.938 381.326 190.045 380.953 190.045 380.652V377.795C188.183 377.064 186.249 376.699 184.244 376.699C182.253 376.699 180.649 377.093 179.432 377.881C178.229 378.654 177.627 379.707 177.627 381.039C177.627 382.228 178.092 383.273 179.023 384.176C179.954 385.078 181.236 385.529 182.869 385.529C184.044 385.529 185.175 385.3 186.264 384.842C187.367 384.369 188.247 383.753 188.906 382.994ZM234.732 388H230.865V375.152C230.865 370.454 229.326 368.105 226.246 368.105C224.699 368.105 223.288 368.671 222.014 369.803C220.753 370.92 219.858 372.381 219.328 374.186V388H215.461V375.152C215.461 372.746 215.081 370.97 214.322 369.824C213.563 368.678 212.417 368.105 210.885 368.105C209.352 368.105 207.949 368.664 206.674 369.781C205.413 370.884 204.518 372.338 203.988 374.143V388H200.1V365.033H203.623V369.953C204.554 368.249 205.771 366.938 207.275 366.021C208.794 365.105 210.484 364.646 212.346 364.646C214.208 364.646 215.719 365.155 216.879 366.172C218.039 367.189 218.755 368.542 219.027 370.232C221.09 366.508 224.012 364.646 227.793 364.646C232.419 364.646 234.732 367.855 234.732 374.271V388ZM238.943 381.361C238.943 379.199 239.846 377.465 241.65 376.162C243.469 374.844 245.84 374.186 248.762 374.186C251.139 374.186 253.238 374.508 255.057 375.152V373.477C255.057 371.701 254.52 370.311 253.445 369.309C252.385 368.306 250.896 367.805 248.977 367.805C246.728 367.805 244.293 368.686 241.672 370.447L240.275 367.719C243.298 365.671 246.348 364.646 249.428 364.646C252.364 364.646 254.677 365.463 256.367 367.096C258.072 368.729 258.924 370.992 258.924 373.885V383.596C258.924 384.083 259.017 384.434 259.203 384.648C259.404 384.863 259.726 384.985 260.17 385.014V388C259.468 388.115 258.91 388.172 258.494 388.172C257.635 388.172 256.962 387.943 256.475 387.484C255.988 387.012 255.723 386.467 255.68 385.852L255.594 384.391C254.605 385.651 253.309 386.639 251.705 387.355C250.115 388.072 248.504 388.43 246.871 388.43C244.579 388.43 242.682 387.749 241.178 386.389C239.688 385.028 238.943 383.352 238.943 381.361ZM253.918 382.994C254.262 382.607 254.534 382.199 254.734 381.77C254.949 381.326 255.057 380.953 255.057 380.652V377.795C253.195 377.064 251.261 376.699 249.256 376.699C247.265 376.699 245.661 377.093 244.443 377.881C243.24 378.654 242.639 379.707 242.639 381.039C242.639 382.228 243.104 383.273 244.035 384.176C244.966 385.078 246.248 385.529 247.881 385.529C249.055 385.529 250.187 385.3 251.275 384.842C252.378 384.369 253.259 383.753 253.918 382.994ZM272.996 388.43C268.971 388.43 265.742 387.169 263.307 384.648L264.811 381.92C267.26 384.212 269.931 385.357 272.824 385.357C274.443 385.357 275.739 385.049 276.713 384.434C277.701 383.818 278.195 382.937 278.195 381.791C278.195 381.476 278.152 381.197 278.066 380.953C277.98 380.695 277.88 380.473 277.766 380.287C277.651 380.101 277.465 379.922 277.207 379.75C276.949 379.578 276.72 379.442 276.52 379.342C276.319 379.227 276.004 379.105 275.574 378.977C275.159 378.833 274.808 378.726 274.521 378.654C274.249 378.568 273.827 378.454 273.254 378.311C272.695 378.153 272.244 378.024 271.9 377.924C270.64 377.566 269.587 377.208 268.742 376.85C267.897 376.477 267.145 376.04 266.486 375.539C265.827 375.038 265.348 374.458 265.047 373.799C264.746 373.126 264.596 372.345 264.596 371.457C264.596 369.323 265.405 367.654 267.023 366.451C268.656 365.248 270.79 364.646 273.426 364.646C276.892 364.646 279.62 365.685 281.611 367.762L279.85 370.447C278.045 368.6 275.832 367.676 273.211 367.676C272.323 367.676 271.528 367.769 270.826 367.955C270.124 368.127 269.516 368.478 269 369.008C268.499 369.523 268.248 370.189 268.248 371.006C268.248 371.436 268.327 371.822 268.484 372.166C268.642 372.495 268.835 372.775 269.064 373.004C269.294 373.219 269.659 373.441 270.16 373.67C270.661 373.899 271.127 374.085 271.557 374.229C271.986 374.372 272.609 374.565 273.426 374.809C274.758 375.195 275.732 375.489 276.348 375.689C276.978 375.89 277.73 376.191 278.604 376.592C279.492 376.993 280.122 377.394 280.494 377.795C280.881 378.182 281.225 378.697 281.525 379.342C281.826 379.972 281.977 380.702 281.977 381.533C281.977 383.682 281.16 385.372 279.527 386.604C277.895 387.821 275.717 388.43 272.996 388.43ZM307.887 388.43C305.638 388.43 303.611 387.885 301.807 386.797C300.016 385.708 298.634 384.262 297.66 382.457C296.686 380.638 296.199 378.654 296.199 376.506C296.199 374.902 296.486 373.376 297.059 371.93C297.646 370.483 298.448 369.223 299.465 368.148C300.482 367.074 301.728 366.222 303.203 365.592C304.678 364.962 306.261 364.646 307.951 364.646C309.641 364.646 311.21 364.969 312.656 365.613C314.117 366.243 315.335 367.096 316.309 368.17C317.283 369.244 318.042 370.49 318.586 371.908C319.145 373.326 319.424 374.801 319.424 376.334C319.424 376.993 319.395 377.494 319.338 377.838H300.281C300.453 380.072 301.284 381.913 302.773 383.359C304.263 384.806 306.018 385.529 308.037 385.529C309.455 385.529 310.78 385.178 312.012 384.477C313.258 383.76 314.117 382.837 314.59 381.705L317.92 382.629C317.161 384.348 315.865 385.744 314.031 386.818C312.212 387.893 310.164 388.43 307.887 388.43ZM300.152 375.152H315.814C315.628 372.932 314.783 371.113 313.279 369.695C311.79 368.263 310.014 367.547 307.951 367.547C305.889 367.547 304.105 368.263 302.602 369.695C301.112 371.128 300.296 372.947 300.152 375.152ZM338.738 383.467V397.367H334.85V365.033H338.287V369.352C339.204 367.919 340.4 366.781 341.875 365.936C343.35 365.076 344.94 364.646 346.645 364.646C348.678 364.646 350.533 365.205 352.209 366.322C353.899 367.425 355.202 368.879 356.119 370.684C357.05 372.488 357.516 374.429 357.516 376.506C357.516 378.683 357.086 380.681 356.227 382.5C355.367 384.305 354.143 385.744 352.553 386.818C350.977 387.893 349.201 388.43 347.225 388.43C345.406 388.43 343.758 387.979 342.283 387.076C340.822 386.174 339.641 384.971 338.738 383.467ZM353.562 376.506C353.562 374.171 352.796 372.166 351.264 370.49C349.745 368.814 347.883 367.977 345.678 367.977C344.245 367.977 342.799 368.499 341.338 369.545C339.891 370.576 339.025 371.772 338.738 373.133V379.686C339.383 381.232 340.378 382.521 341.725 383.553C343.085 384.584 344.525 385.1 346.043 385.1C347.504 385.1 348.814 384.684 349.975 383.854C351.149 383.023 352.037 381.956 352.639 380.652C353.255 379.349 353.562 377.967 353.562 376.506ZM362.156 382.479C361.211 380.674 360.738 378.704 360.738 376.57C360.738 374.436 361.218 372.467 362.178 370.662C363.152 368.843 364.527 367.389 366.303 366.301C368.093 365.198 370.091 364.646 372.297 364.646C374.517 364.646 376.522 365.198 378.312 366.301C380.103 367.389 381.485 368.843 382.459 370.662C383.433 372.467 383.92 374.436 383.92 376.57C383.92 378.16 383.633 379.678 383.061 381.125C382.502 382.557 381.721 383.818 380.719 384.906C379.716 385.98 378.484 386.84 377.023 387.484C375.562 388.115 373.987 388.43 372.297 388.43C370.048 388.43 368.036 387.885 366.26 386.797C364.484 385.708 363.116 384.269 362.156 382.479ZM366.904 382.65C368.38 384.283 370.177 385.1 372.297 385.1C374.417 385.1 376.221 384.269 377.711 382.607C379.215 380.932 379.967 378.898 379.967 376.506C379.967 374.143 379.215 372.13 377.711 370.469C376.221 368.807 374.417 367.977 372.297 367.977C370.206 367.977 368.415 368.822 366.926 370.512C365.436 372.188 364.691 374.221 364.691 376.613C364.691 379.005 365.429 381.018 366.904 382.65ZM388.711 355.881H392.578V382.07C392.578 382.686 392.621 383.188 392.707 383.574C392.793 383.961 392.929 384.247 393.115 384.434C393.301 384.605 393.48 384.72 393.652 384.777C393.839 384.82 394.082 384.842 394.383 384.842C395.443 384.842 396.495 384.634 397.541 384.219L398.164 387.377C397.534 387.649 396.775 387.871 395.887 388.043C395.013 388.215 394.232 388.301 393.545 388.301C392.041 388.301 390.859 387.871 390 387.012C389.141 386.152 388.711 384.971 388.711 383.467V355.881ZM404.502 361.209L401.945 360.328L404.502 355.881H408.369L404.502 361.209ZM401.193 388V365.033H405.082V388H401.193ZM423.215 386.861C421.052 387.821 419.19 388.301 417.629 388.301C416.125 388.301 414.886 387.9 413.912 387.098C412.938 386.281 412.451 385.085 412.451 383.51V368.062H409.314V365.033H412.451V357.385H416.318V365.033H421.453V368.062H416.318V382.328C416.361 383.13 416.619 383.732 417.092 384.133C417.579 384.534 418.188 384.734 418.918 384.734C420.092 384.734 421.217 384.412 422.291 383.768L423.215 386.861ZM426.803 360.715V355.881H430.691V360.715H426.803ZM426.803 388V365.033H430.691V388H426.803ZM447.105 388.43C444.857 388.43 442.83 387.885 441.025 386.797C439.235 385.694 437.853 384.233 436.879 382.414C435.905 380.595 435.418 378.611 435.418 376.463C435.418 374.3 435.891 372.331 436.836 370.555C437.796 368.764 439.171 367.332 440.961 366.258C442.751 365.184 444.785 364.646 447.062 364.646C449.297 364.646 451.252 365.148 452.928 366.15C454.618 367.139 455.893 368.499 456.752 370.232L452.971 371.414C452.383 370.34 451.553 369.502 450.479 368.9C449.419 368.285 448.251 367.977 446.977 367.977C444.828 367.977 443.023 368.786 441.562 370.404C440.102 372.023 439.371 374.042 439.371 376.463C439.371 378.869 440.116 380.91 441.605 382.586C443.109 384.262 444.914 385.1 447.02 385.1C448.352 385.1 449.612 384.749 450.801 384.047C452.004 383.345 452.785 382.507 453.143 381.533L456.924 382.672C456.236 384.376 454.997 385.766 453.207 386.84C451.417 387.9 449.383 388.43 447.105 388.43ZM459.502 381.361C459.502 379.199 460.404 377.465 462.209 376.162C464.028 374.844 466.398 374.186 469.32 374.186C471.698 374.186 473.796 374.508 475.615 375.152V373.477C475.615 371.701 475.078 370.311 474.004 369.309C472.944 368.306 471.454 367.805 469.535 367.805C467.286 367.805 464.852 368.686 462.23 370.447L460.834 367.719C463.856 365.671 466.907 364.646 469.986 364.646C472.923 364.646 475.236 365.463 476.926 367.096C478.63 368.729 479.482 370.992 479.482 373.885V383.596C479.482 384.083 479.576 384.434 479.762 384.648C479.962 384.863 480.285 384.985 480.729 385.014V388C480.027 388.115 479.468 388.172 479.053 388.172C478.193 388.172 477.52 387.943 477.033 387.484C476.546 387.012 476.281 386.467 476.238 385.852L476.152 384.391C475.164 385.651 473.868 386.639 472.264 387.355C470.674 388.072 469.062 388.43 467.43 388.43C465.138 388.43 463.24 387.749 461.736 386.389C460.247 385.028 459.502 383.352 459.502 381.361ZM474.477 382.994C474.82 382.607 475.092 382.199 475.293 381.77C475.508 381.326 475.615 380.953 475.615 380.652V377.795C473.753 377.064 471.82 376.699 469.814 376.699C467.824 376.699 466.219 377.093 465.002 377.881C463.799 378.654 463.197 379.707 463.197 381.039C463.197 382.228 463.663 383.273 464.594 384.176C465.525 385.078 466.807 385.529 468.439 385.529C469.614 385.529 470.745 385.3 471.834 384.842C472.937 384.369 473.818 383.753 474.477 382.994ZM493.555 388.43C489.53 388.43 486.3 387.169 483.865 384.648L485.369 381.92C487.818 384.212 490.49 385.357 493.383 385.357C495.001 385.357 496.298 385.049 497.271 384.434C498.26 383.818 498.754 382.937 498.754 381.791C498.754 381.476 498.711 381.197 498.625 380.953C498.539 380.695 498.439 380.473 498.324 380.287C498.21 380.101 498.023 379.922 497.766 379.75C497.508 379.578 497.279 379.442 497.078 379.342C496.878 379.227 496.562 379.105 496.133 378.977C495.717 378.833 495.367 378.726 495.08 378.654C494.808 378.568 494.385 378.454 493.812 378.311C493.254 378.153 492.803 378.024 492.459 377.924C491.199 377.566 490.146 377.208 489.301 376.85C488.456 376.477 487.704 376.04 487.045 375.539C486.386 375.038 485.906 374.458 485.605 373.799C485.305 373.126 485.154 372.345 485.154 371.457C485.154 369.323 485.964 367.654 487.582 366.451C489.215 365.248 491.349 364.646 493.984 364.646C497.451 364.646 500.179 365.685 502.17 367.762L500.408 370.447C498.604 368.6 496.391 367.676 493.77 367.676C492.882 367.676 492.087 367.769 491.385 367.955C490.683 368.127 490.074 368.478 489.559 369.008C489.057 369.523 488.807 370.189 488.807 371.006C488.807 371.436 488.885 371.822 489.043 372.166C489.201 372.495 489.394 372.775 489.623 373.004C489.852 373.219 490.217 373.441 490.719 373.67C491.22 373.899 491.686 374.085 492.115 374.229C492.545 374.372 493.168 374.565 493.984 374.809C495.316 375.195 496.29 375.489 496.906 375.689C497.536 375.89 498.288 376.191 499.162 376.592C500.05 376.993 500.68 377.394 501.053 377.795C501.439 378.182 501.783 378.697 502.084 379.342C502.385 379.972 502.535 380.702 502.535 381.533C502.535 383.682 501.719 385.372 500.086 386.604C498.453 387.821 496.276 388.43 493.555 388.43ZM61.6328 420.57C61.6328 418.408 62.0697 416.424 62.9434 414.619C63.8314 412.8 65.0775 411.354 66.6816 410.279C68.2858 409.191 70.0762 408.646 72.0527 408.646C73.8288 408.646 75.4473 409.112 76.9082 410.043C78.3835 410.96 79.5651 412.148 80.4531 413.609V399.881H84.3418V427.596C84.3418 428.083 84.4349 428.441 84.6211 428.67C84.8073 428.885 85.1224 428.999 85.5664 429.014V432C84.8216 432.115 84.2487 432.172 83.8477 432.172C83.0885 432.172 82.4225 431.914 81.8496 431.398C81.2767 430.868 80.9902 430.274 80.9902 429.615V427.682C80.0879 429.143 78.8776 430.303 77.3594 431.162C75.8411 432.007 74.2513 432.43 72.5898 432.43C70.513 432.43 68.6296 431.885 66.9395 430.797C65.2493 429.694 63.9388 428.24 63.0078 426.436C62.0911 424.631 61.6328 422.676 61.6328 420.57ZM80.4531 423.943V417.348C79.9089 415.858 78.9206 414.59 77.4883 413.545C76.056 412.499 74.6094 411.977 73.1484 411.977C71.6875 411.977 70.3698 412.392 69.1953 413.223C68.0352 414.053 67.1471 415.128 66.5312 416.445C65.9297 417.749 65.6289 419.138 65.6289 420.613C65.6289 422.948 66.388 424.946 67.9062 426.607C69.4388 428.269 71.3079 429.1 73.5137 429.1C74.9603 429.1 76.4069 428.584 77.8535 427.553C79.3001 426.521 80.1667 425.318 80.4531 423.943ZM90.6797 426.479C89.7344 424.674 89.2617 422.704 89.2617 420.57C89.2617 418.436 89.7415 416.467 90.7012 414.662C91.6751 412.843 93.0501 411.389 94.8262 410.301C96.6165 409.198 98.6146 408.646 100.82 408.646C103.04 408.646 105.046 409.198 106.836 410.301C108.626 411.389 110.008 412.843 110.982 414.662C111.956 416.467 112.443 418.436 112.443 420.57C112.443 422.16 112.157 423.678 111.584 425.125C111.025 426.557 110.245 427.818 109.242 428.906C108.24 429.98 107.008 430.84 105.547 431.484C104.086 432.115 102.51 432.43 100.82 432.43C98.5716 432.43 96.5592 431.885 94.7832 430.797C93.0072 429.708 91.6393 428.269 90.6797 426.479ZM95.4277 426.65C96.903 428.283 98.7005 429.1 100.82 429.1C102.94 429.1 104.745 428.269 106.234 426.607C107.738 424.932 108.49 422.898 108.49 420.506C108.49 418.143 107.738 416.13 106.234 414.469C104.745 412.807 102.94 411.977 100.82 411.977C98.7292 411.977 96.9388 412.822 95.4492 414.512C93.9596 416.188 93.2148 418.221 93.2148 420.613C93.2148 423.005 93.9525 425.018 95.4277 426.65ZM155.906 432V408.152L145.594 426.5H143.188L132.832 408.152V432H128.879V400.762H133.068L144.369 421.043L155.713 400.762H159.859V432H155.906ZM188.541 428.477V432H167.336V400.762H188.154V404.285H171.289V414.404H185.941V417.691H171.289V428.477H188.541ZM206.18 400.59C208.872 400.59 211.229 401.213 213.248 402.459C215.282 403.691 216.8 405.338 217.803 407.4L214.666 409.42C214.222 408.475 213.663 407.651 212.99 406.949C212.317 406.233 211.587 405.682 210.799 405.295C210.025 404.908 209.238 404.622 208.436 404.436C207.648 404.249 206.839 404.156 206.008 404.156C204.332 404.156 202.799 404.514 201.41 405.23C200.021 405.947 198.889 406.892 198.016 408.066C197.156 409.227 196.49 410.523 196.018 411.955C195.545 413.373 195.309 414.834 195.309 416.338C195.309 418.501 195.774 420.527 196.705 422.418C197.636 424.294 198.932 425.812 200.594 426.973C202.27 428.118 204.117 428.691 206.137 428.691C207.283 428.691 208.4 428.512 209.488 428.154C210.591 427.782 211.651 427.173 212.668 426.328C213.699 425.469 214.501 424.423 215.074 423.191L218.361 424.996C217.731 426.486 216.729 427.796 215.354 428.928C213.993 430.045 212.496 430.883 210.863 431.441C209.245 431.986 207.612 432.258 205.965 432.258C203.888 432.258 201.926 431.792 200.078 430.861C198.23 429.93 196.676 428.706 195.416 427.188C194.156 425.669 193.153 423.951 192.408 422.031C191.678 420.098 191.312 418.143 191.312 416.166C191.312 414.648 191.52 413.144 191.936 411.654C192.365 410.15 193.003 408.74 193.848 407.422C194.693 406.09 195.695 404.915 196.855 403.898C198.03 402.882 199.419 402.079 201.023 401.492C202.642 400.891 204.361 400.59 206.18 400.59Z" fill="black"/>
<g filter="url(#filter1_d_4472_2567)">
<g clip-path="url(#clip2_4472_2567)">
<path d="M870 244H620V494H870V244Z" fill="white"/>
<g clip-path="url(#clip3_4472_2567)">
<path d="M784.6 346.971H766.995V329.375H758.358L758.192 329.446V338.203L731.783 338.167V329.387H722.992V311.802H731.783V320.618H740.586V285.413H731.795V276.775L731.629 276.585L722.992 276.609V294.158L723.087 294.229H731.795V302.998H722.992V294.419L722.802 294.229L714.19 294.253V320.654L705.387 320.618V276.597L714.178 276.585V267.971L713.976 267.769H705.387V259H714.201V267.697L714.273 267.781H722.992V259H784.6V267.769H731.831L731.783 276.514L731.902 276.585H766.983L767.019 285.401H749.413V302.962H758.192L758.216 311.79H767.007V320.606H775.786L775.81 311.79H784.6V329.351H793.403V338.167H784.6V346.948V346.971ZM758.204 329.197V311.814H749.413L749.389 320.63H740.586V329.375H758.085L758.192 329.197H758.204Z" fill="black"/>
<path d="M731.796 338.155V347.007H740.587V364.592H749.401V373.408H740.587V382.224H731.796V390.993H740.587V382.224H749.401V399.809H740.587V408.625H749.259L749.401 408.566V399.809H758.192V390.993H766.995V382.224H775.798V390.993L784.601 390.981V364.592H793.404V373.408H802.207V364.592H819.8V373.408H810.998V382.224H802.207V390.981L793.404 390.993V399.797H810.986V382.212H819.789V390.969H828.591V399.773L819.8 399.785V408.589L828.591 408.601V426.162H837.382V417.358H846.185V408.791L846.019 408.613H837.394V382.212H846.197V408.411L846.292 408.613H855V478.976H793.404V461.391H810.748L810.986 461.178V452.575H819.789V443.759L802.219 443.747L802.195 452.563H793.63L793.404 452.647V461.391H775.798V435.002H749.401V426.186H740.587V434.99H731.808V426.174L723.005 426.162V434.979H714.202V461.32L705.399 461.356V417.334H714.202V399.773L722.815 399.761L722.993 399.702V390.957H714.19V373.384H722.993V355.752H714.19V373.384H705.387V364.568H696.62L696.596 364.734V373.396H679.002V364.58H670.2V373.396H661.397V382.07L661.575 382.212H670.2V399.797H678.99V390.981H687.781V399.797H705.387L705.363 408.613H661.409V382.367L661.361 382.212H652.606V408.613H643.803V399.797H635V390.993H643.803V382.236H635V373.408H661.397V364.592H670.2V355.776H679.014L678.99 347.007H670.2V338.191H652.606L652.618 329.375H705.387L705.399 338.191H687.793V347.007H705.387V338.179L714.178 338.203V347.019H722.981V338.203L731.784 338.167L731.796 338.155ZM696.596 364.426V355.764H687.793V364.592H696.382L696.596 364.426ZM723.088 399.821L722.993 399.999V408.625H731.796V399.809H723.076L723.088 399.821ZM749.401 408.791V426.186L758.192 426.174V417.382L766.995 417.37V408.625H775.798V399.809H766.995V408.637H749.544L749.401 408.815V408.791ZM810.986 435.002V408.625H784.589V435.014L810.986 434.99V435.002ZM714.202 426.21L722.993 426.186V417.382L714.19 417.418V426.222L714.202 426.21ZM775.81 426.174L775.786 417.394H766.995V426.198L775.798 426.174H775.81ZM828.603 434.99V426.21H819.789V435.014L828.603 434.979V434.99ZM846.185 452.599H837.394V435.014L828.591 435.038V470.219H846.197V452.587L846.185 452.599ZM793.404 452.385V443.783H784.601V452.599L793.368 452.563L793.404 452.385ZM811.021 461.38L810.974 461.498L810.998 470.243H819.789V461.439L811.01 461.391L811.021 461.38Z" fill="black"/>
<path d="M767.008 346.971V355.776H784.602V364.592H767.008L766.996 373.408L758.193 373.42L758.205 355.776H749.402V347.007L767.008 346.971Z" fill="black"/>
<path d="M784.602 355.776V346.971L793.381 347.007L793.404 355.776H784.602Z" fill="black"/>
<path d="M749.401 435.026V452.599L758.204 452.587V443.771H767.006V479H758.192L758.204 461.427L740.586 461.391V452.599H722.992V443.783H740.586V435.026H749.401Z" fill="black"/>
<path d="M740.586 461.391V479H722.992V470.231H714.189V461.368L740.586 461.391Z" fill="black"/>
<path d="M696.596 320.606H635V259H696.584V320.606H696.596ZM687.793 311.79V267.769H643.803V311.802H687.793V311.79Z" fill="black"/>
<path d="M855.001 320.606H793.404V259H854.989V320.606H855.001ZM846.198 311.79V267.769H802.207V311.802H846.198V311.79Z" fill="black"/>
<path d="M696.596 479H635V417.382H696.584V479H696.596ZM687.793 470.231V426.21H643.803V470.231H687.793Z" fill="black"/>
<path d="M828.414 355.776H802.207V347.031L810.998 347.007V338.203H802.219V329.387H837.395V338.203H846.209V329.387H855.012V347.031H828.675L828.604 347.114V355.633L828.651 355.8H855V364.616H837.407V373.432H828.604V355.942L828.426 355.788L828.414 355.776ZM828.592 346.805V338.191H819.801L819.777 347.007H828.378L828.592 346.805Z" fill="black"/>
<path d="M784.602 302.95L775.799 302.986V276.585H784.602V302.95Z" fill="black"/>
<path d="M643.803 355.764L635 355.776V338.191H643.803V355.764Z" fill="black"/>
<path d="M705.399 390.993H687.805L687.781 382.224H705.399V390.993Z" fill="black"/>
<path d="M661.408 347.007H652.605V355.776H661.408V347.007Z" fill="black"/>
<path d="M784.602 478.988L775.799 479V470.243L784.602 470.231V478.988Z" fill="black"/>
<path d="M802.207 426.21H793.404L793.393 417.382H802.207V426.21Z" fill="black"/>
<path d="M679.002 302.974L652.605 302.986V276.585H679.002V302.974Z" fill="black"/>
<path d="M837.395 302.974L810.986 302.986V276.585H837.395V302.974Z" fill="black"/>
<path d="M679.014 435.014H652.605V461.427H679.014V435.014Z" fill="black"/>
</g>
</g>
</g>
</g>
<defs>
<filter id="filter0_d_4472_2567" x="27" y="266" width="677" height="208" filterUnits="userSpaceOnUse" color-interpolation-filters="sRGB">
<feFlood flood-opacity="0" result="BackgroundImageFix"/>
<feColorMatrix in="SourceAlpha" type="matrix" values="0 0 0 0 0 0 0 0 0 0 0 0 0 0 0 0 0 0 127 0" result="hardAlpha"/>
<feOffset dx="1" dy="1"/>
<feGaussianBlur stdDeviation="2"/>
<feComposite in2="hardAlpha" operator="out"/>
<feColorMatrix type="matrix" values="0 0 0 0 0 0 0 0 0 0 0 0 0 0 0 0 0 0 0.25 0"/>
<feBlend mode="normal" in2="BackgroundImageFix" result="effect1_dropShadow_4472_2567"/>
<feBlend mode="normal" in="SourceGraphic" in2="effect1_dropShadow_4472_2567" result="shape"/>
</filter>
<filter id="filter1_d_4472_2567" x="617" y="241" width="258" height="258" filterUnits="userSpaceOnUse" color-interpolation-filters="sRGB">
<feFlood flood-opacity="0" result="BackgroundImageFix"/>
<feColorMatrix in="SourceAlpha" type="matrix" values="0 0 0 0 0 0 0 0 0 0 0 0 0 0 0 0 0 0 127 0" result="hardAlpha"/>
<feOffset dx="1" dy="1"/>
<feGaussianBlur stdDeviation="2"/>
<feComposite in2="hardAlpha" operator="out"/>
<feColorMatrix type="matrix" values="0 0 0 0 0 0 0 0 0 0 0 0 0 0 0 0 0 0 0.25 0"/>
<feBlend mode="normal" in2="BackgroundImageFix" result="effect1_dropShadow_4472_2567"/>
<feBlend mode="normal" in="SourceGraphic" in2="effect1_dropShadow_4472_2567" result="shape"/>
</filter>
<clipPath id="clip0_4472_2567">
<rect width="900" height="524" fill="white"/>
</clipPath>
<clipPath id="clip1_4472_2567">
<rect width="459" height="159" fill="white" transform="translate(60 71)"/>
</clipPath>
<clipPath id="clip2_4472_2567">
<rect x="620" y="244" width="250" height="250" rx="8" fill="white"/>
</clipPath>
<clipPath id="clip3_4472_2567">
<rect width="220" height="220" fill="white" transform="translate(635 259)"/>
</clipPath>
</defs>
</svg>
