<svg width="794" height="40" viewBox="0 0 794 40" fill="none" xmlns="http://www.w3.org/2000/svg">
<g clip-path="url(#clip0_4304_12823)">
<g clip-path="url(#clip1_4304_12823)">
<path d="M794 33L0 33L0 480L794 480V33Z" fill="white"/>
<path d="M794 33L0 33L0 480L794 480V33Z" fill="#0D8E5B"/>
<path d="M0 33L0 480H403.865L138.206 33L0 33Z" fill="#FF9600"/>
<path d="M794 33L557.496 33V124.718L794 124.718V33Z" fill="#FF9600"/>
<mask id="mask0_4304_12823" style="mask-type:luminance" maskUnits="userSpaceOnUse" x="0" y="33" width="794" height="447">
<path d="M794 33L0 33L0 480L794 480V33Z" fill="white"/>
</mask>
<g mask="url(#mask0_4304_12823)">
<path d="M485.787 -124.692C401.673 -124.692 333.521 -56.4414 333.521 27.7023C333.521 111.846 401.714 180.096 485.787 180.096H557.496V-124.692H485.787Z" fill="#DE4A00"/>
</g>
</g>
<g clip-path="url(#clip2_4304_12823)">
<path d="M102.275 22.441L107.567 17.887C107.994 17.5218 108.507 17.1254 109.067 17.2187C109.447 17.2809 109.751 17.5684 110.03 17.8326C113.147 20.8246 116.263 23.8165 119.379 26.8163C119.931 27.3447 120.522 27.8965 121.268 28.0364C121.99 28.1685 122.713 27.8965 123.405 27.6556C127.259 26.3034 131.386 25.7438 135.458 26.0236C136.072 26.0624 136.701 26.1246 137.284 25.9536C138.007 25.7438 138.59 25.2154 139.142 24.7102C141.286 22.7286 143.439 20.7469 145.584 18.7652C146.47 17.9492 147.395 17.1099 148.537 16.7291C151.482 15.7499 154.381 18.0735 156.806 20.0086C159.557 22.2001 162.619 24.1196 166.054 24.8967C170.74 25.9536 175.9 24.6714 179.545 21.5395C181.977 19.4491 183.718 16.6436 186.189 14.6075C190.215 17.2265 194.668 20.5526 194.924 25.3475C194.963 26.0469 194.877 26.8085 194.38 27.2981C193.867 27.8032 193.074 27.8654 192.352 27.8965C177.773 28.5026 163.17 28.4016 148.607 27.5778C141.667 27.1893 134.689 26.6375 127.803 27.5623C124.959 27.9431 122.146 28.5803 119.286 28.8446C116.146 29.1321 112.991 28.9767 109.844 28.8213C105.904 28.627 95.9176 27.9042 102.267 22.4488" fill="#E05625"/>
<path d="M161.717 2.81844C160.466 2.81844 159.984 4.38824 160.979 5.14206C160.994 5.1576 161.01 5.16537 161.025 5.18092C163.194 6.85952 164.219 9.86701 166.691 11.056C168.61 11.9808 170.957 11.5145 172.807 10.4654C174.656 9.41628 176.148 7.8387 177.703 6.3777C178.651 5.49177 179.63 4.65247 180.648 3.84425C181.075 3.50231 180.835 2.81067 180.283 2.81067H161.717V2.81844Z" fill="#118D45"/>
<path d="M141.426 2.81848H122.216C121.345 2.81848 120.825 3.76658 121.275 4.50485C124.516 9.78934 127.764 16.4804 130.461 16.224C131.207 16.154 131.223 15.6178 133.282 12.9134C137.106 7.90868 138.769 7.00721 141.994 4.43491C142.662 3.89869 142.289 2.81848 141.426 2.81848Z" fill="#118D45"/>
<path d="M145.732 17.0011C146.175 16.5504 146.524 15.9676 147.177 15.781C147.581 16.0453 147.97 16.2862 148.343 16.5426C151.98 19.0683 155.593 21.6173 159.246 24.1196C159.844 24.5315 160.668 25.1921 161.274 24.2362C161.818 23.3814 161.142 22.8762 160.435 22.3866C156.262 19.5113 152.096 16.6048 147.962 13.6672C147.154 13.0922 146.672 13.2165 145.98 13.9082C142.802 17.0633 139.577 20.1874 136.297 23.2337C135.559 23.9254 134.813 24.5626 135.505 25.4796C136.359 26.6142 137.152 25.6195 137.758 25.0211C140.447 22.3711 143.074 19.6667 145.732 16.9934" fill="black"/>
<path d="M108.6 18.0425C111.274 21.0578 114.126 23.9176 116.916 26.8318C117.444 27.3836 117.848 28.5804 118.858 27.6245C119.651 26.8707 119.068 26.0469 118.47 25.4097C115.392 22.1302 112.323 18.8585 109.214 15.6101C108.313 14.6697 107.458 14.4133 106.214 15.4313C102.632 18.3533 99.6167 21.9126 95.8087 24.5704C95.5212 24.7724 95.3813 25.1999 95.257 25.3864C95.1637 26.078 95.4202 26.4666 95.8243 26.6997C96.3838 27.0261 96.8345 26.6453 97.2153 26.2956C100.184 23.5757 103.153 20.8402 106.098 18.0969C106.937 17.312 107.536 16.8457 108.6 18.0425Z" fill="black"/>
<path d="M125.736 11.297C123.747 8.97341 121.78 6.63425 119.791 4.31063C119.426 3.88321 119.092 3.28482 118.369 3.55682C117.887 3.73556 117.833 4.264 117.561 4.73805C117.693 4.96342 117.825 5.25873 118.019 5.49187C120.895 8.93456 123.785 12.3695 126.669 15.8122C127.166 16.4028 127.702 16.6126 128.316 16.0064C131.518 12.8824 134.727 9.75831 137.914 6.61094C138.372 6.1602 138.846 5.57735 138.186 4.93234C137.517 4.27955 137.004 4.77691 136.53 5.25096C134.549 7.2171 132.482 9.12107 130.609 11.1882C128.122 13.9315 128.044 14.0014 125.728 11.3048" fill="black"/>
<path d="M186.469 17.2808C188.676 19.3091 190.875 21.3374 193.082 23.358C193.517 23.7543 193.96 24.1351 194.636 23.8942C195.095 23.731 195.188 23.3891 195.204 22.9772C195.328 22.4798 195.149 22.0913 194.776 21.7649C191.559 18.9206 188.388 16.0296 185.109 13.2553C184.277 12.5559 183.353 12.3849 182.257 13.4884C179.311 16.426 177.151 20.0863 173.716 22.5653C173.11 23.0005 172.784 23.7932 173.436 24.4382C174.074 25.0832 174.571 24.446 175.092 24.0574C177.493 22.2933 179.218 19.9231 181.021 17.6228C183.422 14.5609 183.384 14.5376 186.174 17.0244C186.267 17.1099 186.368 17.1953 186.461 17.2886" fill="black"/>
<path d="M159.774 3.96088C159.285 3.51014 158.694 3.02832 158.104 3.81322C157.676 4.3883 157.552 4.99446 158.181 5.57731C161.181 8.37497 164.15 11.2037 167.165 13.9781C167.748 14.5143 168.439 14.864 169.271 14.1724C172.107 11.8099 174.983 9.49404 177.858 7.17042C178.379 6.75077 178.931 6.37775 179.001 5.56176C179.086 5.25091 178.923 4.98669 178.604 4.80795C178.029 4.47378 177.578 4.82349 177.167 5.14211C174.82 6.97614 172.434 8.76354 170.18 10.7064C168.929 11.7866 168.051 11.7322 166.893 10.5898C164.585 8.3128 162.168 6.14461 159.774 3.9531" fill="black"/>
<path d="M94.1457 7.559L88.8535 12.113C88.4261 12.4782 87.9131 12.8746 87.3536 12.7813C86.9728 12.7191 86.6697 12.4316 86.39 12.1674C83.2737 9.17543 80.1574 6.18348 77.0411 3.18376C76.4893 2.65531 75.8987 2.10355 75.1527 1.96366C74.4299 1.83155 73.7072 2.10355 73.0156 2.34446C69.161 3.69666 65.0344 4.2562 60.9623 3.97643C60.3483 3.93757 59.7189 3.8754 59.136 4.04637C58.4133 4.2562 57.8304 4.78465 57.2787 5.28978C55.1338 7.27146 52.9811 9.25315 50.8363 11.2348C49.9503 12.0508 49.0255 12.8901 47.8832 13.2709C44.9378 14.2501 42.0391 11.9265 39.6145 9.99142C36.8635 7.79991 33.8016 5.8804 30.3667 5.10327C25.6806 4.04637 20.5204 5.32864 16.8757 8.46047C14.4433 10.551 12.7025 13.3564 10.2312 15.3925C6.20568 12.7735 1.75272 9.44743 1.49627 4.65253C1.45741 3.95312 1.5429 3.19153 2.04026 2.70194C2.55317 2.1968 3.34584 2.13463 4.06857 2.10355C18.6475 1.49739 33.2498 1.59841 47.8132 2.42217C54.753 2.81074 61.7316 3.3625 68.617 2.43771C71.4613 2.05692 74.2745 1.41967 77.1344 1.15545C80.274 0.86791 83.4291 1.02334 86.5765 1.17876C90.5165 1.37304 100.503 2.09578 94.1535 7.55123" fill="#E05625"/>
<path d="M34.7108 27.1815C35.962 27.1815 36.4438 25.6117 35.4491 24.8579C35.4335 24.8423 35.418 24.8346 35.4025 24.819C33.2343 23.1404 32.2085 20.1329 29.7372 18.9439C27.8177 18.0191 25.4707 18.4854 23.6212 19.5345C21.7716 20.5837 20.2795 22.1612 18.7252 23.6222C17.7771 24.5082 16.798 25.3475 15.7799 26.1557C15.3525 26.4976 15.5934 27.1893 16.1452 27.1893H34.7108V27.1815Z" fill="#118D45"/>
<path d="M55.0016 27.1816H74.2123C75.0827 27.1816 75.6033 26.2335 75.1526 25.4952C71.912 20.2107 68.6636 13.5196 65.9669 13.7761C65.2209 13.846 65.2053 14.3822 63.1459 17.0866C59.3225 22.0914 57.6594 22.9928 54.4343 25.5651C53.766 26.1014 54.139 27.1816 55.0016 27.1816Z" fill="#118D45"/>
<path d="M205.757 19.4413C203.2 17.7705 200.853 15.8587 198.569 13.8615L198.475 13.947L198.561 13.8537C197.481 12.3694 195.958 11.4058 194.504 10.3333C191.784 8.32833 189.329 6.01248 186.881 3.68109C185.171 2.05689 184.681 2.09574 182.987 3.65778C181.697 4.84678 180.283 5.91145 179.102 7.18595C178.169 8.18844 176.731 8.71689 176.242 10.1468C174.82 10.7996 173.654 11.771 172.628 12.9523C171.183 14.6309 169.667 16.2395 167.989 17.7161C167.087 18.5087 166.512 18.4466 165.688 17.7005C164.235 16.3949 162.743 15.1204 161.204 13.9081C157.016 10.5975 152.469 7.7144 148.933 3.62669C148.358 2.96613 147.853 3.15264 147.239 3.57229C145.133 5.01775 143.377 6.86732 141.457 8.53038C136.756 12.587 132.722 17.3275 128.207 21.5784C127.57 22.1768 127.228 22.4566 126.568 21.5939C124.073 18.3378 121.275 15.3225 118.602 12.2217C116.216 9.45517 114.048 6.50207 111.748 3.65778C109.867 1.31861 109.478 1.27199 107.334 3.43241C104.831 5.95031 98.995 11.3047 98.995 11.3047C95.5523 14.8718 92.1096 18.4388 88.3017 21.625C87.8276 22.0214 87.5168 22.6819 86.7863 21.7882C85.232 19.8687 83.5379 18.058 81.9292 16.1773C78.1679 11.7632 74.9195 6.93726 70.9406 2.69413C69.8604 1.54398 69.0755 1.46627 68.1274 2.71745C66.542 4.80793 64.5137 6.47099 62.6797 8.32056C58.8795 12.1751 55.0561 15.9908 51.2637 19.8532C50.3622 20.7702 49.6161 20.6925 48.5826 19.9931C42.6531 15.9675 36.9101 11.6855 31.4002 7.12378C29.7216 5.73271 28.6802 5.99694 27.4835 7.34914C23.0771 12.3539 17.544 16.154 12.9822 20.98C12.3761 21.6173 11.9953 21.6095 11.2492 20.9878C8.38938 18.6253 5.42074 16.4027 2.49873 14.1257C1.70606 13.0533 0.680246 12.2295 -0.361109 11.4135C-0.493221 11.297 -0.617561 11.1726 -0.749674 11.0561L-0.897328 10.9084C-1.80657 9.99139 -2.76244 9.121 -3.59397 8.13405C-4.79852 6.70413 -6.2673 5.75603 -7.98476 5.06438C-8.97948 4.66027 -9.63227 4.69136 -10.3161 5.60837C-11.4663 7.1704 -11.1865 9.33083 -9.32919 10.5509C-6.77243 12.2218 -4.4255 14.1335 -2.14074 16.1307L-2.04748 16.0452L-2.13297 16.1385C-1.05275 17.6228 0.470421 18.5864 1.92365 19.6589C4.64361 21.6639 7.09934 23.9797 9.5473 26.3111C11.257 27.9353 11.7466 27.8965 13.4407 26.3344C14.7308 25.1454 16.1451 24.0808 17.3264 22.8063C18.2589 21.796 19.6966 21.2753 20.1862 19.8454C21.6084 19.1926 22.7741 18.2212 23.7999 17.04C25.2453 15.3614 26.7607 13.7527 28.4393 12.2761C29.3408 11.4835 29.9159 11.5456 30.7396 12.2917C32.1929 13.5973 33.685 14.8718 35.2237 16.0841C39.4124 19.3947 43.9586 22.2778 47.4946 26.3655C48.0696 27.0261 48.5748 26.8396 49.1887 26.4199C51.2947 24.9745 53.0511 23.1249 54.9706 21.4618C59.6722 17.3974 63.7055 12.6647 68.2206 8.41381C68.8579 7.81542 69.1998 7.53566 69.8604 8.39827C72.355 11.6544 75.1526 14.6619 77.826 17.7705C80.2118 20.537 82.38 23.4901 84.6803 26.3344C86.5609 28.6736 86.9495 28.7202 89.0944 26.5598C91.5967 24.0419 97.433 18.6875 97.433 18.6875C100.876 15.1204 104.318 11.5534 108.126 8.36718C108.6 7.97085 108.911 7.31029 109.642 8.20399C111.196 10.1235 112.89 11.9342 114.499 13.8149C118.26 18.229 121.508 23.0549 125.487 27.2981C126.568 28.4482 127.352 28.5259 128.301 27.2748C129.886 25.1843 131.914 23.5212 133.748 21.6717C137.548 17.8171 141.372 14.0014 145.164 10.139C146.066 9.22203 146.812 9.29974 147.845 9.99916C153.775 14.0247 159.518 18.3067 165.028 22.8684C166.706 24.2595 167.748 23.9953 168.944 22.6431C173.351 17.6383 178.884 13.8382 183.446 9.0122C184.052 8.37496 184.433 8.38273 185.179 9.00443C188.039 11.3669 191.007 13.5895 193.929 15.8665C194.722 16.9389 195.748 17.7627 196.789 18.5787C196.921 18.6952 197.046 18.8196 197.178 18.9362L197.325 19.0838C198.235 20.0008 199.19 20.8712 200.022 21.8582C201.226 23.2881 202.695 24.2362 204.413 24.9278C205.407 25.3319 206.06 25.3008 206.744 24.3838C207.894 22.8218 207.614 20.6614 205.757 19.4413Z" fill="black"/>
<path d="M50.6964 12.999C50.2534 13.4497 49.9037 14.0325 49.2509 14.219C48.8468 13.9548 48.4583 13.7139 48.0852 13.4575C44.4483 10.9318 40.8346 8.3828 37.1821 5.88044C36.5837 5.46856 35.76 4.808 35.1538 5.76387C34.6098 6.61871 35.2859 7.12385 35.9931 7.61344C40.1663 10.4888 44.3317 13.3953 48.466 16.3328C49.2742 16.9079 49.7561 16.7836 50.4477 16.0919C53.6262 12.9368 56.8513 9.81272 60.1308 6.76637C60.869 6.07472 61.6151 5.43747 60.9234 4.52046C60.0686 3.38585 59.2759 4.38058 58.6698 4.97897C55.9809 7.62898 53.3542 10.3334 50.6964 13.0067" fill="black"/>
<path d="M87.8277 11.9575C85.1544 8.94226 82.3023 6.08242 79.5124 3.16818C78.9839 2.61642 78.5798 1.41964 77.5696 2.37551C76.7769 3.12932 77.3597 3.95308 77.9581 4.59033C81.0356 7.86982 84.1052 11.1415 87.2138 14.3899C88.1152 15.3303 88.9701 15.5867 90.2135 14.5687C93.7961 11.6467 96.8113 8.08742 100.619 5.42963C100.907 5.22758 101.047 4.80015 101.171 4.61364C101.264 3.922 101.008 3.53343 100.604 3.30029C100.044 2.9739 99.5934 3.35469 99.2127 3.7044C96.244 6.42436 93.2754 9.15985 90.33 11.9031C89.4907 12.688 88.8924 13.1543 87.8277 11.9575Z" fill="black"/>
<path d="M70.6842 18.703C72.6736 21.0266 74.6398 23.3658 76.6292 25.6894C76.9945 26.1168 77.3286 26.7152 78.0514 26.4432C78.5332 26.2645 78.5876 25.736 78.8596 25.262C78.7275 25.0366 78.5954 24.7413 78.4011 24.5082C75.5257 21.0655 72.6348 17.6306 69.7516 14.1879C69.2543 13.5973 68.718 13.3874 68.1041 13.9936C64.9023 17.1177 61.6928 20.2417 58.5066 23.3891C58.048 23.8398 57.574 24.4227 58.2346 25.0677C58.9029 25.7205 59.4158 25.2231 59.8898 24.7491C61.8715 22.7829 63.9387 20.879 65.8116 18.8118C68.2984 16.0685 68.3761 15.9986 70.692 18.6952" fill="black"/>
<path d="M9.95919 12.7191C7.75214 10.6908 5.55287 8.66244 3.34582 6.64191C2.91062 6.24557 2.46766 5.86478 1.79156 6.10569C1.33305 6.26888 1.23979 6.61082 1.22425 7.0227C1.09991 7.52006 1.27865 7.90863 1.65167 8.23502C4.86899 11.0793 8.03968 13.9702 11.3192 16.7446C12.1507 17.444 13.0755 17.615 14.1712 16.5115C17.1166 13.5739 19.277 9.91362 22.7119 7.43458C23.3181 6.99939 23.6445 6.20671 22.9917 5.56169C22.3544 4.91668 21.8571 5.55392 21.3364 5.94249C18.935 7.70657 17.2098 10.0768 15.4069 12.3771C13.0055 15.439 13.0444 15.4623 10.2545 12.9755C10.1612 12.89 10.0602 12.8045 9.96697 12.7113" fill="black"/>
<path d="M36.6536 26.0391C37.1432 26.4898 37.7339 26.9717 38.3245 26.1868C38.7519 25.6117 38.8762 25.0055 38.2468 24.4227C35.247 21.625 32.2784 18.7962 29.2631 16.0219C28.6803 15.4857 27.9886 15.136 27.1571 15.8276C24.3206 18.1901 21.4452 20.5059 18.5698 22.8296C18.0491 23.2492 17.4974 23.6222 17.4274 24.4382C17.342 24.7491 17.5052 25.0133 17.8238 25.192C18.3989 25.5262 18.8496 25.1765 19.2615 24.8579C21.6084 23.0238 23.9942 21.2364 26.2479 19.2936C27.4991 18.2134 28.3772 18.2678 29.5351 19.4102C31.8432 21.6872 34.2601 23.8554 36.6536 26.0469" fill="black"/>
</g>
<g clip-path="url(#clip3_4304_12823)">
<path d="M297.703 22.441L302.995 17.887C303.422 17.5218 303.935 17.1254 304.495 17.2187C304.875 17.2809 305.179 17.5684 305.458 17.8326C308.575 20.8246 311.691 23.8165 314.807 26.8163C315.359 27.3447 315.95 27.8965 316.696 28.0364C317.418 28.1685 318.141 27.8965 318.833 27.6556C322.687 26.3034 326.814 25.7438 330.886 26.0236C331.5 26.0624 332.129 26.1246 332.712 25.9536C333.435 25.7438 334.018 25.2154 334.57 24.7102C336.714 22.7286 338.867 20.7469 341.012 18.7652C341.898 17.9492 342.823 17.1099 343.965 16.7291C346.91 15.7499 349.809 18.0735 352.234 20.0086C354.985 22.2001 358.047 24.1196 361.482 24.8967C366.168 25.9536 371.328 24.6714 374.973 21.5395C377.405 19.4491 379.146 16.6436 381.617 14.6075C385.643 17.2265 390.096 20.5526 390.352 25.3475C390.391 26.0469 390.305 26.8085 389.808 27.2981C389.295 27.8032 388.502 27.8654 387.78 27.8965C373.201 28.5026 358.598 28.4016 344.035 27.5778C337.095 27.1893 330.117 26.6375 323.231 27.5623C320.387 27.9431 317.574 28.5803 314.714 28.8446C311.574 29.1321 308.419 28.9767 305.272 28.8213C301.332 28.627 291.346 27.9042 297.695 22.4488" fill="#E05625"/>
<path d="M357.145 2.81844C355.894 2.81844 355.412 4.38824 356.407 5.14206C356.422 5.1576 356.438 5.16537 356.453 5.18092C358.622 6.85952 359.647 9.86701 362.119 11.056C364.038 11.9808 366.385 11.5145 368.235 10.4654C370.084 9.41628 371.576 7.8387 373.131 6.3777C374.079 5.49177 375.058 4.65247 376.076 3.84425C376.503 3.50231 376.263 2.81067 375.711 2.81067H357.145V2.81844Z" fill="#118D45"/>
<path d="M336.854 2.81848H317.644C316.773 2.81848 316.253 3.76658 316.703 4.50485C319.944 9.78934 323.192 16.4804 325.889 16.224C326.635 16.154 326.651 15.6178 328.71 12.9134C332.533 7.90868 334.197 7.00721 337.422 4.43491C338.09 3.89869 337.717 2.81848 336.854 2.81848Z" fill="#118D45"/>
<path d="M341.16 17.0011C341.603 16.5504 341.952 15.9676 342.605 15.781C343.009 16.0453 343.398 16.2862 343.771 16.5426C347.408 19.0683 351.021 21.6173 354.674 24.1196C355.272 24.5315 356.096 25.1921 356.702 24.2362C357.246 23.3814 356.57 22.8762 355.863 22.3866C351.69 19.5113 347.524 16.6048 343.39 13.6672C342.582 13.0922 342.1 13.2165 341.408 13.9082C338.23 17.0633 335.005 20.1874 331.725 23.2337C330.987 23.9254 330.241 24.5626 330.933 25.4796C331.787 26.6142 332.58 25.6195 333.186 25.0211C335.875 22.3711 338.502 19.6667 341.16 16.9934" fill="black"/>
<path d="M304.028 18.0425C306.702 21.0578 309.554 23.9176 312.344 26.8318C312.872 27.3836 313.276 28.5804 314.286 27.6245C315.079 26.8707 314.496 26.0469 313.898 25.4097C310.82 22.1302 307.751 18.8585 304.642 15.6101C303.741 14.6697 302.886 14.4133 301.642 15.4313C298.06 18.3533 295.045 21.9126 291.237 24.5704C290.949 24.7724 290.809 25.1999 290.685 25.3864C290.592 26.078 290.848 26.4666 291.252 26.6997C291.812 27.0261 292.263 26.6453 292.643 26.2956C295.612 23.5757 298.581 20.8402 301.526 18.0969C302.365 17.312 302.964 16.8457 304.028 18.0425Z" fill="black"/>
<path d="M321.164 11.297C319.175 8.97341 317.208 6.63425 315.219 4.31063C314.854 3.88321 314.52 3.28482 313.797 3.55682C313.315 3.73556 313.261 4.264 312.989 4.73805C313.121 4.96342 313.253 5.25873 313.447 5.49187C316.323 8.93456 319.213 12.3695 322.097 15.8122C322.594 16.4028 323.13 16.6126 323.744 16.0064C326.946 12.8824 330.155 9.75831 333.342 6.61094C333.8 6.1602 334.274 5.57735 333.614 4.93234C332.945 4.27955 332.432 4.77691 331.958 5.25096C329.977 7.2171 327.91 9.12107 326.037 11.1882C323.55 13.9315 323.472 14.0014 321.156 11.3048" fill="black"/>
<path d="M381.897 17.2808C384.104 19.3091 386.303 21.3374 388.51 23.358C388.945 23.7543 389.388 24.1351 390.064 23.8942C390.523 23.731 390.616 23.3891 390.632 22.9772C390.756 22.4798 390.577 22.0913 390.204 21.7649C386.987 18.9206 383.816 16.0296 380.537 13.2553C379.705 12.5559 378.781 12.3849 377.685 13.4884C374.739 16.426 372.579 20.0863 369.144 22.5653C368.538 23.0005 368.212 23.7932 368.864 24.4382C369.502 25.0832 369.999 24.446 370.52 24.0574C372.921 22.2933 374.646 19.9231 376.449 17.6228C378.85 14.5609 378.812 14.5376 381.601 17.0244C381.695 17.1099 381.796 17.1953 381.889 17.2886" fill="black"/>
<path d="M355.202 3.96088C354.713 3.51014 354.122 3.02832 353.532 3.81322C353.104 4.3883 352.98 4.99446 353.609 5.57731C356.609 8.37497 359.578 11.2037 362.593 13.9781C363.176 14.5143 363.867 14.864 364.699 14.1724C367.535 11.8099 370.411 9.49404 373.286 7.17042C373.807 6.75077 374.359 6.37775 374.429 5.56176C374.514 5.25091 374.351 4.98669 374.032 4.80795C373.457 4.47378 373.006 4.82349 372.595 5.14211C370.248 6.97614 367.862 8.76354 365.608 10.7064C364.357 11.7866 363.479 11.7322 362.321 10.5898C360.013 8.3128 357.596 6.14461 355.202 3.9531" fill="black"/>
<path d="M289.574 7.559L284.281 12.113C283.854 12.4782 283.341 12.8746 282.782 12.7813C282.401 12.7191 282.098 12.4316 281.818 12.1674C278.702 9.17543 275.585 6.18348 272.469 3.18376C271.917 2.65531 271.327 2.10355 270.581 1.96366C269.858 1.83155 269.135 2.10355 268.444 2.34446C264.589 3.69666 260.462 4.2562 256.39 3.97643C255.776 3.93757 255.147 3.8754 254.564 4.04637C253.841 4.2562 253.258 4.78465 252.707 5.28978C250.562 7.27146 248.409 9.25315 246.264 11.2348C245.378 12.0508 244.454 12.8901 243.311 13.2709C240.366 14.2501 237.467 11.9265 235.042 9.99142C232.291 7.79991 229.23 5.8804 225.795 5.10327C221.109 4.04637 215.948 5.32864 212.304 8.46047C209.871 10.551 208.13 13.3564 205.659 15.3925C201.634 12.7735 197.181 9.44743 196.924 4.65253C196.885 3.95312 196.971 3.19153 197.468 2.70194C197.981 2.1968 198.774 2.13463 199.497 2.10355C214.076 1.49739 228.678 1.59841 243.241 2.42217C250.181 2.81074 257.16 3.3625 264.045 2.43771C266.889 2.05692 269.702 1.41967 272.562 1.15545C275.702 0.86791 278.857 1.02334 282.004 1.17876C285.945 1.37304 295.931 2.09578 289.581 7.55123" fill="#E05625"/>
<path d="M230.139 27.1815C231.39 27.1815 231.872 25.6117 230.877 24.8579C230.862 24.8423 230.846 24.8346 230.83 24.819C228.662 23.1404 227.636 20.1329 225.165 18.9439C223.246 18.0191 220.899 18.4854 219.049 19.5345C217.2 20.5837 215.707 22.1612 214.153 23.6222C213.205 24.5082 212.226 25.3475 211.208 26.1557C210.78 26.4976 211.021 27.1893 211.573 27.1893H230.139V27.1815Z" fill="#118D45"/>
<path d="M250.43 27.1816H269.64C270.511 27.1816 271.031 26.2335 270.581 25.4952C267.34 20.2107 264.092 13.5196 261.395 13.7761C260.649 13.846 260.633 14.3822 258.574 17.0866C254.75 22.0914 253.087 22.9928 249.862 25.5651C249.194 26.1014 249.567 27.1816 250.43 27.1816Z" fill="#118D45"/>
<path d="M401.185 19.4413C398.628 17.7705 396.281 15.8587 393.997 13.8615L393.903 13.947L393.989 13.8537C392.909 12.3694 391.386 11.4058 389.932 10.3333C387.212 8.32833 384.757 6.01248 382.309 3.68109C380.599 2.05689 380.109 2.09574 378.415 3.65778C377.125 4.84678 375.711 5.91145 374.53 7.18595C373.597 8.18844 372.159 8.71689 371.67 10.1468C370.248 10.7996 369.082 11.771 368.056 12.9523C366.611 14.6309 365.095 16.2395 363.417 17.7161C362.515 18.5087 361.94 18.4466 361.116 17.7005C359.663 16.3949 358.171 15.1204 356.632 13.9081C352.444 10.5975 347.897 7.7144 344.361 3.62669C343.786 2.96613 343.281 3.15264 342.667 3.57229C340.561 5.01775 338.805 6.86732 336.885 8.53038C332.184 12.587 328.15 17.3275 323.635 21.5784C322.998 22.1768 322.656 22.4566 321.996 21.5939C319.501 18.3378 316.703 15.3225 314.03 12.2217C311.644 9.45517 309.476 6.50207 307.176 3.65778C305.295 1.31861 304.907 1.27199 302.762 3.43241C300.259 5.95031 294.423 11.3047 294.423 11.3047C290.98 14.8718 287.538 18.4388 283.73 21.625C283.256 22.0214 282.945 22.6819 282.214 21.7882C280.66 19.8687 278.966 18.058 277.357 16.1773C273.596 11.7632 270.348 6.93726 266.369 2.69413C265.288 1.54398 264.504 1.46627 263.555 2.71745C261.97 4.80793 259.942 6.47099 258.108 8.32056C254.308 12.1751 250.484 15.9908 246.692 19.8532C245.79 20.7702 245.044 20.6925 244.011 19.9931C238.081 15.9675 232.338 11.6855 226.828 7.12378C225.15 5.73271 224.108 5.99694 222.912 7.34914C218.505 12.3539 212.972 16.154 208.41 20.98C207.804 21.6173 207.423 21.6095 206.677 20.9878C203.817 18.6253 200.849 16.4027 197.927 14.1257C197.134 13.0533 196.108 12.2295 195.067 11.4135C194.935 11.297 194.81 11.1726 194.678 11.0561L194.531 10.9084C193.621 9.99139 192.666 9.121 191.834 8.13405C190.63 6.70413 189.161 5.75603 187.443 5.06438C186.449 4.66027 185.796 4.69136 185.112 5.60837C183.962 7.1704 184.242 9.33083 186.099 10.5509C188.656 12.2218 191.003 14.1335 193.287 16.1307L193.381 16.0452L193.295 16.1385C194.375 17.6228 195.898 18.5864 197.352 19.6589C200.072 21.6639 202.527 23.9797 204.975 26.3111C206.685 27.9353 207.175 27.8965 208.869 26.3344C210.159 25.1454 211.573 24.0808 212.754 22.8063C213.687 21.796 215.125 21.2753 215.614 19.8454C217.036 19.1926 218.202 18.2212 219.228 17.04C220.673 15.3614 222.189 13.7527 223.867 12.2761C224.769 11.4835 225.344 11.5456 226.168 12.2917C227.621 13.5973 229.113 14.8718 230.652 16.0841C234.84 19.3947 239.387 22.2778 242.923 26.3655C243.498 27.0261 244.003 26.8396 244.617 26.4199C246.723 24.9745 248.479 23.1249 250.399 21.4618C255.1 17.3974 259.134 12.6647 263.649 8.41381C264.286 7.81542 264.628 7.53566 265.288 8.39827C267.783 11.6544 270.581 14.6619 273.254 17.7705C275.64 20.537 277.808 23.4901 280.108 26.3344C281.989 28.6736 282.378 28.7202 284.522 26.5598C287.025 24.0419 292.861 18.6875 292.861 18.6875C296.304 15.1204 299.746 11.5534 303.554 8.36718C304.028 7.97085 304.339 7.31029 305.07 8.20399C306.624 10.1235 308.318 11.9342 309.927 13.8149C313.688 18.229 316.937 23.0549 320.915 27.2981C321.996 28.4482 322.781 28.5259 323.729 27.2748C325.314 25.1843 327.342 23.5212 329.176 21.6717C332.976 17.8171 336.8 14.0014 340.592 10.139C341.494 9.22203 342.24 9.29974 343.273 9.99916C349.203 14.0247 354.946 18.3067 360.456 22.8684C362.134 24.2595 363.176 23.9953 364.373 22.6431C368.779 17.6383 374.312 13.8382 378.874 9.0122C379.48 8.37496 379.861 8.38273 380.607 9.00443C383.467 11.3669 386.435 13.5895 389.357 15.8665C390.15 16.9389 391.176 17.7627 392.217 18.5787C392.349 18.6952 392.474 18.8196 392.606 18.9362L392.753 19.0838C393.663 20.0008 394.618 20.8712 395.45 21.8582C396.655 23.2881 398.123 24.2362 399.841 24.9278C400.835 25.3319 401.488 25.3008 402.172 24.3838C403.322 22.8218 403.043 20.6614 401.185 19.4413Z" fill="black"/>
<path d="M246.124 12.999C245.681 13.4497 245.332 14.0325 244.679 14.219C244.275 13.9548 243.886 13.7139 243.513 13.4575C239.876 10.9318 236.263 8.3828 232.61 5.88044C232.012 5.46856 231.188 4.808 230.582 5.76387C230.038 6.61871 230.714 7.12385 231.421 7.61344C235.594 10.4888 239.76 13.3953 243.894 16.3328C244.702 16.9079 245.184 16.7836 245.876 16.0919C249.054 12.9368 252.279 9.81272 255.559 6.76637C256.297 6.07472 257.043 5.43747 256.351 4.52046C255.497 3.38585 254.704 4.38058 254.098 4.97897C251.409 7.62898 248.782 10.3334 246.124 13.0067" fill="black"/>
<path d="M283.256 11.9575C280.582 8.94226 277.73 6.08242 274.94 3.16818C274.412 2.61642 274.008 1.41964 272.998 2.37551C272.205 3.12932 272.788 3.95308 273.386 4.59033C276.464 7.86982 279.533 11.1415 282.642 14.3899C283.543 15.3303 284.398 15.5867 285.641 14.5687C289.224 11.6467 292.239 8.08742 296.047 5.42963C296.335 5.22758 296.475 4.80015 296.599 4.61364C296.692 3.922 296.436 3.53343 296.032 3.30029C295.472 2.9739 295.021 3.35469 294.641 3.7044C291.672 6.42436 288.703 9.15985 285.758 11.9031C284.919 12.688 284.32 13.1543 283.256 11.9575Z" fill="black"/>
<path d="M266.112 18.703C268.102 21.0266 270.068 23.3658 272.057 25.6894C272.422 26.1168 272.757 26.7152 273.479 26.4432C273.961 26.2645 274.016 25.736 274.288 25.262C274.155 25.0366 274.023 24.7413 273.829 24.5082C270.954 21.0655 268.063 17.6306 265.18 14.1879C264.682 13.5973 264.146 13.3874 263.532 13.9936C260.33 17.1177 257.121 20.2417 253.935 23.3891C253.476 23.8398 253.002 24.4227 253.663 25.0677C254.331 25.7205 254.844 25.2231 255.318 24.7491C257.3 22.7829 259.367 20.879 261.24 18.8118C263.726 16.0685 263.804 15.9986 266.12 18.6952" fill="black"/>
<path d="M205.387 12.7191C203.18 10.6908 200.981 8.66244 198.774 6.64191C198.339 6.24557 197.896 5.86478 197.22 6.10569C196.761 6.26888 196.668 6.61082 196.652 7.0227C196.528 7.52006 196.707 7.90863 197.08 8.23502C200.297 11.0793 203.468 13.9702 206.747 16.7446C207.579 17.444 208.504 17.615 209.599 16.5115C212.545 13.5739 214.705 9.91362 218.14 7.43458C218.746 6.99939 219.072 6.20671 218.42 5.56169C217.782 4.91668 217.285 5.55392 216.764 5.94249C214.363 7.70657 212.638 10.0768 210.835 12.3771C208.434 15.439 208.472 15.4623 205.683 12.9755C205.589 12.89 205.488 12.8045 205.395 12.7113" fill="black"/>
<path d="M232.082 26.0391C232.571 26.4898 233.162 26.9717 233.752 26.1868C234.18 25.6117 234.304 25.0055 233.675 24.4227C230.675 21.625 227.706 18.7962 224.691 16.0219C224.108 15.4857 223.417 15.136 222.585 15.8276C219.749 18.1901 216.873 20.5059 213.998 22.8296C213.477 23.2492 212.925 23.6222 212.855 24.4382C212.77 24.7491 212.933 25.0133 213.252 25.192C213.827 25.5262 214.278 25.1765 214.689 24.8579C217.036 23.0238 219.422 21.2364 221.676 19.2936C222.927 18.2134 223.805 18.2678 224.963 19.4102C227.271 21.6872 229.688 23.8554 232.082 26.0469" fill="black"/>
</g>
<g clip-path="url(#clip4_4304_12823)">
<path d="M493.131 22.441L498.423 17.887C498.85 17.5218 499.363 17.1254 499.923 17.2187C500.303 17.2809 500.607 17.5684 500.886 17.8326C504.003 20.8246 507.119 23.8165 510.235 26.8163C510.787 27.3447 511.378 27.8965 512.124 28.0364C512.846 28.1685 513.569 27.8965 514.261 27.6556C518.115 26.3034 522.242 25.7438 526.314 26.0236C526.928 26.0624 527.557 26.1246 528.14 25.9536C528.863 25.7438 529.446 25.2154 529.998 24.7102C532.142 22.7286 534.295 20.7469 536.44 18.7652C537.326 17.9492 538.251 17.1099 539.393 16.7291C542.338 15.7499 545.237 18.0735 547.662 20.0086C550.413 22.2001 553.475 24.1196 556.91 24.8967C561.596 25.9536 566.756 24.6714 570.401 21.5395C572.833 19.4491 574.574 16.6436 577.045 14.6075C581.071 17.2265 585.524 20.5526 585.78 25.3475C585.819 26.0469 585.733 26.8085 585.236 27.2981C584.723 27.8032 583.93 27.8654 583.208 27.8965C568.629 28.5026 554.026 28.4016 539.463 27.5778C532.523 27.1893 525.545 26.6375 518.659 27.5623C515.815 27.9431 513.002 28.5803 510.142 28.8446C507.002 29.1321 503.847 28.9767 500.7 28.8213C496.76 28.627 486.774 27.9042 493.123 22.4488" fill="#E05625"/>
<path d="M552.573 2.81844C551.322 2.81844 550.84 4.38824 551.835 5.14206C551.85 5.1576 551.866 5.16537 551.881 5.18092C554.05 6.85952 555.075 9.86701 557.547 11.056C559.466 11.9808 561.813 11.5145 563.663 10.4654C565.512 9.41628 567.004 7.8387 568.559 6.3777C569.507 5.49177 570.486 4.65247 571.504 3.84425C571.931 3.50231 571.69 2.81067 571.139 2.81067H552.573V2.81844Z" fill="#118D45"/>
<path d="M532.282 2.81848H513.072C512.201 2.81848 511.681 3.76658 512.131 4.50485C515.372 9.78934 518.62 16.4804 521.317 16.224C522.063 16.154 522.079 15.6178 524.138 12.9134C527.961 7.90868 529.625 7.00721 532.85 4.43491C533.518 3.89869 533.145 2.81848 532.282 2.81848Z" fill="#118D45"/>
<path d="M536.588 17.0011C537.03 16.5504 537.38 15.9676 538.033 15.781C538.437 16.0453 538.826 16.2862 539.199 16.5426C542.836 19.0683 546.449 21.6173 550.102 24.1196C550.7 24.5315 551.524 25.1921 552.13 24.2362C552.674 23.3814 551.998 22.8762 551.291 22.3866C547.118 19.5113 542.952 16.6048 538.818 13.6672C538.01 13.0922 537.528 13.2165 536.836 13.9082C533.658 17.0633 530.433 20.1874 527.153 23.2337C526.415 23.9254 525.669 24.5626 526.361 25.4796C527.215 26.6142 528.008 25.6195 528.614 25.0211C531.303 22.3711 533.93 19.6667 536.588 16.9934" fill="black"/>
<path d="M499.456 18.0425C502.13 21.0578 504.982 23.9176 507.772 26.8318C508.3 27.3836 508.704 28.5804 509.714 27.6245C510.507 26.8707 509.924 26.0469 509.326 25.4097C506.248 22.1302 503.179 18.8585 500.07 15.6101C499.169 14.6697 498.314 14.4133 497.07 15.4313C493.488 18.3533 490.473 21.9126 486.665 24.5704C486.377 24.7724 486.237 25.1999 486.113 25.3864C486.02 26.078 486.276 26.4666 486.68 26.6997C487.24 27.0261 487.69 26.6453 488.071 26.2956C491.04 23.5757 494.009 20.8402 496.954 18.0969C497.793 17.312 498.392 16.8457 499.456 18.0425Z" fill="black"/>
<path d="M516.592 11.297C514.603 8.97341 512.636 6.63425 510.647 4.31063C510.282 3.88321 509.948 3.28482 509.225 3.55682C508.743 3.73556 508.689 4.264 508.417 4.73805C508.549 4.96342 508.681 5.25873 508.875 5.49187C511.751 8.93456 514.641 12.3695 517.525 15.8122C518.022 16.4028 518.558 16.6126 519.172 16.0064C522.374 12.8824 525.583 9.75831 528.77 6.61094C529.228 6.1602 529.702 5.57735 529.042 4.93234C528.373 4.27955 527.86 4.77691 527.386 5.25096C525.405 7.2171 523.338 9.12107 521.465 11.1882C518.978 13.9315 518.9 14.0014 516.584 11.3048" fill="black"/>
<path d="M577.325 17.2808C579.532 19.3091 581.731 21.3374 583.938 23.358C584.373 23.7543 584.816 24.1351 585.492 23.8942C585.951 23.731 586.044 23.3891 586.06 22.9772C586.184 22.4798 586.005 22.0913 585.632 21.7649C582.415 18.9206 579.244 16.0296 575.965 13.2553C575.133 12.5559 574.208 12.3849 573.113 13.4884C570.167 16.426 568.007 20.0863 564.572 22.5653C563.966 23.0005 563.64 23.7932 564.292 24.4382C564.93 25.0832 565.427 24.446 565.948 24.0574C568.349 22.2933 570.074 19.9231 571.877 17.6228C574.278 14.5609 574.24 14.5376 577.029 17.0244C577.123 17.1099 577.224 17.1953 577.317 17.2886" fill="black"/>
<path d="M550.63 3.96088C550.141 3.51014 549.55 3.02832 548.959 3.81322C548.532 4.3883 548.408 4.99446 549.037 5.57731C552.037 8.37497 555.006 11.2037 558.021 13.9781C558.604 14.5143 559.295 14.864 560.127 14.1724C562.963 11.8099 565.839 9.49404 568.714 7.17042C569.235 6.75077 569.787 6.37775 569.857 5.56176C569.942 5.25091 569.779 4.98669 569.46 4.80795C568.885 4.47378 568.434 4.82349 568.022 5.14211C565.676 6.97614 563.29 8.76354 561.036 10.7064C559.785 11.7866 558.907 11.7322 557.749 10.5898C555.441 8.3128 553.024 6.14461 550.63 3.9531" fill="black"/>
<path d="M485.002 7.559L479.709 12.113C479.282 12.4782 478.769 12.8746 478.21 12.7813C477.829 12.7191 477.526 12.4316 477.246 12.1674C474.13 9.17543 471.013 6.18348 467.897 3.18376C467.345 2.65531 466.755 2.10355 466.009 1.96366C465.286 1.83155 464.563 2.10355 463.872 2.34446C460.017 3.69666 455.89 4.2562 451.818 3.97643C451.204 3.93757 450.575 3.8754 449.992 4.04637C449.269 4.2562 448.686 4.78465 448.135 5.28978C445.99 7.27146 443.837 9.25315 441.692 11.2348C440.806 12.0508 439.882 12.8901 438.739 13.2709C435.794 14.2501 432.895 11.9265 430.47 9.99142C427.719 7.79991 424.658 5.8804 421.223 5.10327C416.537 4.04637 411.376 5.32864 407.732 8.46047C405.299 10.551 403.558 13.3564 401.087 15.3925C397.062 12.7735 392.609 9.44743 392.352 4.65253C392.313 3.95312 392.399 3.19153 392.896 2.70194C393.409 2.1968 394.202 2.13463 394.925 2.10355C409.503 1.49739 424.106 1.59841 438.669 2.42217C445.609 2.81074 452.588 3.3625 459.473 2.43771C462.317 2.05692 465.13 1.41967 467.99 1.15545C471.13 0.86791 474.285 1.02334 477.432 1.17876C481.372 1.37304 491.359 2.09578 485.009 7.55123" fill="#E05625"/>
<path d="M425.567 27.1815C426.818 27.1815 427.3 25.6117 426.305 24.8579C426.29 24.8423 426.274 24.8346 426.258 24.819C424.09 23.1404 423.064 20.1329 420.593 18.9439C418.674 18.0191 416.327 18.4854 414.477 19.5345C412.628 20.5837 411.135 22.1612 409.581 23.6222C408.633 24.5082 407.654 25.3475 406.636 26.1557C406.208 26.4976 406.449 27.1893 407.001 27.1893H425.567V27.1815Z" fill="#118D45"/>
<path d="M445.858 27.1816H465.068C465.939 27.1816 466.459 26.2335 466.009 25.4952C462.768 20.2107 459.52 13.5196 456.823 13.7761C456.077 13.846 456.061 14.3822 454.002 17.0866C450.178 22.0914 448.515 22.9928 445.29 25.5651C444.622 26.1014 444.995 27.1816 445.858 27.1816Z" fill="#118D45"/>
<path d="M596.613 19.4413C594.056 17.7705 591.709 15.8587 589.425 13.8615L589.331 13.947L589.417 13.8537C588.337 12.3694 586.814 11.4058 585.36 10.3333C582.64 8.32833 580.185 6.01248 577.737 3.68109C576.027 2.05689 575.537 2.09574 573.843 3.65778C572.553 4.84678 571.139 5.91145 569.958 7.18595C569.025 8.18844 567.587 8.71689 567.098 10.1468C565.676 10.7996 564.51 11.771 563.484 12.9523C562.039 14.6309 560.523 16.2395 558.845 17.7161C557.943 18.5087 557.368 18.4466 556.544 17.7005C555.091 16.3949 553.599 15.1204 552.06 13.9081C547.872 10.5975 543.325 7.7144 539.789 3.62669C539.214 2.96613 538.709 3.15264 538.095 3.57229C535.989 5.01775 534.233 6.86732 532.313 8.53038C527.612 12.587 523.578 17.3275 519.063 21.5784C518.426 22.1768 518.084 22.4566 517.424 21.5939C514.929 18.3378 512.131 15.3225 509.458 12.2217C507.072 9.45517 504.904 6.50207 502.604 3.65778C500.723 1.31861 500.335 1.27199 498.19 3.43241C495.687 5.95031 489.851 11.3047 489.851 11.3047C486.408 14.8718 482.966 18.4388 479.158 21.625C478.684 22.0214 478.373 22.6819 477.642 21.7882C476.088 19.8687 474.394 18.058 472.785 16.1773C469.024 11.7632 465.776 6.93726 461.797 2.69413C460.716 1.54398 459.931 1.46627 458.983 2.71745C457.398 4.80793 455.37 6.47099 453.536 8.32056C449.736 12.1751 445.912 15.9908 442.12 19.8532C441.218 20.7702 440.472 20.6925 439.439 19.9931C433.509 15.9675 427.766 11.6855 422.256 7.12378C420.578 5.73271 419.536 5.99694 418.339 7.34914C413.933 12.3539 408.4 16.154 403.838 20.98C403.232 21.6173 402.851 21.6095 402.105 20.9878C399.245 18.6253 396.277 16.4027 393.355 14.1257C392.562 13.0533 391.536 12.2295 390.495 11.4135C390.363 11.297 390.238 11.1726 390.106 11.0561L389.959 10.9084C389.049 9.99139 388.094 9.121 387.262 8.13405C386.057 6.70413 384.589 5.75603 382.871 5.06438C381.877 4.66027 381.224 4.69136 380.54 5.60837C379.39 7.1704 379.669 9.33083 381.527 10.5509C384.084 12.2218 386.431 14.1335 388.715 16.1307L388.809 16.0452L388.723 16.1385C389.803 17.6228 391.326 18.5864 392.78 19.6589C395.5 21.6639 397.955 23.9797 400.403 26.3111C402.113 27.9353 402.603 27.8965 404.297 26.3344C405.587 25.1454 407.001 24.0808 408.182 22.8063C409.115 21.796 410.553 21.2753 411.042 19.8454C412.464 19.1926 413.63 18.2212 414.656 17.04C416.101 15.3614 417.617 13.7527 419.295 12.2761C420.197 11.4835 420.772 11.5456 421.596 12.2917C423.049 13.5973 424.541 14.8718 426.08 16.0841C430.268 19.3947 434.815 22.2778 438.351 26.3655C438.926 27.0261 439.431 26.8396 440.045 26.4199C442.151 24.9745 443.907 23.1249 445.827 21.4618C450.528 17.3974 454.562 12.6647 459.077 8.41381C459.714 7.81542 460.056 7.53566 460.716 8.39827C463.211 11.6544 466.009 14.6619 468.682 17.7705C471.068 20.537 473.236 23.4901 475.536 26.3344C477.417 28.6736 477.805 28.7202 479.95 26.5598C482.453 24.0419 488.289 18.6875 488.289 18.6875C491.732 15.1204 495.174 11.5534 498.982 8.36718C499.456 7.97085 499.767 7.31029 500.498 8.20399C502.052 10.1235 503.746 11.9342 505.355 13.8149C509.116 18.229 512.364 23.0549 516.343 27.2981C517.424 28.4482 518.208 28.5259 519.157 27.2748C520.742 25.1843 522.77 23.5212 524.604 21.6717C528.404 17.8171 532.228 14.0014 536.02 10.139C536.922 9.22203 537.668 9.29974 538.701 9.99916C544.631 14.0247 550.374 18.3067 555.884 22.8684C557.562 24.2595 558.604 23.9953 559.801 22.6431C564.207 17.6383 569.74 13.8382 574.302 9.0122C574.908 8.37496 575.289 8.38273 576.035 9.00443C578.895 11.3669 581.863 13.5895 584.785 15.8665C585.578 16.9389 586.604 17.7627 587.645 18.5787C587.777 18.6952 587.902 18.8196 588.034 18.9362L588.181 19.0838C589.091 20.0008 590.046 20.8712 590.878 21.8582C592.082 23.2881 593.551 24.2362 595.269 24.9278C596.263 25.3319 596.916 25.3008 597.6 24.3838C598.75 22.8218 598.471 20.6614 596.613 19.4413Z" fill="black"/>
<path d="M441.552 12.999C441.109 13.4497 440.76 14.0325 440.107 14.219C439.703 13.9548 439.314 13.7139 438.941 13.4575C435.304 10.9318 431.691 8.3828 428.038 5.88044C427.44 5.46856 426.616 4.808 426.01 5.76387C425.466 6.61871 426.142 7.12385 426.849 7.61344C431.022 10.4888 435.188 13.3953 439.322 16.3328C440.13 16.9079 440.612 16.7836 441.304 16.0919C444.482 12.9368 447.707 9.81272 450.987 6.76637C451.725 6.07472 452.471 5.43747 451.779 4.52046C450.925 3.38585 450.132 4.38058 449.526 4.97897C446.837 7.62898 444.21 10.3334 441.552 13.0067" fill="black"/>
<path d="M478.684 11.9575C476.01 8.94226 473.158 6.08242 470.368 3.16818C469.84 2.61642 469.436 1.41964 468.426 2.37551C467.633 3.12932 468.216 3.95308 468.814 4.59033C471.892 7.86982 474.961 11.1415 478.07 14.3899C478.971 15.3303 479.826 15.5867 481.069 14.5687C484.652 11.6467 487.667 8.08742 491.475 5.42963C491.763 5.22758 491.903 4.80015 492.027 4.61364C492.12 3.922 491.864 3.53343 491.46 3.30029C490.9 2.9739 490.449 3.35469 490.069 3.7044C487.1 6.42436 484.131 9.15985 481.186 11.9031C480.347 12.688 479.748 13.1543 478.684 11.9575Z" fill="black"/>
<path d="M461.54 18.703C463.53 21.0266 465.496 23.3658 467.485 25.6894C467.85 26.1168 468.185 26.7152 468.907 26.4432C469.389 26.2645 469.444 25.736 469.716 25.262C469.583 25.0366 469.451 24.7413 469.257 24.5082C466.382 21.0655 463.491 17.6306 460.608 14.1879C460.11 13.5973 459.574 13.3874 458.96 13.9936C455.758 17.1177 452.549 20.2417 449.363 23.3891C448.904 23.8398 448.43 24.4227 449.091 25.0677C449.759 25.7205 450.272 25.2231 450.746 24.7491C452.727 22.7829 454.795 20.879 456.668 18.8118C459.154 16.0685 459.232 15.9986 461.548 18.6952" fill="black"/>
<path d="M400.815 12.7191C398.608 10.6908 396.409 8.66244 394.202 6.64191C393.767 6.24557 393.324 5.86478 392.648 6.10569C392.189 6.26888 392.096 6.61082 392.08 7.0227C391.956 7.52006 392.135 7.90863 392.508 8.23502C395.725 11.0793 398.896 13.9702 402.175 16.7446C403.007 17.444 403.932 17.615 405.027 16.5115C407.973 13.5739 410.133 9.91362 413.568 7.43458C414.174 6.99939 414.5 6.20671 413.848 5.56169C413.21 4.91668 412.713 5.55392 412.192 5.94249C409.791 7.70657 408.066 10.0768 406.263 12.3771C403.862 15.439 403.9 15.4623 401.111 12.9755C401.017 12.89 400.916 12.8045 400.823 12.7113" fill="black"/>
<path d="M427.51 26.0391C427.999 26.4898 428.59 26.9717 429.18 26.1868C429.608 25.6117 429.732 25.0055 429.103 24.4227C426.103 21.625 423.134 18.7962 420.119 16.0219C419.536 15.4857 418.845 15.136 418.013 15.8276C415.177 18.1901 412.301 20.5059 409.426 22.8296C408.905 23.2492 408.353 23.6222 408.283 24.4382C408.198 24.7491 408.361 25.0133 408.68 25.192C409.255 25.5262 409.706 25.1765 410.117 24.8579C412.464 23.0238 414.85 21.2364 417.104 19.2936C418.355 18.2134 419.233 18.2678 420.391 19.4102C422.699 21.6872 425.116 23.8554 427.51 26.0469" fill="black"/>
</g>
<g clip-path="url(#clip5_4304_12823)">
<path d="M688.558 22.441L693.851 17.887C694.278 17.5218 694.791 17.1254 695.351 17.2187C695.731 17.2809 696.034 17.5684 696.314 17.8326C699.431 20.8246 702.547 23.8165 705.663 26.8163C706.215 27.3447 706.806 27.8965 707.552 28.0364C708.274 28.1685 708.997 27.8965 709.689 27.6556C713.543 26.3034 717.67 25.7438 721.742 26.0236C722.356 26.0624 722.985 26.1246 723.568 25.9536C724.291 25.7438 724.874 25.2154 725.426 24.7102C727.57 22.7286 729.723 20.7469 731.868 18.7652C732.754 17.9492 733.679 17.1099 734.821 16.7291C737.766 15.7499 740.665 18.0735 743.09 20.0086C745.841 22.2001 748.903 24.1196 752.338 24.8967C757.024 25.9536 762.184 24.6714 765.829 21.5395C768.261 19.4491 770.002 16.6436 772.473 14.6075C776.499 17.2265 780.951 20.5526 781.208 25.3475C781.247 26.0469 781.161 26.8085 780.664 27.2981C780.151 27.8032 779.358 27.8654 778.636 27.8965C764.057 28.5026 749.454 28.4016 734.891 27.5778C727.951 27.1893 720.973 26.6375 714.087 27.5623C711.243 27.9431 708.43 28.5803 705.57 28.8446C702.43 29.1321 699.275 28.9767 696.128 28.8213C692.188 28.627 682.202 27.9042 688.551 22.4488" fill="#E05625"/>
<path d="M748.001 2.81844C746.75 2.81844 746.268 4.38824 747.263 5.14206C747.278 5.1576 747.294 5.16537 747.309 5.18092C749.478 6.85952 750.503 9.86701 752.975 11.056C754.894 11.9808 757.241 11.5145 759.091 10.4654C760.94 9.41628 762.432 7.8387 763.987 6.3777C764.935 5.49177 765.914 4.65247 766.932 3.84425C767.359 3.50231 767.118 2.81067 766.567 2.81067H748.001V2.81844Z" fill="#118D45"/>
<path d="M727.71 2.81848H708.5C707.629 2.81848 707.109 3.76658 707.559 4.50485C710.8 9.78934 714.048 16.4804 716.745 16.224C717.491 16.154 717.507 15.6178 719.566 12.9134C723.389 7.90868 725.053 7.00721 728.278 4.43491C728.946 3.89869 728.573 2.81848 727.71 2.81848Z" fill="#118D45"/>
<path d="M732.016 17.0011C732.458 16.5504 732.808 15.9676 733.461 15.781C733.865 16.0453 734.254 16.2862 734.627 16.5426C738.264 19.0683 741.877 21.6173 745.53 24.1196C746.128 24.5315 746.952 25.1921 747.558 24.2362C748.102 23.3814 747.426 22.8762 746.719 22.3866C742.546 19.5113 738.38 16.6048 734.246 13.6672C733.438 13.0922 732.956 13.2165 732.264 13.9082C729.086 17.0633 725.861 20.1874 722.581 23.2337C721.843 23.9254 721.097 24.5626 721.788 25.4796C722.643 26.6142 723.436 25.6195 724.042 25.0211C726.731 22.3711 729.358 19.6667 732.016 16.9934" fill="black"/>
<path d="M694.884 18.0425C697.558 21.0578 700.41 23.9176 703.2 26.8318C703.728 27.3836 704.132 28.5804 705.142 27.6245C705.935 26.8707 705.352 26.0469 704.754 25.4097C701.676 22.1302 698.607 18.8585 695.498 15.6101C694.597 14.6697 693.742 14.4133 692.498 15.4313C688.916 18.3533 685.901 21.9126 682.093 24.5704C681.805 24.7724 681.665 25.1999 681.541 25.3864C681.448 26.078 681.704 26.4666 682.108 26.6997C682.668 27.0261 683.118 26.6453 683.499 26.2956C686.468 23.5757 689.437 20.8402 692.382 18.0969C693.221 17.312 693.82 16.8457 694.884 18.0425Z" fill="black"/>
<path d="M712.02 11.297C710.031 8.97341 708.064 6.63425 706.075 4.31063C705.71 3.88321 705.376 3.28482 704.653 3.55682C704.171 3.73556 704.117 4.264 703.845 4.73805C703.977 4.96342 704.109 5.25873 704.303 5.49187C707.179 8.93456 710.069 12.3695 712.953 15.8122C713.45 16.4028 713.986 16.6126 714.6 16.0064C717.802 12.8824 721.011 9.75831 724.198 6.61094C724.656 6.1602 725.13 5.57735 724.47 4.93234C723.801 4.27955 723.288 4.77691 722.814 5.25096C720.833 7.2171 718.766 9.12107 716.893 11.1882C714.406 13.9315 714.328 14.0014 712.012 11.3048" fill="black"/>
<path d="M772.753 17.2808C774.96 19.3091 777.159 21.3374 779.366 23.358C779.801 23.7543 780.244 24.1351 780.92 23.8942C781.379 23.731 781.472 23.3891 781.488 22.9772C781.612 22.4798 781.433 22.0913 781.06 21.7649C777.843 18.9206 774.672 16.0296 771.393 13.2553C770.561 12.5559 769.636 12.3849 768.541 13.4884C765.595 16.426 763.435 20.0863 760 22.5653C759.394 23.0005 759.067 23.7932 759.72 24.4382C760.358 25.0832 760.855 24.446 761.376 24.0574C763.777 22.2933 765.502 19.9231 767.305 17.6228C769.706 14.5609 769.668 14.5376 772.457 17.0244C772.551 17.1099 772.652 17.1953 772.745 17.2886" fill="black"/>
<path d="M746.058 3.96088C745.569 3.51014 744.978 3.02832 744.387 3.81322C743.96 4.3883 743.836 4.99446 744.465 5.57731C747.465 8.37497 750.434 11.2037 753.449 13.9781C754.032 14.5143 754.723 14.864 755.555 14.1724C758.391 11.8099 761.267 9.49404 764.142 7.17042C764.663 6.75077 765.215 6.37775 765.284 5.56176C765.37 5.25091 765.207 4.98669 764.888 4.80795C764.313 4.47378 763.862 4.82349 763.45 5.14211C761.104 6.97614 758.718 8.76354 756.464 10.7064C755.213 11.7866 754.335 11.7322 753.177 10.5898C750.869 8.3128 748.452 6.14461 746.058 3.9531" fill="black"/>
<path d="M680.43 7.559L675.137 12.113C674.71 12.4782 674.197 12.8746 673.638 12.7813C673.257 12.7191 672.954 12.4316 672.674 12.1674C669.558 9.17543 666.441 6.18348 663.325 3.18376C662.773 2.65531 662.183 2.10355 661.437 1.96366C660.714 1.83155 659.991 2.10355 659.299 2.34446C655.445 3.69666 651.318 4.2562 647.246 3.97643C646.632 3.93757 646.003 3.8754 645.42 4.04637C644.697 4.2562 644.114 4.78465 643.563 5.28978C641.418 7.27146 639.265 9.25315 637.12 11.2348C636.234 12.0508 635.309 12.8901 634.167 13.2709C631.222 14.2501 628.323 11.9265 625.898 9.99142C623.147 7.79991 620.086 5.8804 616.651 5.10327C611.964 4.04637 606.804 5.32864 603.16 8.46047C600.727 10.551 598.986 13.3564 596.515 15.3925C592.49 12.7735 588.037 9.44743 587.78 4.65253C587.741 3.95312 587.827 3.19153 588.324 2.70194C588.837 2.1968 589.63 2.13463 590.353 2.10355C604.931 1.49739 619.534 1.59841 634.097 2.42217C641.037 2.81074 648.016 3.3625 654.901 2.43771C657.745 2.05692 660.558 1.41967 663.418 1.15545C666.558 0.86791 669.713 1.02334 672.86 1.17876C676.8 1.37304 686.787 2.09578 680.437 7.55123" fill="#E05625"/>
<path d="M620.995 27.1815C622.246 27.1815 622.728 25.6117 621.733 24.8579C621.717 24.8423 621.702 24.8346 621.686 24.819C619.518 23.1404 618.492 20.1329 616.021 18.9439C614.102 18.0191 611.755 18.4854 609.905 19.5345C608.056 20.5837 606.563 22.1612 605.009 23.6222C604.061 24.5082 603.082 25.3475 602.064 26.1557C601.636 26.4976 601.877 27.1893 602.429 27.1893H620.995V27.1815Z" fill="#118D45"/>
<path d="M641.286 27.1816H660.496C661.367 27.1816 661.887 26.2335 661.437 25.4952C658.196 20.2107 654.947 13.5196 652.251 13.7761C651.505 13.846 651.489 14.3822 649.43 17.0866C645.606 22.0914 643.943 22.9928 640.718 25.5651C640.05 26.1014 640.423 27.1816 641.286 27.1816Z" fill="#118D45"/>
<path d="M792.041 19.4413C789.484 17.7705 787.137 15.8587 784.853 13.8615L784.759 13.947L784.845 13.8537C783.765 12.3694 782.242 11.4058 780.788 10.3333C778.068 8.32833 775.613 6.01248 773.165 3.68109C771.455 2.05689 770.965 2.09574 769.271 3.65778C767.981 4.84678 766.567 5.91145 765.386 7.18595C764.453 8.18844 763.015 8.71689 762.526 10.1468C761.104 10.7996 759.938 11.771 758.912 12.9523C757.467 14.6309 755.951 16.2395 754.273 17.7161C753.371 18.5087 752.796 18.4466 751.972 17.7005C750.519 16.3949 749.027 15.1204 747.488 13.9081C743.3 10.5975 738.753 7.7144 735.217 3.62669C734.642 2.96613 734.137 3.15264 733.523 3.57229C731.417 5.01775 729.661 6.86732 727.741 8.53038C723.04 12.587 719.006 17.3275 714.491 21.5784C713.854 22.1768 713.512 22.4566 712.852 21.5939C710.357 18.3378 707.559 15.3225 704.886 12.2217C702.5 9.45517 700.332 6.50207 698.032 3.65778C696.151 1.31861 695.762 1.27199 693.618 3.43241C691.115 5.95031 685.279 11.3047 685.279 11.3047C681.836 14.8718 678.394 18.4388 674.586 21.625C674.112 22.0214 673.801 22.6819 673.07 21.7882C671.516 19.8687 669.822 18.058 668.213 16.1773C664.452 11.7632 661.203 6.93726 657.225 2.69413C656.144 1.54398 655.359 1.46627 654.411 2.71745C652.826 4.80793 650.798 6.47099 648.964 8.32056C645.164 12.1751 641.34 15.9908 637.548 19.8532C636.646 20.7702 635.9 20.6925 634.867 19.9931C628.937 15.9675 623.194 11.6855 617.684 7.12378C616.006 5.73271 614.964 5.99694 613.767 7.34914C609.361 12.3539 603.828 16.154 599.266 20.98C598.66 21.6173 598.279 21.6095 597.533 20.9878C594.673 18.6253 591.705 16.4027 588.783 14.1257C587.99 13.0533 586.964 12.2295 585.923 11.4135C585.791 11.297 585.666 11.1726 585.534 11.0561L585.387 10.9084C584.477 9.99139 583.522 9.121 582.69 8.13405C581.485 6.70413 580.017 5.75603 578.299 5.06438C577.305 4.66027 576.652 4.69136 575.968 5.60837C574.818 7.1704 575.097 9.33083 576.955 10.5509C579.512 12.2218 581.858 14.1335 584.143 16.1307L584.237 16.0452L584.151 16.1385C585.231 17.6228 586.754 18.5864 588.208 19.6589C590.928 21.6639 593.383 23.9797 595.831 26.3111C597.541 27.9353 598.031 27.8965 599.725 26.3344C601.015 25.1454 602.429 24.0808 603.61 22.8063C604.543 21.796 605.981 21.2753 606.47 19.8454C607.892 19.1926 609.058 18.2212 610.084 17.04C611.529 15.3614 613.045 13.7527 614.723 12.2761C615.625 11.4835 616.2 11.5456 617.024 12.2917C618.477 13.5973 619.969 14.8718 621.508 16.0841C625.696 19.3947 630.243 22.2778 633.779 26.3655C634.354 27.0261 634.859 26.8396 635.473 26.4199C637.579 24.9745 639.335 23.1249 641.255 21.4618C645.956 17.3974 649.99 12.6647 654.505 8.41381C655.142 7.81542 655.484 7.53566 656.144 8.39827C658.639 11.6544 661.437 14.6619 664.11 17.7705C666.496 20.537 668.664 23.4901 670.964 26.3344C672.845 28.6736 673.233 28.7202 675.378 26.5598C677.881 24.0419 683.717 18.6875 683.717 18.6875C687.16 15.1204 690.602 11.5534 694.41 8.36718C694.884 7.97085 695.195 7.31029 695.926 8.20399C697.48 10.1235 699.174 11.9342 700.783 13.8149C704.544 18.229 707.792 23.0549 711.771 27.2981C712.852 28.4482 713.636 28.5259 714.585 27.2748C716.17 25.1843 718.198 23.5212 720.032 21.6717C723.832 17.8171 727.656 14.0014 731.448 10.139C732.35 9.22203 733.096 9.29974 734.129 9.99916C740.059 14.0247 745.802 18.3067 751.312 22.8684C752.99 24.2595 754.032 23.9953 755.228 22.6431C759.635 17.6383 765.168 13.8382 769.73 9.0122C770.336 8.37496 770.717 8.38273 771.463 9.00443C774.323 11.3669 777.291 13.5895 780.213 15.8665C781.006 16.9389 782.032 17.7627 783.073 18.5787C783.205 18.6952 783.33 18.8196 783.462 18.9362L783.609 19.0838C784.519 20.0008 785.474 20.8712 786.306 21.8582C787.51 23.2881 788.979 24.2362 790.697 24.9278C791.691 25.3319 792.344 25.3008 793.028 24.3838C794.178 22.8218 793.898 20.6614 792.041 19.4413Z" fill="black"/>
<path d="M636.98 12.999C636.537 13.4497 636.188 14.0325 635.535 14.219C635.131 13.9548 634.742 13.7139 634.369 13.4575C630.732 10.9318 627.119 8.3828 623.466 5.88044C622.868 5.46856 622.044 4.808 621.438 5.76387C620.894 6.61871 621.57 7.12385 622.277 7.61344C626.45 10.4888 630.616 13.3953 634.75 16.3328C635.558 16.9079 636.04 16.7836 636.732 16.0919C639.91 12.9368 643.135 9.81272 646.415 6.76637C647.153 6.07472 647.899 5.43747 647.207 4.52046C646.353 3.38585 645.56 4.38058 644.954 4.97897C642.265 7.62898 639.638 10.3334 636.98 13.0067" fill="black"/>
<path d="M674.112 11.9575C671.438 8.94226 668.586 6.08242 665.796 3.16818C665.268 2.61642 664.864 1.41964 663.854 2.37551C663.061 3.12932 663.644 3.95308 664.242 4.59033C667.32 7.86982 670.389 11.1415 673.498 14.3899C674.399 15.3303 675.254 15.5867 676.497 14.5687C680.08 11.6467 683.095 8.08742 686.903 5.42963C687.191 5.22758 687.331 4.80015 687.455 4.61364C687.548 3.922 687.292 3.53343 686.888 3.30029C686.328 2.9739 685.877 3.35469 685.497 3.7044C682.528 6.42436 679.559 9.15985 676.614 11.9031C675.775 12.688 675.176 13.1543 674.112 11.9575Z" fill="black"/>
<path d="M656.968 18.703C658.958 21.0266 660.924 23.3658 662.913 25.6894C663.278 26.1168 663.613 26.7152 664.335 26.4432C664.817 26.2645 664.872 25.736 665.144 25.262C665.011 25.0366 664.879 24.7413 664.685 24.5082C661.81 21.0655 658.919 17.6306 656.036 14.1879C655.538 13.5973 655.002 13.3874 654.388 13.9936C651.186 17.1177 647.977 20.2417 644.79 23.3891C644.332 23.8398 643.858 24.4227 644.518 25.0677C645.187 25.7205 645.7 25.2231 646.174 24.7491C648.155 22.7829 650.223 20.879 652.096 18.8118C654.582 16.0685 654.66 15.9986 656.976 18.6952" fill="black"/>
<path d="M596.243 12.7191C594.036 10.6908 591.837 8.66244 589.63 6.64191C589.195 6.24557 588.752 5.86478 588.076 6.10569C587.617 6.26888 587.524 6.61082 587.508 7.0227C587.384 7.52006 587.563 7.90863 587.936 8.23502C591.153 11.0793 594.324 13.9702 597.603 16.7446C598.435 17.444 599.359 17.615 600.455 16.5115C603.401 13.5739 605.561 9.91362 608.996 7.43458C609.602 6.99939 609.928 6.20671 609.276 5.56169C608.638 4.91668 608.141 5.55392 607.62 5.94249C605.219 7.70657 603.494 10.0768 601.691 12.3771C599.29 15.439 599.328 15.4623 596.539 12.9755C596.445 12.89 596.344 12.8045 596.251 12.7113" fill="black"/>
<path d="M622.938 26.0391C623.427 26.4898 624.018 26.9717 624.608 26.1868C625.036 25.6117 625.16 25.0055 624.531 24.4227C621.531 21.625 618.562 18.7962 615.547 16.0219C614.964 15.4857 614.273 15.136 613.441 15.8276C610.605 18.1901 607.729 20.5059 604.854 22.8296C604.333 23.2492 603.781 23.6222 603.711 24.4382C603.626 24.7491 603.789 25.0133 604.108 25.192C604.683 25.5262 605.134 25.1765 605.545 24.8579C607.892 23.0238 610.278 21.2364 612.532 19.2936C613.783 18.2134 614.661 18.2678 615.819 19.4102C618.127 21.6872 620.544 23.8554 622.938 26.0469" fill="black"/>
</g>
<g clip-path="url(#clip6_4304_12823)">
<path d="M875.858 7.559L870.565 12.113C870.138 12.4782 869.625 12.8746 869.066 12.7813C868.685 12.7191 868.382 12.4316 868.102 12.1674C864.986 9.17543 861.869 6.18348 858.753 3.18376C858.201 2.65531 857.611 2.10355 856.865 1.96366C856.142 1.83155 855.419 2.10355 854.727 2.34446C850.873 3.69666 846.746 4.2562 842.674 3.97643C842.06 3.93757 841.431 3.8754 840.848 4.04637C840.125 4.2562 839.542 4.78465 838.991 5.28978C836.846 7.27146 834.693 9.25314 832.548 11.2348C831.662 12.0508 830.737 12.8901 829.595 13.2709C826.65 14.2501 823.751 11.9265 821.326 9.99142C818.575 7.79991 815.513 5.8804 812.079 5.10327C807.392 4.04637 802.232 5.32864 798.588 8.46047C796.155 10.551 794.414 13.3564 791.943 15.3925C787.918 12.7735 783.465 9.44743 783.208 4.65253C783.169 3.95312 783.255 3.19153 783.752 2.70194C784.265 2.1968 785.058 2.13463 785.78 2.10355C800.359 1.49739 814.962 1.59841 829.525 2.42217C836.465 2.81074 843.444 3.3625 850.329 2.43771C853.173 2.05692 855.986 1.41967 858.846 1.15545C861.986 0.86791 865.141 1.02334 868.288 1.17876C872.228 1.37304 882.215 2.09578 875.865 7.55123" fill="#E05625"/>
<path d="M987.469 19.4413C984.912 17.7705 982.565 15.8587 980.281 13.8615L980.187 13.947L980.273 13.8537C979.193 12.3694 977.67 11.4058 976.216 10.3333C973.496 8.32833 971.041 6.01248 968.593 3.68109C966.883 2.05689 966.393 2.09574 964.699 3.65778C963.409 4.84678 961.995 5.91145 960.814 7.18595C959.881 8.18844 958.443 8.71689 957.954 10.1468C956.532 10.7996 955.366 11.771 954.34 12.9523C952.895 14.6309 951.379 16.2395 949.701 17.7161C948.799 18.5087 948.224 18.4466 947.4 17.7005C945.947 16.3949 944.455 15.1204 942.916 13.9081C938.728 10.5975 934.181 7.7144 930.645 3.62669C930.07 2.96613 929.565 3.15264 928.951 3.57229C926.845 5.01775 925.089 6.86732 923.169 8.53038C918.468 12.587 914.434 17.3275 909.919 21.5784C909.282 22.1768 908.94 22.4566 908.28 21.5939C905.785 18.3378 902.987 15.3225 900.314 12.2217C897.928 9.45517 895.76 6.50207 893.46 3.65778C891.579 1.31861 891.19 1.27199 889.046 3.43241C886.543 5.95031 880.707 11.3047 880.707 11.3047C877.264 14.8718 873.822 18.4388 870.014 21.625C869.54 22.0214 869.229 22.6819 868.498 21.7882C866.944 19.8687 865.25 18.058 863.641 16.1773C859.88 11.7632 856.631 6.93726 852.653 2.69413C851.572 1.54398 850.787 1.46627 849.839 2.71745C848.254 4.80793 846.226 6.47099 844.392 8.32056C840.592 12.1751 836.768 15.9908 832.976 19.8532C832.074 20.7702 831.328 20.6925 830.295 19.9931C824.365 15.9675 818.622 11.6855 813.112 7.12378C811.434 5.73271 810.392 5.99694 809.195 7.34914C804.789 12.3539 799.256 16.154 794.694 20.98C794.088 21.6173 793.707 21.6095 792.961 20.9878C790.101 18.6253 787.133 16.4027 784.211 14.1257C783.418 13.0533 782.392 12.2295 781.351 11.4135C781.219 11.297 781.094 11.1726 780.962 11.0561L780.815 10.9084C779.905 9.99139 778.95 9.121 778.118 8.13405C776.913 6.70413 775.445 5.75603 773.727 5.06438C772.732 4.66027 772.08 4.69136 771.396 5.60837C770.246 7.1704 770.525 9.33083 772.383 10.5509C774.94 12.2218 777.286 14.1335 779.571 16.1307L779.664 16.0452L779.579 16.1385C780.659 17.6228 782.182 18.5864 783.636 19.6589C786.356 21.6639 788.811 23.9797 791.259 26.3111C792.969 27.9353 793.459 27.8965 795.153 26.3344C796.443 25.1454 797.857 24.0808 799.038 22.8063C799.971 21.796 801.409 21.2753 801.898 19.8454C803.32 19.1926 804.486 18.2212 805.512 17.04C806.957 15.3614 808.473 13.7527 810.151 12.2761C811.053 11.4835 811.628 11.5456 812.452 12.2917C813.905 13.5973 815.397 14.8718 816.936 16.0841C821.124 19.3947 825.671 22.2778 829.207 26.3655C829.782 27.0261 830.287 26.8396 830.901 26.4199C833.007 24.9745 834.763 23.1249 836.683 21.4618C841.384 17.3974 845.417 12.6647 849.933 8.41381C850.57 7.81542 850.912 7.53566 851.572 8.39827C854.067 11.6544 856.865 14.6619 859.538 17.7705C861.924 20.537 864.092 23.4901 866.392 26.3344C868.273 28.6736 868.661 28.7202 870.806 26.5598C873.309 24.0419 879.145 18.6875 879.145 18.6875C882.588 15.1204 886.03 11.5534 889.838 8.36718C890.312 7.97085 890.623 7.31029 891.354 8.20399C892.908 10.1235 894.602 11.9342 896.211 13.8149C899.972 18.229 903.22 23.0549 907.199 27.2981C908.28 28.4482 909.064 28.5259 910.013 27.2748C911.598 25.1843 913.626 23.5212 915.46 21.6717C919.26 17.8171 923.084 14.0014 926.876 10.139C927.778 9.22203 928.524 9.29974 929.557 9.99916C935.487 14.0247 941.23 18.3067 946.74 22.8684C948.418 24.2595 949.46 23.9953 950.656 22.6431C955.063 17.6383 960.596 13.8382 965.158 9.0122C965.764 8.37496 966.145 8.38273 966.891 9.00443C969.751 11.3669 972.719 13.5895 975.641 15.8665C976.434 16.9389 977.46 17.7627 978.501 18.5787C978.633 18.6952 978.757 18.8196 978.89 18.9362L979.037 19.0838C979.946 20.0008 980.902 20.8712 981.734 21.8582C982.938 23.2881 984.407 24.2362 986.125 24.9278C987.119 25.3319 987.772 25.3009 988.456 24.3838C989.606 22.8218 989.326 20.6614 987.469 19.4413Z" fill="black"/>
<path d="M791.671 12.7191C789.464 10.6908 787.265 8.66244 785.058 6.64191C784.623 6.24557 784.18 5.86478 783.504 6.10569C783.045 6.26888 782.952 6.61082 782.936 7.0227C782.812 7.52006 782.991 7.90863 783.364 8.23502C786.581 11.0793 789.752 13.9702 793.031 16.7446C793.863 17.444 794.787 17.615 795.883 16.5115C798.829 13.5739 800.989 9.91362 804.424 7.43458C805.03 6.99939 805.356 6.20671 804.704 5.56169C804.066 4.91668 803.569 5.55392 803.048 5.94249C800.647 7.70657 798.922 10.0768 797.119 12.3771C794.718 15.439 794.756 15.4623 791.966 12.9755C791.873 12.89 791.772 12.8045 791.679 12.7113" fill="black"/>
</g>
</g>
<defs>
<clipPath id="clip0_4304_12823">
<rect width="794" height="40" fill="white"/>
</clipPath>
<clipPath id="clip1_4304_12823">
<rect width="794" height="447" fill="white" transform="translate(0 33)"/>
</clipPath>
<clipPath id="clip2_4304_12823">
<rect width="218.428" height="28" fill="white" transform="translate(-11 1)"/>
</clipPath>
<clipPath id="clip3_4304_12823">
<rect width="218.428" height="28" fill="white" transform="translate(184.428 1)"/>
</clipPath>
<clipPath id="clip4_4304_12823">
<rect width="218.428" height="28" fill="white" transform="translate(379.856 1)"/>
</clipPath>
<clipPath id="clip5_4304_12823">
<rect width="218.428" height="28" fill="white" transform="translate(575.284 1)"/>
</clipPath>
<clipPath id="clip6_4304_12823">
<rect width="218.428" height="28" fill="white" transform="translate(770.712 1)"/>
</clipPath>
</defs>
</svg>
