<svg width="794" height="1123" viewBox="0 0 794 1123" fill="none" xmlns="http://www.w3.org/2000/svg">
<g clip-path="url(#clip0_584_46)">
<rect width="794" height="1123" fill="#F6882A"/>
<g clip-path="url(#clip1_584_46)">
<path d="M10.7126 194.276L18.8447 203.726C19.4969 204.489 20.2047 205.405 20.0381 206.405C19.9271 207.084 19.4137 207.626 18.9418 208.125C13.5991 213.69 8.25631 219.255 2.89966 224.82C1.95601 225.805 0.970718 226.86 0.720926 228.192C0.485012 229.482 0.97072 230.773 1.40092 232.008C3.81557 238.891 4.81473 246.26 4.31515 253.532C4.24576 254.628 4.13474 255.752 4.44005 256.793C4.81473 258.084 5.75839 259.124 6.66042 260.11C10.1991 263.94 13.7378 267.784 17.2766 271.614C18.7337 273.196 20.2324 274.847 20.9124 276.887C22.661 282.147 18.5116 287.323 15.0562 291.653C11.1428 296.565 7.71509 302.033 6.32736 308.167C4.44004 316.535 6.7298 325.749 12.3224 332.258C16.0554 336.601 21.0651 339.71 24.7009 344.123C20.0243 351.311 14.0848 359.263 5.52247 359.721C4.27351 359.79 2.91354 359.638 2.03927 358.75C1.13724 357.834 1.02622 356.418 0.970713 355.128C-0.111717 329.094 0.0686892 303.018 1.53969 277.012C2.23355 264.62 3.21884 252.158 1.56744 239.863C0.887454 234.784 -0.250487 229.76 -0.722316 224.653C-1.23578 219.047 -0.958226 213.413 -0.68068 207.792C-0.333746 200.756 0.956843 182.924 10.6987 194.262" fill="#E05625"/>
<path d="M45.7527 300.423C45.7527 298.189 42.9495 297.329 41.6034 299.105C41.5757 299.133 41.5618 299.16 41.534 299.188C38.5365 303.06 33.166 304.892 31.0428 309.305C29.3914 312.733 30.224 316.923 32.0974 320.226C33.9709 323.529 36.788 326.194 39.3969 328.969C40.9789 330.662 42.4777 332.411 43.9209 334.228C44.5315 334.992 45.7666 334.562 45.7666 333.576L45.7666 300.423L45.7527 300.423Z" fill="#118D45"/>
<path d="M45.7527 264.19L45.7527 229.885C45.7527 228.331 44.0597 227.401 42.7413 228.206C33.3047 233.993 21.3564 239.793 21.8143 244.609C21.9392 245.941 22.8967 245.969 27.7261 249.646C36.663 256.474 38.2728 259.444 42.8662 265.203C43.8237 266.396 45.7527 265.73 45.7527 264.19Z" fill="#118D45"/>
<path d="M20.4267 271.878C21.2316 272.669 22.2724 273.293 22.6054 274.459C22.1336 275.18 21.7034 275.874 21.2455 276.54C16.7353 283.035 12.1836 289.488 7.71507 296.01C6.97958 297.079 5.80001 298.55 7.50692 299.632C9.03342 300.604 9.93544 299.396 10.8097 298.134C15.9443 290.681 21.1344 283.243 26.3801 275.86C27.407 274.417 27.1849 273.557 25.9499 272.322C20.3157 266.646 14.737 260.887 9.29709 255.031C8.06201 253.712 6.92407 252.38 5.28655 253.615C3.26046 255.142 5.03676 256.557 6.10531 257.64C10.8375 262.441 15.6668 267.132 20.4406 271.878" fill="black"/>
<path d="M18.5671 205.572C13.1827 210.346 8.07584 215.439 2.87185 220.421C1.88656 221.364 -0.250541 222.086 1.45637 223.89C2.80247 225.305 4.27346 224.265 5.4114 223.196C11.2676 217.701 17.11 212.219 22.9107 206.668C24.5899 205.058 25.0478 203.532 23.2299 201.312C18.012 194.914 11.6562 189.53 6.91015 182.73C6.54934 182.216 5.78609 181.967 5.45304 181.745C4.21795 181.578 3.52409 182.036 3.10777 182.758C2.52492 183.757 3.20491 184.562 3.82939 185.242C8.68645 190.543 13.5713 195.844 18.47 201.103C19.8716 202.602 20.7042 203.671 18.5671 205.572Z" fill="black"/>
<path d="M30.6124 236.171C34.7617 232.619 38.9388 229.108 43.0881 225.555C43.8514 224.903 44.9199 224.306 44.4342 223.016C44.1151 222.155 43.1714 222.058 42.3249 221.572C41.9224 221.808 41.3951 222.044 40.9788 222.391C34.8311 227.526 28.6974 232.688 22.5497 237.837C21.495 238.725 21.1203 239.682 22.2028 240.779C27.7815 246.496 33.3601 252.227 38.9804 257.917C39.7853 258.736 40.8261 259.582 41.9779 258.403C43.1436 257.209 42.2555 256.293 41.409 255.447C37.898 251.908 34.4981 248.217 30.8067 244.872C25.908 240.432 25.7831 240.293 30.5985 236.157" fill="black"/>
<path d="M19.927 344.623C16.305 348.564 12.6831 352.491 9.07495 356.432C8.36721 357.209 7.68723 358 8.11742 359.208C8.40885 360.026 9.01945 360.193 9.75494 360.221C10.6431 360.443 11.337 360.124 11.9198 359.457C16.9989 353.712 22.1613 348.05 27.1155 342.194C28.3644 340.709 28.6697 339.058 26.6991 337.101C21.4535 331.842 14.9173 327.984 10.4904 321.85C9.71331 320.767 8.29783 320.185 7.14601 321.35C5.99419 322.488 7.13213 323.376 7.826 324.306C10.9761 328.594 15.2087 331.675 19.3164 334.895C24.7841 339.183 24.8257 339.113 20.385 344.095C20.2323 344.262 20.0797 344.442 19.9131 344.609" fill="black"/>
<path d="M43.7127 296.954C44.5176 296.08 45.378 295.025 43.9764 293.97C42.9495 293.207 41.8671 292.985 40.8263 294.109C35.8304 299.466 30.7791 304.767 25.8249 310.151C24.8674 311.192 24.2429 312.427 25.478 313.912C29.6967 318.977 33.8321 324.112 37.9814 329.246C38.7308 330.176 39.3969 331.162 40.854 331.286C41.4091 331.439 41.8809 331.148 42.2001 330.579C42.7968 329.552 42.1724 328.747 41.6034 328.011C38.3284 323.82 35.1366 319.56 31.6672 315.536C29.7383 313.301 29.8354 311.733 31.8754 309.666C35.9415 305.544 39.8132 301.228 43.7266 296.954" fill="black"/>
<path d="M37.2874 179.76L29.1553 170.31C28.5031 169.546 27.7953 168.63 27.9619 167.631C28.0729 166.951 28.5864 166.41 29.0582 165.911C34.4009 160.346 39.7437 154.781 45.1004 149.216C46.044 148.231 47.0293 147.176 47.2791 145.844C47.515 144.553 47.0293 143.263 46.5991 142.028C44.1845 135.145 43.1853 127.776 43.6849 120.504C43.7543 119.408 43.8653 118.284 43.56 117.243C43.1853 115.952 42.2416 114.911 41.3396 113.926C37.8009 110.096 34.2622 106.252 30.7235 102.422C29.2663 100.84 27.7676 99.1884 27.0876 97.1484C25.3391 91.8889 29.4884 86.7127 32.9438 82.3829C36.8572 77.4704 40.2849 72.0027 41.6727 65.8689C43.56 57.5009 41.2702 48.2864 35.6777 41.7779C31.9447 37.4343 26.935 34.3258 23.2991 29.9128C27.9758 22.7244 33.9153 14.7727 42.4776 14.3147C43.7265 14.2453 45.0865 14.398 45.9608 15.2861C46.8628 16.202 46.9738 17.6175 47.0293 18.9081C48.1117 44.942 47.9313 71.0174 46.4603 97.0235C45.7665 109.416 44.7812 121.878 46.4326 134.173C47.1126 139.252 48.2505 144.276 48.7223 149.383C49.2358 154.989 48.9583 160.623 48.6807 166.244C48.3338 173.279 47.0432 191.112 37.3013 179.774" fill="#E05625"/>
<path d="M2.2473 73.6264C2.2473 75.8606 5.05051 76.721 6.39661 74.9447C6.42437 74.917 6.43825 74.8892 6.466 74.8614C9.4635 70.9897 14.834 69.1579 16.9573 64.7449C18.6087 61.3172 17.776 57.1262 15.9026 53.8234C14.0291 50.5206 11.212 47.8562 8.60311 45.0807C7.0211 43.3877 5.52235 41.6392 4.07911 39.8212C3.46851 39.058 2.23342 39.4882 2.23342 40.4735L2.23342 73.6264L2.2473 73.6264Z" fill="#118D45"/>
<path d="M2.24735 109.86L2.24735 144.165C2.24735 145.719 3.94038 146.649 5.25872 145.844C14.6953 140.057 26.6437 134.256 26.1857 129.441C26.0608 128.109 25.1033 128.081 20.274 124.403C11.337 117.576 9.72722 114.606 5.13383 108.847C4.17629 107.654 2.24735 108.32 2.24735 109.86Z" fill="#118D45"/>
<path d="M16.0692 379.066C19.0528 374.5 22.4666 370.309 26.0331 366.23L25.8805 366.063L26.047 366.216C28.6976 364.287 30.4183 361.567 32.3334 358.972C35.9138 354.115 40.0492 349.729 44.2124 345.358C47.1128 342.305 47.0434 341.431 44.254 338.406C42.1308 336.102 40.2296 333.576 37.9537 331.467C36.1636 329.802 35.2199 327.234 32.6665 326.36C31.5008 323.82 29.7661 321.739 27.6568 319.907C24.6593 317.326 21.7867 314.62 19.15 311.622C17.7345 310.013 17.8455 308.986 19.1777 307.515C21.5091 304.92 23.785 302.255 25.9499 299.507C31.8616 292.028 37.0101 283.909 44.3095 277.595C45.4891 276.568 45.1561 275.666 44.4067 274.57C41.8255 270.809 38.5227 267.673 35.553 264.245C28.309 255.849 19.8438 248.647 12.2529 240.584C11.1844 239.446 10.6848 238.836 12.2252 237.656C18.0398 233.202 23.4242 228.206 28.9612 223.432C33.9016 219.172 39.1749 215.3 44.254 211.192C48.4311 207.834 48.5144 207.14 44.6565 203.31C40.1602 198.841 30.5988 188.42 30.5988 188.42C24.2291 182.272 17.8594 176.124 12.1697 169.324C11.4619 168.478 10.2824 167.923 11.8783 166.618C15.306 163.843 18.5394 160.818 21.8977 157.945C29.78 151.228 38.3978 145.428 45.9748 138.322C48.0287 136.393 48.1674 134.992 45.9332 133.299C42.2002 130.468 39.2305 126.846 35.9277 123.571C29.0445 116.785 22.2307 109.957 15.3337 103.185C13.6962 101.575 13.835 100.243 15.0839 98.3974C22.2724 87.809 29.9188 77.5537 38.0648 67.7146C40.5488 64.7171 40.077 62.8576 37.6623 60.7205C28.7253 52.852 21.9393 42.9714 13.3215 34.8254C12.1836 33.743 12.1974 33.063 13.3076 31.7308C17.5263 26.6239 21.4952 21.3228 25.5613 16.1049C27.4764 14.6894 28.9474 12.8576 30.4045 10.998C30.6126 10.7621 30.8347 10.5401 31.0428 10.3042L31.3065 10.0405C32.944 8.41686 34.4983 6.70995 36.2607 5.22508C38.8141 3.0741 40.5072 0.451286 41.7423 -2.6156C42.4639 -4.3919 42.4084 -5.55759 40.7708 -6.7788C37.9815 -8.83264 34.1236 -8.33306 31.9449 -5.01638C28.9612 -0.45074 25.5474 3.74021 21.981 7.82014L22.1336 7.98667L21.9671 7.83402C19.3165 9.76296 17.5957 12.4829 15.6807 15.078C12.1003 19.935 7.96487 24.3203 3.80167 28.6916C0.901315 31.7446 0.970703 32.6189 3.76004 35.6442C5.88327 37.9478 7.78446 40.4735 10.0603 42.5828C11.8644 44.2481 12.7942 46.8154 15.3476 47.6897C16.5133 50.2292 18.248 52.3108 20.3573 54.1426C23.3548 56.7238 26.2274 59.4299 28.8641 62.4274C30.2796 64.0371 30.1686 65.0641 28.8363 66.5351C26.505 69.1301 24.2291 71.7946 22.0642 74.5423C16.1525 82.0221 11.004 90.1404 3.70453 96.4546C2.52496 97.4815 2.85801 98.3835 3.60739 99.4798C6.18857 103.241 9.49137 106.377 12.4611 109.805C19.7189 118.2 28.1702 125.403 35.7611 133.465C36.8297 134.603 37.3293 135.214 35.7889 136.393C29.9743 140.848 24.6038 145.844 19.0528 150.618C14.1125 154.878 8.83913 158.75 3.76004 162.858C-0.417034 166.216 -0.500299 166.91 3.35759 170.74C7.85384 175.208 17.4153 185.63 17.4153 185.63C23.785 191.778 30.1547 197.925 35.8444 204.725C36.5521 205.572 37.7317 206.127 36.1358 207.431C32.7081 210.207 29.4747 213.232 26.1164 216.105C18.2341 222.821 9.61626 228.622 2.03925 235.727C-0.0145976 237.656 -0.153372 239.058 2.08088 240.751C5.81387 243.582 8.78362 247.204 12.0864 250.479C18.9696 257.265 25.7833 264.093 32.6804 270.865C34.3179 272.474 34.1791 273.807 32.9301 275.652C25.7417 286.241 18.0953 296.496 9.94931 306.335C7.46527 309.333 7.9371 311.192 10.3518 313.329C19.2887 321.198 26.0747 331.078 34.6926 339.224C35.8305 340.307 35.8166 340.987 34.7064 342.319C30.4877 347.426 26.5188 352.727 22.4528 357.945C20.5377 359.36 19.0667 361.192 17.6096 363.052C17.4014 363.288 17.1794 363.51 16.9712 363.746L16.7076 364.009C15.07 365.633 13.5158 367.34 11.7534 368.825C9.19993 370.976 7.5069 373.598 6.27182 376.665C5.5502 378.442 5.60571 379.607 7.24323 380.828C10.0326 382.882 13.8905 382.383 16.0692 379.066Z" fill="black"/>
<path d="M27.5733 102.172C26.7684 101.381 25.7276 100.757 25.3946 99.5908C25.8664 98.8692 26.2966 98.1753 26.7546 97.5092C31.2647 91.0146 35.8164 84.5617 40.2849 78.0394C41.0204 76.9708 42.2 75.4998 40.4931 74.4174C38.9666 73.446 38.0646 74.6533 37.1903 75.9161C32.0557 83.3682 26.8656 90.8065 21.62 98.1892C20.593 99.6325 20.8151 100.493 22.0502 101.728C27.6843 107.404 33.263 113.163 38.7029 119.019C39.938 120.337 41.0759 121.67 42.7135 120.435C44.7396 118.908 42.9633 117.493 41.8947 116.41C37.1625 111.609 32.3332 106.918 27.5594 102.172" fill="black"/>
<path d="M29.4329 168.478C34.8173 163.704 39.9241 158.611 45.1281 153.629C46.1134 152.685 48.2505 151.964 46.5436 150.16C45.1975 148.744 43.7265 149.785 42.5886 150.854C36.7323 156.349 30.89 161.831 25.0893 167.381C23.4101 168.991 22.9522 170.518 24.7701 172.738C29.988 179.136 36.3438 184.52 41.0898 191.32C41.4506 191.833 42.2139 192.083 42.5469 192.305C43.782 192.472 44.4759 192.014 44.8922 191.292C45.475 190.293 44.795 189.488 44.1706 188.808C39.3135 183.507 34.4287 178.206 29.53 172.946C28.1284 171.448 27.2958 170.379 29.4329 168.478Z" fill="black"/>
<path d="M17.3875 137.864C13.2382 141.417 9.06112 144.928 4.9118 148.481C4.14855 149.133 3.08 149.73 3.5657 151.02C3.88488 151.881 4.82854 151.978 5.67506 152.463C6.0775 152.227 6.60484 151.992 7.02116 151.645C13.1688 146.51 19.3026 141.348 25.4502 136.199C26.5049 135.311 26.8796 134.354 25.7972 133.257C20.2185 127.54 14.6398 121.808 9.01949 116.119C8.21461 115.3 7.17381 114.453 6.02199 115.633C4.8563 116.826 5.74445 117.742 6.59096 118.589C10.1019 122.128 13.5019 125.819 17.1932 129.163C22.0919 133.604 22.2168 133.743 17.4014 137.878" fill="black"/>
<path d="M28.0729 29.4271C31.6949 25.486 35.3169 21.5587 38.925 17.6175C39.6327 16.8404 40.3127 16.0494 39.8825 14.8421C39.5911 14.0233 38.9805 13.8568 38.245 13.829C37.3568 13.607 36.663 13.9262 36.0801 14.5923C31.001 20.3375 25.8387 25.9994 20.8845 31.8556C19.6355 33.3405 19.3302 34.9919 21.3008 36.9486C26.5464 42.2081 33.0826 46.066 37.5095 52.1998C38.2866 53.2822 39.7021 53.8651 40.8539 52.6994C42.0057 51.5614 40.8678 50.6733 40.1739 49.7435C37.0238 45.4554 32.7912 42.3747 28.6835 39.1551C23.2159 34.867 23.1742 34.9364 27.615 29.9545C27.7676 29.7879 27.9203 29.6075 28.0868 29.441" fill="black"/>
<path d="M4.28719 77.0957C3.4823 77.97 2.62191 79.0246 4.02352 80.0793C5.05044 80.8426 6.13287 81.0646 7.17367 79.9405C12.1695 74.5839 17.2208 69.2828 22.175 63.8984C23.1326 62.8576 23.7571 61.6225 22.522 60.1376C18.3033 55.0724 14.1678 49.9378 10.0185 44.8032C9.26915 43.8734 8.60304 42.8881 7.14592 42.7632C6.59083 42.6106 6.119 42.902 5.79982 43.471C5.2031 44.4979 5.82757 45.3028 6.39654 46.0383C9.67159 50.2292 12.8634 54.4895 16.3327 58.514C18.2616 60.7482 18.1645 62.3164 16.1245 64.3841C12.0585 68.5056 8.18672 72.8215 4.27331 77.0957" fill="black"/>
</g>
<g clip-path="url(#clip2_584_46)">
<path d="M10.7126 561.325L18.8447 570.776C19.4969 571.539 20.2047 572.455 20.0381 573.454C19.9271 574.134 19.4137 574.675 18.9418 575.175C13.5991 580.74 8.25631 586.305 2.89966 591.869C1.95601 592.855 0.970718 593.909 0.720926 595.242C0.485012 596.532 0.97072 597.823 1.40092 599.058C3.81557 605.941 4.81473 613.31 4.31515 620.582C4.24576 621.678 4.13474 622.802 4.44005 623.843C4.81473 625.133 5.75839 626.174 6.66042 627.159C10.1991 630.99 13.7378 634.834 17.2766 638.664C18.7337 640.246 20.2324 641.897 20.9124 643.937C22.661 649.197 18.5116 654.373 15.0562 658.703C11.1428 663.615 7.71509 669.083 6.32736 675.217C4.44004 683.585 6.7298 692.799 12.3224 699.308C16.0554 703.651 21.0651 706.76 24.7009 711.173C20.0243 718.361 14.0848 726.313 5.52247 726.771C4.27351 726.84 2.91354 726.687 2.03927 725.799C1.13724 724.883 1.02622 723.468 0.970713 722.177C-0.111717 696.144 0.0686892 670.068 1.53969 644.062C2.23355 631.67 3.21884 619.208 1.56744 606.912C0.887454 601.833 -0.250487 596.81 -0.722316 591.703C-1.23578 586.096 -0.958226 580.462 -0.68068 574.842C-0.333746 567.806 0.956843 549.974 10.6987 561.312" fill="#E05625"/>
<path d="M45.7527 667.473C45.7527 665.239 42.9495 664.378 41.6034 666.155C41.5757 666.182 41.5618 666.21 41.534 666.238C38.5365 670.11 33.166 671.942 31.0428 676.354C29.3914 679.782 30.224 683.973 32.0974 687.276C33.9709 690.579 36.788 693.243 39.3969 696.019C40.9789 697.712 42.4777 699.46 43.9209 701.278C44.5315 702.041 45.7666 701.611 45.7666 700.626L45.7666 667.473L45.7527 667.473Z" fill="#118D45"/>
<path d="M45.7527 631.239L45.7527 596.935C45.7527 595.38 44.0597 594.451 42.7413 595.255C33.3047 601.042 21.3564 606.843 21.8143 611.658C21.9392 612.991 22.8967 613.018 27.7261 616.696C36.663 623.524 38.2728 626.493 42.8662 632.252C43.8237 633.446 45.7527 632.78 45.7527 631.239Z" fill="#118D45"/>
<path d="M20.4267 638.927C21.2316 639.718 22.2724 640.343 22.6054 641.509C22.1336 642.23 21.7034 642.924 21.2455 643.59C16.7353 650.085 12.1836 656.538 7.71507 663.06C6.97958 664.129 5.80001 665.6 7.50692 666.682C9.03342 667.653 9.93544 666.446 10.8097 665.183C15.9443 657.731 21.1344 650.293 26.3801 642.91C27.407 641.467 27.1849 640.606 25.9499 639.371C20.3157 633.696 14.737 627.936 9.29709 622.08C8.06201 620.762 6.92407 619.43 5.28655 620.665C3.26046 622.191 5.03676 623.607 6.10531 624.689C10.8375 629.491 15.6668 634.181 20.4406 638.927" fill="black"/>
<path d="M18.5671 572.622C13.1827 577.395 8.07584 582.488 2.87185 587.47C1.88656 588.414 -0.250541 589.136 1.45637 590.94C2.80247 592.355 4.27346 591.314 5.4114 590.246C11.2676 584.75 17.11 579.269 22.9107 573.718C24.5899 572.108 25.0478 570.582 23.2299 568.361C18.012 561.964 11.6562 556.579 6.91015 549.779C6.54934 549.266 5.78609 549.016 5.45304 548.794C4.21795 548.628 3.52409 549.086 3.10777 549.807C2.52492 550.806 3.20491 551.611 3.82939 552.291C8.68645 557.592 13.5713 562.894 18.47 568.153C19.8716 569.652 20.7042 570.72 18.5671 572.622Z" fill="black"/>
<path d="M30.6124 603.221C34.7617 599.668 38.9388 596.157 43.0881 592.605C43.8514 591.953 44.9199 591.356 44.4342 590.065C44.1151 589.205 43.1714 589.108 42.3249 588.622C41.9224 588.858 41.3951 589.094 40.9788 589.441C34.8311 594.575 28.6974 599.738 22.5497 604.886C21.495 605.774 21.1203 606.732 22.2028 607.828C27.7815 613.546 33.3601 619.277 38.9804 624.967C39.7853 625.786 40.8261 626.632 41.9779 625.452C43.1436 624.259 42.2555 623.343 41.409 622.497C37.898 618.958 34.4981 615.267 30.8067 611.922C25.908 607.481 25.7831 607.343 30.5985 603.207" fill="black"/>
<path d="M19.927 711.672C16.305 715.613 12.6831 719.541 9.07495 723.482C8.36721 724.259 7.68723 725.05 8.11742 726.257C8.40885 727.076 9.01945 727.243 9.75494 727.27C10.6431 727.492 11.337 727.173 11.9198 726.507C16.9989 720.762 22.1613 715.1 27.1155 709.244C28.3644 707.759 28.6697 706.107 26.6991 704.151C21.4535 698.891 14.9173 695.033 10.4904 688.9C9.71331 687.817 8.29783 687.234 7.14601 688.4C5.99419 689.538 7.13213 690.426 7.826 691.356C10.9761 695.644 15.2087 698.725 19.3164 701.944C24.7841 706.232 24.8257 706.163 20.385 711.145C20.2323 711.311 20.0797 711.492 19.9131 711.658" fill="black"/>
<path d="M43.7127 664.004C44.5176 663.129 45.378 662.075 43.9764 661.02C42.9495 660.257 41.8671 660.035 40.8263 661.159C35.8304 666.515 30.7791 671.817 25.8249 677.201C24.8674 678.242 24.2429 679.477 25.478 680.962C29.6967 686.027 33.8321 691.162 37.9814 696.296C38.7308 697.226 39.3969 698.211 40.854 698.336C41.4091 698.489 41.8809 698.197 42.2001 697.628C42.7968 696.601 42.1724 695.797 41.6034 695.061C38.3284 690.87 35.1366 686.61 31.6672 682.585C29.7383 680.351 29.8354 678.783 31.8754 676.715C35.9415 672.594 39.8132 668.278 43.7266 664.004" fill="black"/>
<path d="M37.2874 546.81L29.1553 537.359C28.5031 536.596 27.7953 535.68 27.9619 534.681C28.0729 534.001 28.5864 533.46 29.0582 532.96C34.4009 527.395 39.7437 521.831 45.1004 516.266C46.044 515.28 47.0293 514.226 47.2791 512.894C47.515 511.603 47.0293 510.312 46.5991 509.077C44.1845 502.194 43.1853 494.825 43.6849 487.554C43.7543 486.457 43.8653 485.333 43.56 484.292C43.1853 483.002 42.2416 481.961 41.3396 480.976C37.8009 477.146 34.2622 473.302 30.7235 469.471C29.2663 467.889 27.7676 466.238 27.0876 464.198C25.3391 458.939 29.4884 453.762 32.9438 449.433C36.8572 444.52 40.2849 439.052 41.6727 432.919C43.56 424.551 41.2702 415.336 35.6777 408.828C31.9447 404.484 26.935 401.375 23.2991 396.962C27.9758 389.774 33.9153 381.822 42.4776 381.364C43.7265 381.295 45.0865 381.448 45.9608 382.336C46.8628 383.252 46.9738 384.667 47.0293 385.958C48.1117 411.992 47.9313 438.067 46.4603 464.073C45.7665 476.466 44.7812 488.927 46.4326 501.223C47.1126 506.302 48.2505 511.325 48.7223 516.432C49.2358 522.039 48.9583 527.673 48.6807 533.293C48.3338 540.329 47.0432 558.161 37.3013 546.824" fill="#E05625"/>
<path d="M2.2473 440.676C2.2473 442.91 5.05051 443.771 6.39661 441.994C6.42437 441.967 6.43825 441.939 6.466 441.911C9.4635 438.039 14.834 436.208 16.9573 431.795C18.6087 428.367 17.776 424.176 15.9026 420.873C14.0291 417.57 11.212 414.906 8.60311 412.13C7.0211 410.437 5.52235 408.689 4.07911 406.871C3.46851 406.108 2.23342 406.538 2.23342 407.523L2.23342 440.676L2.2473 440.676Z" fill="#118D45"/>
<path d="M2.24735 476.91L2.24735 511.214C2.24735 512.769 3.94038 513.698 5.25872 512.894C14.6953 507.107 26.6437 501.306 26.1857 496.491C26.0608 495.158 25.1033 495.131 20.274 491.453C11.337 484.625 9.72722 481.656 5.13383 475.897C4.17629 474.703 2.24735 475.369 2.24735 476.91Z" fill="#118D45"/>
<path d="M16.0692 746.116C19.0528 741.55 22.4666 737.359 26.0331 733.279L25.8805 733.113L26.047 733.265C28.6976 731.336 30.4183 728.616 32.3334 726.021C35.9138 721.164 40.0492 716.779 44.2124 712.408C47.1128 709.355 47.0434 708.48 44.254 705.455C42.1308 703.152 40.2296 700.626 37.9537 698.517C36.1636 696.851 35.2199 694.284 32.6665 693.41C31.5008 690.87 29.7661 688.789 27.6568 686.957C24.6593 684.376 21.7867 681.67 19.15 678.672C17.7345 677.062 17.8455 676.035 19.1777 674.564C21.5091 671.969 23.785 669.305 25.9499 666.557C31.8616 659.077 37.0101 650.959 44.3095 644.645C45.4891 643.618 45.1561 642.716 44.4067 641.62C41.8255 637.859 38.5227 634.723 35.553 631.295C28.309 622.899 19.8438 615.697 12.2529 607.634C11.1844 606.496 10.6848 605.886 12.2252 604.706C18.0398 600.251 23.4242 595.255 28.9612 590.482C33.9016 586.221 39.1749 582.35 44.254 578.242C48.4311 574.884 48.5144 574.19 44.6565 570.36C40.1602 565.891 30.5988 555.469 30.5988 555.469C24.2291 549.322 17.8594 543.174 12.1697 536.374C11.4619 535.528 10.2824 534.972 11.8783 533.668C15.306 530.892 18.5394 527.867 21.8977 524.995C29.78 518.278 38.3978 512.477 45.9748 505.372C48.0287 503.443 48.1674 502.042 45.9332 500.349C42.2002 497.518 39.2305 493.896 35.9277 490.621C29.0445 483.835 22.2307 477.007 15.3337 470.235C13.6962 468.625 13.835 467.293 15.0839 465.447C22.2724 454.859 29.9188 444.603 38.0648 434.764C40.5488 431.767 40.077 429.907 37.6623 427.77C28.7253 419.902 21.9393 410.021 13.3215 401.875C12.1836 400.793 12.1974 400.113 13.3076 398.78C17.5263 393.674 21.4952 388.372 25.5613 383.155C27.4764 381.739 28.9474 379.907 30.4045 378.048C30.6126 377.812 30.8347 377.59 31.0428 377.354L31.3065 377.09C32.944 375.467 34.4983 373.76 36.2607 372.275C38.8141 370.124 40.5072 367.501 41.7423 364.434C42.4639 362.658 42.4084 361.492 40.7708 360.271C37.9815 358.217 34.1236 358.717 31.9449 362.033C28.9612 366.599 25.5474 370.79 21.981 374.87L22.1336 375.036L21.9671 374.884C19.3165 376.813 17.5957 379.533 15.6807 382.128C12.1003 386.985 7.96487 391.37 3.80167 395.741C0.901315 398.794 0.970703 399.669 3.76004 402.694C5.88327 404.997 7.78446 407.523 10.0603 409.632C11.8644 411.298 12.7942 413.865 15.3476 414.739C16.5133 417.279 18.248 419.36 20.3573 421.192C23.3548 423.773 26.2274 426.48 28.8641 429.477C30.2796 431.087 30.1686 432.114 28.8363 433.585C26.505 436.18 24.2291 438.844 22.0642 441.592C16.1525 449.072 11.004 457.19 3.70453 463.504C2.52496 464.531 2.85801 465.433 3.60739 466.529C6.18857 470.29 9.49137 473.427 12.4611 476.854C19.7189 485.25 28.1702 492.452 35.7611 500.515C36.8297 501.653 37.3293 502.264 35.7889 503.443C29.9743 507.898 24.6038 512.894 19.0528 517.667C14.1125 521.928 8.83913 525.8 3.76004 529.907C-0.417034 533.266 -0.500299 533.959 3.35759 537.79C7.85384 542.258 17.4153 552.68 17.4153 552.68C23.785 558.828 30.1547 564.975 35.8444 571.775C36.5521 572.622 37.7317 573.177 36.1358 574.481C32.7081 577.257 29.4747 580.282 26.1164 583.154C18.2341 589.871 9.61626 595.672 2.03925 602.777C-0.0145976 604.706 -0.153372 606.108 2.08088 607.801C5.81387 610.632 8.78362 614.254 12.0864 617.529C18.9696 624.315 25.7833 631.142 32.6804 637.914C34.3179 639.524 34.1791 640.856 32.9301 642.702C25.7417 653.29 18.0953 663.546 9.94931 673.385C7.46527 676.382 7.9371 678.242 10.3518 680.379C19.2887 688.247 26.0747 698.128 34.6926 706.274C35.8305 707.356 35.8166 708.036 34.7064 709.369C30.4877 714.475 26.5188 719.777 22.4528 724.994C20.5377 726.41 19.0667 728.242 17.6096 730.101C17.4014 730.337 17.1794 730.559 16.9712 730.795L16.7076 731.059C15.07 732.683 13.5158 734.389 11.7534 735.874C9.19993 738.025 7.5069 740.648 6.27182 743.715C5.5502 745.491 5.60571 746.657 7.24323 747.878C10.0326 749.932 13.8905 749.432 16.0692 746.116Z" fill="black"/>
<path d="M27.5733 469.222C26.7684 468.431 25.7276 467.806 25.3946 466.641C25.8664 465.919 26.2966 465.225 26.7546 464.559C31.2647 458.064 35.8164 451.611 40.2849 445.089C41.0204 444.02 42.2 442.549 40.4931 441.467C38.9666 440.496 38.0646 441.703 37.1903 442.966C32.0557 450.418 26.8656 457.856 21.62 465.239C20.593 466.682 20.8151 467.543 22.0502 468.778C27.6843 474.453 33.263 480.213 38.7029 486.069C39.938 487.387 41.0759 488.719 42.7135 487.484C44.7396 485.958 42.9633 484.542 41.8947 483.46C37.1625 478.658 32.3332 473.968 27.5594 469.222" fill="black"/>
<path d="M29.4329 535.527C34.8173 530.754 39.9241 525.661 45.1281 520.679C46.1134 519.735 48.2505 519.013 46.5436 517.209C45.1975 515.794 43.7265 516.835 42.5886 517.903C36.7323 523.399 30.89 528.88 25.0893 534.431C23.4101 536.041 22.9522 537.567 24.7701 539.788C29.988 546.185 36.3438 551.57 41.0898 558.37C41.4506 558.883 42.2139 559.133 42.5469 559.355C43.782 559.521 44.4759 559.063 44.8922 558.342C45.475 557.343 44.795 556.538 44.1706 555.858C39.3135 550.557 34.4287 545.255 29.53 539.996C28.1284 538.497 27.2958 537.429 29.4329 535.527Z" fill="black"/>
<path d="M17.3875 504.914C13.2382 508.467 9.06112 511.978 4.9118 515.53C4.14855 516.183 3.08 516.779 3.5657 518.07C3.88488 518.93 4.82854 519.027 5.67506 519.513C6.0775 519.277 6.60484 519.041 7.02116 518.694C13.1688 513.56 19.3026 508.397 25.4502 503.249C26.5049 502.361 26.8796 501.403 25.7972 500.307C20.2185 494.589 14.6398 488.858 9.01949 483.168C8.21461 482.35 7.17381 481.503 6.02199 482.683C4.8563 483.876 5.74445 484.792 6.59096 485.639C10.1019 489.177 13.5019 492.869 17.1932 496.213C22.0919 500.654 22.2168 500.793 17.4014 504.928" fill="black"/>
<path d="M28.0729 396.477C31.6949 392.536 35.3169 388.608 38.925 384.667C39.6327 383.89 40.3127 383.099 39.8825 381.892C39.5911 381.073 38.9805 380.906 38.245 380.879C37.3568 380.657 36.663 380.976 36.0801 381.642C31.001 387.387 25.8387 393.049 20.8845 398.905C19.6355 400.39 19.3302 402.042 21.3008 403.998C26.5464 409.258 33.0826 413.116 37.5095 419.249C38.2866 420.332 39.7021 420.915 40.8539 419.749C42.0057 418.611 40.8678 417.723 40.1739 416.793C37.0238 412.505 32.7912 409.424 28.6835 406.205C23.2159 401.917 23.1742 401.986 27.615 397.004C27.7676 396.838 27.9203 396.657 28.0868 396.491" fill="black"/>
<path d="M4.28719 444.145C3.4823 445.02 2.62191 446.074 4.02352 447.129C5.05044 447.892 6.13287 448.114 7.17367 446.99C12.1695 441.634 17.2208 436.332 22.175 430.948C23.1326 429.907 23.7571 428.672 22.522 427.187C18.3033 422.122 14.1678 416.987 10.0185 411.853C9.26915 410.923 8.60304 409.938 7.14592 409.813C6.59083 409.66 6.119 409.952 5.79982 410.521C5.2031 411.548 5.82757 412.352 6.39654 413.088C9.67159 417.279 12.8634 421.539 16.3327 425.564C18.2616 427.798 18.1645 429.366 16.1245 431.434C12.0585 435.555 8.18672 439.871 4.27331 444.145" fill="black"/>
</g>
<g clip-path="url(#clip3_584_46)">
<path d="M10.7126 928.375L18.8447 937.826C19.4969 938.589 20.2047 939.505 20.0381 940.504C19.9271 941.184 19.4137 941.725 18.9418 942.225C13.5991 947.789 8.25631 953.354 2.89966 958.919C1.95601 959.904 0.970718 960.959 0.720926 962.291C0.485012 963.582 0.97072 964.872 1.40092 966.108C3.81557 972.991 4.81473 980.36 4.31515 987.631C4.24576 988.728 4.13474 989.852 4.44005 990.892C4.81473 992.183 5.75839 993.224 6.66042 994.209C10.1991 998.039 13.7378 1001.88 17.2766 1005.71C18.7337 1007.3 20.2324 1008.95 20.9124 1010.99C22.661 1016.25 18.5116 1021.42 15.0562 1025.75C11.1428 1030.66 7.71509 1036.13 6.32736 1042.27C4.44004 1050.63 6.7298 1059.85 12.3224 1066.36C16.0554 1070.7 21.0651 1073.81 24.7009 1078.22C20.0243 1085.41 14.0848 1093.36 5.52247 1093.82C4.27351 1093.89 2.91354 1093.74 2.03927 1092.85C1.13724 1091.93 1.02622 1090.52 0.970713 1089.23C-0.111717 1063.19 0.0686892 1037.12 1.53969 1011.11C2.23355 998.719 3.21884 986.257 1.56744 973.962C0.887454 968.883 -0.250487 963.859 -0.722316 958.753C-1.23578 953.146 -0.958226 947.512 -0.68068 941.892C-0.333746 934.856 0.956843 917.023 10.6987 928.361" fill="#E05625"/>
<path d="M45.7527 1034.52C45.7527 1032.29 42.9495 1031.43 41.6034 1033.2C41.5757 1033.23 41.5618 1033.26 41.534 1033.29C38.5365 1037.16 33.166 1038.99 31.0428 1043.4C29.3914 1046.83 30.224 1051.02 32.0974 1054.33C33.9709 1057.63 36.788 1060.29 39.3969 1063.07C40.9789 1064.76 42.4777 1066.51 43.9209 1068.33C44.5315 1069.09 45.7666 1068.66 45.7666 1067.68L45.7666 1034.52L45.7527 1034.52Z" fill="#118D45"/>
<path d="M45.7527 998.289L45.7527 963.984C45.7527 962.43 44.0597 961.5 42.7413 962.305C33.3047 968.092 21.3564 973.893 21.8143 978.708C21.9392 980.04 22.8967 980.068 27.7261 983.746C36.663 990.573 38.2728 993.543 42.8662 999.302C43.8237 1000.5 45.7527 999.829 45.7527 998.289Z" fill="#118D45"/>
<path d="M20.4267 1005.98C21.2316 1006.77 22.2724 1007.39 22.6054 1008.56C22.1336 1009.28 21.7034 1009.97 21.2455 1010.64C16.7353 1017.13 12.1836 1023.59 7.71507 1030.11C6.97958 1031.18 5.80001 1032.65 7.50692 1033.73C9.03342 1034.7 9.93544 1033.5 10.8097 1032.23C15.9443 1024.78 21.1344 1017.34 26.3801 1009.96C27.407 1008.52 27.1849 1007.66 25.9499 1006.42C20.3157 1000.75 14.737 994.986 9.29709 989.13C8.06201 987.812 6.92407 986.479 5.28655 987.714C3.26046 989.241 5.03676 990.656 6.10531 991.739C10.8375 996.54 15.6668 1001.23 20.4406 1005.98" fill="black"/>
<path d="M18.5671 939.671C13.1827 944.445 8.07584 949.538 2.87185 954.52C1.88656 955.464 -0.250541 956.185 1.45637 957.989C2.80247 959.405 4.27346 958.364 5.4114 957.295C11.2676 951.8 17.11 946.318 22.9107 940.768C24.5899 939.158 25.0478 937.631 23.2299 935.411C18.012 929.013 11.6562 923.629 6.91015 916.829C6.54934 916.316 5.78609 916.066 5.45304 915.844C4.21795 915.677 3.52409 916.135 3.10777 916.857C2.52492 917.856 3.20491 918.661 3.82939 919.341C8.68645 924.642 13.5713 929.943 18.47 935.203C19.8716 936.701 20.7042 937.77 18.5671 939.671Z" fill="black"/>
<path d="M30.6124 970.271C34.7617 966.718 38.9388 963.207 43.0881 959.655C43.8514 959.002 44.9199 958.406 44.4342 957.115C44.1151 956.255 43.1714 956.157 42.3249 955.672C41.9224 955.908 41.3951 956.144 40.9788 956.491C34.8311 961.625 28.6974 966.787 22.5497 971.936C21.495 972.824 21.1203 973.782 22.2028 974.878C27.7815 980.595 33.3601 986.327 38.9804 992.016C39.7853 992.835 40.8261 993.682 41.9779 992.502C43.1436 991.309 42.2555 990.393 41.409 989.546C37.898 986.008 34.4981 982.316 30.8067 978.972C25.908 974.531 25.7831 974.392 30.5985 970.257" fill="black"/>
<path d="M19.927 1078.72C16.305 1082.66 12.6831 1086.59 9.07495 1090.53C8.36721 1091.31 7.68723 1092.1 8.11742 1093.31C8.40885 1094.13 9.01945 1094.29 9.75494 1094.32C10.6431 1094.54 11.337 1094.22 11.9198 1093.56C16.9989 1087.81 22.1613 1082.15 27.1155 1076.29C28.3644 1074.81 28.6697 1073.16 26.6991 1071.2C21.4535 1065.94 14.9173 1062.08 10.4904 1055.95C9.71331 1054.87 8.29783 1054.28 7.14601 1055.45C5.99419 1056.59 7.13213 1057.48 7.826 1058.41C10.9761 1062.69 15.2087 1065.77 19.3164 1068.99C24.7841 1073.28 24.8257 1073.21 20.385 1078.19C20.2323 1078.36 20.0797 1078.54 19.9131 1078.71" fill="black"/>
<path d="M43.7127 1031.05C44.5176 1030.18 45.378 1029.12 43.9764 1028.07C42.9495 1027.31 41.8671 1027.08 40.8263 1028.21C35.8304 1033.57 30.7791 1038.87 25.8249 1044.25C24.8674 1045.29 24.2429 1046.53 25.478 1048.01C29.6967 1053.08 33.8321 1058.21 37.9814 1063.35C38.7308 1064.28 39.3969 1065.26 40.854 1065.39C41.4091 1065.54 41.8809 1065.25 42.2001 1064.68C42.7968 1063.65 42.1724 1062.85 41.6034 1062.11C38.3284 1057.92 35.1366 1053.66 31.6672 1049.64C29.7383 1047.4 29.8354 1045.83 31.8754 1043.76C35.9415 1039.64 39.8132 1035.33 43.7266 1031.05" fill="black"/>
<path d="M37.2874 913.859L29.1553 904.409C28.5031 903.646 27.7953 902.73 27.9619 901.731C28.0729 901.051 28.5864 900.509 29.0582 900.01C34.4009 894.445 39.7437 888.88 45.1004 883.315C46.044 882.33 47.0293 881.276 47.2791 879.943C47.515 878.653 47.0293 877.362 46.5991 876.127C44.1845 869.244 43.1853 861.875 43.6849 854.603C43.7543 853.507 43.8653 852.383 43.56 851.342C43.1853 850.052 42.2416 849.011 41.3396 848.025C37.8009 844.195 34.2622 840.351 30.7235 836.521C29.2663 834.939 27.7676 833.288 27.0876 831.248C25.3391 825.988 29.4884 820.812 32.9438 816.482C36.8572 811.57 40.2849 806.102 41.6727 799.968C43.56 791.6 41.2702 782.386 35.6777 775.877C31.9447 771.534 26.935 768.425 23.2991 764.012C27.9758 756.824 33.9153 748.872 42.4776 748.414C43.7265 748.345 45.0865 748.497 45.9608 749.386C46.8628 750.301 46.9738 751.717 47.0293 753.008C48.1117 779.041 47.9313 805.117 46.4603 831.123C45.7665 843.515 44.7812 855.977 46.4326 868.272C47.1126 873.352 48.2505 878.375 48.7223 883.482C49.2358 889.088 48.9583 894.723 48.6807 900.343C48.3338 907.379 47.0432 925.211 37.3013 913.873" fill="#E05625"/>
<path d="M2.2473 807.726C2.2473 809.96 5.05051 810.82 6.39661 809.044C6.42437 809.016 6.43825 808.989 6.466 808.961C9.4635 805.089 14.834 803.257 16.9573 798.844C18.6087 795.417 17.776 791.226 15.9026 787.923C14.0291 784.62 11.212 781.956 8.60311 779.18C7.0211 777.487 5.52235 775.739 4.07911 773.921C3.46851 773.157 2.23342 773.588 2.23342 774.573L2.23342 807.726L2.2473 807.726Z" fill="#118D45"/>
<path d="M2.24735 843.959L2.24735 878.264C2.24735 879.818 3.94038 880.748 5.25872 879.943C14.6953 874.156 26.6437 868.356 26.1857 863.54C26.0608 862.208 25.1033 862.18 20.274 858.503C11.337 851.675 9.72722 848.705 5.13383 842.946C4.17629 841.753 2.24735 842.419 2.24735 843.959Z" fill="#118D45"/>
<path d="M16.0692 1113.17C19.0528 1108.6 22.4666 1104.41 26.0331 1100.33L25.8805 1100.16L26.047 1100.32C28.6976 1098.39 30.4183 1095.67 32.3334 1093.07C35.9138 1088.21 40.0492 1083.83 44.2124 1079.46C47.1128 1076.4 47.0434 1075.53 44.254 1072.5C42.1308 1070.2 40.2296 1067.68 37.9537 1065.57C36.1636 1063.9 35.2199 1061.33 32.6665 1060.46C31.5008 1057.92 29.7661 1055.84 27.6568 1054.01C24.6593 1051.43 21.7867 1048.72 19.15 1045.72C17.7345 1044.11 17.8455 1043.09 19.1777 1041.61C21.5091 1039.02 23.785 1036.35 25.9499 1033.61C31.8616 1026.13 37.0101 1018.01 44.3095 1011.69C45.4891 1010.67 45.1561 1009.77 44.4067 1008.67C41.8255 1004.91 38.5227 1001.77 35.553 998.345C28.309 989.949 19.8438 982.746 12.2529 974.684C11.1844 973.546 10.6848 972.935 12.2252 971.756C18.0398 967.301 23.4242 962.305 28.9612 957.531C33.9016 953.271 39.1749 949.399 44.254 945.292C48.4311 941.933 48.5144 941.239 44.6565 937.409C40.1602 932.941 30.5988 922.519 30.5988 922.519C24.2291 916.371 17.8594 910.224 12.1697 903.424C11.4619 902.577 10.2824 902.022 11.8783 900.718C15.306 897.942 18.5394 894.917 21.8977 892.044C29.78 885.328 38.3978 879.527 45.9748 872.422C48.0287 870.493 48.1674 869.091 45.9332 867.398C42.2002 864.567 39.2305 860.945 35.9277 857.67C29.0445 850.884 22.2307 844.057 15.3337 837.284C13.6962 835.675 13.835 834.342 15.0839 832.497C22.2724 821.908 29.9188 811.653 38.0648 801.814C40.5488 798.816 40.077 796.957 37.6623 794.82C28.7253 786.951 21.9393 777.071 13.3215 768.925C12.1836 767.842 12.1974 767.162 13.3076 765.83C17.5263 760.723 21.4952 755.422 25.5613 750.204C27.4764 748.789 28.9474 746.957 30.4045 745.097C30.6126 744.861 30.8347 744.639 31.0428 744.404L31.3065 744.14C32.944 742.516 34.4983 740.809 36.2607 739.324C38.8141 737.173 40.5072 734.551 41.7423 731.484C42.4639 729.707 42.4084 728.542 40.7708 727.321C37.9815 725.267 34.1236 725.766 31.9449 729.083C28.9612 733.649 25.5474 737.84 21.981 741.92L22.1336 742.086L21.9671 741.933C19.3165 743.862 17.5957 746.582 15.6807 749.177C12.1003 754.034 7.96487 758.42 3.80167 762.791C0.901315 765.844 0.970703 766.718 3.76004 769.744C5.88327 772.047 7.78446 774.573 10.0603 776.682C11.8644 778.347 12.7942 780.915 15.3476 781.789C16.5133 784.329 18.248 786.41 20.3573 788.242C23.3548 790.823 26.2274 793.529 28.8641 796.527C30.2796 798.137 30.1686 799.163 28.8363 800.634C26.505 803.229 24.2291 805.894 22.0642 808.642C16.1525 816.122 11.004 824.24 3.70453 830.554C2.52496 831.581 2.85801 832.483 3.60739 833.579C6.18857 837.34 9.49137 840.476 12.4611 843.904C19.7189 852.3 28.1702 859.502 35.7611 867.565C36.8297 868.703 37.3293 869.313 35.7889 870.493C29.9743 874.947 24.6038 879.943 19.0528 884.717C14.1125 888.977 8.83913 892.849 3.76004 896.957C-0.417034 900.315 -0.500299 901.009 3.35759 904.839C7.85384 909.308 17.4153 919.73 17.4153 919.73C23.785 925.877 30.1547 932.025 35.8444 938.825C36.5521 939.671 37.7317 940.226 36.1358 941.531C32.7081 944.306 29.4747 947.332 26.1164 950.204C18.2341 956.921 9.61626 962.721 2.03925 969.827C-0.0145976 971.756 -0.153372 973.157 2.08088 974.85C5.81387 977.681 8.78362 981.303 12.0864 984.578C18.9696 991.364 25.7833 998.192 32.6804 1004.96C34.3179 1006.57 34.1791 1007.91 32.9301 1009.75C25.7417 1020.34 18.0953 1030.6 9.94931 1040.43C7.46527 1043.43 7.9371 1045.29 10.3518 1047.43C19.2887 1055.3 26.0747 1065.18 34.6926 1073.32C35.8305 1074.41 35.8166 1075.09 34.7064 1076.42C30.4877 1081.53 26.5188 1086.83 22.4528 1092.04C20.5377 1093.46 19.0667 1095.29 17.6096 1097.15C17.4014 1097.39 17.1794 1097.61 16.9712 1097.84L16.7076 1098.11C15.07 1099.73 13.5158 1101.44 11.7534 1102.92C9.19993 1105.07 7.5069 1107.7 6.27182 1110.76C5.5502 1112.54 5.60571 1113.71 7.24323 1114.93C10.0326 1116.98 13.8905 1116.48 16.0692 1113.17Z" fill="black"/>
<path d="M27.5733 836.271C26.7684 835.48 25.7276 834.856 25.3946 833.69C25.8664 832.969 26.2966 832.275 26.7546 831.609C31.2647 825.114 35.8164 818.661 40.2849 812.139C41.0204 811.07 42.2 809.599 40.4931 808.517C38.9666 807.545 38.0646 808.753 37.1903 810.015C32.0557 817.468 26.8656 824.906 21.62 832.289C20.593 833.732 20.8151 834.592 22.0502 835.827C27.6843 841.503 33.263 847.262 38.7029 853.118C39.938 854.437 41.0759 855.769 42.7135 854.534C44.7396 853.007 42.9633 851.592 41.8947 850.509C37.1625 845.708 32.3332 841.017 27.5594 836.271" fill="black"/>
<path d="M29.4329 902.577C34.8173 897.803 39.9241 892.71 45.1281 887.728C46.1134 886.785 48.2505 886.063 46.5436 884.259C45.1975 882.844 43.7265 883.884 42.5886 884.953C36.7323 890.448 30.89 895.93 25.0893 901.481C23.4101 903.091 22.9522 904.617 24.7701 906.838C29.988 913.235 36.3438 918.619 41.0898 925.419C41.4506 925.933 42.2139 926.182 42.5469 926.405C43.782 926.571 44.4759 926.113 44.8922 925.391C45.475 924.392 44.795 923.587 44.1706 922.907C39.3135 917.606 34.4287 912.305 29.53 907.046C28.1284 905.547 27.2958 904.478 29.4329 902.577Z" fill="black"/>
<path d="M17.3875 871.964C13.2382 875.516 9.06112 879.027 4.9118 882.58C4.14855 883.232 3.08 883.829 3.5657 885.12C3.88488 885.98 4.82854 886.077 5.67506 886.563C6.0775 886.327 6.60484 886.091 7.02116 885.744C13.1688 880.609 19.3026 875.447 25.4502 870.299C26.5049 869.41 26.8796 868.453 25.7972 867.357C20.2185 861.639 14.6398 855.908 9.01949 850.218C8.21461 849.399 7.17381 848.553 6.02199 849.732C4.8563 850.926 5.74445 851.842 6.59096 852.688C10.1019 856.227 13.5019 859.918 17.1932 863.263C22.0919 867.704 22.2168 867.842 17.4014 871.978" fill="black"/>
<path d="M28.0729 763.526C31.6949 759.585 35.3169 755.658 38.925 751.717C39.6327 750.94 40.3127 750.149 39.8825 748.941C39.5911 748.123 38.9805 747.956 38.245 747.928C37.3568 747.706 36.663 748.026 36.0801 748.692C31.001 754.437 25.8387 760.099 20.8845 765.955C19.6355 767.44 19.3302 769.091 21.3008 771.048C26.5464 776.307 33.0826 780.165 37.5095 786.299C38.2866 787.382 39.7021 787.964 40.8539 786.799C42.0057 785.661 40.8678 784.773 40.1739 783.843C37.0238 779.555 32.7912 776.474 28.6835 773.254C23.2159 768.966 23.1742 769.036 27.615 764.054C27.7676 763.887 27.9203 763.707 28.0868 763.54" fill="black"/>
<path d="M4.28719 811.195C3.4823 812.069 2.62191 813.124 4.02352 814.179C5.05044 814.942 6.13287 815.164 7.17367 814.04C12.1695 808.683 17.2208 803.382 22.175 797.998C23.1326 796.957 23.7571 795.722 22.522 794.237C18.3033 789.172 14.1678 784.037 10.0185 778.903C9.26915 777.973 8.60304 776.987 7.14592 776.863C6.59083 776.71 6.119 777.001 5.79982 777.57C5.2031 778.597 5.82757 779.402 6.39654 780.138C9.67159 784.329 12.8634 788.589 16.3327 792.613C18.2616 794.848 18.1645 796.416 16.1245 798.483C12.0585 802.605 8.18672 806.921 4.27331 811.195" fill="black"/>
</g>
<g clip-path="url(#clip4_584_46)">
<path d="M37.2874 1280.91L29.1553 1271.46C28.5031 1270.7 27.7953 1269.78 27.9619 1268.78C28.0729 1268.1 28.5864 1267.56 29.0582 1267.06C34.4009 1261.49 39.7437 1255.93 45.1004 1250.37C46.044 1249.38 47.0293 1248.33 47.2791 1246.99C47.515 1245.7 47.0293 1244.41 46.5991 1243.18C44.1845 1236.29 43.1853 1228.92 43.6849 1221.65C43.7543 1220.56 43.8653 1219.43 43.56 1218.39C43.1853 1217.1 42.2416 1216.06 41.3396 1215.08C37.8009 1211.25 34.2622 1207.4 30.7235 1203.57C29.2663 1201.99 27.7676 1200.34 27.0876 1198.3C25.3391 1193.04 29.4884 1187.86 32.9438 1183.53C36.8572 1178.62 40.2849 1173.15 41.6727 1167.02C43.56 1158.65 41.2702 1149.44 35.6777 1142.93C31.9447 1138.58 26.935 1135.47 23.2991 1131.06C27.9758 1123.87 33.9153 1115.92 42.4776 1115.46C43.7265 1115.39 45.0865 1115.55 45.9608 1116.44C46.8628 1117.35 46.9738 1118.77 47.0293 1120.06C48.1117 1146.09 47.9313 1172.17 46.4603 1198.17C45.7665 1210.57 44.7812 1223.03 46.4326 1235.32C47.1126 1240.4 48.2505 1245.42 48.7223 1250.53C49.2358 1256.14 48.9583 1261.77 48.6807 1267.39C48.3338 1274.43 47.0432 1292.26 37.3013 1280.92" fill="#E05625"/>
<path d="M16.0692 1480.22C19.0528 1475.65 22.4666 1471.46 26.0331 1467.38L25.8805 1467.21L26.047 1467.36C28.6976 1465.44 30.4183 1462.72 32.3334 1460.12C35.9138 1455.26 40.0492 1450.88 44.2124 1446.51C47.1128 1443.45 47.0434 1442.58 44.254 1439.55C42.1308 1437.25 40.2296 1434.73 37.9537 1432.62C36.1636 1430.95 35.2199 1428.38 32.6665 1427.51C31.5008 1424.97 29.7661 1422.89 27.6568 1421.06C24.6593 1418.47 21.7867 1415.77 19.15 1412.77C17.7345 1411.16 17.8455 1410.13 19.1777 1408.66C21.5091 1406.07 23.785 1403.4 25.9499 1400.66C31.8616 1393.18 37.0101 1385.06 44.3095 1378.74C45.4891 1377.72 45.1561 1376.82 44.4067 1375.72C41.8255 1371.96 38.5227 1368.82 35.553 1365.39C28.309 1357 19.8438 1349.8 12.2529 1341.73C11.1844 1340.6 10.6848 1339.98 12.2252 1338.81C18.0398 1334.35 23.4242 1329.35 28.9612 1324.58C33.9016 1320.32 39.1749 1316.45 44.254 1312.34C48.4311 1308.98 48.5144 1308.29 44.6565 1304.46C40.1602 1299.99 30.5988 1289.57 30.5988 1289.57C24.2291 1283.42 17.8594 1277.27 12.1697 1270.47C11.4619 1269.63 10.2824 1269.07 11.8783 1267.77C15.306 1264.99 18.5394 1261.97 21.8977 1259.09C29.78 1252.38 38.3978 1246.58 45.9748 1239.47C48.0287 1237.54 48.1674 1236.14 45.9332 1234.45C42.2002 1231.62 39.2305 1227.99 35.9277 1224.72C29.0445 1217.93 22.2307 1211.11 15.3337 1204.33C13.6962 1202.72 13.835 1201.39 15.0839 1199.55C22.2724 1188.96 29.9188 1178.7 38.0648 1168.86C40.5488 1165.87 40.077 1164.01 37.6623 1161.87C28.7253 1154 21.9393 1144.12 13.3215 1135.97C12.1836 1134.89 12.1974 1134.21 13.3076 1132.88C17.5263 1127.77 21.4952 1122.47 25.5613 1117.25C27.4764 1115.84 28.9474 1114.01 30.4045 1112.15C30.6126 1111.91 30.8347 1111.69 31.0428 1111.45L31.3065 1111.19C32.944 1109.57 34.4983 1107.86 36.2607 1106.37C38.8141 1104.22 40.5072 1101.6 41.7423 1098.53C42.4639 1096.76 42.4084 1095.59 40.7708 1094.37C37.9815 1092.32 34.1236 1092.82 31.9449 1096.13C28.9612 1100.7 25.5474 1104.89 21.981 1108.97L22.1336 1109.14L21.9671 1108.98C19.3165 1110.91 17.5957 1113.63 15.6807 1116.23C12.1003 1121.08 7.96487 1125.47 3.80167 1129.84C0.901315 1132.89 0.970703 1133.77 3.76004 1136.79C5.88327 1139.1 7.78446 1141.62 10.0603 1143.73C11.8644 1145.4 12.7942 1147.96 15.3476 1148.84C16.5133 1151.38 18.248 1153.46 20.3573 1155.29C23.3548 1157.87 26.2274 1160.58 28.8641 1163.58C30.2796 1165.19 30.1686 1166.21 28.8363 1167.68C26.505 1170.28 24.2291 1172.94 22.0642 1175.69C16.1525 1183.17 11.004 1191.29 3.70453 1197.6C2.52496 1198.63 2.85801 1199.53 3.60739 1200.63C6.18857 1204.39 9.49137 1207.53 12.4611 1210.95C19.7189 1219.35 28.1702 1226.55 35.7611 1234.61C36.8297 1235.75 37.3293 1236.36 35.7889 1237.54C29.9743 1242 24.6038 1246.99 19.0528 1251.77C14.1125 1256.03 8.83913 1259.9 3.76004 1264.01C-0.417034 1267.36 -0.500299 1268.06 3.35759 1271.89C7.85384 1276.36 17.4153 1286.78 17.4153 1286.78C23.785 1292.93 30.1547 1299.07 35.8444 1305.87C36.5521 1306.72 37.7317 1307.28 36.1358 1308.58C32.7081 1311.36 29.4747 1314.38 26.1164 1317.25C18.2341 1323.97 9.61626 1329.77 2.03925 1336.88C-0.0145976 1338.81 -0.153372 1340.21 2.08088 1341.9C5.81387 1344.73 8.78362 1348.35 12.0864 1351.63C18.9696 1358.41 25.7833 1365.24 32.6804 1372.01C34.3179 1373.62 34.1791 1374.96 32.9301 1376.8C25.7417 1387.39 18.0953 1397.65 9.94931 1407.48C7.46527 1410.48 7.9371 1412.34 10.3518 1414.48C19.2887 1422.35 26.0747 1432.23 34.6926 1440.37C35.8305 1441.46 35.8166 1442.14 34.7064 1443.47C30.4877 1448.57 26.5188 1453.88 22.4528 1459.09C20.5377 1460.51 19.0667 1462.34 17.6096 1464.2C17.4014 1464.44 17.1794 1464.66 16.9712 1464.89L16.7076 1465.16C15.07 1466.78 13.5158 1468.49 11.7534 1469.97C9.19993 1472.12 7.5069 1474.75 6.27182 1477.81C5.5502 1479.59 5.60571 1480.76 7.24323 1481.98C10.0326 1484.03 13.8905 1483.53 16.0692 1480.22Z" fill="black"/>
<path d="M28.0729 1130.58C31.6949 1126.63 35.3169 1122.71 38.925 1118.77C39.6327 1117.99 40.3127 1117.2 39.8825 1115.99C39.5911 1115.17 38.9805 1115.01 38.245 1114.98C37.3568 1114.76 36.663 1115.08 36.0801 1115.74C31.001 1121.49 25.8387 1127.15 20.8845 1133C19.6355 1134.49 19.3302 1136.14 21.3008 1138.1C26.5464 1143.36 33.0826 1147.22 37.5095 1153.35C38.2866 1154.43 39.7021 1155.01 40.8539 1153.85C42.0057 1152.71 40.8678 1151.82 40.1739 1150.89C37.0238 1146.6 32.7912 1143.52 28.6835 1140.3C23.2159 1136.02 23.1742 1136.09 27.615 1131.1C27.7676 1130.94 27.9203 1130.76 28.0868 1130.59" fill="black"/>
</g>
</g>
<defs>
<clipPath id="clip0_584_46">
<rect width="794" height="1123" fill="white"/>
</clipPath>
<clipPath id="clip1_584_46">
<rect width="390.05" height="50" fill="white" transform="translate(49 -8) rotate(90)"/>
</clipPath>
<clipPath id="clip2_584_46">
<rect width="390.05" height="50" fill="white" transform="translate(49 359.05) rotate(90)"/>
</clipPath>
<clipPath id="clip3_584_46">
<rect width="390.05" height="50" fill="white" transform="translate(49 726.099) rotate(90)"/>
</clipPath>
<clipPath id="clip4_584_46">
<rect width="390.05" height="50" fill="white" transform="translate(49 1093.15) rotate(90)"/>
</clipPath>
</defs>
</svg>
