<svg width="794" height="1123" viewBox="0 0 794 1123" fill="none" xmlns="http://www.w3.org/2000/svg">
<rect width="794" height="1123" fill="white"/>
<g clip-path="url(#clip0_584_2)">
<g clip-path="url(#clip1_584_2)">
<path d="M252 1218L252 -193L-542 -193L-542 1218L252 1218Z" fill="#0D8E5B"/>
<path d="M252 1218L252 -193L-542 -193L-542 1218L252 1218Z" fill="#0D8E5B"/>
<path d="M252 -193L-542 -193L-542 524.699L252 52.6022L252 -193Z" fill="#FD8118"/>
<path d="M89 798L89 400L-542 400L-542 798L89 798Z" fill="#FD8118"/>
<path d="M252 1218L252 797.713L89.0829 797.713L89.083 1218L252 1218Z" fill="#FD8118"/>
<mask id="mask0_584_2" style="mask-type:luminance" maskUnits="userSpaceOnUse" x="-542" y="-193" width="794" height="1411">
<path d="M252 1218L252 -193L-542 -193L-542 1218L252 1218Z" fill="white"/>
</mask>
<g mask="url(#mask0_584_2)">
<path d="M630.39 670.282C630.39 520.804 509.158 399.694 359.695 399.694C210.232 399.694 88.9999 520.878 88.9999 670.282L88.9999 797.713L630.39 797.713L630.39 670.282Z" fill="#DE4A00"/>
</g>
</g>
</g>
<defs>
<clipPath id="clip0_584_2">
<rect width="252" height="1123" fill="white"/>
</clipPath>
<clipPath id="clip1_584_2">
<rect width="1411" height="794" fill="white" transform="translate(252 -193) rotate(90)"/>
</clipPath>
</defs>
</svg>
