<svg width="48" height="48" viewBox="0 0 48 48" fill="none" xmlns="http://www.w3.org/2000/svg">
<g clip-path="url(#clip0_4256_5424)">
<path d="M42.4088 9.98696C42.3002 8.49283 41.6907 7.39783 40.6924 6.90381C40.4728 6.79512 40.1951 6.72898 39.926 6.66457C39.7076 6.61223 39.4078 6.54092 39.3276 6.47306C39.198 6.36379 39.0899 5.89738 39.0179 5.58855C38.9638 5.35678 38.9133 5.13766 38.8459 4.96858C38.1614 3.25189 36.7321 3.21106 35.3492 3.17137C35.0151 3.1616 34.6688 3.15182 34.337 3.11789L34.315 3.11559L34.2929 3.11674C30.9362 3.25937 27.443 3.17713 24.0648 3.09776C20.2561 3.00747 16.3178 2.91488 12.5417 3.14204C11.3476 3.21393 9.99439 3.2956 9.25356 4.57463C9.1269 4.79317 9.03161 5.08705 8.93922 5.37116C8.848 5.65181 8.7347 6.0009 8.62546 6.11707C8.49473 6.25682 8.17574 6.308 7.89393 6.35286C7.71323 6.38162 7.52613 6.41152 7.36054 6.46558C5.97825 6.91819 5.65112 7.7751 5.5721 9.00985C5.43846 11.0981 5.5169 13.2587 5.59244 15.3487C5.65809 17.1631 5.72607 19.0397 5.65403 20.8484C5.61045 21.9405 5.62439 22.9332 5.6395 23.9845C5.64822 24.5803 5.65693 25.1962 5.65403 25.8306C5.64415 28.0614 5.63718 30.4538 5.65403 32.833C5.65926 33.556 5.64066 34.3007 5.62149 35.0892C5.58779 36.4441 5.55351 37.8451 5.6488 39.1115C5.7313 40.203 6.12118 40.8926 6.84109 41.2198C7.13568 41.3538 7.42445 41.3975 7.70335 41.4395C7.91834 41.4723 8.12344 41.5033 8.31228 41.5752C8.39711 41.7823 8.44708 42.0083 8.49996 42.2458C8.55283 42.4845 8.60745 42.7318 8.70216 42.9745C9.32794 44.5796 10.7207 44.7786 12.2151 44.8516C14.4771 44.9626 16.8652 44.9224 19.1742 44.8838C20.5281 44.8608 21.9278 44.8378 23.2694 44.8453C24.7847 44.8545 26.3646 44.8878 27.8921 44.9206C29.7509 44.9603 31.6416 45.0006 33.5213 45.0006C35.3358 45.0006 37.1394 44.9632 38.8912 44.851C41.2183 44.7027 42.3687 43.3356 42.4071 40.6723C42.4431 38.17 42.4001 35.6148 42.3589 33.1436C42.299 29.5837 42.2374 25.903 42.4106 22.3075V22.2919V22.2764C42.3031 20.3676 42.3658 18.3502 42.4263 16.3994C42.4925 14.2703 42.5605 12.0688 42.4094 9.98753L42.4088 9.98696ZM7.58075 29.1006C7.4599 27.8814 7.44305 27.1832 8.49763 27.0095C8.701 26.9762 8.87298 27.082 8.91482 27.2677C8.99791 27.6312 8.9398 28.1615 8.88344 28.6745C8.83405 29.123 8.7835 29.5848 8.8172 29.9909C8.54876 30.1243 7.83525 30.2307 7.63595 30.1323C7.6499 29.8017 7.61503 29.4457 7.58075 29.1006ZM8.90029 23.1293C8.98048 23.3777 8.93574 24.532 8.83347 24.7689C8.77363 24.9081 8.55574 25.053 8.29194 25.1295C8.01305 25.21 7.77075 25.1928 7.66442 25.1335C7.48139 24.8707 7.49941 23.4864 7.64699 23.2132C7.71613 23.1442 7.96598 22.974 8.0572 22.9343C8.23442 22.9165 8.76723 23.0309 8.90029 23.1299V23.1293ZM8.82766 19.7626C8.65974 19.8702 7.93286 19.9386 7.5854 19.9075C7.49243 19.5855 7.49883 18.5704 7.55286 18.2817C7.63305 17.8567 7.93925 17.798 8.61849 17.7658C8.69402 17.7624 8.7713 17.7584 8.848 17.7538C8.96711 18.5716 8.99035 19.4877 8.82766 19.7626ZM7.63421 13.8752C7.7109 13.7188 7.8184 13.632 7.97412 13.6009C8.13042 13.5699 8.63766 13.5618 8.82882 13.5992C8.92528 13.858 8.96014 14.7218 8.8509 14.9242C8.67659 15.0513 7.93112 15.1986 7.66558 15.1669C7.51626 14.7977 7.46687 14.2174 7.63421 13.8752ZM7.58017 34.8931C7.63827 34.8344 7.87476 34.8333 8.01595 34.8321C8.11124 34.8315 8.21002 34.831 8.3024 34.8206C8.39769 34.8103 8.49182 34.7827 8.58305 34.7556C8.65161 34.7355 8.77537 34.701 8.82766 34.7021C8.83173 34.709 8.83696 34.7205 8.84161 34.7378C8.84858 34.7671 8.85439 34.8384 8.8573 34.9063C8.5261 34.9782 7.79864 35.0311 7.55809 34.9454C7.56274 34.9207 7.56971 34.9029 7.57959 34.8931H7.58017ZM8.17283 31.841C8.46277 31.7541 8.74632 31.7242 8.848 31.7467C8.96537 31.9859 8.92818 32.9509 8.78873 33.1476C8.66149 33.2989 7.93519 33.4191 7.59179 33.3673C7.37855 32.5334 7.57378 32.0204 8.17341 31.841H8.17283ZM37.3875 37.4201C37.2945 38.6192 36.8564 39.0356 35.5927 39.1264C32.1767 39.0419 28.6864 39.0908 25.3112 39.1379C21.6657 39.1891 17.8959 39.2415 14.2185 39.1264C14.1389 39.1241 14.0506 39.1218 13.9559 39.119C13.1895 39.0983 11.9072 39.0643 11.3726 38.8377C10.7172 38.5605 10.6231 37.4862 10.7538 36.5735C10.7852 36.3561 10.8386 36.3193 10.9822 36.2204C11.067 36.1618 11.1733 36.0893 11.2791 35.9737C11.8979 35.2997 11.992 34.1713 11.4888 33.4576C11.354 33.2661 11.1478 33.1298 10.9665 33.009C10.823 32.9141 10.6446 32.7957 10.6184 32.7117C10.5725 32.5633 10.5632 31.8467 10.594 31.5862C10.6173 31.3913 10.7306 31.3165 10.9653 31.1796C11.2599 31.0071 11.6631 30.7713 11.6643 30.1226C11.6655 29.6102 11.2826 29.3082 10.9746 29.0661C10.5371 28.7216 10.4627 28.6169 10.6696 28.2891C10.7346 28.1856 10.8113 28.1425 10.9281 28.0769C11.1414 27.9567 11.433 27.7928 11.6091 27.2344C11.7718 26.7179 11.7096 26.4448 11.655 26.2038C11.6283 26.0871 11.6033 25.9766 11.6021 25.8271C11.6021 25.7782 11.6283 25.6902 11.6521 25.6132C11.6881 25.4941 11.7294 25.3595 11.727 25.2192C11.7189 24.7551 11.3407 24.4756 11.0362 24.2507C10.5789 23.9132 10.4592 23.7981 10.737 23.4065C10.7997 23.3173 10.8967 23.2489 11.0089 23.169C11.2529 22.9953 11.5568 22.7796 11.6939 22.2534C11.777 21.9371 11.7381 21.7059 11.7038 21.5023C11.6887 21.4132 11.6748 21.3292 11.6707 21.2378C11.6736 21.2228 11.6829 21.1906 11.6904 21.1664C11.7143 21.0865 11.7468 20.9778 11.7439 20.853C11.7288 20.2342 11.3807 19.9351 11.1013 19.6953C10.8421 19.4728 10.655 19.3117 10.6707 18.9092C10.6893 18.4335 10.8334 18.3421 11.0722 18.1908C11.2698 18.066 11.5156 17.9102 11.6759 17.5542C11.9531 16.9383 11.856 15.623 11.4929 15.0847C11.2919 14.7862 11.0443 14.6545 10.863 14.5585C10.612 14.4251 10.5272 14.3796 10.5911 13.8868C10.6045 13.8177 10.8328 13.6573 10.9554 13.571C11.1995 13.3991 11.4766 13.2041 11.619 12.92C11.9234 12.3115 11.8961 11.2407 11.562 10.6731C11.4301 10.4488 11.2419 10.3073 11.0757 10.1825C10.8444 10.0082 10.712 9.89782 10.6783 9.66202C10.5458 8.7269 10.4999 6.55012 10.698 5.83239C10.8625 5.23601 11.2477 4.99734 12.1663 4.9243H35.5706C35.7054 4.94903 35.8512 4.96456 36.0058 4.98123C36.3788 5.02092 36.8018 5.06635 37.0028 5.24751C37.1336 5.38208 37.3573 6.18838 37.3875 6.5553V37.4207V37.4201ZM10.375 12.1269C10.2925 12.1781 10.1513 12.2552 10.0781 12.288C9.96824 12.2759 9.78289 12.2207 9.6173 12.1718C9.37616 12.0999 9.12632 12.0263 8.90726 12.0096C8.87705 12.0073 8.84451 12.0062 8.80965 12.0062C8.658 12.0062 8.46219 12.0251 8.24256 12.047C8.07231 12.0637 7.81782 12.089 7.65629 12.0901C7.66965 12.0677 7.68476 12.0476 7.69754 12.0384C7.84454 11.9417 8.67659 11.7612 9.01476 11.7267C10.0688 11.6197 10.325 11.7525 10.3703 11.7847C10.3843 11.8589 10.3872 12.0303 10.375 12.1269ZM8.86194 10.0663C8.64289 10.194 7.8428 10.4005 7.60516 10.4166C7.41806 10.2066 7.42852 8.98052 7.58482 8.59347C7.69696 8.31627 8.03861 8.08451 8.41571 8.0293C8.7806 7.97639 8.81081 8.0592 8.83115 8.11441C8.95491 8.45085 8.96886 9.62579 8.86194 10.0657V10.0663ZM7.55983 37.1734C7.58598 36.9663 7.6772 36.8122 7.83873 36.7012C8.04675 36.558 8.33145 36.5062 8.60861 36.5062C8.72424 36.5062 8.8387 36.5155 8.94561 36.5304C8.99268 36.899 8.99093 37.2407 8.98919 37.5725C8.98454 38.5157 8.9799 39.4071 10.2047 40.2324C11.0995 40.8345 12.3092 40.8903 13.2813 40.9346C17.0877 41.1088 21.0237 41.0295 24.8301 40.953C28.325 40.8828 31.9385 40.8098 35.4364 40.934H35.4515H35.4666C36.6054 40.8638 37.4131 40.6165 38.0075 40.157C38.6861 39.6325 39.0556 38.8469 39.137 37.7554C39.2637 36.0577 39.2183 34.1822 39.1742 32.3684C39.1492 31.3418 39.1236 30.2807 39.1318 29.2933L39.1509 26.9365C39.2009 20.8961 39.2526 14.6505 39.2073 8.50836C39.2096 8.47213 39.2236 8.39794 39.3543 8.38471C39.5989 8.35998 39.8255 8.4382 40.0271 8.61763C40.313 8.87183 40.5065 9.31006 40.5083 9.70688V41.4855C40.4048 42.6277 39.8819 42.7876 38.6309 42.8928H11.7898C11.7363 42.8876 11.6829 42.8825 11.6294 42.8767C10.9793 42.8117 10.569 42.7421 10.3488 42.3223C10.2198 42.0762 10.1821 41.8179 10.142 41.5442C10.0635 41.0047 9.97405 40.3934 9.12167 40.0173C8.85497 39.8994 8.59931 39.847 8.37445 39.801C7.89742 39.7033 7.67953 39.6584 7.58191 39.1471C7.48256 38.6267 7.47384 37.852 7.55983 37.1734Z" fill="#9A1915"/>
<path d="M21.2084 26.7662C20.4321 26.7881 19.4926 27.8428 18.6733 28.8297C18.6123 28.9033 18.5571 28.97 18.5083 29.0276C18.0231 29.6015 17.5629 30.21 17.1173 30.7989C16.9279 31.0496 16.7321 31.3084 16.5368 31.5609C16.2446 31.6897 15.8832 31.3786 15.3753 30.8966C14.8385 30.3877 14.104 29.6912 13.3986 30.3106C13.2121 30.4745 13.1075 30.6919 13.0965 30.9398C13.0663 31.6138 13.699 32.3741 14.3876 33.0953L14.5288 33.2442C15.2214 33.9752 15.7216 34.5031 16.3916 34.5031C16.8721 34.5031 17.348 34.2265 17.9342 33.6071C18.5676 32.9377 21.7999 29.1794 22.0259 28.2604C22.0846 28.0217 22.1886 27.4253 21.8812 27.0498C21.7714 26.9152 21.5663 26.7559 21.2066 26.7674L21.2084 26.7662Z" fill="#9A1915"/>
<path d="M15.7531 24.5354C15.9826 24.6608 16.2022 24.7154 16.4125 24.7154C17.2975 24.7154 18.0075 23.7498 18.5095 23.0666C18.6495 22.8763 18.782 22.6962 18.8971 22.5628C19.0429 22.3943 19.2497 22.1694 19.4891 21.9089C20.7465 20.5402 21.8877 19.2479 22.0492 18.4755C22.13 18.0879 22.0428 17.736 21.8092 17.5088C21.5937 17.2989 21.2834 17.2258 20.9359 17.3023C20.2131 17.4622 19.1277 18.8666 17.7832 20.6857C17.3567 21.2625 16.9889 21.7611 16.7617 22.0096L16.7286 22.0458C16.6014 22.1861 16.4701 22.3311 16.3428 22.3311C16.1842 22.3311 15.7467 21.9084 15.4852 21.6559C15 21.1877 14.4986 20.7029 13.9977 20.6719C13.7456 20.6563 13.5248 20.7455 13.3766 20.9232C13.2064 21.1274 13.1512 21.4276 13.2296 21.726C13.4144 22.4294 15.2092 24.2381 15.7531 24.5354Z" fill="#9A1915"/>
<path d="M14.0953 13.5262C14.8285 14.3532 15.6856 15.1796 16.5542 15.1796C16.6257 15.1796 16.6972 15.1739 16.7686 15.1624C17.359 15.0663 17.9964 14.2502 18.768 13.1926C18.9423 12.9539 19.0928 12.7481 19.2038 12.6158C19.3897 12.3949 19.6645 12.0993 19.9556 11.7865C20.7685 10.9129 21.6894 9.92313 21.9527 9.25314C22.0845 8.91727 22.041 8.52908 21.8411 8.26453C21.6743 8.04369 21.4152 7.93097 21.1299 7.95512C20.5489 8.00458 19.7238 8.87184 18.6634 10.1589C18.6035 10.2314 18.5507 10.2958 18.5071 10.3481C18.2706 10.6305 18.0481 10.9324 17.8331 11.2246C17.5652 11.5886 17.2875 11.9653 16.9888 12.2937C16.5775 12.7463 16.3683 12.8412 16.2649 12.8418C16.1376 12.8418 15.9662 12.6555 15.7675 12.4398C15.6007 12.2586 15.4113 12.0528 15.1626 11.852C14.8227 11.5783 14.115 11.0084 13.5218 11.3862C13.3422 11.5007 13.2318 11.668 13.2034 11.8704C13.1336 12.3691 13.5729 12.9413 14.0575 13.4853L14.0947 13.5267L14.0953 13.5262Z" fill="#9A1915"/>
<path d="M33.9558 20.8295C32.6915 20.661 31.1093 20.7087 29.7131 20.7507C29.5172 20.7564 29.3261 20.7622 29.1419 20.7674C29.0239 20.7702 28.8676 20.7714 28.6875 20.7731C27.4981 20.7817 26.3959 20.8099 25.9735 21.0566C25.7103 21.2102 25.6307 21.4126 25.6098 21.5552C25.5772 21.7801 25.6679 22.0188 25.866 22.2281C25.97 22.338 26.1983 22.4915 26.9746 22.5513C27.4912 22.5916 28.0216 22.6054 28.5562 22.6054C29.2116 22.6054 29.874 22.5841 30.5236 22.5634C31.573 22.5295 32.6578 22.495 33.6763 22.5519H33.6926C33.6926 22.5519 33.6955 22.5519 33.6967 22.5519C34.4044 22.5519 34.8576 22.1068 34.8878 21.6754C34.9116 21.3298 34.6792 20.9261 33.9564 20.83L33.9558 20.8295Z" fill="#9A1915"/>
<path d="M33.4957 30.3843C32.7997 30.3227 31.9147 30.3268 31.1344 30.3314C30.9206 30.3325 30.7137 30.3337 30.5208 30.3331C30.3366 30.3331 30.149 30.3319 29.959 30.3308C29.0136 30.3262 28.0357 30.3216 27.1252 30.3837L27.0665 30.3877C26.5448 30.4222 25.5738 30.4866 25.5861 31.4022L25.589 31.4384C25.6366 31.7898 25.9963 32.0371 26.575 32.1159L26.6081 32.1205L26.6418 32.1176C27.6662 32.0337 28.8091 32.0837 29.9142 32.1326C30.5958 32.1625 31.2901 32.193 31.9688 32.193C32.5446 32.193 33.1099 32.1711 33.6456 32.1079C34.4457 32.0141 34.7252 31.6173 34.7206 31.2774C34.7148 30.8863 34.3342 30.4585 33.4963 30.3843H33.4957Z" fill="#9A1915"/>
<path d="M25.6649 12.4927L25.7532 12.5548C26.0281 12.7492 26.3494 12.8751 26.6579 12.9097C27.1721 12.9672 27.7125 12.9873 28.2633 12.9873C28.942 12.9873 29.6375 12.9562 30.3196 12.9258C31.4248 12.8763 32.5671 12.8257 33.592 12.9102L33.6327 12.9137L33.6728 12.9062C34.678 12.7216 34.7338 12.1925 34.7274 12.0343C34.7082 11.5869 34.2242 11.2516 33.4938 11.1803C31.9157 11.0268 29.1256 11.0768 27.3023 11.201C27.2465 11.205 27.1855 11.2079 27.1216 11.2108C26.6318 11.2349 26.0228 11.2654 25.7341 11.6594C25.6347 11.7951 25.5371 12.0315 25.6359 12.388L25.6643 12.4916L25.6649 12.4927Z" fill="#9A1915"/>
</g>
<defs>
<clipPath id="clip0_4256_5424">
<rect width="37" height="42" fill="white" transform="translate(5.5 3)"/>
</clipPath>
</defs>
</svg>
