<?xml version="1.0" encoding="UTF-8"?>
<svg id="Layer_1" xmlns="http://www.w3.org/2000/svg" version="1.1" viewBox="0 0 200 200">
  <!-- Generator: Adobe Illustrator 30.3.0, SVG Export Plug-In . SVG Version: 2.1.3 Build 182)  -->
  <defs>
    <style>
      .st0 {
        fill: #9a1915;
      }

      .st1 {
        fill: #fff;
      }
    </style>
  </defs>
  <path class="st0" d="M198.411,184.856c1.251,4.242-.036,8.035-2.571,10.652-2.586,2.67-6.64,4.284-10.737,3.071l-38.617-11.432c-32.54,17.518-71.136,15.411-101.734-4.949C16.112,163.142-.806,129.519,1.221,94.162,3.498,54.435,29.555,20.671,64.575,7.506c39.842-14.978,82.673-3.268,109.255,26.639,27.688,31.15,33.032,75.649,13.277,112.398l11.303,38.313Z"/>
  <g>
    <path class="st1" d="M110.781,154.925l-9.94.073c-7.32.054-11.953-5.046-11.942-12.14l.063-42.803c-6.597-.359-10.785-5.163-10.969-10.863-.197-6.097,4.556-11.014,10.963-11.219l10.766.039c6.682.024,11.239,5.086,11.235,11.639l-.024,43.149c6.311.54,10.793,4.897,10.956,10.714.166,5.919-4.283,11.361-11.108,11.411Z"/>
    <path class="st1" d="M97.33,45.413c6.386-1.511,12.017,2.426,13.303,8.101,1.305,5.76-2.242,11.771-8.345,13.224-5.353,1.275-11.045-1.987-12.802-7.515-1.786-5.623,1.14-12.224,7.843-13.81Z"/>
  </g>
</svg>