<svg width="48" height="48" viewBox="0 0 48 48" fill="none" xmlns="http://www.w3.org/2000/svg">
<path d="M46.8153 14.2541C47.3257 14.606 48.0642 14.8629 47.3692 15.071C47.8928 15.7222 48.7916 38.7058 46.576 37.4405C46.9771 37.4587 4.08405 37.1294 3.92754 37.5C4.06707 37.3353 3.54078 36.8102 4.16416 37.0607C3.34926 36.9282 3.47446 33.7599 4.17901 33.5335C4.11694 33.887 2.10993 33.4885 0.680674 33.5995C1.00006 33.4794 0.139 33.4568 0 33.0401C0.580403 32.7917 -0.842487 8.89947 1.43456 10.6679C2.41233 10.5585 43.8268 10.242 44.4789 10.9313C44.2348 11.2053 44.1584 14.1393 44.5001 14.26C44.4656 14.4016 44.3664 14.6027 44.1674 14.4697C44.811 14.5588 47.3018 14.445 46.8153 14.2546V14.2541ZM42.3928 11.9793C42.6697 12.2153 2.13168 12.2314 1.47541 12.2497C2.20224 12.218 1.82769 32.1803 1.63723 31.8665C1.56773 31.9335 43.0273 31.9072 42.3679 32.0612C42.7138 32.0746 42.8124 12.1209 42.3928 11.9793ZM45.8943 15.8412C46.1713 16.0767 44.6274 16.0928 43.9711 16.111C44.4364 16.6093 45.1256 34.6234 43.2432 33.6161C43.5642 34.9603 -0.0535836 30.4108 5.64912 35.9671C4.94669 35.8689 46.0116 35.9059 46.619 35.738C45.8842 35.9654 46.3134 15.9823 45.8943 15.8412Z" fill="#9A1915"/>
<path d="M8.94326 13.8813C9.7709 14.769 37.0912 12.601 36.7941 14.7572C37.4631 16.0569 38.2828 17.3066 39.3922 17.9057C39.9911 18.3043 40.441 18.5521 40.9434 19.1818C40.571 21.2237 41.448 25.4885 39.6638 26.1316C37.452 26.7881 37.1538 28.9802 35.6105 30.2048C35.9416 30.2423 8.3358 29.9838 8.62388 30.1442C7.33044 28.8065 7.02432 26.6894 5.3749 25.9959C4.36211 25.8001 4.21303 25.5507 3.80664 24.7794C4.00824 16.4758 3.08883 20.9341 7.7798 15.6814C7.68537 14.9589 7.86257 14.1688 8.94273 13.8813H8.94326ZM17.5803 15.4384C7.55167 15.8648 12.3875 13.796 5.50435 19.7889C4.7685 26.1203 7.16492 24.1829 9.43931 28.5098C9.45788 28.527 17.4207 28.6187 17.5963 28.4991C13.3154 25.3646 13.2236 18.7484 17.5809 15.4384H17.5803ZM21.9732 15.4534C9.78363 16.9472 18.9146 35.3701 27.3432 26.1471C30.9477 21.8298 27.4684 15.3311 21.9732 15.4534ZM35.1139 15.4384C35.1426 15.5446 27.1756 15.6009 27.1517 15.4202C31.3641 18.6872 31.4437 25.4686 27.1045 28.5098C36.3671 28.3409 32.4899 30.1597 39.2314 24.3326C39.8256 17.5657 37.7597 20.4578 35.1139 15.4384Z" fill="#9A1915"/>
<path d="M22.9658 18.1417C24.4677 18.0312 26.1553 21.5091 24.0088 20.9893C23.4884 20.6766 23.8931 19.8624 23.1515 19.6816C20.6049 18.6443 20.0526 21.8003 22.8655 21.3358C25.6635 21.6045 25.6954 25.5995 22.9812 25.9679C22.9918 26.5553 22.9743 27.1995 22.2252 27.1555C21.6108 27.2467 21.5546 26.5086 21.6182 25.9427C19.7417 26.1342 18.6159 21.8234 20.8919 23.314C21.5111 26.8331 26.3495 22.5287 21.6989 22.7084C18.9661 22.3844 18.8833 18.5767 21.6235 18.1535C21.2888 16.4795 23.308 16.4242 22.9647 18.1417H22.9658Z" fill="#9A1915"/>
</svg>
