<?xml version="1.0" encoding="UTF-8"?>
<svg id="Layer_1" xmlns="http://www.w3.org/2000/svg" version="1.1" viewBox="0 0 256 242">
  <!-- Generator: Adobe Illustrator 30.3.0, SVG Export Plug-In . SVG Version: 2.1.3 Build 182)  -->
  <defs>
    <style>
      .st0 {
        fill: #fede01;
      }

      .st1 {
        fill: #8492a6;
      }

      .st2 {
        fill: none;
      }

      .st3 {
        fill: #415b7b;
      }

      .st4 {
        fill: #fdbc18;
      }
    </style>
  </defs>
  <path class="st1" d="M128,241l90.872-.003c.803,0,1.177.625,1.128,1.004H35c-.049-.379.324-1.004,1.129-1.004l91.871.004Z"/>
  <path class="st4" d="M109.397,25.692L18.403,194.301c-3.585,6.645-3.417,14.481.451,20.965,3.869,6.483,10.686,10.354,18.236,10.354h181.988c7.551,0,14.368-3.871,18.236-10.354s4.037-14.32.451-20.965L146.771,25.692c-3.768-6.982-10.754-11.15-18.688-11.15s-14.919,4.168-18.687,11.15h0Z"/>
  <path class="st2" d="M142.991,77.084v74c0,8.253-6.666,14.944-14.907,14.995v13.725c8.241.051,14.907,6.743,14.907,14.995h0c0,8.253-6.666,14.945-14.907,14.995v15.825h90.994c7.551,0,14.368-3.871,18.236-10.354s4.037-14.32.451-20.965L146.771,25.692c-3.768-6.982-10.754-11.15-18.687-11.15v47.546c8.241.051,14.907,6.743,14.907,14.995Z"/>
  <path class="st3" d="M250.086,187.652L159.092,19.042c-6.252-11.584-17.844-18.5-31.007-18.5v14c7.933,0,14.92,4.168,18.687,11.15l90.994,168.609c3.586,6.645,3.417,14.481-.451,20.965s-10.686,10.354-18.236,10.354h-90.994v14h90.994c12.528,0,23.84-6.423,30.259-17.182,6.419-10.758,6.699-23.762.749-34.786Z"/>
  <path class="st3" d="M142.991,151.084v-74c0-8.253-6.666-14.944-14.907-14.995v103.991c8.241-.051,14.907-6.743,14.907-14.995Z"/>
  <path class="st3" d="M142.991,194.799h0c0-8.253-6.666-14.944-14.907-14.995v29.991c8.241-.051,14.907-6.743,14.907-14.995Z"/>
  <path class="st0" d="M109.397,25.692L18.403,194.301c-3.585,6.645-3.417,14.481.451,20.965,3.869,6.483,10.686,10.354,18.236,10.354h90.995v-15.825c-.031,0-.062.005-.093.005-8.284,0-15-6.716-15-15h0c0-8.284,6.716-15,15-15,.032,0,.062.005.093.005v-13.725c-.031,0-.062.005-.093.005-8.284,0-15-6.716-15-15v-74c0-8.284,6.716-15,15-15,.032,0,.062.005.093.005V14.542h0c-7.933,0-14.919,4.168-18.687,11.15Z"/>
  <path class="st3" d="M37.09,225.62c-7.55,0-14.367-3.871-18.236-10.354-3.868-6.483-4.037-14.32-.451-20.965L109.397,25.692c3.768-6.982,10.754-11.15,18.687-11.15h0V.542h0c-13.164,0-24.755,6.916-31.007,18.5L6.083,187.652c-5.95,11.024-5.67,24.028.749,34.786,6.419,10.759,17.73,17.182,30.258,17.182h90.995v-14H37.09Z"/>
  <path class="st3" d="M127.991,62.084c-8.284,0-15,6.716-15,15v74c0,8.284,6.716,15,15,15,.032,0,.062-.005.093-.005V62.088c-.031,0-.062-.005-.093-.005Z"/>
  <path class="st3" d="M127.991,179.799c-8.284,0-15,6.716-15,15h0c0,8.284,6.716,15,15,15,.032,0,.062-.005.093-.005v-29.991c-.031,0-.062-.005-.093-.005Z"/>
</svg>