<?xml version='1.0' encoding='UTF-8'?>
<svg width="21mm" height="21mm" version="1.1" xmlns="http://www.w3.org/2000/svg"><svg:rect xmlns:svg="http://www.w3.org/2000/svg" x="0mm" y="0mm" width="1mm" height="1mm"/><svg:rect xmlns:svg="http://www.w3.org/2000/svg" x="1mm" y="0mm" width="1mm" height="1mm"/><svg:rect xmlns:svg="http://www.w3.org/2000/svg" x="2mm" y="0mm" width="1mm" height="1mm"/><svg:rect xmlns:svg="http://www.w3.org/2000/svg" x="3mm" y="0mm" width="1mm" height="1mm"/><svg:rect xmlns:svg="http://www.w3.org/2000/svg" x="4mm" y="0mm" width="1mm" height="1mm"/><svg:rect xmlns:svg="http://www.w3.org/2000/svg" x="5mm" y="0mm" width="1mm" height="1mm"/><svg:rect xmlns:svg="http://www.w3.org/2000/svg" x="6mm" y="0mm" width="1mm" height="1mm"/><svg:rect xmlns:svg="http://www.w3.org/2000/svg" x="9mm" y="0mm" width="1mm" height="1mm"/><svg:rect xmlns:svg="http://www.w3.org/2000/svg" x="11mm" y="0mm" width="1mm" height="1mm"/><svg:rect xmlns:svg="http://www.w3.org/2000/svg" x="12mm" y="0mm" width="1mm" height="1mm"/><svg:rect xmlns:svg="http://www.w3.org/2000/svg" x="14mm" y="0mm" width="1mm" height="1mm"/><svg:rect xmlns:svg="http://www.w3.org/2000/svg" x="15mm" y="0mm" width="1mm" height="1mm"/><svg:rect xmlns:svg="http://www.w3.org/2000/svg" x="16mm" y="0mm" width="1mm" height="1mm"/><svg:rect xmlns:svg="http://www.w3.org/2000/svg" x="17mm" y="0mm" width="1mm" height="1mm"/><svg:rect xmlns:svg="http://www.w3.org/2000/svg" x="18mm" y="0mm" width="1mm" height="1mm"/><svg:rect xmlns:svg="http://www.w3.org/2000/svg" x="19mm" y="0mm" width="1mm" height="1mm"/><svg:rect xmlns:svg="http://www.w3.org/2000/svg" x="20mm" y="0mm" width="1mm" height="1mm"/><svg:rect xmlns:svg="http://www.w3.org/2000/svg" x="0mm" y="1mm" width="1mm" height="1mm"/><svg:rect xmlns:svg="http://www.w3.org/2000/svg" x="6mm" y="1mm" width="1mm" height="1mm"/><svg:rect xmlns:svg="http://www.w3.org/2000/svg" x="9mm" y="1mm" width="1mm" height="1mm"/><svg:rect xmlns:svg="http://www.w3.org/2000/svg" x="10mm" y="1mm" width="1mm" height="1mm"/><svg:rect xmlns:svg="http://www.w3.org/2000/svg" x="11mm" y="1mm" width="1mm" height="1mm"/><svg:rect xmlns:svg="http://www.w3.org/2000/svg" x="14mm" y="1mm" width="1mm" height="1mm"/><svg:rect xmlns:svg="http://www.w3.org/2000/svg" x="20mm" y="1mm" width="1mm" height="1mm"/><svg:rect xmlns:svg="http://www.w3.org/2000/svg" x="0mm" y="2mm" width="1mm" height="1mm"/><svg:rect xmlns:svg="http://www.w3.org/2000/svg" x="2mm" y="2mm" width="1mm" height="1mm"/><svg:rect xmlns:svg="http://www.w3.org/2000/svg" x="3mm" y="2mm" width="1mm" height="1mm"/><svg:rect xmlns:svg="http://www.w3.org/2000/svg" x="4mm" y="2mm" width="1mm" height="1mm"/><svg:rect xmlns:svg="http://www.w3.org/2000/svg" x="6mm" y="2mm" width="1mm" height="1mm"/><svg:rect xmlns:svg="http://www.w3.org/2000/svg" x="8mm" y="2mm" width="1mm" height="1mm"/><svg:rect xmlns:svg="http://www.w3.org/2000/svg" x="9mm" y="2mm" width="1mm" height="1mm"/><svg:rect xmlns:svg="http://www.w3.org/2000/svg" x="11mm" y="2mm" width="1mm" height="1mm"/><svg:rect xmlns:svg="http://www.w3.org/2000/svg" x="12mm" y="2mm" width="1mm" height="1mm"/><svg:rect xmlns:svg="http://www.w3.org/2000/svg" x="14mm" y="2mm" width="1mm" height="1mm"/><svg:rect xmlns:svg="http://www.w3.org/2000/svg" x="16mm" y="2mm" width="1mm" height="1mm"/><svg:rect xmlns:svg="http://www.w3.org/2000/svg" x="17mm" y="2mm" width="1mm" height="1mm"/><svg:rect xmlns:svg="http://www.w3.org/2000/svg" x="18mm" y="2mm" width="1mm" height="1mm"/><svg:rect xmlns:svg="http://www.w3.org/2000/svg" x="20mm" y="2mm" width="1mm" height="1mm"/><svg:rect xmlns:svg="http://www.w3.org/2000/svg" x="0mm" y="3mm" width="1mm" height="1mm"/><svg:rect xmlns:svg="http://www.w3.org/2000/svg" x="2mm" y="3mm" width="1mm" height="1mm"/><svg:rect xmlns:svg="http://www.w3.org/2000/svg" x="3mm" y="3mm" width="1mm" height="1mm"/><svg:rect xmlns:svg="http://www.w3.org/2000/svg" x="4mm" y="3mm" width="1mm" height="1mm"/><svg:rect xmlns:svg="http://www.w3.org/2000/svg" x="6mm" y="3mm" width="1mm" height="1mm"/><svg:rect xmlns:svg="http://www.w3.org/2000/svg" x="9mm" y="3mm" width="1mm" height="1mm"/><svg:rect xmlns:svg="http://www.w3.org/2000/svg" x="11mm" y="3mm" width="1mm" height="1mm"/><svg:rect xmlns:svg="http://www.w3.org/2000/svg" x="14mm" y="3mm" width="1mm" height="1mm"/><svg:rect xmlns:svg="http://www.w3.org/2000/svg" x="16mm" y="3mm" width="1mm" height="1mm"/><svg:rect xmlns:svg="http://www.w3.org/2000/svg" x="17mm" y="3mm" width="1mm" height="1mm"/><svg:rect xmlns:svg="http://www.w3.org/2000/svg" x="18mm" y="3mm" width="1mm" height="1mm"/><svg:rect xmlns:svg="http://www.w3.org/2000/svg" x="20mm" y="3mm" width="1mm" height="1mm"/><svg:rect xmlns:svg="http://www.w3.org/2000/svg" x="0mm" y="4mm" width="1mm" height="1mm"/><svg:rect xmlns:svg="http://www.w3.org/2000/svg" x="2mm" y="4mm" width="1mm" height="1mm"/><svg:rect xmlns:svg="http://www.w3.org/2000/svg" x="3mm" y="4mm" width="1mm" height="1mm"/><svg:rect xmlns:svg="http://www.w3.org/2000/svg" x="4mm" y="4mm" width="1mm" height="1mm"/><svg:rect xmlns:svg="http://www.w3.org/2000/svg" x="6mm" y="4mm" width="1mm" height="1mm"/><svg:rect xmlns:svg="http://www.w3.org/2000/svg" x="10mm" y="4mm" width="1mm" height="1mm"/><svg:rect xmlns:svg="http://www.w3.org/2000/svg" x="12mm" y="4mm" width="1mm" height="1mm"/><svg:rect xmlns:svg="http://www.w3.org/2000/svg" x="14mm" y="4mm" width="1mm" height="1mm"/><svg:rect xmlns:svg="http://www.w3.org/2000/svg" x="16mm" y="4mm" width="1mm" height="1mm"/><svg:rect xmlns:svg="http://www.w3.org/2000/svg" x="17mm" y="4mm" width="1mm" height="1mm"/><svg:rect xmlns:svg="http://www.w3.org/2000/svg" x="18mm" y="4mm" width="1mm" height="1mm"/><svg:rect xmlns:svg="http://www.w3.org/2000/svg" x="20mm" y="4mm" width="1mm" height="1mm"/><svg:rect xmlns:svg="http://www.w3.org/2000/svg" x="0mm" y="5mm" width="1mm" height="1mm"/><svg:rect xmlns:svg="http://www.w3.org/2000/svg" x="6mm" y="5mm" width="1mm" height="1mm"/><svg:rect xmlns:svg="http://www.w3.org/2000/svg" x="12mm" y="5mm" width="1mm" height="1mm"/><svg:rect xmlns:svg="http://www.w3.org/2000/svg" x="14mm" y="5mm" width="1mm" height="1mm"/><svg:rect xmlns:svg="http://www.w3.org/2000/svg" x="20mm" y="5mm" width="1mm" height="1mm"/><svg:rect xmlns:svg="http://www.w3.org/2000/svg" x="0mm" y="6mm" width="1mm" height="1mm"/><svg:rect xmlns:svg="http://www.w3.org/2000/svg" x="1mm" y="6mm" width="1mm" height="1mm"/><svg:rect xmlns:svg="http://www.w3.org/2000/svg" x="2mm" y="6mm" width="1mm" height="1mm"/><svg:rect xmlns:svg="http://www.w3.org/2000/svg" x="3mm" y="6mm" width="1mm" height="1mm"/><svg:rect xmlns:svg="http://www.w3.org/2000/svg" x="4mm" y="6mm" width="1mm" height="1mm"/><svg:rect xmlns:svg="http://www.w3.org/2000/svg" x="5mm" y="6mm" width="1mm" height="1mm"/><svg:rect xmlns:svg="http://www.w3.org/2000/svg" x="6mm" y="6mm" width="1mm" height="1mm"/><svg:rect xmlns:svg="http://www.w3.org/2000/svg" x="8mm" y="6mm" width="1mm" height="1mm"/><svg:rect xmlns:svg="http://www.w3.org/2000/svg" x="10mm" y="6mm" width="1mm" height="1mm"/><svg:rect xmlns:svg="http://www.w3.org/2000/svg" x="12mm" y="6mm" width="1mm" height="1mm"/><svg:rect xmlns:svg="http://www.w3.org/2000/svg" x="14mm" y="6mm" width="1mm" height="1mm"/><svg:rect xmlns:svg="http://www.w3.org/2000/svg" x="15mm" y="6mm" width="1mm" height="1mm"/><svg:rect xmlns:svg="http://www.w3.org/2000/svg" x="16mm" y="6mm" width="1mm" height="1mm"/><svg:rect xmlns:svg="http://www.w3.org/2000/svg" x="17mm" y="6mm" width="1mm" height="1mm"/><svg:rect xmlns:svg="http://www.w3.org/2000/svg" x="18mm" y="6mm" width="1mm" height="1mm"/><svg:rect xmlns:svg="http://www.w3.org/2000/svg" x="19mm" y="6mm" width="1mm" height="1mm"/><svg:rect xmlns:svg="http://www.w3.org/2000/svg" x="20mm" y="6mm" width="1mm" height="1mm"/><svg:rect xmlns:svg="http://www.w3.org/2000/svg" x="8mm" y="7mm" width="1mm" height="1mm"/><svg:rect xmlns:svg="http://www.w3.org/2000/svg" x="9mm" y="7mm" width="1mm" height="1mm"/><svg:rect xmlns:svg="http://www.w3.org/2000/svg" x="11mm" y="7mm" width="1mm" height="1mm"/><svg:rect xmlns:svg="http://www.w3.org/2000/svg" x="12mm" y="7mm" width="1mm" height="1mm"/><svg:rect xmlns:svg="http://www.w3.org/2000/svg" x="0mm" y="8mm" width="1mm" height="1mm"/><svg:rect xmlns:svg="http://www.w3.org/2000/svg" x="1mm" y="8mm" width="1mm" height="1mm"/><svg:rect xmlns:svg="http://www.w3.org/2000/svg" x="2mm" y="8mm" width="1mm" height="1mm"/><svg:rect xmlns:svg="http://www.w3.org/2000/svg" x="4mm" y="8mm" width="1mm" height="1mm"/><svg:rect xmlns:svg="http://www.w3.org/2000/svg" x="5mm" y="8mm" width="1mm" height="1mm"/><svg:rect xmlns:svg="http://www.w3.org/2000/svg" x="6mm" y="8mm" width="1mm" height="1mm"/><svg:rect xmlns:svg="http://www.w3.org/2000/svg" x="7mm" y="8mm" width="1mm" height="1mm"/><svg:rect xmlns:svg="http://www.w3.org/2000/svg" x="8mm" y="8mm" width="1mm" height="1mm"/><svg:rect xmlns:svg="http://www.w3.org/2000/svg" x="9mm" y="8mm" width="1mm" height="1mm"/><svg:rect xmlns:svg="http://www.w3.org/2000/svg" x="10mm" y="8mm" width="1mm" height="1mm"/><svg:rect xmlns:svg="http://www.w3.org/2000/svg" x="11mm" y="8mm" width="1mm" height="1mm"/><svg:rect xmlns:svg="http://www.w3.org/2000/svg" x="13mm" y="8mm" width="1mm" height="1mm"/><svg:rect xmlns:svg="http://www.w3.org/2000/svg" x="14mm" y="8mm" width="1mm" height="1mm"/><svg:rect xmlns:svg="http://www.w3.org/2000/svg" x="18mm" y="8mm" width="1mm" height="1mm"/><svg:rect xmlns:svg="http://www.w3.org/2000/svg" x="0mm" y="9mm" width="1mm" height="1mm"/><svg:rect xmlns:svg="http://www.w3.org/2000/svg" x="3mm" y="9mm" width="1mm" height="1mm"/><svg:rect xmlns:svg="http://www.w3.org/2000/svg" x="8mm" y="9mm" width="1mm" height="1mm"/><svg:rect xmlns:svg="http://www.w3.org/2000/svg" x="10mm" y="9mm" width="1mm" height="1mm"/><svg:rect xmlns:svg="http://www.w3.org/2000/svg" x="14mm" y="9mm" width="1mm" height="1mm"/><svg:rect xmlns:svg="http://www.w3.org/2000/svg" x="17mm" y="9mm" width="1mm" height="1mm"/><svg:rect xmlns:svg="http://www.w3.org/2000/svg" x="19mm" y="9mm" width="1mm" height="1mm"/><svg:rect xmlns:svg="http://www.w3.org/2000/svg" x="20mm" y="9mm" width="1mm" height="1mm"/><svg:rect xmlns:svg="http://www.w3.org/2000/svg" x="0mm" y="10mm" width="1mm" height="1mm"/><svg:rect xmlns:svg="http://www.w3.org/2000/svg" x="2mm" y="10mm" width="1mm" height="1mm"/><svg:rect xmlns:svg="http://www.w3.org/2000/svg" x="3mm" y="10mm" width="1mm" height="1mm"/><svg:rect xmlns:svg="http://www.w3.org/2000/svg" x="4mm" y="10mm" width="1mm" height="1mm"/><svg:rect xmlns:svg="http://www.w3.org/2000/svg" x="5mm" y="10mm" width="1mm" height="1mm"/><svg:rect xmlns:svg="http://www.w3.org/2000/svg" x="6mm" y="10mm" width="1mm" height="1mm"/><svg:rect xmlns:svg="http://www.w3.org/2000/svg" x="7mm" y="10mm" width="1mm" height="1mm"/><svg:rect xmlns:svg="http://www.w3.org/2000/svg" x="10mm" y="10mm" width="1mm" height="1mm"/><svg:rect xmlns:svg="http://www.w3.org/2000/svg" x="12mm" y="10mm" width="1mm" height="1mm"/><svg:rect xmlns:svg="http://www.w3.org/2000/svg" x="16mm" y="10mm" width="1mm" height="1mm"/><svg:rect xmlns:svg="http://www.w3.org/2000/svg" x="17mm" y="10mm" width="1mm" height="1mm"/><svg:rect xmlns:svg="http://www.w3.org/2000/svg" x="18mm" y="10mm" width="1mm" height="1mm"/><svg:rect xmlns:svg="http://www.w3.org/2000/svg" x="19mm" y="10mm" width="1mm" height="1mm"/><svg:rect xmlns:svg="http://www.w3.org/2000/svg" x="20mm" y="10mm" width="1mm" height="1mm"/><svg:rect xmlns:svg="http://www.w3.org/2000/svg" x="0mm" y="11mm" width="1mm" height="1mm"/><svg:rect xmlns:svg="http://www.w3.org/2000/svg" x="1mm" y="11mm" width="1mm" height="1mm"/><svg:rect xmlns:svg="http://www.w3.org/2000/svg" x="2mm" y="11mm" width="1mm" height="1mm"/><svg:rect xmlns:svg="http://www.w3.org/2000/svg" x="4mm" y="11mm" width="1mm" height="1mm"/><svg:rect xmlns:svg="http://www.w3.org/2000/svg" x="5mm" y="11mm" width="1mm" height="1mm"/><svg:rect xmlns:svg="http://www.w3.org/2000/svg" x="9mm" y="11mm" width="1mm" height="1mm"/><svg:rect xmlns:svg="http://www.w3.org/2000/svg" x="14mm" y="11mm" width="1mm" height="1mm"/><svg:rect xmlns:svg="http://www.w3.org/2000/svg" x="19mm" y="11mm" width="1mm" height="1mm"/><svg:rect xmlns:svg="http://www.w3.org/2000/svg" x="20mm" y="11mm" width="1mm" height="1mm"/><svg:rect xmlns:svg="http://www.w3.org/2000/svg" x="0mm" y="12mm" width="1mm" height="1mm"/><svg:rect xmlns:svg="http://www.w3.org/2000/svg" x="1mm" y="12mm" width="1mm" height="1mm"/><svg:rect xmlns:svg="http://www.w3.org/2000/svg" x="5mm" y="12mm" width="1mm" height="1mm"/><svg:rect xmlns:svg="http://www.w3.org/2000/svg" x="6mm" y="12mm" width="1mm" height="1mm"/><svg:rect xmlns:svg="http://www.w3.org/2000/svg" x="7mm" y="12mm" width="1mm" height="1mm"/><svg:rect xmlns:svg="http://www.w3.org/2000/svg" x="8mm" y="12mm" width="1mm" height="1mm"/><svg:rect xmlns:svg="http://www.w3.org/2000/svg" x="9mm" y="12mm" width="1mm" height="1mm"/><svg:rect xmlns:svg="http://www.w3.org/2000/svg" x="10mm" y="12mm" width="1mm" height="1mm"/><svg:rect xmlns:svg="http://www.w3.org/2000/svg" x="12mm" y="12mm" width="1mm" height="1mm"/><svg:rect xmlns:svg="http://www.w3.org/2000/svg" x="14mm" y="12mm" width="1mm" height="1mm"/><svg:rect xmlns:svg="http://www.w3.org/2000/svg" x="16mm" y="12mm" width="1mm" height="1mm"/><svg:rect xmlns:svg="http://www.w3.org/2000/svg" x="19mm" y="12mm" width="1mm" height="1mm"/><svg:rect xmlns:svg="http://www.w3.org/2000/svg" x="8mm" y="13mm" width="1mm" height="1mm"/><svg:rect xmlns:svg="http://www.w3.org/2000/svg" x="10mm" y="13mm" width="1mm" height="1mm"/><svg:rect xmlns:svg="http://www.w3.org/2000/svg" x="11mm" y="13mm" width="1mm" height="1mm"/><svg:rect xmlns:svg="http://www.w3.org/2000/svg" x="13mm" y="13mm" width="1mm" height="1mm"/><svg:rect xmlns:svg="http://www.w3.org/2000/svg" x="15mm" y="13mm" width="1mm" height="1mm"/><svg:rect xmlns:svg="http://www.w3.org/2000/svg" x="18mm" y="13mm" width="1mm" height="1mm"/><svg:rect xmlns:svg="http://www.w3.org/2000/svg" x="19mm" y="13mm" width="1mm" height="1mm"/><svg:rect xmlns:svg="http://www.w3.org/2000/svg" x="20mm" y="13mm" width="1mm" height="1mm"/><svg:rect xmlns:svg="http://www.w3.org/2000/svg" x="0mm" y="14mm" width="1mm" height="1mm"/><svg:rect xmlns:svg="http://www.w3.org/2000/svg" x="1mm" y="14mm" width="1mm" height="1mm"/><svg:rect xmlns:svg="http://www.w3.org/2000/svg" x="2mm" y="14mm" width="1mm" height="1mm"/><svg:rect xmlns:svg="http://www.w3.org/2000/svg" x="3mm" y="14mm" width="1mm" height="1mm"/><svg:rect xmlns:svg="http://www.w3.org/2000/svg" x="4mm" y="14mm" width="1mm" height="1mm"/><svg:rect xmlns:svg="http://www.w3.org/2000/svg" x="5mm" y="14mm" width="1mm" height="1mm"/><svg:rect xmlns:svg="http://www.w3.org/2000/svg" x="6mm" y="14mm" width="1mm" height="1mm"/><svg:rect xmlns:svg="http://www.w3.org/2000/svg" x="8mm" y="14mm" width="1mm" height="1mm"/><svg:rect xmlns:svg="http://www.w3.org/2000/svg" x="10mm" y="14mm" width="1mm" height="1mm"/><svg:rect xmlns:svg="http://www.w3.org/2000/svg" x="11mm" y="14mm" width="1mm" height="1mm"/><svg:rect xmlns:svg="http://www.w3.org/2000/svg" x="13mm" y="14mm" width="1mm" height="1mm"/><svg:rect xmlns:svg="http://www.w3.org/2000/svg" x="14mm" y="14mm" width="1mm" height="1mm"/><svg:rect xmlns:svg="http://www.w3.org/2000/svg" x="15mm" y="14mm" width="1mm" height="1mm"/><svg:rect xmlns:svg="http://www.w3.org/2000/svg" x="19mm" y="14mm" width="1mm" height="1mm"/><svg:rect xmlns:svg="http://www.w3.org/2000/svg" x="20mm" y="14mm" width="1mm" height="1mm"/><svg:rect xmlns:svg="http://www.w3.org/2000/svg" x="0mm" y="15mm" width="1mm" height="1mm"/><svg:rect xmlns:svg="http://www.w3.org/2000/svg" x="6mm" y="15mm" width="1mm" height="1mm"/><svg:rect xmlns:svg="http://www.w3.org/2000/svg" x="8mm" y="15mm" width="1mm" height="1mm"/><svg:rect xmlns:svg="http://www.w3.org/2000/svg" x="9mm" y="15mm" width="1mm" height="1mm"/><svg:rect xmlns:svg="http://www.w3.org/2000/svg" x="10mm" y="15mm" width="1mm" height="1mm"/><svg:rect xmlns:svg="http://www.w3.org/2000/svg" x="11mm" y="15mm" width="1mm" height="1mm"/><svg:rect xmlns:svg="http://www.w3.org/2000/svg" x="12mm" y="15mm" width="1mm" height="1mm"/><svg:rect xmlns:svg="http://www.w3.org/2000/svg" x="13mm" y="15mm" width="1mm" height="1mm"/><svg:rect xmlns:svg="http://www.w3.org/2000/svg" x="15mm" y="15mm" width="1mm" height="1mm"/><svg:rect xmlns:svg="http://www.w3.org/2000/svg" x="16mm" y="15mm" width="1mm" height="1mm"/><svg:rect xmlns:svg="http://www.w3.org/2000/svg" x="17mm" y="15mm" width="1mm" height="1mm"/><svg:rect xmlns:svg="http://www.w3.org/2000/svg" x="20mm" y="15mm" width="1mm" height="1mm"/><svg:rect xmlns:svg="http://www.w3.org/2000/svg" x="0mm" y="16mm" width="1mm" height="1mm"/><svg:rect xmlns:svg="http://www.w3.org/2000/svg" x="2mm" y="16mm" width="1mm" height="1mm"/><svg:rect xmlns:svg="http://www.w3.org/2000/svg" x="3mm" y="16mm" width="1mm" height="1mm"/><svg:rect xmlns:svg="http://www.w3.org/2000/svg" x="4mm" y="16mm" width="1mm" height="1mm"/><svg:rect xmlns:svg="http://www.w3.org/2000/svg" x="6mm" y="16mm" width="1mm" height="1mm"/><svg:rect xmlns:svg="http://www.w3.org/2000/svg" x="8mm" y="16mm" width="1mm" height="1mm"/><svg:rect xmlns:svg="http://www.w3.org/2000/svg" x="9mm" y="16mm" width="1mm" height="1mm"/><svg:rect xmlns:svg="http://www.w3.org/2000/svg" x="11mm" y="16mm" width="1mm" height="1mm"/><svg:rect xmlns:svg="http://www.w3.org/2000/svg" x="13mm" y="16mm" width="1mm" height="1mm"/><svg:rect xmlns:svg="http://www.w3.org/2000/svg" x="14mm" y="16mm" width="1mm" height="1mm"/><svg:rect xmlns:svg="http://www.w3.org/2000/svg" x="15mm" y="16mm" width="1mm" height="1mm"/><svg:rect xmlns:svg="http://www.w3.org/2000/svg" x="18mm" y="16mm" width="1mm" height="1mm"/><svg:rect xmlns:svg="http://www.w3.org/2000/svg" x="20mm" y="16mm" width="1mm" height="1mm"/><svg:rect xmlns:svg="http://www.w3.org/2000/svg" x="0mm" y="17mm" width="1mm" height="1mm"/><svg:rect xmlns:svg="http://www.w3.org/2000/svg" x="2mm" y="17mm" width="1mm" height="1mm"/><svg:rect xmlns:svg="http://www.w3.org/2000/svg" x="3mm" y="17mm" width="1mm" height="1mm"/><svg:rect xmlns:svg="http://www.w3.org/2000/svg" x="4mm" y="17mm" width="1mm" height="1mm"/><svg:rect xmlns:svg="http://www.w3.org/2000/svg" x="6mm" y="17mm" width="1mm" height="1mm"/><svg:rect xmlns:svg="http://www.w3.org/2000/svg" x="10mm" y="17mm" width="1mm" height="1mm"/><svg:rect xmlns:svg="http://www.w3.org/2000/svg" x="14mm" y="17mm" width="1mm" height="1mm"/><svg:rect xmlns:svg="http://www.w3.org/2000/svg" x="18mm" y="17mm" width="1mm" height="1mm"/><svg:rect xmlns:svg="http://www.w3.org/2000/svg" x="19mm" y="17mm" width="1mm" height="1mm"/><svg:rect xmlns:svg="http://www.w3.org/2000/svg" x="0mm" y="18mm" width="1mm" height="1mm"/><svg:rect xmlns:svg="http://www.w3.org/2000/svg" x="2mm" y="18mm" width="1mm" height="1mm"/><svg:rect xmlns:svg="http://www.w3.org/2000/svg" x="3mm" y="18mm" width="1mm" height="1mm"/><svg:rect xmlns:svg="http://www.w3.org/2000/svg" x="4mm" y="18mm" width="1mm" height="1mm"/><svg:rect xmlns:svg="http://www.w3.org/2000/svg" x="6mm" y="18mm" width="1mm" height="1mm"/><svg:rect xmlns:svg="http://www.w3.org/2000/svg" x="8mm" y="18mm" width="1mm" height="1mm"/><svg:rect xmlns:svg="http://www.w3.org/2000/svg" x="9mm" y="18mm" width="1mm" height="1mm"/><svg:rect xmlns:svg="http://www.w3.org/2000/svg" x="10mm" y="18mm" width="1mm" height="1mm"/><svg:rect xmlns:svg="http://www.w3.org/2000/svg" x="12mm" y="18mm" width="1mm" height="1mm"/><svg:rect xmlns:svg="http://www.w3.org/2000/svg" x="16mm" y="18mm" width="1mm" height="1mm"/><svg:rect xmlns:svg="http://www.w3.org/2000/svg" x="20mm" y="18mm" width="1mm" height="1mm"/><svg:rect xmlns:svg="http://www.w3.org/2000/svg" x="0mm" y="19mm" width="1mm" height="1mm"/><svg:rect xmlns:svg="http://www.w3.org/2000/svg" x="6mm" y="19mm" width="1mm" height="1mm"/><svg:rect xmlns:svg="http://www.w3.org/2000/svg" x="8mm" y="19mm" width="1mm" height="1mm"/><svg:rect xmlns:svg="http://www.w3.org/2000/svg" x="14mm" y="19mm" width="1mm" height="1mm"/><svg:rect xmlns:svg="http://www.w3.org/2000/svg" x="18mm" y="19mm" width="1mm" height="1mm"/><svg:rect xmlns:svg="http://www.w3.org/2000/svg" x="19mm" y="19mm" width="1mm" height="1mm"/><svg:rect xmlns:svg="http://www.w3.org/2000/svg" x="0mm" y="20mm" width="1mm" height="1mm"/><svg:rect xmlns:svg="http://www.w3.org/2000/svg" x="1mm" y="20mm" width="1mm" height="1mm"/><svg:rect xmlns:svg="http://www.w3.org/2000/svg" x="2mm" y="20mm" width="1mm" height="1mm"/><svg:rect xmlns:svg="http://www.w3.org/2000/svg" x="3mm" y="20mm" width="1mm" height="1mm"/><svg:rect xmlns:svg="http://www.w3.org/2000/svg" x="4mm" y="20mm" width="1mm" height="1mm"/><svg:rect xmlns:svg="http://www.w3.org/2000/svg" x="5mm" y="20mm" width="1mm" height="1mm"/><svg:rect xmlns:svg="http://www.w3.org/2000/svg" x="6mm" y="20mm" width="1mm" height="1mm"/><svg:rect xmlns:svg="http://www.w3.org/2000/svg" x="8mm" y="20mm" width="1mm" height="1mm"/><svg:rect xmlns:svg="http://www.w3.org/2000/svg" x="9mm" y="20mm" width="1mm" height="1mm"/><svg:rect xmlns:svg="http://www.w3.org/2000/svg" x="12mm" y="20mm" width="1mm" height="1mm"/><svg:rect xmlns:svg="http://www.w3.org/2000/svg" x="14mm" y="20mm" width="1mm" height="1mm"/><svg:rect xmlns:svg="http://www.w3.org/2000/svg" x="16mm" y="20mm" width="1mm" height="1mm"/><svg:rect xmlns:svg="http://www.w3.org/2000/svg" x="18mm" y="20mm" width="1mm" height="1mm"/><svg:rect xmlns:svg="http://www.w3.org/2000/svg" x="19mm" y="20mm" width="1mm" height="1mm"/><svg:rect xmlns:svg="http://www.w3.org/2000/svg" x="20mm" y="20mm" width="1mm" height="1mm"/></svg>