<?xml version='1.0' encoding='UTF-8'?>
<svg width="29mm" height="29mm" version="1.1" xmlns="http://www.w3.org/2000/svg"><svg:rect xmlns:svg="http://www.w3.org/2000/svg" x="0mm" y="0mm" width="1mm" height="1mm"/><svg:rect xmlns:svg="http://www.w3.org/2000/svg" x="1mm" y="0mm" width="1mm" height="1mm"/><svg:rect xmlns:svg="http://www.w3.org/2000/svg" x="2mm" y="0mm" width="1mm" height="1mm"/><svg:rect xmlns:svg="http://www.w3.org/2000/svg" x="3mm" y="0mm" width="1mm" height="1mm"/><svg:rect xmlns:svg="http://www.w3.org/2000/svg" x="4mm" y="0mm" width="1mm" height="1mm"/><svg:rect xmlns:svg="http://www.w3.org/2000/svg" x="5mm" y="0mm" width="1mm" height="1mm"/><svg:rect xmlns:svg="http://www.w3.org/2000/svg" x="6mm" y="0mm" width="1mm" height="1mm"/><svg:rect xmlns:svg="http://www.w3.org/2000/svg" x="9mm" y="0mm" width="1mm" height="1mm"/><svg:rect xmlns:svg="http://www.w3.org/2000/svg" x="12mm" y="0mm" width="1mm" height="1mm"/><svg:rect xmlns:svg="http://www.w3.org/2000/svg" x="14mm" y="0mm" width="1mm" height="1mm"/><svg:rect xmlns:svg="http://www.w3.org/2000/svg" x="15mm" y="0mm" width="1mm" height="1mm"/><svg:rect xmlns:svg="http://www.w3.org/2000/svg" x="17mm" y="0mm" width="1mm" height="1mm"/><svg:rect xmlns:svg="http://www.w3.org/2000/svg" x="18mm" y="0mm" width="1mm" height="1mm"/><svg:rect xmlns:svg="http://www.w3.org/2000/svg" x="19mm" y="0mm" width="1mm" height="1mm"/><svg:rect xmlns:svg="http://www.w3.org/2000/svg" x="20mm" y="0mm" width="1mm" height="1mm"/><svg:rect xmlns:svg="http://www.w3.org/2000/svg" x="22mm" y="0mm" width="1mm" height="1mm"/><svg:rect xmlns:svg="http://www.w3.org/2000/svg" x="23mm" y="0mm" width="1mm" height="1mm"/><svg:rect xmlns:svg="http://www.w3.org/2000/svg" x="24mm" y="0mm" width="1mm" height="1mm"/><svg:rect xmlns:svg="http://www.w3.org/2000/svg" x="25mm" y="0mm" width="1mm" height="1mm"/><svg:rect xmlns:svg="http://www.w3.org/2000/svg" x="26mm" y="0mm" width="1mm" height="1mm"/><svg:rect xmlns:svg="http://www.w3.org/2000/svg" x="27mm" y="0mm" width="1mm" height="1mm"/><svg:rect xmlns:svg="http://www.w3.org/2000/svg" x="28mm" y="0mm" width="1mm" height="1mm"/><svg:rect xmlns:svg="http://www.w3.org/2000/svg" x="0mm" y="1mm" width="1mm" height="1mm"/><svg:rect xmlns:svg="http://www.w3.org/2000/svg" x="6mm" y="1mm" width="1mm" height="1mm"/><svg:rect xmlns:svg="http://www.w3.org/2000/svg" x="8mm" y="1mm" width="1mm" height="1mm"/><svg:rect xmlns:svg="http://www.w3.org/2000/svg" x="11mm" y="1mm" width="1mm" height="1mm"/><svg:rect xmlns:svg="http://www.w3.org/2000/svg" x="12mm" y="1mm" width="1mm" height="1mm"/><svg:rect xmlns:svg="http://www.w3.org/2000/svg" x="14mm" y="1mm" width="1mm" height="1mm"/><svg:rect xmlns:svg="http://www.w3.org/2000/svg" x="15mm" y="1mm" width="1mm" height="1mm"/><svg:rect xmlns:svg="http://www.w3.org/2000/svg" x="18mm" y="1mm" width="1mm" height="1mm"/><svg:rect xmlns:svg="http://www.w3.org/2000/svg" x="20mm" y="1mm" width="1mm" height="1mm"/><svg:rect xmlns:svg="http://www.w3.org/2000/svg" x="22mm" y="1mm" width="1mm" height="1mm"/><svg:rect xmlns:svg="http://www.w3.org/2000/svg" x="28mm" y="1mm" width="1mm" height="1mm"/><svg:rect xmlns:svg="http://www.w3.org/2000/svg" x="0mm" y="2mm" width="1mm" height="1mm"/><svg:rect xmlns:svg="http://www.w3.org/2000/svg" x="2mm" y="2mm" width="1mm" height="1mm"/><svg:rect xmlns:svg="http://www.w3.org/2000/svg" x="3mm" y="2mm" width="1mm" height="1mm"/><svg:rect xmlns:svg="http://www.w3.org/2000/svg" x="4mm" y="2mm" width="1mm" height="1mm"/><svg:rect xmlns:svg="http://www.w3.org/2000/svg" x="6mm" y="2mm" width="1mm" height="1mm"/><svg:rect xmlns:svg="http://www.w3.org/2000/svg" x="8mm" y="2mm" width="1mm" height="1mm"/><svg:rect xmlns:svg="http://www.w3.org/2000/svg" x="9mm" y="2mm" width="1mm" height="1mm"/><svg:rect xmlns:svg="http://www.w3.org/2000/svg" x="10mm" y="2mm" width="1mm" height="1mm"/><svg:rect xmlns:svg="http://www.w3.org/2000/svg" x="11mm" y="2mm" width="1mm" height="1mm"/><svg:rect xmlns:svg="http://www.w3.org/2000/svg" x="12mm" y="2mm" width="1mm" height="1mm"/><svg:rect xmlns:svg="http://www.w3.org/2000/svg" x="15mm" y="2mm" width="1mm" height="1mm"/><svg:rect xmlns:svg="http://www.w3.org/2000/svg" x="17mm" y="2mm" width="1mm" height="1mm"/><svg:rect xmlns:svg="http://www.w3.org/2000/svg" x="19mm" y="2mm" width="1mm" height="1mm"/><svg:rect xmlns:svg="http://www.w3.org/2000/svg" x="22mm" y="2mm" width="1mm" height="1mm"/><svg:rect xmlns:svg="http://www.w3.org/2000/svg" x="24mm" y="2mm" width="1mm" height="1mm"/><svg:rect xmlns:svg="http://www.w3.org/2000/svg" x="25mm" y="2mm" width="1mm" height="1mm"/><svg:rect xmlns:svg="http://www.w3.org/2000/svg" x="26mm" y="2mm" width="1mm" height="1mm"/><svg:rect xmlns:svg="http://www.w3.org/2000/svg" x="28mm" y="2mm" width="1mm" height="1mm"/><svg:rect xmlns:svg="http://www.w3.org/2000/svg" x="0mm" y="3mm" width="1mm" height="1mm"/><svg:rect xmlns:svg="http://www.w3.org/2000/svg" x="2mm" y="3mm" width="1mm" height="1mm"/><svg:rect xmlns:svg="http://www.w3.org/2000/svg" x="3mm" y="3mm" width="1mm" height="1mm"/><svg:rect xmlns:svg="http://www.w3.org/2000/svg" x="4mm" y="3mm" width="1mm" height="1mm"/><svg:rect xmlns:svg="http://www.w3.org/2000/svg" x="6mm" y="3mm" width="1mm" height="1mm"/><svg:rect xmlns:svg="http://www.w3.org/2000/svg" x="9mm" y="3mm" width="1mm" height="1mm"/><svg:rect xmlns:svg="http://www.w3.org/2000/svg" x="10mm" y="3mm" width="1mm" height="1mm"/><svg:rect xmlns:svg="http://www.w3.org/2000/svg" x="11mm" y="3mm" width="1mm" height="1mm"/><svg:rect xmlns:svg="http://www.w3.org/2000/svg" x="14mm" y="3mm" width="1mm" height="1mm"/><svg:rect xmlns:svg="http://www.w3.org/2000/svg" x="18mm" y="3mm" width="1mm" height="1mm"/><svg:rect xmlns:svg="http://www.w3.org/2000/svg" x="19mm" y="3mm" width="1mm" height="1mm"/><svg:rect xmlns:svg="http://www.w3.org/2000/svg" x="22mm" y="3mm" width="1mm" height="1mm"/><svg:rect xmlns:svg="http://www.w3.org/2000/svg" x="24mm" y="3mm" width="1mm" height="1mm"/><svg:rect xmlns:svg="http://www.w3.org/2000/svg" x="25mm" y="3mm" width="1mm" height="1mm"/><svg:rect xmlns:svg="http://www.w3.org/2000/svg" x="26mm" y="3mm" width="1mm" height="1mm"/><svg:rect xmlns:svg="http://www.w3.org/2000/svg" x="28mm" y="3mm" width="1mm" height="1mm"/><svg:rect xmlns:svg="http://www.w3.org/2000/svg" x="0mm" y="4mm" width="1mm" height="1mm"/><svg:rect xmlns:svg="http://www.w3.org/2000/svg" x="2mm" y="4mm" width="1mm" height="1mm"/><svg:rect xmlns:svg="http://www.w3.org/2000/svg" x="3mm" y="4mm" width="1mm" height="1mm"/><svg:rect xmlns:svg="http://www.w3.org/2000/svg" x="4mm" y="4mm" width="1mm" height="1mm"/><svg:rect xmlns:svg="http://www.w3.org/2000/svg" x="6mm" y="4mm" width="1mm" height="1mm"/><svg:rect xmlns:svg="http://www.w3.org/2000/svg" x="8mm" y="4mm" width="1mm" height="1mm"/><svg:rect xmlns:svg="http://www.w3.org/2000/svg" x="14mm" y="4mm" width="1mm" height="1mm"/><svg:rect xmlns:svg="http://www.w3.org/2000/svg" x="15mm" y="4mm" width="1mm" height="1mm"/><svg:rect xmlns:svg="http://www.w3.org/2000/svg" x="22mm" y="4mm" width="1mm" height="1mm"/><svg:rect xmlns:svg="http://www.w3.org/2000/svg" x="24mm" y="4mm" width="1mm" height="1mm"/><svg:rect xmlns:svg="http://www.w3.org/2000/svg" x="25mm" y="4mm" width="1mm" height="1mm"/><svg:rect xmlns:svg="http://www.w3.org/2000/svg" x="26mm" y="4mm" width="1mm" height="1mm"/><svg:rect xmlns:svg="http://www.w3.org/2000/svg" x="28mm" y="4mm" width="1mm" height="1mm"/><svg:rect xmlns:svg="http://www.w3.org/2000/svg" x="0mm" y="5mm" width="1mm" height="1mm"/><svg:rect xmlns:svg="http://www.w3.org/2000/svg" x="6mm" y="5mm" width="1mm" height="1mm"/><svg:rect xmlns:svg="http://www.w3.org/2000/svg" x="8mm" y="5mm" width="1mm" height="1mm"/><svg:rect xmlns:svg="http://www.w3.org/2000/svg" x="9mm" y="5mm" width="1mm" height="1mm"/><svg:rect xmlns:svg="http://www.w3.org/2000/svg" x="11mm" y="5mm" width="1mm" height="1mm"/><svg:rect xmlns:svg="http://www.w3.org/2000/svg" x="15mm" y="5mm" width="1mm" height="1mm"/><svg:rect xmlns:svg="http://www.w3.org/2000/svg" x="16mm" y="5mm" width="1mm" height="1mm"/><svg:rect xmlns:svg="http://www.w3.org/2000/svg" x="19mm" y="5mm" width="1mm" height="1mm"/><svg:rect xmlns:svg="http://www.w3.org/2000/svg" x="22mm" y="5mm" width="1mm" height="1mm"/><svg:rect xmlns:svg="http://www.w3.org/2000/svg" x="28mm" y="5mm" width="1mm" height="1mm"/><svg:rect xmlns:svg="http://www.w3.org/2000/svg" x="0mm" y="6mm" width="1mm" height="1mm"/><svg:rect xmlns:svg="http://www.w3.org/2000/svg" x="1mm" y="6mm" width="1mm" height="1mm"/><svg:rect xmlns:svg="http://www.w3.org/2000/svg" x="2mm" y="6mm" width="1mm" height="1mm"/><svg:rect xmlns:svg="http://www.w3.org/2000/svg" x="3mm" y="6mm" width="1mm" height="1mm"/><svg:rect xmlns:svg="http://www.w3.org/2000/svg" x="4mm" y="6mm" width="1mm" height="1mm"/><svg:rect xmlns:svg="http://www.w3.org/2000/svg" x="5mm" y="6mm" width="1mm" height="1mm"/><svg:rect xmlns:svg="http://www.w3.org/2000/svg" x="6mm" y="6mm" width="1mm" height="1mm"/><svg:rect xmlns:svg="http://www.w3.org/2000/svg" x="8mm" y="6mm" width="1mm" height="1mm"/><svg:rect xmlns:svg="http://www.w3.org/2000/svg" x="10mm" y="6mm" width="1mm" height="1mm"/><svg:rect xmlns:svg="http://www.w3.org/2000/svg" x="12mm" y="6mm" width="1mm" height="1mm"/><svg:rect xmlns:svg="http://www.w3.org/2000/svg" x="14mm" y="6mm" width="1mm" height="1mm"/><svg:rect xmlns:svg="http://www.w3.org/2000/svg" x="16mm" y="6mm" width="1mm" height="1mm"/><svg:rect xmlns:svg="http://www.w3.org/2000/svg" x="18mm" y="6mm" width="1mm" height="1mm"/><svg:rect xmlns:svg="http://www.w3.org/2000/svg" x="20mm" y="6mm" width="1mm" height="1mm"/><svg:rect xmlns:svg="http://www.w3.org/2000/svg" x="22mm" y="6mm" width="1mm" height="1mm"/><svg:rect xmlns:svg="http://www.w3.org/2000/svg" x="23mm" y="6mm" width="1mm" height="1mm"/><svg:rect xmlns:svg="http://www.w3.org/2000/svg" x="24mm" y="6mm" width="1mm" height="1mm"/><svg:rect xmlns:svg="http://www.w3.org/2000/svg" x="25mm" y="6mm" width="1mm" height="1mm"/><svg:rect xmlns:svg="http://www.w3.org/2000/svg" x="26mm" y="6mm" width="1mm" height="1mm"/><svg:rect xmlns:svg="http://www.w3.org/2000/svg" x="27mm" y="6mm" width="1mm" height="1mm"/><svg:rect xmlns:svg="http://www.w3.org/2000/svg" x="28mm" y="6mm" width="1mm" height="1mm"/><svg:rect xmlns:svg="http://www.w3.org/2000/svg" x="8mm" y="7mm" width="1mm" height="1mm"/><svg:rect xmlns:svg="http://www.w3.org/2000/svg" x="9mm" y="7mm" width="1mm" height="1mm"/><svg:rect xmlns:svg="http://www.w3.org/2000/svg" x="12mm" y="7mm" width="1mm" height="1mm"/><svg:rect xmlns:svg="http://www.w3.org/2000/svg" x="14mm" y="7mm" width="1mm" height="1mm"/><svg:rect xmlns:svg="http://www.w3.org/2000/svg" x="15mm" y="7mm" width="1mm" height="1mm"/><svg:rect xmlns:svg="http://www.w3.org/2000/svg" x="16mm" y="7mm" width="1mm" height="1mm"/><svg:rect xmlns:svg="http://www.w3.org/2000/svg" x="17mm" y="7mm" width="1mm" height="1mm"/><svg:rect xmlns:svg="http://www.w3.org/2000/svg" x="20mm" y="7mm" width="1mm" height="1mm"/><svg:rect xmlns:svg="http://www.w3.org/2000/svg" x="0mm" y="8mm" width="1mm" height="1mm"/><svg:rect xmlns:svg="http://www.w3.org/2000/svg" x="1mm" y="8mm" width="1mm" height="1mm"/><svg:rect xmlns:svg="http://www.w3.org/2000/svg" x="3mm" y="8mm" width="1mm" height="1mm"/><svg:rect xmlns:svg="http://www.w3.org/2000/svg" x="6mm" y="8mm" width="1mm" height="1mm"/><svg:rect xmlns:svg="http://www.w3.org/2000/svg" x="7mm" y="8mm" width="1mm" height="1mm"/><svg:rect xmlns:svg="http://www.w3.org/2000/svg" x="10mm" y="8mm" width="1mm" height="1mm"/><svg:rect xmlns:svg="http://www.w3.org/2000/svg" x="13mm" y="8mm" width="1mm" height="1mm"/><svg:rect xmlns:svg="http://www.w3.org/2000/svg" x="14mm" y="8mm" width="1mm" height="1mm"/><svg:rect xmlns:svg="http://www.w3.org/2000/svg" x="22mm" y="8mm" width="1mm" height="1mm"/><svg:rect xmlns:svg="http://www.w3.org/2000/svg" x="23mm" y="8mm" width="1mm" height="1mm"/><svg:rect xmlns:svg="http://www.w3.org/2000/svg" x="24mm" y="8mm" width="1mm" height="1mm"/><svg:rect xmlns:svg="http://www.w3.org/2000/svg" x="26mm" y="8mm" width="1mm" height="1mm"/><svg:rect xmlns:svg="http://www.w3.org/2000/svg" x="27mm" y="8mm" width="1mm" height="1mm"/><svg:rect xmlns:svg="http://www.w3.org/2000/svg" x="0mm" y="9mm" width="1mm" height="1mm"/><svg:rect xmlns:svg="http://www.w3.org/2000/svg" x="1mm" y="9mm" width="1mm" height="1mm"/><svg:rect xmlns:svg="http://www.w3.org/2000/svg" x="3mm" y="9mm" width="1mm" height="1mm"/><svg:rect xmlns:svg="http://www.w3.org/2000/svg" x="4mm" y="9mm" width="1mm" height="1mm"/><svg:rect xmlns:svg="http://www.w3.org/2000/svg" x="8mm" y="9mm" width="1mm" height="1mm"/><svg:rect xmlns:svg="http://www.w3.org/2000/svg" x="10mm" y="9mm" width="1mm" height="1mm"/><svg:rect xmlns:svg="http://www.w3.org/2000/svg" x="11mm" y="9mm" width="1mm" height="1mm"/><svg:rect xmlns:svg="http://www.w3.org/2000/svg" x="13mm" y="9mm" width="1mm" height="1mm"/><svg:rect xmlns:svg="http://www.w3.org/2000/svg" x="16mm" y="9mm" width="1mm" height="1mm"/><svg:rect xmlns:svg="http://www.w3.org/2000/svg" x="17mm" y="9mm" width="1mm" height="1mm"/><svg:rect xmlns:svg="http://www.w3.org/2000/svg" x="18mm" y="9mm" width="1mm" height="1mm"/><svg:rect xmlns:svg="http://www.w3.org/2000/svg" x="20mm" y="9mm" width="1mm" height="1mm"/><svg:rect xmlns:svg="http://www.w3.org/2000/svg" x="21mm" y="9mm" width="1mm" height="1mm"/><svg:rect xmlns:svg="http://www.w3.org/2000/svg" x="22mm" y="9mm" width="1mm" height="1mm"/><svg:rect xmlns:svg="http://www.w3.org/2000/svg" x="25mm" y="9mm" width="1mm" height="1mm"/><svg:rect xmlns:svg="http://www.w3.org/2000/svg" x="28mm" y="9mm" width="1mm" height="1mm"/><svg:rect xmlns:svg="http://www.w3.org/2000/svg" x="0mm" y="10mm" width="1mm" height="1mm"/><svg:rect xmlns:svg="http://www.w3.org/2000/svg" x="1mm" y="10mm" width="1mm" height="1mm"/><svg:rect xmlns:svg="http://www.w3.org/2000/svg" x="2mm" y="10mm" width="1mm" height="1mm"/><svg:rect xmlns:svg="http://www.w3.org/2000/svg" x="3mm" y="10mm" width="1mm" height="1mm"/><svg:rect xmlns:svg="http://www.w3.org/2000/svg" x="4mm" y="10mm" width="1mm" height="1mm"/><svg:rect xmlns:svg="http://www.w3.org/2000/svg" x="6mm" y="10mm" width="1mm" height="1mm"/><svg:rect xmlns:svg="http://www.w3.org/2000/svg" x="7mm" y="10mm" width="1mm" height="1mm"/><svg:rect xmlns:svg="http://www.w3.org/2000/svg" x="8mm" y="10mm" width="1mm" height="1mm"/><svg:rect xmlns:svg="http://www.w3.org/2000/svg" x="9mm" y="10mm" width="1mm" height="1mm"/><svg:rect xmlns:svg="http://www.w3.org/2000/svg" x="10mm" y="10mm" width="1mm" height="1mm"/><svg:rect xmlns:svg="http://www.w3.org/2000/svg" x="14mm" y="10mm" width="1mm" height="1mm"/><svg:rect xmlns:svg="http://www.w3.org/2000/svg" x="19mm" y="10mm" width="1mm" height="1mm"/><svg:rect xmlns:svg="http://www.w3.org/2000/svg" x="21mm" y="10mm" width="1mm" height="1mm"/><svg:rect xmlns:svg="http://www.w3.org/2000/svg" x="25mm" y="10mm" width="1mm" height="1mm"/><svg:rect xmlns:svg="http://www.w3.org/2000/svg" x="26mm" y="10mm" width="1mm" height="1mm"/><svg:rect xmlns:svg="http://www.w3.org/2000/svg" x="27mm" y="10mm" width="1mm" height="1mm"/><svg:rect xmlns:svg="http://www.w3.org/2000/svg" x="1mm" y="11mm" width="1mm" height="1mm"/><svg:rect xmlns:svg="http://www.w3.org/2000/svg" x="3mm" y="11mm" width="1mm" height="1mm"/><svg:rect xmlns:svg="http://www.w3.org/2000/svg" x="5mm" y="11mm" width="1mm" height="1mm"/><svg:rect xmlns:svg="http://www.w3.org/2000/svg" x="13mm" y="11mm" width="1mm" height="1mm"/><svg:rect xmlns:svg="http://www.w3.org/2000/svg" x="19mm" y="11mm" width="1mm" height="1mm"/><svg:rect xmlns:svg="http://www.w3.org/2000/svg" x="22mm" y="11mm" width="1mm" height="1mm"/><svg:rect xmlns:svg="http://www.w3.org/2000/svg" x="23mm" y="11mm" width="1mm" height="1mm"/><svg:rect xmlns:svg="http://www.w3.org/2000/svg" x="24mm" y="11mm" width="1mm" height="1mm"/><svg:rect xmlns:svg="http://www.w3.org/2000/svg" x="26mm" y="11mm" width="1mm" height="1mm"/><svg:rect xmlns:svg="http://www.w3.org/2000/svg" x="27mm" y="11mm" width="1mm" height="1mm"/><svg:rect xmlns:svg="http://www.w3.org/2000/svg" x="0mm" y="12mm" width="1mm" height="1mm"/><svg:rect xmlns:svg="http://www.w3.org/2000/svg" x="6mm" y="12mm" width="1mm" height="1mm"/><svg:rect xmlns:svg="http://www.w3.org/2000/svg" x="7mm" y="12mm" width="1mm" height="1mm"/><svg:rect xmlns:svg="http://www.w3.org/2000/svg" x="12mm" y="12mm" width="1mm" height="1mm"/><svg:rect xmlns:svg="http://www.w3.org/2000/svg" x="13mm" y="12mm" width="1mm" height="1mm"/><svg:rect xmlns:svg="http://www.w3.org/2000/svg" x="17mm" y="12mm" width="1mm" height="1mm"/><svg:rect xmlns:svg="http://www.w3.org/2000/svg" x="18mm" y="12mm" width="1mm" height="1mm"/><svg:rect xmlns:svg="http://www.w3.org/2000/svg" x="19mm" y="12mm" width="1mm" height="1mm"/><svg:rect xmlns:svg="http://www.w3.org/2000/svg" x="20mm" y="12mm" width="1mm" height="1mm"/><svg:rect xmlns:svg="http://www.w3.org/2000/svg" x="21mm" y="12mm" width="1mm" height="1mm"/><svg:rect xmlns:svg="http://www.w3.org/2000/svg" x="22mm" y="12mm" width="1mm" height="1mm"/><svg:rect xmlns:svg="http://www.w3.org/2000/svg" x="25mm" y="12mm" width="1mm" height="1mm"/><svg:rect xmlns:svg="http://www.w3.org/2000/svg" x="27mm" y="12mm" width="1mm" height="1mm"/><svg:rect xmlns:svg="http://www.w3.org/2000/svg" x="28mm" y="12mm" width="1mm" height="1mm"/><svg:rect xmlns:svg="http://www.w3.org/2000/svg" x="2mm" y="13mm" width="1mm" height="1mm"/><svg:rect xmlns:svg="http://www.w3.org/2000/svg" x="5mm" y="13mm" width="1mm" height="1mm"/><svg:rect xmlns:svg="http://www.w3.org/2000/svg" x="7mm" y="13mm" width="1mm" height="1mm"/><svg:rect xmlns:svg="http://www.w3.org/2000/svg" x="9mm" y="13mm" width="1mm" height="1mm"/><svg:rect xmlns:svg="http://www.w3.org/2000/svg" x="10mm" y="13mm" width="1mm" height="1mm"/><svg:rect xmlns:svg="http://www.w3.org/2000/svg" x="11mm" y="13mm" width="1mm" height="1mm"/><svg:rect xmlns:svg="http://www.w3.org/2000/svg" x="12mm" y="13mm" width="1mm" height="1mm"/><svg:rect xmlns:svg="http://www.w3.org/2000/svg" x="14mm" y="13mm" width="1mm" height="1mm"/><svg:rect xmlns:svg="http://www.w3.org/2000/svg" x="19mm" y="13mm" width="1mm" height="1mm"/><svg:rect xmlns:svg="http://www.w3.org/2000/svg" x="20mm" y="13mm" width="1mm" height="1mm"/><svg:rect xmlns:svg="http://www.w3.org/2000/svg" x="21mm" y="13mm" width="1mm" height="1mm"/><svg:rect xmlns:svg="http://www.w3.org/2000/svg" x="23mm" y="13mm" width="1mm" height="1mm"/><svg:rect xmlns:svg="http://www.w3.org/2000/svg" x="0mm" y="14mm" width="1mm" height="1mm"/><svg:rect xmlns:svg="http://www.w3.org/2000/svg" x="1mm" y="14mm" width="1mm" height="1mm"/><svg:rect xmlns:svg="http://www.w3.org/2000/svg" x="3mm" y="14mm" width="1mm" height="1mm"/><svg:rect xmlns:svg="http://www.w3.org/2000/svg" x="5mm" y="14mm" width="1mm" height="1mm"/><svg:rect xmlns:svg="http://www.w3.org/2000/svg" x="6mm" y="14mm" width="1mm" height="1mm"/><svg:rect xmlns:svg="http://www.w3.org/2000/svg" x="9mm" y="14mm" width="1mm" height="1mm"/><svg:rect xmlns:svg="http://www.w3.org/2000/svg" x="10mm" y="14mm" width="1mm" height="1mm"/><svg:rect xmlns:svg="http://www.w3.org/2000/svg" x="12mm" y="14mm" width="1mm" height="1mm"/><svg:rect xmlns:svg="http://www.w3.org/2000/svg" x="14mm" y="14mm" width="1mm" height="1mm"/><svg:rect xmlns:svg="http://www.w3.org/2000/svg" x="17mm" y="14mm" width="1mm" height="1mm"/><svg:rect xmlns:svg="http://www.w3.org/2000/svg" x="20mm" y="14mm" width="1mm" height="1mm"/><svg:rect xmlns:svg="http://www.w3.org/2000/svg" x="21mm" y="14mm" width="1mm" height="1mm"/><svg:rect xmlns:svg="http://www.w3.org/2000/svg" x="25mm" y="14mm" width="1mm" height="1mm"/><svg:rect xmlns:svg="http://www.w3.org/2000/svg" x="26mm" y="14mm" width="1mm" height="1mm"/><svg:rect xmlns:svg="http://www.w3.org/2000/svg" x="27mm" y="14mm" width="1mm" height="1mm"/><svg:rect xmlns:svg="http://www.w3.org/2000/svg" x="28mm" y="14mm" width="1mm" height="1mm"/><svg:rect xmlns:svg="http://www.w3.org/2000/svg" x="0mm" y="15mm" width="1mm" height="1mm"/><svg:rect xmlns:svg="http://www.w3.org/2000/svg" x="2mm" y="15mm" width="1mm" height="1mm"/><svg:rect xmlns:svg="http://www.w3.org/2000/svg" x="3mm" y="15mm" width="1mm" height="1mm"/><svg:rect xmlns:svg="http://www.w3.org/2000/svg" x="5mm" y="15mm" width="1mm" height="1mm"/><svg:rect xmlns:svg="http://www.w3.org/2000/svg" x="8mm" y="15mm" width="1mm" height="1mm"/><svg:rect xmlns:svg="http://www.w3.org/2000/svg" x="9mm" y="15mm" width="1mm" height="1mm"/><svg:rect xmlns:svg="http://www.w3.org/2000/svg" x="10mm" y="15mm" width="1mm" height="1mm"/><svg:rect xmlns:svg="http://www.w3.org/2000/svg" x="12mm" y="15mm" width="1mm" height="1mm"/><svg:rect xmlns:svg="http://www.w3.org/2000/svg" x="13mm" y="15mm" width="1mm" height="1mm"/><svg:rect xmlns:svg="http://www.w3.org/2000/svg" x="14mm" y="15mm" width="1mm" height="1mm"/><svg:rect xmlns:svg="http://www.w3.org/2000/svg" x="15mm" y="15mm" width="1mm" height="1mm"/><svg:rect xmlns:svg="http://www.w3.org/2000/svg" x="16mm" y="15mm" width="1mm" height="1mm"/><svg:rect xmlns:svg="http://www.w3.org/2000/svg" x="17mm" y="15mm" width="1mm" height="1mm"/><svg:rect xmlns:svg="http://www.w3.org/2000/svg" x="18mm" y="15mm" width="1mm" height="1mm"/><svg:rect xmlns:svg="http://www.w3.org/2000/svg" x="20mm" y="15mm" width="1mm" height="1mm"/><svg:rect xmlns:svg="http://www.w3.org/2000/svg" x="22mm" y="15mm" width="1mm" height="1mm"/><svg:rect xmlns:svg="http://www.w3.org/2000/svg" x="25mm" y="15mm" width="1mm" height="1mm"/><svg:rect xmlns:svg="http://www.w3.org/2000/svg" x="27mm" y="15mm" width="1mm" height="1mm"/><svg:rect xmlns:svg="http://www.w3.org/2000/svg" x="4mm" y="16mm" width="1mm" height="1mm"/><svg:rect xmlns:svg="http://www.w3.org/2000/svg" x="5mm" y="16mm" width="1mm" height="1mm"/><svg:rect xmlns:svg="http://www.w3.org/2000/svg" x="6mm" y="16mm" width="1mm" height="1mm"/><svg:rect xmlns:svg="http://www.w3.org/2000/svg" x="7mm" y="16mm" width="1mm" height="1mm"/><svg:rect xmlns:svg="http://www.w3.org/2000/svg" x="8mm" y="16mm" width="1mm" height="1mm"/><svg:rect xmlns:svg="http://www.w3.org/2000/svg" x="11mm" y="16mm" width="1mm" height="1mm"/><svg:rect xmlns:svg="http://www.w3.org/2000/svg" x="12mm" y="16mm" width="1mm" height="1mm"/><svg:rect xmlns:svg="http://www.w3.org/2000/svg" x="17mm" y="16mm" width="1mm" height="1mm"/><svg:rect xmlns:svg="http://www.w3.org/2000/svg" x="20mm" y="16mm" width="1mm" height="1mm"/><svg:rect xmlns:svg="http://www.w3.org/2000/svg" x="21mm" y="16mm" width="1mm" height="1mm"/><svg:rect xmlns:svg="http://www.w3.org/2000/svg" x="23mm" y="16mm" width="1mm" height="1mm"/><svg:rect xmlns:svg="http://www.w3.org/2000/svg" x="27mm" y="16mm" width="1mm" height="1mm"/><svg:rect xmlns:svg="http://www.w3.org/2000/svg" x="2mm" y="17mm" width="1mm" height="1mm"/><svg:rect xmlns:svg="http://www.w3.org/2000/svg" x="4mm" y="17mm" width="1mm" height="1mm"/><svg:rect xmlns:svg="http://www.w3.org/2000/svg" x="7mm" y="17mm" width="1mm" height="1mm"/><svg:rect xmlns:svg="http://www.w3.org/2000/svg" x="8mm" y="17mm" width="1mm" height="1mm"/><svg:rect xmlns:svg="http://www.w3.org/2000/svg" x="10mm" y="17mm" width="1mm" height="1mm"/><svg:rect xmlns:svg="http://www.w3.org/2000/svg" x="14mm" y="17mm" width="1mm" height="1mm"/><svg:rect xmlns:svg="http://www.w3.org/2000/svg" x="16mm" y="17mm" width="1mm" height="1mm"/><svg:rect xmlns:svg="http://www.w3.org/2000/svg" x="20mm" y="17mm" width="1mm" height="1mm"/><svg:rect xmlns:svg="http://www.w3.org/2000/svg" x="22mm" y="17mm" width="1mm" height="1mm"/><svg:rect xmlns:svg="http://www.w3.org/2000/svg" x="23mm" y="17mm" width="1mm" height="1mm"/><svg:rect xmlns:svg="http://www.w3.org/2000/svg" x="25mm" y="17mm" width="1mm" height="1mm"/><svg:rect xmlns:svg="http://www.w3.org/2000/svg" x="28mm" y="17mm" width="1mm" height="1mm"/><svg:rect xmlns:svg="http://www.w3.org/2000/svg" x="0mm" y="18mm" width="1mm" height="1mm"/><svg:rect xmlns:svg="http://www.w3.org/2000/svg" x="4mm" y="18mm" width="1mm" height="1mm"/><svg:rect xmlns:svg="http://www.w3.org/2000/svg" x="6mm" y="18mm" width="1mm" height="1mm"/><svg:rect xmlns:svg="http://www.w3.org/2000/svg" x="7mm" y="18mm" width="1mm" height="1mm"/><svg:rect xmlns:svg="http://www.w3.org/2000/svg" x="10mm" y="18mm" width="1mm" height="1mm"/><svg:rect xmlns:svg="http://www.w3.org/2000/svg" x="17mm" y="18mm" width="1mm" height="1mm"/><svg:rect xmlns:svg="http://www.w3.org/2000/svg" x="18mm" y="18mm" width="1mm" height="1mm"/><svg:rect xmlns:svg="http://www.w3.org/2000/svg" x="20mm" y="18mm" width="1mm" height="1mm"/><svg:rect xmlns:svg="http://www.w3.org/2000/svg" x="21mm" y="18mm" width="1mm" height="1mm"/><svg:rect xmlns:svg="http://www.w3.org/2000/svg" x="22mm" y="18mm" width="1mm" height="1mm"/><svg:rect xmlns:svg="http://www.w3.org/2000/svg" x="23mm" y="18mm" width="1mm" height="1mm"/><svg:rect xmlns:svg="http://www.w3.org/2000/svg" x="27mm" y="18mm" width="1mm" height="1mm"/><svg:rect xmlns:svg="http://www.w3.org/2000/svg" x="28mm" y="18mm" width="1mm" height="1mm"/><svg:rect xmlns:svg="http://www.w3.org/2000/svg" x="3mm" y="19mm" width="1mm" height="1mm"/><svg:rect xmlns:svg="http://www.w3.org/2000/svg" x="4mm" y="19mm" width="1mm" height="1mm"/><svg:rect xmlns:svg="http://www.w3.org/2000/svg" x="7mm" y="19mm" width="1mm" height="1mm"/><svg:rect xmlns:svg="http://www.w3.org/2000/svg" x="8mm" y="19mm" width="1mm" height="1mm"/><svg:rect xmlns:svg="http://www.w3.org/2000/svg" x="9mm" y="19mm" width="1mm" height="1mm"/><svg:rect xmlns:svg="http://www.w3.org/2000/svg" x="10mm" y="19mm" width="1mm" height="1mm"/><svg:rect xmlns:svg="http://www.w3.org/2000/svg" x="14mm" y="19mm" width="1mm" height="1mm"/><svg:rect xmlns:svg="http://www.w3.org/2000/svg" x="15mm" y="19mm" width="1mm" height="1mm"/><svg:rect xmlns:svg="http://www.w3.org/2000/svg" x="17mm" y="19mm" width="1mm" height="1mm"/><svg:rect xmlns:svg="http://www.w3.org/2000/svg" x="19mm" y="19mm" width="1mm" height="1mm"/><svg:rect xmlns:svg="http://www.w3.org/2000/svg" x="21mm" y="19mm" width="1mm" height="1mm"/><svg:rect xmlns:svg="http://www.w3.org/2000/svg" x="27mm" y="19mm" width="1mm" height="1mm"/><svg:rect xmlns:svg="http://www.w3.org/2000/svg" x="28mm" y="19mm" width="1mm" height="1mm"/><svg:rect xmlns:svg="http://www.w3.org/2000/svg" x="0mm" y="20mm" width="1mm" height="1mm"/><svg:rect xmlns:svg="http://www.w3.org/2000/svg" x="2mm" y="20mm" width="1mm" height="1mm"/><svg:rect xmlns:svg="http://www.w3.org/2000/svg" x="3mm" y="20mm" width="1mm" height="1mm"/><svg:rect xmlns:svg="http://www.w3.org/2000/svg" x="6mm" y="20mm" width="1mm" height="1mm"/><svg:rect xmlns:svg="http://www.w3.org/2000/svg" x="8mm" y="20mm" width="1mm" height="1mm"/><svg:rect xmlns:svg="http://www.w3.org/2000/svg" x="10mm" y="20mm" width="1mm" height="1mm"/><svg:rect xmlns:svg="http://www.w3.org/2000/svg" x="11mm" y="20mm" width="1mm" height="1mm"/><svg:rect xmlns:svg="http://www.w3.org/2000/svg" x="13mm" y="20mm" width="1mm" height="1mm"/><svg:rect xmlns:svg="http://www.w3.org/2000/svg" x="14mm" y="20mm" width="1mm" height="1mm"/><svg:rect xmlns:svg="http://www.w3.org/2000/svg" x="16mm" y="20mm" width="1mm" height="1mm"/><svg:rect xmlns:svg="http://www.w3.org/2000/svg" x="20mm" y="20mm" width="1mm" height="1mm"/><svg:rect xmlns:svg="http://www.w3.org/2000/svg" x="21mm" y="20mm" width="1mm" height="1mm"/><svg:rect xmlns:svg="http://www.w3.org/2000/svg" x="22mm" y="20mm" width="1mm" height="1mm"/><svg:rect xmlns:svg="http://www.w3.org/2000/svg" x="23mm" y="20mm" width="1mm" height="1mm"/><svg:rect xmlns:svg="http://www.w3.org/2000/svg" x="24mm" y="20mm" width="1mm" height="1mm"/><svg:rect xmlns:svg="http://www.w3.org/2000/svg" x="26mm" y="20mm" width="1mm" height="1mm"/><svg:rect xmlns:svg="http://www.w3.org/2000/svg" x="8mm" y="21mm" width="1mm" height="1mm"/><svg:rect xmlns:svg="http://www.w3.org/2000/svg" x="9mm" y="21mm" width="1mm" height="1mm"/><svg:rect xmlns:svg="http://www.w3.org/2000/svg" x="10mm" y="21mm" width="1mm" height="1mm"/><svg:rect xmlns:svg="http://www.w3.org/2000/svg" x="12mm" y="21mm" width="1mm" height="1mm"/><svg:rect xmlns:svg="http://www.w3.org/2000/svg" x="13mm" y="21mm" width="1mm" height="1mm"/><svg:rect xmlns:svg="http://www.w3.org/2000/svg" x="16mm" y="21mm" width="1mm" height="1mm"/><svg:rect xmlns:svg="http://www.w3.org/2000/svg" x="17mm" y="21mm" width="1mm" height="1mm"/><svg:rect xmlns:svg="http://www.w3.org/2000/svg" x="18mm" y="21mm" width="1mm" height="1mm"/><svg:rect xmlns:svg="http://www.w3.org/2000/svg" x="20mm" y="21mm" width="1mm" height="1mm"/><svg:rect xmlns:svg="http://www.w3.org/2000/svg" x="24mm" y="21mm" width="1mm" height="1mm"/><svg:rect xmlns:svg="http://www.w3.org/2000/svg" x="26mm" y="21mm" width="1mm" height="1mm"/><svg:rect xmlns:svg="http://www.w3.org/2000/svg" x="27mm" y="21mm" width="1mm" height="1mm"/><svg:rect xmlns:svg="http://www.w3.org/2000/svg" x="28mm" y="21mm" width="1mm" height="1mm"/><svg:rect xmlns:svg="http://www.w3.org/2000/svg" x="0mm" y="22mm" width="1mm" height="1mm"/><svg:rect xmlns:svg="http://www.w3.org/2000/svg" x="1mm" y="22mm" width="1mm" height="1mm"/><svg:rect xmlns:svg="http://www.w3.org/2000/svg" x="2mm" y="22mm" width="1mm" height="1mm"/><svg:rect xmlns:svg="http://www.w3.org/2000/svg" x="3mm" y="22mm" width="1mm" height="1mm"/><svg:rect xmlns:svg="http://www.w3.org/2000/svg" x="4mm" y="22mm" width="1mm" height="1mm"/><svg:rect xmlns:svg="http://www.w3.org/2000/svg" x="5mm" y="22mm" width="1mm" height="1mm"/><svg:rect xmlns:svg="http://www.w3.org/2000/svg" x="6mm" y="22mm" width="1mm" height="1mm"/><svg:rect xmlns:svg="http://www.w3.org/2000/svg" x="8mm" y="22mm" width="1mm" height="1mm"/><svg:rect xmlns:svg="http://www.w3.org/2000/svg" x="9mm" y="22mm" width="1mm" height="1mm"/><svg:rect xmlns:svg="http://www.w3.org/2000/svg" x="10mm" y="22mm" width="1mm" height="1mm"/><svg:rect xmlns:svg="http://www.w3.org/2000/svg" x="13mm" y="22mm" width="1mm" height="1mm"/><svg:rect xmlns:svg="http://www.w3.org/2000/svg" x="17mm" y="22mm" width="1mm" height="1mm"/><svg:rect xmlns:svg="http://www.w3.org/2000/svg" x="18mm" y="22mm" width="1mm" height="1mm"/><svg:rect xmlns:svg="http://www.w3.org/2000/svg" x="20mm" y="22mm" width="1mm" height="1mm"/><svg:rect xmlns:svg="http://www.w3.org/2000/svg" x="22mm" y="22mm" width="1mm" height="1mm"/><svg:rect xmlns:svg="http://www.w3.org/2000/svg" x="24mm" y="22mm" width="1mm" height="1mm"/><svg:rect xmlns:svg="http://www.w3.org/2000/svg" x="27mm" y="22mm" width="1mm" height="1mm"/><svg:rect xmlns:svg="http://www.w3.org/2000/svg" x="0mm" y="23mm" width="1mm" height="1mm"/><svg:rect xmlns:svg="http://www.w3.org/2000/svg" x="6mm" y="23mm" width="1mm" height="1mm"/><svg:rect xmlns:svg="http://www.w3.org/2000/svg" x="11mm" y="23mm" width="1mm" height="1mm"/><svg:rect xmlns:svg="http://www.w3.org/2000/svg" x="12mm" y="23mm" width="1mm" height="1mm"/><svg:rect xmlns:svg="http://www.w3.org/2000/svg" x="13mm" y="23mm" width="1mm" height="1mm"/><svg:rect xmlns:svg="http://www.w3.org/2000/svg" x="16mm" y="23mm" width="1mm" height="1mm"/><svg:rect xmlns:svg="http://www.w3.org/2000/svg" x="20mm" y="23mm" width="1mm" height="1mm"/><svg:rect xmlns:svg="http://www.w3.org/2000/svg" x="24mm" y="23mm" width="1mm" height="1mm"/><svg:rect xmlns:svg="http://www.w3.org/2000/svg" x="25mm" y="23mm" width="1mm" height="1mm"/><svg:rect xmlns:svg="http://www.w3.org/2000/svg" x="26mm" y="23mm" width="1mm" height="1mm"/><svg:rect xmlns:svg="http://www.w3.org/2000/svg" x="27mm" y="23mm" width="1mm" height="1mm"/><svg:rect xmlns:svg="http://www.w3.org/2000/svg" x="28mm" y="23mm" width="1mm" height="1mm"/><svg:rect xmlns:svg="http://www.w3.org/2000/svg" x="0mm" y="24mm" width="1mm" height="1mm"/><svg:rect xmlns:svg="http://www.w3.org/2000/svg" x="2mm" y="24mm" width="1mm" height="1mm"/><svg:rect xmlns:svg="http://www.w3.org/2000/svg" x="3mm" y="24mm" width="1mm" height="1mm"/><svg:rect xmlns:svg="http://www.w3.org/2000/svg" x="4mm" y="24mm" width="1mm" height="1mm"/><svg:rect xmlns:svg="http://www.w3.org/2000/svg" x="6mm" y="24mm" width="1mm" height="1mm"/><svg:rect xmlns:svg="http://www.w3.org/2000/svg" x="9mm" y="24mm" width="1mm" height="1mm"/><svg:rect xmlns:svg="http://www.w3.org/2000/svg" x="11mm" y="24mm" width="1mm" height="1mm"/><svg:rect xmlns:svg="http://www.w3.org/2000/svg" x="12mm" y="24mm" width="1mm" height="1mm"/><svg:rect xmlns:svg="http://www.w3.org/2000/svg" x="13mm" y="24mm" width="1mm" height="1mm"/><svg:rect xmlns:svg="http://www.w3.org/2000/svg" x="15mm" y="24mm" width="1mm" height="1mm"/><svg:rect xmlns:svg="http://www.w3.org/2000/svg" x="16mm" y="24mm" width="1mm" height="1mm"/><svg:rect xmlns:svg="http://www.w3.org/2000/svg" x="17mm" y="24mm" width="1mm" height="1mm"/><svg:rect xmlns:svg="http://www.w3.org/2000/svg" x="18mm" y="24mm" width="1mm" height="1mm"/><svg:rect xmlns:svg="http://www.w3.org/2000/svg" x="20mm" y="24mm" width="1mm" height="1mm"/><svg:rect xmlns:svg="http://www.w3.org/2000/svg" x="21mm" y="24mm" width="1mm" height="1mm"/><svg:rect xmlns:svg="http://www.w3.org/2000/svg" x="22mm" y="24mm" width="1mm" height="1mm"/><svg:rect xmlns:svg="http://www.w3.org/2000/svg" x="23mm" y="24mm" width="1mm" height="1mm"/><svg:rect xmlns:svg="http://www.w3.org/2000/svg" x="24mm" y="24mm" width="1mm" height="1mm"/><svg:rect xmlns:svg="http://www.w3.org/2000/svg" x="27mm" y="24mm" width="1mm" height="1mm"/><svg:rect xmlns:svg="http://www.w3.org/2000/svg" x="0mm" y="25mm" width="1mm" height="1mm"/><svg:rect xmlns:svg="http://www.w3.org/2000/svg" x="2mm" y="25mm" width="1mm" height="1mm"/><svg:rect xmlns:svg="http://www.w3.org/2000/svg" x="3mm" y="25mm" width="1mm" height="1mm"/><svg:rect xmlns:svg="http://www.w3.org/2000/svg" x="4mm" y="25mm" width="1mm" height="1mm"/><svg:rect xmlns:svg="http://www.w3.org/2000/svg" x="6mm" y="25mm" width="1mm" height="1mm"/><svg:rect xmlns:svg="http://www.w3.org/2000/svg" x="8mm" y="25mm" width="1mm" height="1mm"/><svg:rect xmlns:svg="http://www.w3.org/2000/svg" x="9mm" y="25mm" width="1mm" height="1mm"/><svg:rect xmlns:svg="http://www.w3.org/2000/svg" x="12mm" y="25mm" width="1mm" height="1mm"/><svg:rect xmlns:svg="http://www.w3.org/2000/svg" x="13mm" y="25mm" width="1mm" height="1mm"/><svg:rect xmlns:svg="http://www.w3.org/2000/svg" x="20mm" y="25mm" width="1mm" height="1mm"/><svg:rect xmlns:svg="http://www.w3.org/2000/svg" x="21mm" y="25mm" width="1mm" height="1mm"/><svg:rect xmlns:svg="http://www.w3.org/2000/svg" x="22mm" y="25mm" width="1mm" height="1mm"/><svg:rect xmlns:svg="http://www.w3.org/2000/svg" x="24mm" y="25mm" width="1mm" height="1mm"/><svg:rect xmlns:svg="http://www.w3.org/2000/svg" x="25mm" y="25mm" width="1mm" height="1mm"/><svg:rect xmlns:svg="http://www.w3.org/2000/svg" x="26mm" y="25mm" width="1mm" height="1mm"/><svg:rect xmlns:svg="http://www.w3.org/2000/svg" x="27mm" y="25mm" width="1mm" height="1mm"/><svg:rect xmlns:svg="http://www.w3.org/2000/svg" x="0mm" y="26mm" width="1mm" height="1mm"/><svg:rect xmlns:svg="http://www.w3.org/2000/svg" x="2mm" y="26mm" width="1mm" height="1mm"/><svg:rect xmlns:svg="http://www.w3.org/2000/svg" x="3mm" y="26mm" width="1mm" height="1mm"/><svg:rect xmlns:svg="http://www.w3.org/2000/svg" x="4mm" y="26mm" width="1mm" height="1mm"/><svg:rect xmlns:svg="http://www.w3.org/2000/svg" x="6mm" y="26mm" width="1mm" height="1mm"/><svg:rect xmlns:svg="http://www.w3.org/2000/svg" x="10mm" y="26mm" width="1mm" height="1mm"/><svg:rect xmlns:svg="http://www.w3.org/2000/svg" x="11mm" y="26mm" width="1mm" height="1mm"/><svg:rect xmlns:svg="http://www.w3.org/2000/svg" x="12mm" y="26mm" width="1mm" height="1mm"/><svg:rect xmlns:svg="http://www.w3.org/2000/svg" x="13mm" y="26mm" width="1mm" height="1mm"/><svg:rect xmlns:svg="http://www.w3.org/2000/svg" x="14mm" y="26mm" width="1mm" height="1mm"/><svg:rect xmlns:svg="http://www.w3.org/2000/svg" x="16mm" y="26mm" width="1mm" height="1mm"/><svg:rect xmlns:svg="http://www.w3.org/2000/svg" x="24mm" y="26mm" width="1mm" height="1mm"/><svg:rect xmlns:svg="http://www.w3.org/2000/svg" x="25mm" y="26mm" width="1mm" height="1mm"/><svg:rect xmlns:svg="http://www.w3.org/2000/svg" x="26mm" y="26mm" width="1mm" height="1mm"/><svg:rect xmlns:svg="http://www.w3.org/2000/svg" x="28mm" y="26mm" width="1mm" height="1mm"/><svg:rect xmlns:svg="http://www.w3.org/2000/svg" x="0mm" y="27mm" width="1mm" height="1mm"/><svg:rect xmlns:svg="http://www.w3.org/2000/svg" x="6mm" y="27mm" width="1mm" height="1mm"/><svg:rect xmlns:svg="http://www.w3.org/2000/svg" x="8mm" y="27mm" width="1mm" height="1mm"/><svg:rect xmlns:svg="http://www.w3.org/2000/svg" x="9mm" y="27mm" width="1mm" height="1mm"/><svg:rect xmlns:svg="http://www.w3.org/2000/svg" x="11mm" y="27mm" width="1mm" height="1mm"/><svg:rect xmlns:svg="http://www.w3.org/2000/svg" x="12mm" y="27mm" width="1mm" height="1mm"/><svg:rect xmlns:svg="http://www.w3.org/2000/svg" x="13mm" y="27mm" width="1mm" height="1mm"/><svg:rect xmlns:svg="http://www.w3.org/2000/svg" x="15mm" y="27mm" width="1mm" height="1mm"/><svg:rect xmlns:svg="http://www.w3.org/2000/svg" x="17mm" y="27mm" width="1mm" height="1mm"/><svg:rect xmlns:svg="http://www.w3.org/2000/svg" x="18mm" y="27mm" width="1mm" height="1mm"/><svg:rect xmlns:svg="http://www.w3.org/2000/svg" x="19mm" y="27mm" width="1mm" height="1mm"/><svg:rect xmlns:svg="http://www.w3.org/2000/svg" x="20mm" y="27mm" width="1mm" height="1mm"/><svg:rect xmlns:svg="http://www.w3.org/2000/svg" x="22mm" y="27mm" width="1mm" height="1mm"/><svg:rect xmlns:svg="http://www.w3.org/2000/svg" x="24mm" y="27mm" width="1mm" height="1mm"/><svg:rect xmlns:svg="http://www.w3.org/2000/svg" x="27mm" y="27mm" width="1mm" height="1mm"/><svg:rect xmlns:svg="http://www.w3.org/2000/svg" x="0mm" y="28mm" width="1mm" height="1mm"/><svg:rect xmlns:svg="http://www.w3.org/2000/svg" x="1mm" y="28mm" width="1mm" height="1mm"/><svg:rect xmlns:svg="http://www.w3.org/2000/svg" x="2mm" y="28mm" width="1mm" height="1mm"/><svg:rect xmlns:svg="http://www.w3.org/2000/svg" x="3mm" y="28mm" width="1mm" height="1mm"/><svg:rect xmlns:svg="http://www.w3.org/2000/svg" x="4mm" y="28mm" width="1mm" height="1mm"/><svg:rect xmlns:svg="http://www.w3.org/2000/svg" x="5mm" y="28mm" width="1mm" height="1mm"/><svg:rect xmlns:svg="http://www.w3.org/2000/svg" x="6mm" y="28mm" width="1mm" height="1mm"/><svg:rect xmlns:svg="http://www.w3.org/2000/svg" x="8mm" y="28mm" width="1mm" height="1mm"/><svg:rect xmlns:svg="http://www.w3.org/2000/svg" x="9mm" y="28mm" width="1mm" height="1mm"/><svg:rect xmlns:svg="http://www.w3.org/2000/svg" x="10mm" y="28mm" width="1mm" height="1mm"/><svg:rect xmlns:svg="http://www.w3.org/2000/svg" x="16mm" y="28mm" width="1mm" height="1mm"/><svg:rect xmlns:svg="http://www.w3.org/2000/svg" x="17mm" y="28mm" width="1mm" height="1mm"/><svg:rect xmlns:svg="http://www.w3.org/2000/svg" x="20mm" y="28mm" width="1mm" height="1mm"/><svg:rect xmlns:svg="http://www.w3.org/2000/svg" x="22mm" y="28mm" width="1mm" height="1mm"/><svg:rect xmlns:svg="http://www.w3.org/2000/svg" x="23mm" y="28mm" width="1mm" height="1mm"/><svg:rect xmlns:svg="http://www.w3.org/2000/svg" x="24mm" y="28mm" width="1mm" height="1mm"/><svg:rect xmlns:svg="http://www.w3.org/2000/svg" x="27mm" y="28mm" width="1mm" height="1mm"/></svg>