<svg width="794" height="74" viewBox="0 0 794 74" fill="none" xmlns="http://www.w3.org/2000/svg">
<g clip-path="url(#clip0_1383_13961)">
<g clip-path="url(#clip1_1383_13961)">
<path d="M794 0L0 0L0 447L794 447V0Z" fill="white"/>
<path d="M794 0L0 0L0 447L794 447V0Z" fill="#F9C620"/>
<path d="M0 0L0 447H403.865L138.206 0L0 0Z" fill="white"/>
<path d="M794 0L557.496 0V91.7178L794 91.7178V0Z" fill="white"/>
<mask id="mask0_1383_13961" style="mask-type:luminance" maskUnits="userSpaceOnUse" x="0" y="0" width="794" height="447">
<path d="M794 0L0 0L0 447L794 447V0Z" fill="white"/>
</mask>
<g mask="url(#mask0_1383_13961)">
<path d="M485.787 -157.691C401.673 -157.691 333.521 -89.4411 333.521 -5.2975C333.521 78.8461 401.714 147.096 485.787 147.096H557.496V-157.691H485.787Z" fill="#008F00"/>
</g>
</g>
</g>
<defs>
<clipPath id="clip0_1383_13961">
<rect width="794" height="74" fill="white"/>
</clipPath>
<clipPath id="clip1_1383_13961">
<rect width="794" height="447" fill="white"/>
</clipPath>
</defs>
</svg>
